<?xml version="1.0" encoding="utf-8"?>
<!-- Generator: Adobe Illustrator 21.0.0, SVG Export Plug-In . SVG Version: 6.00 Build 0)  -->
<svg version="1.0" id="图层_1" xmlns="http://www.w3.org/2000/svg" xmlns:xlink="http://www.w3.org/1999/xlink" x="0px" y="0px"
	 viewBox="0 0 230 130" enable-background="new 0 0 230 130" xml:space="preserve">
<g>
	<circle fill="#63D18C" stroke="#1077F8" stroke-width="1.6567" stroke-miterlimit="10" cx="138.02" cy="104.216" r="5.936"/>
	<path fill="#AFCDF9" stroke="#1077F8" stroke-width="1.2387" stroke-miterlimit="10" d="M158.921,112.914L158.921,112.914
		c-1.565,0-2.845-1.28-2.845-2.845V98.364c0-1.565,1.28-2.845,2.845-2.845l0,0c1.565,0,2.845,1.28,2.845,2.845v11.705
		C161.766,111.633,160.485,112.914,158.921,112.914z"/>
	<circle fill="#63D18C" stroke="#1077F8" stroke-width="1.6567" stroke-miterlimit="10" cx="138.02" cy="66.91" r="5.936"/>
	<path fill="#AFCDF9" stroke="#1077F8" stroke-width="1.2387" stroke-miterlimit="10" d="M158.921,75.608L158.921,75.608
		c-1.565,0-2.845-1.28-2.845-2.845V61.058c0-1.565,1.28-2.845,2.845-2.845l0,0c1.565,0,2.845,1.28,2.845,2.845v11.705
		C161.766,74.327,160.485,75.608,158.921,75.608z"/>
	<circle fill="#63D18C" stroke="#1077F8" stroke-width="1.6567" stroke-miterlimit="10" cx="138.02" cy="29.604" r="5.936"/>
	<g opacity="0.5">
		<path fill="#AFCDF9" stroke="#1077F8" stroke-width="2" stroke-miterlimit="10" d="M208.123,108.946H141.19c-6.6,0-12-5.4-12-12
			V43.123c0-6.6,5.4-12,12-12h66.933c6.6,0,12,5.4,12,12v53.824C220.123,103.546,214.723,108.946,208.123,108.946z"/>
		<path fill="#FFFFFF" stroke="#1077F8" stroke-width="2" stroke-miterlimit="10" d="M194.788,108.946H141.19c-6.6,0-12-5.4-12-12
			V43.123c0-6.6,5.4-12,12-12h53.598c6.6,0,12,5.4,12,12v53.824C206.788,103.546,201.388,108.946,194.788,108.946z"/>
		<path fill="#AFCDF9" stroke="#1077F8" stroke-width="2.5" stroke-miterlimit="10" d="M218.238,119.126h-86.581c-4.4,0-8-3.6-8-8
			v-13.82c0-4.4,3.6-8,8-8h86.581c4.4,0,8,3.6,8,8v13.82C226.238,115.526,222.638,119.126,218.238,119.126z"/>
		<path fill="#FFFFFF" stroke="#1077F8" stroke-width="2.5" stroke-miterlimit="10" d="M200.527,119.126h-69.452c-4.4,0-8-3.6-8-8
			v-13.82c0-4.4,3.6-8,8-8h69.452c4.4,0,8,3.6,8,8v13.82C208.527,115.526,204.927,119.126,200.527,119.126z"/>
		<path fill="#AFCDF9" stroke="#1077F8" stroke-width="1.6" stroke-miterlimit="10" d="M170.188,112.914L170.188,112.914
			c-1.565,0-2.845-1.28-2.845-2.845V98.364c0-1.565,1.28-2.845,2.845-2.845l0,0c1.565,0,2.845,1.28,2.845,2.845v11.705
			C173.033,111.633,171.753,112.914,170.188,112.914z"/>
		<path fill="#AFCDF9" stroke="#1077F8" stroke-width="1.6" stroke-miterlimit="10" d="M179.456,112.914L179.456,112.914
			c-1.565,0-2.845-1.28-2.845-2.845V98.364c0-1.565,1.28-2.845,2.845-2.845h0c1.565,0,2.845,1.28,2.845,2.845v11.705
			C182.301,111.633,181.021,112.914,179.456,112.914z"/>
		<path fill="#AFCDF9" stroke="#1077F8" stroke-width="1.6" stroke-miterlimit="10" d="M188.724,112.914L188.724,112.914
			c-1.565,0-2.845-1.28-2.845-2.845V98.364c0-1.565,1.28-2.845,2.845-2.845h0c1.565,0,2.845,1.28,2.845,2.845v11.705
			C191.569,111.633,190.289,112.914,188.724,112.914z"/>
		<path fill="#AFCDF9" stroke="#1077F8" stroke-width="1.6" stroke-miterlimit="10" d="M197.991,112.914L197.991,112.914
			c-1.565,0-2.845-1.28-2.845-2.845V98.364c0-1.565,1.28-2.845,2.845-2.845l0,0c1.565,0,2.845,1.28,2.845,2.845v11.705
			C200.837,111.633,199.556,112.914,197.991,112.914z"/>
		<path fill="#AFCDF9" stroke="#1077F8" stroke-width="2.5" stroke-miterlimit="10" d="M218.238,81.82h-86.581c-4.4,0-8-3.6-8-8V60
			c0-4.4,3.6-8,8-8h86.581c4.4,0,8,3.6,8,8v13.82C226.238,78.22,222.638,81.82,218.238,81.82z"/>
		<path fill="#FFFFFF" stroke="#1077F8" stroke-width="2.5" stroke-miterlimit="10" d="M200.527,81.82h-69.452c-4.4,0-8-3.6-8-8V60
			c0-4.4,3.6-8,8-8h69.452c4.4,0,8,3.6,8,8v13.82C208.527,78.22,204.927,81.82,200.527,81.82z"/>
		<path fill="#AFCDF9" stroke="#1077F8" stroke-width="1.6" stroke-miterlimit="10" d="M170.188,75.608L170.188,75.608
			c-1.565,0-2.845-1.28-2.845-2.845V61.058c0-1.565,1.28-2.845,2.845-2.845l0,0c1.565,0,2.845,1.28,2.845,2.845v11.705
			C173.033,74.327,171.753,75.608,170.188,75.608z"/>
		<path fill="#AFCDF9" stroke="#1077F8" stroke-width="1.6" stroke-miterlimit="10" d="M179.456,75.608L179.456,75.608
			c-1.565,0-2.845-1.28-2.845-2.845V61.058c0-1.565,1.28-2.845,2.845-2.845h0c1.565,0,2.845,1.28,2.845,2.845v11.705
			C182.301,74.327,181.021,75.608,179.456,75.608z"/>
		<path fill="#AFCDF9" stroke="#1077F8" stroke-width="1.6" stroke-miterlimit="10" d="M188.724,75.608L188.724,75.608
			c-1.565,0-2.845-1.28-2.845-2.845V61.058c0-1.565,1.28-2.845,2.845-2.845h0c1.565,0,2.845,1.28,2.845,2.845v11.705
			C191.569,74.327,190.289,75.608,188.724,75.608z"/>
		<path fill="#AFCDF9" stroke="#1077F8" stroke-width="1.6" stroke-miterlimit="10" d="M197.991,75.608L197.991,75.608
			c-1.565,0-2.845-1.28-2.845-2.845V61.058c0-1.565,1.28-2.845,2.845-2.845l0,0c1.565,0,2.845,1.28,2.845,2.845v11.705
			C200.837,74.327,199.556,75.608,197.991,75.608z"/>
		<path fill="#AFCDF9" stroke="#1077F8" stroke-width="2.5" stroke-miterlimit="10" d="M218.238,44.514h-86.581c-4.4,0-8-3.6-8-8
			v-13.82c0-4.4,3.6-8,8-8h86.581c4.4,0,8,3.6,8,8v13.82C226.238,40.914,222.638,44.514,218.238,44.514z"/>
		<path fill="#FFFFFF" stroke="#1077F8" stroke-width="2.5" stroke-miterlimit="10" d="M200.527,44.514h-69.452c-4.4,0-8-3.6-8-8
			v-13.82c0-4.4,3.6-8,8-8h69.452c4.4,0,8,3.6,8,8v13.82C208.527,40.914,204.927,44.514,200.527,44.514z"/>
		<path fill="#AFCDF9" stroke="#1077F8" stroke-width="1.6" stroke-miterlimit="10" d="M170.188,38.302L170.188,38.302
			c-1.565,0-2.845-1.28-2.845-2.845V23.752c0-1.565,1.28-2.845,2.845-2.845l0,0c1.565,0,2.845,1.28,2.845,2.845v11.705
			C173.033,37.021,171.753,38.302,170.188,38.302z"/>
		<path fill="#AFCDF9" stroke="#1077F8" stroke-width="1.6" stroke-miterlimit="10" d="M179.456,38.302L179.456,38.302
			c-1.565,0-2.845-1.28-2.845-2.845V23.752c0-1.565,1.28-2.845,2.845-2.845h0c1.565,0,2.845,1.28,2.845,2.845v11.705
			C182.301,37.021,181.021,38.302,179.456,38.302z"/>
		<path fill="#AFCDF9" stroke="#1077F8" stroke-width="1.6" stroke-miterlimit="10" d="M188.724,38.302L188.724,38.302
			c-1.565,0-2.845-1.28-2.845-2.845V23.752c0-1.565,1.28-2.845,2.845-2.845h0c1.565,0,2.845,1.28,2.845,2.845v11.705
			C191.569,37.021,190.289,38.302,188.724,38.302z"/>
		<path fill="#AFCDF9" stroke="#1077F8" stroke-width="1.6" stroke-miterlimit="10" d="M197.991,38.302L197.991,38.302
			c-1.565,0-2.845-1.28-2.845-2.845V23.752c0-1.565,1.28-2.845,2.845-2.845l0,0c1.565,0,2.845,1.28,2.845,2.845v11.705
			C200.837,37.021,199.556,38.302,197.991,38.302z"/>
	</g>
	<path fill="#AFCDF9" stroke="#2C97E8" stroke-width="3" stroke-miterlimit="10" d="M143.652,112.159H65.665c-6.6,0-12-5.4-12-12
		V32.426c0-6.6,5.4-12,12-12h77.986c6.6,0,12,5.4,12,12v67.733C155.652,106.758,150.252,112.159,143.652,112.159z"/>
	<path fill="#FFFFFF" stroke="#2C97E8" stroke-width="2" stroke-miterlimit="10" d="M128.695,112.159h-63.03c-6.6,0-12-5.4-12-12
		V32.426c0-6.6,5.4-12,12-12h63.03c6.6,0,12,5.4,12,12v67.733C140.695,106.758,135.295,112.159,128.695,112.159z"/>
	<path fill="#AFCDF9" stroke="#2C97E8" stroke-width="3" stroke-miterlimit="10" d="M154.51,119.126H55.46c-4.4,0-8-3.6-8-8V93.681
		c0-4.4,3.6-8,8-8h99.05c4.4,0,8,3.6,8,8v17.445C162.51,115.526,158.91,119.126,154.51,119.126z"/>
	<path fill="#FFFFFF" stroke="#2C97E8" stroke-width="3" stroke-miterlimit="10" d="M134.645,119.126H54.807c-4.4,0-8-3.6-8-8
		V93.681c0-4.4,3.6-8,8-8h79.838c4.4,0,8,3.6,8,8v17.445C142.645,115.526,139.045,119.126,134.645,119.126z"/>
	<circle fill="#F98097" cx="63.568" cy="102.404" r="6.658"/>
	<path fill="#AFCDF9" stroke="#1077F8" stroke-width="1.2387" stroke-miterlimit="10" d="M87.01,112.159L87.01,112.159
		c-1.755,0-3.191-1.436-3.191-3.191V95.84c0-1.755,1.436-3.191,3.191-3.191h0c1.755,0,3.191,1.436,3.191,3.191v13.128
		C90.2,110.723,88.765,112.159,87.01,112.159z"/>
	<path fill="#AFCDF9" stroke="#1077F8" stroke-width="1.2387" stroke-miterlimit="10" d="M97.404,112.159L97.404,112.159
		c-1.755,0-3.191-1.436-3.191-3.191V95.84c0-1.755,1.436-3.191,3.191-3.191h0c1.755,0,3.191,1.436,3.191,3.191v13.128
		C100.595,110.723,99.159,112.159,97.404,112.159z"/>
	<path fill="#AFCDF9" stroke="#1077F8" stroke-width="1.2387" stroke-miterlimit="10" d="M107.798,112.159L107.798,112.159
		c-1.755,0-3.191-1.436-3.191-3.191V95.84c0-1.755,1.436-3.191,3.191-3.191h0c1.755,0,3.191,1.436,3.191,3.191v13.128
		C110.989,110.723,109.553,112.159,107.798,112.159z"/>
	<path fill="#AFCDF9" stroke="#1077F8" stroke-width="1.2387" stroke-miterlimit="10" d="M118.192,112.159L118.192,112.159
		c-1.755,0-3.191-1.436-3.191-3.191V95.84c0-1.755,1.436-3.191,3.191-3.191h0c1.755,0,3.191,1.436,3.191,3.191v13.128
		C121.383,110.723,119.947,112.159,118.192,112.159z"/>
	<path fill="#AFCDF9" stroke="#2C97E8" stroke-width="3" stroke-miterlimit="10" d="M154.51,77.286H55.46c-4.4,0-8-3.6-8-8V51.841
		c0-4.4,3.6-8,8-8h99.05c4.4,0,8,3.6,8,8v17.445C162.51,73.686,158.91,77.286,154.51,77.286z"/>
	<path fill="#FFFFFF" stroke="#2C97E8" stroke-width="3" stroke-miterlimit="10" d="M134.645,77.286H54.807c-4.4,0-8-3.6-8-8V51.841
		c0-4.4,3.6-8,8-8h79.838c4.4,0,8,3.6,8,8v17.445C142.645,73.686,139.045,77.286,134.645,77.286z"/>
	<circle fill="#59D399" cx="63.568" cy="60.563" r="6.658"/>
	<path fill="#AFCDF9" stroke="#2C97E8" stroke-width="2" stroke-miterlimit="10" d="M87.01,70.318L87.01,70.318
		c-1.755,0-3.191-1.436-3.191-3.191V53.999c0-1.755,1.436-3.191,3.191-3.191h0c1.755,0,3.191,1.436,3.191,3.191v13.128
		C90.2,68.882,88.765,70.318,87.01,70.318z"/>
	<path fill="#AFCDF9" stroke="#2C97E8" stroke-width="2" stroke-miterlimit="10" d="M97.404,70.318L97.404,70.318
		c-1.755,0-3.191-1.436-3.191-3.191V53.999c0-1.755,1.436-3.191,3.191-3.191l0,0c1.755,0,3.191,1.436,3.191,3.191v13.128
		C100.595,68.882,99.159,70.318,97.404,70.318z"/>
	<path fill="#AFCDF9" stroke="#2C97E8" stroke-width="2" stroke-miterlimit="10" d="M107.798,70.318L107.798,70.318
		c-1.755,0-3.191-1.436-3.191-3.191V53.999c0-1.755,1.436-3.191,3.191-3.191h0c1.755,0,3.191,1.436,3.191,3.191v13.128
		C110.989,68.882,109.553,70.318,107.798,70.318z"/>
	<path fill="#AFCDF9" stroke="#2C97E8" stroke-width="2" stroke-miterlimit="10" d="M118.192,70.318L118.192,70.318
		c-1.755,0-3.191-1.436-3.191-3.191V53.999c0-1.755,1.436-3.191,3.191-3.191h0c1.755,0,3.191,1.436,3.191,3.191v13.128
		C121.383,68.882,119.947,70.318,118.192,70.318z"/>
	<path fill="#AFCDF9" stroke="#2C97E8" stroke-width="2" stroke-miterlimit="10" d="M128.586,70.318L128.586,70.318
		c-1.755,0-3.191-1.436-3.191-3.191V53.999c0-1.755,1.436-3.191,3.191-3.191h0c1.755,0,3.191,1.436,3.191,3.191v13.128
		C131.777,68.882,130.341,70.318,128.586,70.318z"/>
	<path fill="#AFCDF9" stroke="#2C97E8" stroke-width="3" stroke-miterlimit="10" d="M154.51,35.445H55.46c-4.4,0-8-3.6-8-8V10
		c0-4.4,3.6-8,8-8h99.05c4.4,0,8,3.6,8,8v17.445C162.51,31.845,158.91,35.445,154.51,35.445z"/>
	<path fill="#FFFFFF" stroke="#2C97E8" stroke-width="3" stroke-miterlimit="10" d="M134.645,35.445H54.807c-4.4,0-8-3.6-8-8V10
		c0-4.4,3.6-8,8-8h79.838c4.4,0,8,3.6,8,8v17.445C142.645,31.845,139.045,35.445,134.645,35.445z"/>
	<circle fill="#59D399" cx="63.568" cy="18.722" r="6.658"/>
	<path fill="#AFCDF9" stroke="#2C97E8" stroke-width="2" stroke-miterlimit="10" d="M87.01,28.477L87.01,28.477
		c-1.755,0-3.191-1.436-3.191-3.191V12.159c0-1.755,1.436-3.191,3.191-3.191h0c1.755,0,3.191,1.436,3.191,3.191v13.128
		C90.2,27.041,88.765,28.477,87.01,28.477z"/>
	<path fill="#AFCDF9" stroke="#2C97E8" stroke-width="2" stroke-miterlimit="10" d="M97.404,28.477L97.404,28.477
		c-1.755,0-3.191-1.436-3.191-3.191V12.159c0-1.755,1.436-3.191,3.191-3.191h0c1.755,0,3.191,1.436,3.191,3.191v13.128
		C100.595,27.041,99.159,28.477,97.404,28.477z"/>
	<path fill="#AFCDF9" stroke="#2C97E8" stroke-width="2" stroke-miterlimit="10" d="M107.798,28.477L107.798,28.477
		c-1.755,0-3.191-1.436-3.191-3.191V12.159c0-1.755,1.436-3.191,3.191-3.191h0c1.755,0,3.191,1.436,3.191,3.191v13.128
		C110.989,27.041,109.553,28.477,107.798,28.477z"/>
	<path fill="#AFCDF9" stroke="#2C97E8" stroke-width="2" stroke-miterlimit="10" d="M118.192,28.477L118.192,28.477
		c-1.755,0-3.191-1.436-3.191-3.191V12.159c0-1.755,1.436-3.191,3.191-3.191h0c1.755,0,3.191,1.436,3.191,3.191v13.128
		C121.383,27.041,119.947,28.477,118.192,28.477z"/>
	<path fill="#AFCDF9" stroke="#2C97E8" stroke-width="2" stroke-miterlimit="10" d="M128.586,28.477L128.586,28.477
		c-1.755,0-3.191-1.436-3.191-3.191V12.159c0-1.755,1.436-3.191,3.191-3.191h0c1.755,0,3.191,1.436,3.191,3.191v13.128
		C131.777,27.041,130.341,28.477,128.586,28.477z"/>
	<path fill="#2C97E8" d="M165.432,129.561h-22.03c-0.817,0-1.485-0.668-1.485-1.485l0,0c0-0.817,0.668-1.485,1.485-1.485h22.03
		c0.817,0,1.485,0.668,1.485,1.485l0,0C166.917,128.893,166.248,129.561,165.432,129.561z"/>
	<path fill="#2C97E8" d="M177.265,129.561h-6.293c-0.817,0-1.485-0.668-1.485-1.485l0,0c0-0.817,0.668-1.485,1.485-1.485h6.293
		c0.817,0,1.485,0.668,1.485,1.485l0,0C178.75,128.893,178.082,129.561,177.265,129.561z"/>
	<path fill="#2C97E8" d="M18.235,52.591h22.03c0.817,0,1.485,0.668,1.485,1.485v0c0,0.817-0.668,1.485-1.485,1.485h-22.03
		c-0.817,0-1.485-0.668-1.485-1.485v0C16.75,53.259,17.418,52.591,18.235,52.591z"/>
	<path fill="#2C97E8" d="M5.402,52.591h6.293c0.817,0,1.485,0.668,1.485,1.485v0c0,0.817-0.668,1.485-1.485,1.485H5.402
		c-0.817,0-1.485-0.668-1.485-1.485v0C3.917,53.259,4.585,52.591,5.402,52.591z"/>
	<path fill="#FFFFFF" d="M107.443,128.561h3.22c11.295,0,20.537-9.242,20.537-20.537v0c0-10.747-8.371-19.617-18.913-20.454
		c-3.611-10.213-13.324-17.543-24.773-17.543c-4.297,0-8.34,1.051-11.922,2.879c-4.885-6.845-12.874-11.322-21.925-11.322
		c-14.844,0-26.878,12.006-26.936,26.836c-8.339,2.615-14.434,10.432-14.434,19.604v0c0,11.295,9.242,20.537,20.537,20.537h76.218"
		/>
	<g>
		<path fill="#2C97E8" d="M110.664,130.061H32.836c-12.151,0-22.037-9.886-22.037-22.037c0-9.165,5.893-17.519,14.458-20.685
			c0.625-15.126,13.151-27.255,28.411-27.255c8.73,0,17.005,4.065,22.386,10.935c3.627-1.654,7.476-2.491,11.461-2.491
			c11.423,0,21.692,7.051,25.852,17.645c10.917,1.354,19.333,10.77,19.333,21.852C132.701,120.175,122.815,130.061,110.664,130.061z
			 M107.443,127.061h3.22c10.497,0,19.037-8.54,19.037-19.037c0-9.85-7.701-18.178-17.532-18.959l-0.971-0.077l-0.324-0.918
			c-3.498-9.895-12.885-16.542-23.358-16.542c-3.927,0-7.709,0.913-11.24,2.715l-1.151,0.587l-0.751-1.052
			c-4.779-6.696-12.519-10.694-20.704-10.694c-13.971,0-25.382,11.368-25.436,25.342l-0.004,1.097l-1.047,0.328
			c-7.879,2.47-13.382,9.944-13.382,18.173c0,10.497,8.54,19.037,19.037,19.037H107.443z"/>
	</g>
	<g>
		<path fill="#FFFFFF" d="M69.718,75.832c4.667-4.23,10.86-6.807,17.654-6.807c14.524,0,26.297,11.774,26.297,26.297
			c0,2.404-0.323,4.733-0.927,6.945"/>
	</g>
	<g>
		<path fill="#2C97E8" d="M114.189,102.663l-2.894-0.791c0.58-2.122,0.874-4.326,0.874-6.55c0-13.673-11.124-24.797-24.797-24.797
			c-6.168,0-12.081,2.279-16.647,6.418l-2.015-2.223c5.12-4.64,11.747-7.195,18.662-7.195c15.327,0,27.797,12.47,27.797,27.797
			C115.169,97.814,114.839,100.284,114.189,102.663z"/>
	</g>
</g>
</svg>
