<?xml version="1.0" encoding="utf-8"?>
<!-- Generator: Adobe Illustrator 21.0.0, SVG Export Plug-In . SVG Version: 6.00 Build 0)  -->
<svg version="1.0" id="图层_1" xmlns="http://www.w3.org/2000/svg" xmlns:xlink="http://www.w3.org/1999/xlink" x="0px" y="0px"
	 viewBox="0 0 230 130" enable-background="new 0 0 230 130" xml:space="preserve">
<g>
	<polygon fill="#B1D3FC" stroke="#2C97E8" stroke-width="3.5719" stroke-miterlimit="10" points="66.945,70.76 41.049,65.402 
		41.049,40.398 66.945,40.398 	"/>
	<polygon fill="#B1D3FC" stroke="#2C97E8" stroke-width="3.5719" stroke-miterlimit="10" points="66.945,106.479 41.049,101.121 
		41.049,76.118 66.945,76.118 	"/>
	<path fill="#FFFFFF" stroke="#2C97E8" stroke-width="3.5719" stroke-miterlimit="10" d="M136.357,127.018H56.47
		c-2.599,0-4.706-2.107-4.706-4.706V36.603L41.049,24.771V6.706C41.049,4.107,43.156,2,45.754,2h90.603
		c2.599,0,4.706,2.107,4.706,4.706v115.607C141.063,124.911,138.956,127.018,136.357,127.018z"/>
	
		<rect x="68.731" y="17.181" fill="#B1D3FC" stroke="#2C97E8" stroke-width="3.5719" stroke-miterlimit="10" width="55.365" height="14.288"/>
</g>
<g>
	<path fill="#FFFFFF" stroke="#2C97E8" stroke-width="3.5719" stroke-miterlimit="10" d="M183.267,127.167H86.714
		c-6.6,0-12-5.4-12-12v-62.62c0-6.6,5.4-12,12-12h96.553c6.6,0,12,5.4,12,12v62.62C195.267,121.767,189.867,127.167,183.267,127.167
		z"/>
	<g>
		<path fill="#FFFFFF" stroke="#2C97E8" stroke-width="3.5719" stroke-miterlimit="10" d="M149.913,22.687h-29.844
			c-5.054,0-9.188,4.135-9.188,9.188v22.959h7.144V33.367c0-2.436,1.993-4.428,4.428-4.428h25.077c2.436,0,4.428,1.993,4.428,4.428
			v21.468h7.144V31.876C159.101,26.822,154.967,22.687,149.913,22.687z"/>
		<path fill="#B1D3FC" stroke="#2C97E8" stroke-width="3.5719" stroke-miterlimit="10" d="M184.551,40.547H85.43
			c-5.894,0-10.716,4.822-10.716,10.716v22.912c15.93,11.287,37.075,18.165,60.276,18.165s44.346-6.878,60.276-18.165V51.263
			C195.267,45.369,190.445,40.547,184.551,40.547z"/>
		<path fill="#FFFFFF" stroke="#2C97E8" stroke-width="3.5719" stroke-miterlimit="10" d="M142.261,98.591h-14.54
			c-1.65,0-2.999-1.35-2.999-2.999V85.517c0-1.65,1.35-2.999,2.999-2.999h14.54c1.65,0,2.999,1.35,2.999,2.999v10.075
			C145.26,97.241,143.91,98.591,142.261,98.591z"/>
		<g>
			
				<line fill="#A9C4FF" stroke="#2C97E8" stroke-width="3.8369" stroke-miterlimit="10" x1="130.972" y1="100.377" x2="130.972" y2="127.167"/>
			
				<line fill="#A9C4FF" stroke="#2C97E8" stroke-width="3.8369" stroke-miterlimit="10" x1="93.467" y1="113.772" x2="93.467" y2="126.136"/>
			
				<line fill="#A9C4FF" stroke="#2C97E8" stroke-width="3.8369" stroke-miterlimit="10" x1="176.515" y1="113.772" x2="176.515" y2="126.136"/>
			
				<line fill="#A9C4FF" stroke="#2C97E8" stroke-width="3.8369" stroke-miterlimit="10" x1="139.009" y1="100.377" x2="139.009" y2="127.167"/>
		</g>
	</g>
</g>
<path fill="#2C97E8" d="M199.474,129.167H21.15c-1.1,0-2-0.9-2-2v0c0-1.1,0.9-2,2-2h178.324c1.1,0,2,0.9,2,2v0
	C201.474,128.267,200.574,129.167,199.474,129.167z"/>
<path fill="#2C97E8" d="M225,129.167h-17.745c-1.1,0-2-0.9-2-2v0c0-1.1,0.9-2,2-2H225c1.1,0,2,0.9,2,2v0
	C227,128.267,226.1,129.167,225,129.167z"/>
<path fill="#2C97E8" d="M185.596,20.19h-3.786v-3.786c0-0.555-0.454-1.009-1.009-1.009c-0.555,0-1.009,0.454-1.009,1.009v3.786
	h-3.786c-0.555,0-1.009,0.454-1.009,1.009s0.454,1.009,1.009,1.009h3.786v3.786c0,0.555,0.454,1.009,1.009,1.009
	c0.555,0,1.009-0.454,1.009-1.009v-3.786h3.786c0.555,0,1.009-0.454,1.009-1.009S186.151,20.19,185.596,20.19z"/>
<path fill="#2C97E8" d="M198.991,11.26h-3.786V7.474c0-0.555-0.454-1.009-1.009-1.009c-0.555,0-1.009,0.454-1.009,1.009v3.786
	h-3.786c-0.555,0-1.009,0.454-1.009,1.009s0.454,1.009,1.009,1.009h3.786v3.786c0,0.555,0.454,1.009,1.009,1.009
	c0.555,0,1.009-0.454,1.009-1.009v-3.786h3.786c0.555,0,1.009-0.454,1.009-1.009S199.546,11.26,198.991,11.26z"/>
<path fill="#2C97E8" d="M14.3,129.167H5c-1.1,0-2-0.9-2-2v0c0-1.1,0.9-2,2-2h9.3c1.1,0,2,0.9,2,2v0
	C16.3,128.267,15.4,129.167,14.3,129.167z"/>
</svg>
