<?xml version="1.0" encoding="utf-8"?>
<!-- Generator: Adobe Illustrator 21.0.0, SVG Export Plug-In . SVG Version: 6.00 Build 0)  -->
<svg version="1.0" id="图层_1" xmlns="http://www.w3.org/2000/svg" xmlns:xlink="http://www.w3.org/1999/xlink" x="0px" y="0px"
	 viewBox="0 0 230 130" enable-background="new 0 0 230 130" xml:space="preserve">
<path fill="#2C97E8" d="M175.911,91.068L175.911,91.068c-0.675,0-1.222-0.547-1.222-1.222V58.878c0-0.675,0.547-1.222,1.222-1.222
	l0,0c0.675,0,1.222,0.547,1.222,1.222v30.967C177.133,90.52,176.586,91.068,175.911,91.068z"/>
<path fill="#2C97E8" d="M175.911,100.847L175.911,100.847c-0.675,0-1.222-0.547-1.222-1.222V95.55c0-0.675,0.547-1.222,1.222-1.222
	l0,0c0.675,0,1.222,0.547,1.222,1.222v4.075C177.133,100.299,176.586,100.847,175.911,100.847z"/>
<path fill="#2C97E8" d="M175.911,127.739L175.911,127.739c-0.675,0-1.222-0.547-1.222-1.222v-22.003
	c0-0.675,0.547-1.222,1.222-1.222l0,0c0.675,0,1.222,0.547,1.222,1.222v22.003C177.133,127.191,176.586,127.739,175.911,127.739z"/>
<path fill="#2C97E8" d="M163.144,128.554L163.144,128.554c0.675,0,1.222-0.547,1.222-1.222V63.768c0-0.675-0.547-1.222-1.222-1.222
	l0,0c-0.675,0-1.222,0.547-1.222,1.222v63.563C161.921,128.006,162.469,128.554,163.144,128.554z"/>
<path fill="#2C97E8" d="M158.662,81.696h-13.039c-0.675,0-1.222-0.547-1.222-1.222l0,0c0-0.675,0.547-1.222,1.222-1.222h13.039
	c0.675,0,1.222,0.547,1.222,1.222l0,0C159.884,81.149,159.337,81.696,158.662,81.696z"/>
<path fill="none" stroke="#2C97E8" stroke-width="2.4447" stroke-miterlimit="10" d="M141.208,120.405h-24.581
	c-2.213,0-4.008-1.794-4.008-4.008v-42.51c0-2.213,1.794-4.008,4.008-4.008h24.581c2.213,0,4.008,1.794,4.008,4.008v42.51
	C145.216,118.61,143.421,120.405,141.208,120.405z"/>
<rect x="120.768" y="69.88" fill="#4373F9" width="1.63" height="55.414"/>
<rect x="141.956" y="91.883" fill="#4373F9" width="3.26" height="7.334"/>
<rect x="141.956" y="105.736" fill="#4373F9" width="3.26" height="7.334"/>
<rect x="133.807" y="91.883" fill="#4373F9" width="3.26" height="7.334"/>
<rect x="133.807" y="105.736" fill="#4373F9" width="3.26" height="7.334"/>
<rect x="125.658" y="91.883" fill="#4373F9" width="3.26" height="7.334"/>
<rect x="125.658" y="105.736" fill="#4373F9" width="3.26" height="7.334"/>
<rect x="117.509" y="78.844" fill="#4373F9" width="3.26" height="7.334"/>
<rect x="117.509" y="91.883" fill="#4373F9" width="3.26" height="7.334"/>
<rect x="117.509" y="105.736" fill="#4373F9" width="3.26" height="7.334"/>
<rect x="149.29" y="104.921" fill="#4373F9" width="3.26" height="7.334"/>
<rect x="96.321" y="32.394" fill="#4373F9" width="26.077" height="1.63"/>
<rect x="103.655" y="80.881" fill="#4373F9" width="1.63" height="44.82"/>
<path fill="#2C97E8" d="M79.208,85.363L79.208,85.363c-0.675,0-1.222-0.547-1.222-1.222V58.064c0-0.675,0.547-1.222,1.222-1.222h0
	c0.675,0,1.222,0.547,1.222,1.222v26.077C80.43,84.816,79.883,85.363,79.208,85.363z"/>
<rect x="96.321" y="32.394" fill="#4373F9" width="1.63" height="25.262"/>
<rect x="120.768" y="32.394" fill="#4373F9" width="1.63" height="37.486"/>
<rect x="103.655" y="56.841" fill="#4373F9" width="1.63" height="38.301"/>
<rect x="101.21" y="91.883" fill="#4373F9" width="3.26" height="7.334"/>
<rect x="90.616" y="63.361" fill="#4373F9" width="2.445" height="12.224"/>
<rect x="101.21" y="38.913" fill="#4373F9" width="3.26" height="4.889"/>
<rect x="107.322" y="38.913" fill="#4373F9" width="3.26" height="4.889"/>
<rect x="113.434" y="38.913" fill="#4373F9" width="3.26" height="4.889"/>
<rect x="101.21" y="46.247" fill="#4373F9" width="3.26" height="4.889"/>
<rect x="107.322" y="46.247" fill="#4373F9" width="3.26" height="4.889"/>
<rect x="113.434" y="46.247" fill="#4373F9" width="3.26" height="4.889"/>
<rect x="107.322" y="55.211" fill="#4373F9" width="3.26" height="4.889"/>
<rect x="113.434" y="55.211" fill="#4373F9" width="3.26" height="4.889"/>
<rect x="107.322" y="64.99" fill="#4373F9" width="3.26" height="4.889"/>
<rect x="107.73" y="75.584" fill="#4373F9" width="3.26" height="4.889"/>
<rect x="113.434" y="64.99" fill="#4373F9" width="3.26" height="4.889"/>
<rect x="97.951" y="63.361" fill="#4373F9" width="2.445" height="12.224"/>
<rect x="90.616" y="100.847" fill="#4373F9" width="2.445" height="16.298"/>
<rect x="84.097" y="100.847" fill="#4373F9" width="2.445" height="16.298"/>
<rect x="101.21" y="104.921" fill="#4373F9" width="3.26" height="7.334"/>
<rect x="108.545" y="91.883" fill="#4373F9" width="3.26" height="7.334"/>
<rect x="108.545" y="104.921" fill="#4373F9" width="3.26" height="7.334"/>
<path fill="none" stroke="#4373F9" stroke-width="2.4447" stroke-miterlimit="10" d="M79.208,123.257"/>
<polyline fill="none" stroke="#2C97E8" stroke-width="2.4447" stroke-miterlimit="10" points="48.241,126.516 48.241,79.659 
	79.208,79.659 "/>
<path fill="#B1D3FC" stroke="#2C97E8" stroke-width="2.4111" stroke-miterlimit="10" d="M48.241,56.892v-4.331
	c0-2.362,1.915-4.276,4.276-4.276h7.746c2.362,0,4.276,1.915,4.276,4.276v42.176c0,2.362-1.915,4.276-4.276,4.276h-7.746
	c-2.362,0-4.276-1.915-4.276-4.276V64.889"/>
<polyline fill="#FFFFFF" points="71.059,125.745 70.244,106.809 74.318,94.46 97.036,87.874 102.154,85.919 102.885,81.39 
	114.897,81.39 121.581,81.699 123.043,86.433 147.66,93.637 152.55,100.223 153.365,118.335 152.55,126.568 "/>
<path fill="#2C97E8" d="M192.248,129H33.275c-0.87,0-1.582-0.712-1.582-1.582l0,0c0-0.87,0.712-1.582,1.582-1.582h158.973
	c0.87,0,1.582,0.712,1.582,1.582l0,0C193.83,128.288,193.118,129,192.248,129z"/>
<path fill="#2C97E8" d="M24.975,129H6.582C5.712,129,5,128.288,5,127.418l0,0c0-0.87,0.712-1.582,1.582-1.582h18.394
	c0.87,0,1.582,0.712,1.582,1.582l0,0C26.557,128.288,25.845,129,24.975,129z"/>
<path fill="#2C97E8" d="M222.895,129h-23.53c-0.87,0-1.582-0.712-1.582-1.582l0,0c0-0.87,0.712-1.582,1.582-1.582h23.53
	c0.87,0,1.582,0.712,1.582,1.582l0,0C224.477,128.288,223.765,129,222.895,129z"/>
<path fill="none" stroke="#2C97E8" stroke-width="3.3614" stroke-miterlimit="10" d="M74.745,127.098
	c-2.303,0-4.187-1.821-4.187-4.047v-21.169c0.094-10.499,19.741-12.114,26.986-15.344l11.872-4.637
	c1.59-1.085,3.725-1.046,5.272,0.097l14.638,5.348c6.519,2.501,24.447,4.038,24.293,12.907v20.914c0,4.006-1.993,5.933-4.452,5.933"
	/>
<path fill="#FFFFFF" stroke="#2C97E8" stroke-width="2.4381" stroke-miterlimit="10" d="M111.803,93.105L111.803,93.105
	c-4.919,0-8.906-3.987-8.906-8.906v-9.022h18.382v8.452C121.279,88.862,117.036,93.105,111.803,93.105z"/>
<g>
	<ellipse fill="#FFFFFF" cx="111.908" cy="94.735" rx="7.938" ry="7.742"/>
	<rect x="107.354" y="100.847" fill="#FFFFFF" width="5.849" height="18.743"/>
	<path fill="#2C97E8" d="M122.357,92.346h-0.995c-0.348-1.926-1.309-3.684-2.69-5.031c-1.701-1.769-4.138-2.82-6.803-2.765
		c-2.608,0-5.046,1.051-6.803,2.765c-1.387,1.353-2.314,3.084-2.672,5.031h-0.9c-0.907,0-1.587,0.664-1.587,1.548
		c-0.057,0.829,0.68,1.548,1.587,1.548h0.862c0.331,1.969,1.301,3.769,2.709,5.142c0.399,0.389,0.83,0.74,1.288,1.052l0.752,22.52
		c0.057,0.829,0.737,1.493,1.587,1.437l6.463,0c0.794,0,1.531-0.608,1.587-1.438l0.758-22.601c0.416-0.294,0.807-0.618,1.17-0.972
		c1.413-1.378,2.349-3.15,2.691-5.142h0.993c0.907,0,1.587-0.664,1.587-1.548C123.944,93.01,123.264,92.346,122.357,92.346z
		 M107.277,89.471c1.19-1.161,2.778-1.824,4.535-1.88c1.814,0,3.345,0.719,4.535,1.88c0.861,0.764,1.479,1.764,1.76,2.875H105.55
		C105.845,91.241,106.452,90.276,107.277,89.471z M113.683,122.498l-3.401,0l-0.529-19.402c0.68,0.151,1.387,0.237,2.116,0.252
		c0.803,0,1.589-0.1,2.345-0.288L113.683,122.498z M116.348,98.318c-1.19,1.161-2.778,1.825-4.535,1.88
		c-1.814,0-3.345-0.719-4.535-1.88c-0.819-0.799-1.397-1.781-1.696-2.875l12.494,0C117.78,96.548,117.173,97.513,116.348,98.318z"/>
</g>
<path fill="#FFFFFF" stroke="#2C97E8" stroke-width="3.3007" stroke-miterlimit="10" d="M114.137,117.96h-4.426
	c-2.689,0-4.889-2.2-4.889-4.889v0c0-2.689,2.2-4.889,4.889-4.889h4.426c2.689,0,4.889,2.2,4.889,4.889v0
	C119.027,115.76,116.826,117.96,114.137,117.96z"/>
<path fill="none" stroke="#2C97E8" stroke-width="3.3614" stroke-miterlimit="10" d="M83.966,41.765c0,0-2.924-18.336-1.253-23.225
	c1.671-4.889,7.938-3.667,7.938-3.667S96.5,5.094,106.109,3.057s19.636-1.222,28.409,3.26c11.958,6.109,10.445,19.965,10.445,19.965
	s-2.089,12.631-6.267,15.891"/>
<path fill="#FFFFFF" stroke="#2C97E8" stroke-width="3.3614" stroke-miterlimit="10" d="M85.532,40.08
	c4.927-3.824,8.201-10.378,8.201-18.077l0,0c7.955,3.988,17.185,5.908,28.827,5.908c5.735,0,11.046-0.564,16.085-1.64v0.815
	l-0.209,33.849c0,11.194-9.391,20.353-20.868,20.353h-10.904c-11.478,0-20.868-9.159-20.868-20.353V37.671"/>
<path fill="#FFFFFF" stroke="#2C97E8" stroke-width="3.1636" stroke-miterlimit="10" d="M84.955,50.729
	c-3.461,0-6.267-2.736-6.267-6.112c0-3.375,2.806-6.112,6.267-6.112"/>
<path fill="#FFFFFF" stroke="#2C97E8" stroke-width="3.1636" stroke-miterlimit="10" d="M139.378,38.506
	c3.461,0,6.267,2.736,6.267,6.112c0,3.375-2.806,6.112-6.267,6.112"/>
<path fill="#2C97E8" d="M112.658,66.469c-1.909-0.024-3.487-0.173-4.993-0.741c-0.781-0.294-1.522-0.654-2.135-1.233
	c-0.503-0.475-0.667-1.025-0.24-1.581c0.458-0.597,1.06-0.594,1.711-0.217c3.603,2.093,7.209,2.094,10.803-0.026
	c0.602-0.355,1.182-0.354,1.618,0.203c0.466,0.593,0.335,1.181-0.238,1.665c-1.344,1.135-2.979,1.573-4.684,1.805
	C113.79,66.441,113.067,66.443,112.658,66.469z"/>
<path fill="#2C97E8" d="M112.544,61.7c-2.885-0.033-4.631-1.153-5.067-3.143c-0.173-0.788-0.277-1.645,0.766-1.904
	c1.023-0.254,1.423,0.396,1.53,1.294c0.08,0.668,0.511,1.04,1.151,1.217c0.931,0.257,1.871,0.257,2.802,0.035
	c0.764-0.183,1.266-0.625,1.326-1.45c0.059-0.807,0.528-1.233,1.35-1.125c0.87,0.114,1.042,0.771,0.968,1.491
	c-0.133,1.296-0.762,2.291-1.961,2.92C114.445,61.54,113.384,61.589,112.544,61.7z"/>
<path fill="#2C97E8" d="M112.269,70.589c-0.603,0.003-1.209,0.032-1.786-0.196c-0.641-0.253-0.991-0.702-0.811-1.381
	c0.164-0.616,0.653-0.915,1.291-0.817c0.94,0.144,1.858,0.168,2.803-0.005c0.684-0.125,1.19,0.253,1.331,0.917
	c0.134,0.629-0.234,1.045-0.818,1.281C113.632,70.651,112.946,70.58,112.269,70.589z"/>
<g>
	<path fill="#FFFFFF" stroke="#2C97E8" stroke-width="3.2021" stroke-miterlimit="10" d="M127.321,52.767h-5.423
		c-3.564,0-6.48-2.916-6.48-6.48V42.37c0-1.453,1.189-2.642,2.642-2.642h14.899c0.463,0,0.842,0.379,0.842,0.842v5.717
		C133.801,49.851,130.885,52.767,127.321,52.767z"/>
	<path fill="#FFFFFF" stroke="#2C97E8" stroke-width="3.2021" stroke-miterlimit="10" d="M102.136,52.767h-5.423
		c-3.564,0-6.48-2.916-6.48-6.48V42.37c0-1.453,1.189-2.642,2.642-2.642h14.899c0.463,0,0.842,0.379,0.842,0.842v5.717
		C108.615,49.851,105.699,52.767,102.136,52.767z"/>
	
		<line fill="none" stroke="#2C97E8" stroke-width="3.2021" stroke-miterlimit="10" x1="108.615" y1="42.988" x2="116.135" y2="42.988"/>
	
		<line fill="none" stroke="#2C97E8" stroke-width="3.2021" stroke-miterlimit="10" x1="93.575" y1="39.728" x2="86.055" y2="39.728"/>
	
		<line fill="none" stroke="#2C97E8" stroke-width="3.2021" stroke-miterlimit="10" x1="139.531" y1="39.728" x2="132.847" y2="39.728"/>
	<path fill="#2C97E8" d="M123.9,48.248c-1.425,0.023-2.674-1.159-2.724-2.579c-0.047-1.337,1.15-2.535,2.576-2.578
		c1.546-0.047,2.784,1.117,2.769,2.604C126.508,47.045,125.295,48.226,123.9,48.248z"/>
	<path fill="#2C97E8" d="M100.767,43.093c1.5,0.013,2.659,1.153,2.648,2.604c-0.011,1.411-1.26,2.586-2.715,2.552
		c-1.427-0.033-2.568-1.168-2.58-2.568C98.106,44.215,99.267,43.08,100.767,43.093z"/>
</g>
<g>
	<path fill="#2C97E8" d="M100.357,32.248c1.53-0.072,2.995,0.245,4.438,0.699c0.744,0.234,1.221,0.693,0.987,1.473
		c-0.24,0.803-0.876,0.883-1.638,0.635c-2.513-0.818-5.033-0.826-7.546,0.021c-0.739,0.249-1.405,0.151-1.664-0.637
		c-0.264-0.801,0.288-1.255,0.986-1.483C97.356,32.486,98.827,32.173,100.357,32.248z"/>
	<path fill="#2C97E8" d="M128.197,35.191c-0.111-0.029-0.297-0.062-0.472-0.124c-2.473-0.872-4.958-0.805-7.432-0.043
		c-0.743,0.229-1.404,0.267-1.706-0.512c-0.325-0.84,0.242-1.319,0.993-1.567c2.955-0.978,5.918-0.972,8.868,0.018
		c0.654,0.219,1.153,0.632,0.992,1.392C129.318,34.929,128.878,35.198,128.197,35.191z"/>
</g>
<path fill="#2C97E8" d="M56.39,29.134h-4.889c-0.9,0-1.63-0.73-1.63-1.63v0c0-0.9,0.73-1.63,1.63-1.63h4.889
	c0.9,0,1.63,0.73,1.63,1.63v0C58.02,28.404,57.29,29.134,56.39,29.134z"/>
<path fill="#2C97E8" d="M65.354,35.653H47.426c-0.9,0-1.63-0.73-1.63-1.63v0c0-0.9,0.73-1.63,1.63-1.63h17.928
	c0.9,0,1.63,0.73,1.63,1.63v0C66.984,34.924,66.254,35.653,65.354,35.653z"/>
<path fill="#2C97E8" d="M187.591,67.435h-4.889c-0.9,0-1.63-0.73-1.63-1.63l0,0c0-0.9,0.73-1.63,1.63-1.63h4.889
	c0.9,0,1.63,0.73,1.63,1.63l0,0C189.221,66.705,188.491,67.435,187.591,67.435z"/>
<path fill="#2C97E8" d="M196.555,73.954h-9.779c-0.9,0-1.63-0.73-1.63-1.63l0,0c0-0.9,0.73-1.63,1.63-1.63h9.779
	c0.9,0,1.63,0.73,1.63,1.63l0,0C198.185,73.225,197.455,73.954,196.555,73.954z"/>
<path fill="#2C97E8" d="M52.316,41.358H34.387c-0.9,0-1.63-0.73-1.63-1.63l0,0c0-0.9,0.73-1.63,1.63-1.63h17.928
	c0.9,0,1.63,0.73,1.63,1.63l0,0C53.945,40.628,53.216,41.358,52.316,41.358z"/>
<polygon fill="none" stroke="#2C97E8" stroke-width="3.2197" stroke-miterlimit="10" points="102.84,117.145 70.244,117.145 
	71.059,101.661 82.467,108.181 102.84,108.181 "/>
<path fill="#FFFFFF" stroke="#2C97E8" stroke-width="3.3007" stroke-miterlimit="10" d="M136.659,126.924L136.659,126.924
	c-4.258,0-7.742-3.484-7.742-7.742v-11.099c0-1.291,1.056-2.347,2.347-2.347h11.252c1.037,0,1.885,0.848,1.885,1.885v11.561
	C144.401,123.44,140.917,126.924,136.659,126.924z"/>
<path fill="#2C97E8" d="M189.01,53.349c-0.612,0-1.257-0.015-1.933-0.031c-1.359-0.034-2.913-0.151-4.599-0.33
	c-3.802-0.365-6.579-0.84-8.482-1.433c-2.15-0.676-3.225-1.022-3.16-2.208c0.047-0.624,0.509-1.138,1.124-1.251h0.031
	c1.739-0.296,3.228-0.76,4.451-1.402c0.247-0.13,0.232-0.179,0.216-0.309c-0.103-0.528-0.357-1.015-0.729-1.402
	c-1.938-2.151-3.498-4.613-4.615-7.283c-1.196-2.85-1.835-5.902-1.884-8.991c-0.052-3.297,0.584-6.569,1.869-9.606
	c1.273-2.965,3.027-5.6,5.226-7.824c2.223-2.268,4.869-4.076,7.79-5.322c3.035-1.308,6.301-1.997,9.606-2.026l0.018,1.303V3.928
	c3.303-0.052,6.58,0.583,9.625,1.863c2.922,1.221,5.591,2.975,7.87,5.174c4.695,4.528,7.367,10.756,7.413,17.279
	c0.05,3.112-0.517,6.202-1.668,9.094c-1.12,2.786-2.741,5.343-4.781,7.546c-2.064,2.196-4.492,4.019-7.178,5.387
	c-2.771,1.421-5.782,2.315-8.88,2.635c-0.794,0.114-1.652,0.198-2.564,0.263c-0.893,0.068-1.915,0.133-3.009,0.167
	c-0.547,0-1.143,0.015-1.755,0.015H189.01z M176.476,49.528c1.606,0.346,3.707,0.642,6.252,0.889
	c1.637,0.179,3.126,0.278,4.417,0.312c2.145,0.06,4.291,0.01,6.431-0.148c0.859-0.065,1.686-0.148,2.431-0.263h0.031
	c2.787-0.28,5.498-1.079,7.991-2.357c2.421-1.231,4.609-2.876,6.465-4.859c1.834-1.958,3.282-4.245,4.269-6.74
	c1.019-2.577,1.519-5.331,1.47-8.102c-0.031-5.829-2.409-11.399-6.598-15.453c-2.061-1.97-4.466-3.544-7.095-4.646
	c-2.718-1.133-5.642-1.694-8.587-1.646c-5.86,0.033-11.468,2.391-15.592,6.554c-1.981,2.036-3.568,4.422-4.679,7.036
	c-1.137,2.705-1.699,5.616-1.653,8.55c0.065,2.848,0.627,5.551,1.687,8.022c1.056,2.487,2.446,4.695,4.151,6.554
	c0.741,0.825,1.189,1.73,1.356,2.703c0.216,1.266-0.349,2.372-1.538,3.03c0,0-0.019,0-0.019,0.019
	C177.278,49.185,176.881,49.367,176.476,49.528L176.476,49.528z M181.9,28.639c0,1.402,1.143,2.539,2.545,2.539
	c0.675,0.002,1.322-0.265,1.801-0.741c0.478-0.476,0.747-1.123,0.748-1.798c-0.002-0.674-0.271-1.32-0.749-1.796
	c-0.478-0.476-1.125-0.742-1.799-0.74C183.043,26.101,181.904,27.236,181.9,28.639L181.9,28.639z M191.59,28.639
	c0.001,0.908,0.488,1.746,1.276,2.196c0.788,0.454,1.761,0.454,2.545,0c0.997-0.572,1.483-1.744,1.184-2.854
	c-0.299-1.11-1.307-1.88-2.457-1.875C192.735,26.102,191.595,27.236,191.59,28.639L191.59,28.639z M201.282,28.639
	c0,0.907,0.486,1.745,1.273,2.196c0.788,0.454,1.761,0.454,2.548,0c1-0.571,1.489-1.745,1.19-2.857
	c-0.299-1.112-1.311-1.882-2.462-1.875c-0.674-0.002-1.321,0.265-1.799,0.74C201.553,27.318,201.284,27.964,201.282,28.639
	L201.282,28.639z M201.282,28.639"/>
<rect x="169.435" y="3.894" fill="none" width="49.462" height="49.515"/>
</svg>
