<?xml version="1.0" encoding="utf-8"?>
<!-- Generator: Adobe Illustrator 21.0.0, SVG Export Plug-In . SVG Version: 6.00 Build 0)  -->
<svg version="1.0" id="图层_1" xmlns="http://www.w3.org/2000/svg" xmlns:xlink="http://www.w3.org/1999/xlink" x="0px" y="0px"
	 viewBox="0 0 230 130" enable-background="new 0 0 230 130" xml:space="preserve">
<g>
	<path fill="#2C97E8" d="M16.901,46.045c11.701,0.021,23.402,0.031,35.103,0.081c0.994,0.004,1.674-0.311,2.311-1.059
		c2.571-3.019,5.819-4.982,9.691-5.82c1.096-0.237,1.465-0.694,1.458-1.796c-0.041-6.137-0.065-12.275,0.01-18.412
		c0.02-1.615-0.84-1.626-2.005-1.622c-6.465,0.024-12.931-0.072-19.393,0.06c-2.012,0.041-2.426-0.637-2.405-2.499
		c0.092-8.215,6.293-14.298,14.831-14.304c26.678-0.017,53.355-0.006,80.033-0.006c3.683,0,7.365-0.001,11.048,0
		c9.922,0.002,15.814,5.876,15.865,15.873c0.034,6.792,0.033,13.585-0.015,20.376c-0.01,1.397,0.194,2.137,1.853,2.469
		c3.526,0.707,6.549,2.552,8.896,5.301c0.955,1.118,1.971,1.452,3.385,1.445c10.72-0.05,21.441,0.015,32.16-0.067
		c1.861-0.014,2.51,0.381,2.491,2.398c-0.106,11.128-0.106,22.259,0,33.387c0.019,2.021-0.635,2.41-2.492,2.396
		c-10.72-0.081-21.44-0.017-32.16-0.067c-1.415-0.007-2.43,0.329-3.385,1.447c-2.348,2.749-5.371,4.593-8.897,5.3
		c-1.661,0.333-1.864,1.075-1.851,2.471c0.052,5.728,0.092,11.458-0.02,17.184c-0.035,1.81,0.437,2.383,2.307,2.349
		c6.381-0.116,12.766,0.017,19.148-0.084c1.78-0.028,2.382,0.382,2.371,2.286c-0.046,8.055-6.084,14.473-14.15,14.488
		c-31.097,0.059-62.194,0.059-93.29,0.001c-8.491-0.016-14.266-6.415-14.341-15.645c-0.055-6.792-0.048-13.585,0.017-20.376
		c0.014-1.499-0.22-2.289-1.942-2.663c-3.594-0.781-6.635-2.705-9.054-5.511c-0.676-0.784-1.348-1.25-2.474-1.244
		c-11.701,0.063-23.402,0.068-35.103,0.088c-0.641-0.383-0.394-1.016-0.394-1.545c-0.014-11.712-0.014-23.425,0-35.137
		C16.508,47.061,16.261,46.428,16.901,46.045z"/>
	<path fill="#FEFEFE" d="M124.029,112.867c-10.799,0-21.599,0.03-32.398-0.033c-1.612-0.009-2.278,0.272-2.276,2.104
		c0.005,5.77-3.934,9.875-9.274,9.933c-5.446,0.059-9.702-4.281-9.733-10.119c-0.057-10.635-0.016-21.271-0.016-31.907
		c0-5.727,0.032-11.454-0.024-17.18c-0.013-1.318,0.325-2.299,1.285-3.251c2.006-1.989,3.358-4.416,4.043-7.17
		c0.326-1.31,0.82-1.951,2.422-2.003c13.982-0.459,27.959,0.366,41.938,0.059c0.975-0.021,2.211-0.174,1.716,1.436
		c-0.351,1.141,1.299,3.213-1.75,3.184c-12.107-0.117-24.216-0.058-36.324-0.025c-0.827,0.002-2.118-0.527-2.404,0.501
		c-0.336,1.206-0.291,2.639,0.021,3.863c0.234,0.916,1.43,0.503,2.199,0.505c9.981,0.024,19.962-0.006,29.943,0.057
		c0.779,0.005,2.517-0.811,2.153,1.114c-0.255,1.348,1.466,3.773-2.167,3.687c-9.976-0.236-19.961-0.023-29.941-0.13
		c-2.019-0.022-2.451,0.642-2.449,2.513c0.001,1.845,0.39,2.51,2.412,2.493c12.026-0.102,24.053-0.067,36.079-0.015
		c0.883,0.004,2.583-0.821,2.265,1.388c-0.209,1.449,0.866,3.294-2.252,3.239c-12.023-0.213-24.052-0.037-36.078-0.135
		c-1.996-0.016-2.442,0.604-2.426,2.478c0.016,1.842,0.389,2.541,2.434,2.528c14.48-0.093,28.961-0.056,43.442-0.031
		c0.756,0.001,1.955-0.447,2.182,0.477c0.301,1.222,0.307,2.647-0.034,3.851c-0.231,0.816-1.462,0.398-2.238,0.399
		c-14.235,0.021-28.471,0.015-42.706,0.016c-2.925,0-3.764,1.17-3.022,4.047c0.194,0.754,0.618,0.858,1.23,0.855
		c0.654-0.003,1.309,0.004,1.963,0.004c23.889,0,47.779,0.03,71.668-0.051c2.158-0.007,2.709,0.518,2.709,2.7
		c0,5.173-0.011,10.98-0.011,16.196c0,1.557-0.798,2.472-2.431,2.472C145.233,112.913,134.746,112.867,124.029,112.867z"/>
	<path fill="#FEFEFE" d="M67.069,5.612c1.326,0,2.132,0,2.938,0c25.936,0,51.874,0.113,77.808-0.082
		c6.279-0.047,10.834,4.196,10.76,10.86c-0.109,9.817-0.088,19.637,0.019,29.454c0.023,2.105-0.676,2.571-2.656,2.565
		c-21.027-0.064-42.054-0.029-63.081-0.083c-0.772-0.002-1.816-0.195-2.245-0.703c-0.895-1.058,0.427-3.335,2.284-3.935
		c0.594-0.192,1.299-0.04,1.954-0.04c16.855-0.001,33.709-0.044,50.563,0.053c2.192,0.013,2.461-0.786,2.502-2.678
		c0.043-1.996-0.616-2.401-2.49-2.396c-24.136,0.061-48.273,0.012-72.409,0.09c-2.129,0.007-2.78-0.469-2.723-2.678
		c0.162-6.378-0.037-12.764,0.092-19.143C70.466,12.95,69.89,9.269,67.069,5.612z"/>
	<path fill="#FEFEFE" d="M141.017,67.543c-5.647,0-11.293-0.015-16.94,0.009c-1.747,0.007-3.555-0.109-3.589-2.324
		c-0.037-2.398,1.872-2.463,3.695-2.461c11.375,0.015,22.751-0.029,34.125,0.044c1.829,0.012,2.57-0.339,2.555-2.386
		c-0.015-2.029-0.554-2.618-2.614-2.594c-9.574,0.11-19.149,0.06-28.724,0.04c-2.357-0.005-3.668-1.626-2.755-3.339
		c0.634-1.19,1.753-1.26,2.958-1.258c10.393,0.024,20.787-0.039,31.179,0.06c1.964,0.019,2.595-0.364,2.595-2.5
		c0-1.544-0.065-2.703-0.065-4.657c0-1.916,0.817-2.368,2.518-1.589c5.279,2.421,8.054,6.557,8.191,12.319
		c0.131,5.48,0.137,10.968,0.003,16.448c-0.195,7.99-5.841,13.331-13.894,13.337c-7.611,0.005-15.222-0.003-22.832,0.005
		c-1.742,0.002-3.458-0.104-3.405-2.449c0.048-2.16,1.685-2.319,3.326-2.32c6.956-0.006,13.913-0.075,20.867,0.043
		c1.994,0.034,2.624-0.452,2.66-2.542c0.04-2.275-0.939-2.446-2.769-2.432c-9.492,0.072-18.986,0.013-28.479,0.052
		c-1.707,0.007-3.075-0.456-3.063-2.313c0.012-1.828,1.349-2.327,3.071-2.319c9.575,0.045,19.15-0.028,28.724,0.063
		c1.913,0.018,2.476-0.499,2.506-2.446c0.033-2.113-0.676-2.58-2.659-2.536C152.476,67.625,146.746,67.543,141.017,67.543z"/>
	<path fill="#FEFEFE" d="M91.042,124.579c1.024-1.913,2.557-3.683,2.914-5.649c0.168-0.922,0.768-1.246,1.765-1.246
		c1.127,0,3.063,0.02,3.923,0.02c26.41,0,52.82-0.005,79.23,0.021c0.913,0.001,2.221-0.544,2.675,0.409
		c0.478,1.004-0.554,1.942-1.166,2.779c-1.679,2.297-3.94,3.67-6.809,3.673c-27.146,0.026-54.292,0.014-81.438,0.008
		C91.987,124.594,91.412,124.673,91.042,124.579z"/>
	<path fill="#FEFEFE" d="M54.887,58.214c-0.753-9.003,6.482-15.023,14.524-14.621c5.136,0.257,10.296,0.04,15.445,0.062
		c0.521,0.002,1.245-0.294,1.508,0.411c0.223,0.598-0.279,1.064-0.631,1.501c-1.604,1.991-3.754,2.791-6.246,2.805
		c-2.125,0.012-4.252,0.053-6.374-0.016c-1.232-0.04-1.662,0.35-1.758,1.65c-0.66,9.025-5.79,13.325-14.926,12.722
		c-1.157-0.076-1.626-0.414-1.553-1.573C54.937,60.179,54.888,59.195,54.887,58.214z"/>
	<path fill="#FEFEFE" d="M65.451,76.629c0.001,2.618-0.096,5.241,0.033,7.853c0.094,1.919-0.643,2.036-2.148,1.42
		c-4.595-1.881-7.497-5.211-8.344-10.093c-0.374-2.153-0.178-4.401-0.297-6.602c-0.073-1.347,0.595-1.661,1.795-1.607
		c2.538,0.115,5.08,0.027,7.539-0.674c1.139-0.325,1.448,0.016,1.434,1.112C65.426,70.901,65.45,73.765,65.451,76.629z"/>
	<path fill="#2C97E8" d="M114.461,96.17c10.384,0,20.769,0.052,31.152-0.047c1.909-0.018,2.355,0.58,2.28,2.363
		c-0.07,1.652-0.083,2.656-2.303,2.647c-20.768-0.091-41.537-0.091-62.305,0c-2.254,0.01-2.189-1.053-2.279-2.67
		c-0.101-1.824,0.432-2.356,2.302-2.339C93.692,96.219,104.077,96.17,114.461,96.17z"/>
	<path fill="#2C97E8" d="M114.434,19.517c10.376,0,20.753,0.068,31.128-0.056c2.116-0.025,2.295,0.801,2.342,2.538
		c0.052,1.903-0.466,2.461-2.432,2.454c-20.671-0.075-41.342-0.072-62.012-0.004c-1.905,0.006-2.472-0.461-2.481-2.416
		c-0.009-2.02,0.517-2.588,2.572-2.566C93.844,19.576,104.139,19.517,114.434,19.517z"/>
	<path fill="#2C97E8" d="M109.925,34.094c-8.919,0-17.84-0.072-26.757,0.053c-2.111,0.029-2.124-0.955-2.153-2.509
		c-0.03-1.628,0.129-2.481,2.185-2.471c17.838,0.087,35.677,0.085,53.516,0.003c2.04-0.009,2.203,0.842,2.203,2.479
		c0,1.657-0.216,2.516-2.236,2.492C127.765,34.034,118.845,34.094,109.925,34.094z"/>
	<path fill="#FEFEFE" d="M31.767,79.097h-9.185c-0.667,0-1.214-0.546-1.214-1.214V52.248c0-0.667,0.546-1.214,1.214-1.214h9.185
		c0.667,0,1.214,0.546,1.214,1.214v25.636C32.981,78.551,32.435,79.097,31.767,79.097z"/>
	<path fill="#FEFEFE" d="M47.25,79.097h-9.185c-0.667,0-1.214-0.546-1.214-1.214V52.248c0-0.667,0.546-1.214,1.214-1.214h9.185
		c0.667,0,1.214,0.546,1.214,1.214v25.636C48.464,78.551,47.918,79.097,47.25,79.097z"/>
	<circle fill="#2C97E8" cx="42.658" cy="56.84" r="2.903"/>
	<path fill="#FEFEFE" d="M196.767,50.066h9.185c0.667,0,1.214,0.546,1.214,1.214v25.636c0,0.667-0.546,1.214-1.214,1.214h-9.185
		c-0.667,0-1.214-0.546-1.214-1.214V51.28C195.553,50.612,196.099,50.066,196.767,50.066z"/>
	<path fill="#FEFEFE" d="M181.284,50.066h9.185c0.667,0,1.214,0.546,1.214,1.214v25.636c0,0.667-0.546,1.214-1.214,1.214h-9.185
		c-0.667,0-1.214-0.546-1.214-1.214V51.28C180.07,50.612,180.616,50.066,181.284,50.066z"/>
	<circle fill="#2C97E8" cx="185.876" cy="72.323" r="2.903"/>
</g>
<path fill="#2C97E8" d="M224.009,96.73h-37.633c-1.362,0-2.476-1.114-2.476-2.476v0c0-1.362,1.114-2.476,2.476-2.476h37.633
	c1.362,0,2.476,1.114,2.476,2.476v0C226.485,95.616,225.37,96.73,224.009,96.73z"/>
<path fill="#2C97E8" d="M199.25,108.614h-24.759c-1.362,0-2.476-1.114-2.476-2.476v0c0-1.362,1.114-2.476,2.476-2.476h24.759
	c1.362,0,2.476,1.114,2.476,2.476v0C201.726,107.5,200.612,108.614,199.25,108.614z"/>
<path fill="#2C97E8" d="M42.776,28.396H5.143c-1.362,0-2.476-1.114-2.476-2.476v0c0-1.362,1.114-2.476,2.476-2.476h37.633
	c1.362,0,2.476,1.114,2.476,2.476v0C45.251,27.282,44.137,28.396,42.776,28.396z"/>
<path fill="#2C97E8" d="M32.872,106.634H8.114c-1.362,0-2.476-1.114-2.476-2.476l0,0c0-1.362,1.114-2.476,2.476-2.476h24.759
	c1.362,0,2.476,1.114,2.476,2.476l0,0C35.348,105.519,34.234,106.634,32.872,106.634z"/>
</svg>
