<?xml version="1.0" encoding="utf-8"?>
<!-- Generator: Adobe Illustrator 21.0.0, SVG Export Plug-In . SVG Version: 6.00 Build 0)  -->
<svg version="1.0" id="图层_1" xmlns="http://www.w3.org/2000/svg" xmlns:xlink="http://www.w3.org/1999/xlink" x="0px" y="0px"
	 viewBox="0 0 500 264" enable-background="new 0 0 500 264" xml:space="preserve">
<g>
	<g>
		<path opacity="0.06" fill="#0B78F7" d="M253.952,47.615c-107.141,0-193.996,86.855-193.996,193.996h387.991
			C447.947,134.47,361.093,47.615,253.952,47.615z"/>
		<path opacity="0.06" fill="#0B78F7" d="M253.952,84.473c-86.785,0-157.138,70.353-157.138,157.138H411.09
			C411.09,154.826,340.737,84.473,253.952,84.473z"/>
		<path opacity="0.06" fill="#0B78F7" d="M253.952,116.155c-69.287,0-125.455,56.168-125.455,125.455h250.911
			C379.407,172.324,323.239,116.155,253.952,116.155z"/>
	</g>
	<path fill="#2C97E8" d="M200.001,244.538H3.844c-0.731,0-1.329-0.598-1.329-1.329l0,0c0-0.731,0.598-1.329,1.329-1.329h196.157
		c0.731,0,1.329,0.598,1.329,1.329l0,0C201.33,243.94,200.732,244.538,200.001,244.538z"/>
	<path fill="#2C97E8" d="M495.976,244.281H304.252c-0.731,0-1.329-0.598-1.329-1.329l0,0c0-0.731,0.598-1.329,1.329-1.329h191.725
		c0.731,0,1.329,0.598,1.329,1.329l0,0C497.305,243.683,496.707,244.281,495.976,244.281z"/>
	<g>
		<g>
			<path fill="#AFCDF9" stroke="#1077F8" stroke-width="0.8519" stroke-miterlimit="10" d="M208.284,245.89h-48.636
				c-6.6,0-12-5.4-12-12v-13.96c0-6.6,5.4-12,12-12h48.636c6.6,0,12,5.4,12,12v13.96C220.284,240.49,214.884,245.89,208.284,245.89z
				"/>
			<path fill="#FFFFFF" stroke="#2C97E8" stroke-width="1.7719" stroke-miterlimit="10" d="M197.632,245.89h-37.983
				c-6.6,0-12-5.4-12-12v-13.96c0-6.6,5.4-12,12-12h37.983c6.6,0,12,5.4,12,12v13.96C209.632,240.49,204.232,245.89,197.632,245.89z
				"/>
		</g>
		<path fill="#AFCDF9" stroke="#1077F8" stroke-width="1.4118" stroke-miterlimit="10" d="M217.169,254.934h-65.94c-4.4,0-8-3.6-8-8
			v-7.82c0-4.4,3.6-8,8-8h65.94c4.4,0,8,3.6,8,8v7.82C225.169,251.334,221.569,254.934,217.169,254.934z"/>
		<path fill="#FFFFFF" stroke="#2C97E8" stroke-width="1.7719" stroke-miterlimit="10" d="M204.021,254.934h-54.257
			c-3.85,0-7-3.15-7-7v-9.82c0-3.85,3.15-7,7-7h54.257c3.85,0,7,3.15,7,7v9.82C211.021,251.784,207.871,254.934,204.021,254.934z"/>
		<path fill="#AFCDF9" stroke="#1077F8" stroke-width="1.4118" stroke-miterlimit="10" d="M217.169,224.582h-65.94c-4.4,0-8-3.6-8-8
			v-7.82c0-4.4,3.6-8,8-8h65.94c4.4,0,8,3.6,8,8v7.82C225.169,220.982,221.569,224.582,217.169,224.582z"/>
		<path fill="#FFFFFF" stroke="#2C97E8" stroke-width="1.7719" stroke-miterlimit="10" d="M204.021,224.582h-54.257
			c-3.85,0-7-3.15-7-7v-9.82c0-3.85,3.15-7,7-7h54.257c3.85,0,7,3.15,7,7v9.82C211.021,221.432,207.871,224.582,204.021,224.582z"/>
		<circle fill="#AFCDF9" stroke="#2C97E8" stroke-width="1.1308" stroke-miterlimit="10" cx="154.702" cy="212.672" r="4.742"/>
		<path fill="#2C97E8" d="M206.838,213.674h-42.881c-0.344,0-0.626-0.282-0.626-0.626v-0.072c0-0.344,0.282-0.626,0.626-0.626
			h42.881c0.344,0,0.626,0.282,0.626,0.626v0.072C207.463,213.393,207.182,213.674,206.838,213.674z"/>
		<path fill="#2C97E8" d="M203.805,244.174h-56.445c-0.344,0-0.626-0.282-0.626-0.626v-0.072c0-0.344,0.282-0.626,0.626-0.626
			h56.445c0.344,0,0.626,0.282,0.626,0.626v0.072C204.431,243.892,204.149,244.174,203.805,244.174z"/>
		<path fill="#AFCDF9" stroke="#2C97E8" stroke-width="0.8822" stroke-miterlimit="10" d="M184.746,219.96L184.746,219.96
			c-1.25,0-2.273-1.023-2.273-2.273v-9.35c0-1.25,1.023-2.273,2.273-2.273l0,0c1.25,0,2.273,1.023,2.273,2.273v9.35
			C187.019,218.938,185.996,219.96,184.746,219.96z"/>
		<path fill="#AFCDF9" stroke="#1077F8" stroke-width="0.8822" stroke-miterlimit="10" d="M201.816,219.96h-0.247
			c-1.182,0-2.149-0.967-2.149-2.149v-9.597c0-1.182,0.967-2.149,2.149-2.149h0.247c1.182,0,2.149,0.967,2.149,2.149v9.597
			C203.965,218.993,202.998,219.96,201.816,219.96z"/>
		<path fill="#AFCDF9" stroke="#2C97E8" stroke-width="0.8822" stroke-miterlimit="10" d="M171.397,250.46L171.397,250.46
			c-1.25,0-2.273-1.023-2.273-2.273v-9.35c0-1.25,1.023-2.273,2.273-2.273h0c1.25,0,2.273,1.023,2.273,2.273v9.35
			C173.67,249.437,172.647,250.46,171.397,250.46z"/>
		<path fill="#AFCDF9" stroke="#2C97E8" stroke-width="0.8822" stroke-miterlimit="10" d="M154.12,250.46L154.12,250.46
			c-1.25,0-2.273-1.023-2.273-2.273v-9.35c0-1.25,1.023-2.273,2.273-2.273l0,0c1.25,0,2.273,1.023,2.273,2.273v9.35
			C156.393,249.437,155.37,250.46,154.12,250.46z"/>
	</g>
	<g>
		<g>
			<path fill="#AFCDF9" stroke="#2C97E8" stroke-width="1.7719" stroke-miterlimit="10" d="M344.587,245.89h-48.636
				c-6.6,0-12-5.4-12-12v-13.96c0-6.6,5.4-12,12-12h48.636c6.6,0,12,5.4,12,12v13.96C356.587,240.49,351.187,245.89,344.587,245.89z
				"/>
			<path fill="#FFFFFF" stroke="#2C97E8" stroke-width="1.7719" stroke-miterlimit="10" d="M333.935,245.89h-37.983
				c-6.6,0-12-5.4-12-12v-13.96c0-6.6,5.4-12,12-12h37.983c6.6,0,12,5.4,12,12v13.96C345.935,240.49,340.535,245.89,333.935,245.89z
				"/>
		</g>
		<path fill="#AFCDF9" stroke="#2C97E8" stroke-width="1.7719" stroke-miterlimit="10" d="M354.471,254.934h-67.939
			c-3.85,0-7-3.15-7-7v-9.82c0-3.85,3.15-7,7-7h67.939c3.85,0,7,3.15,7,7v9.82C361.471,251.784,358.321,254.934,354.471,254.934z"/>
		<path fill="#FFFFFF" stroke="#2C97E8" stroke-width="1.7719" stroke-miterlimit="10" d="M340.324,254.934h-54.257
			c-3.85,0-7-3.15-7-7v-9.82c0-3.85,3.15-7,7-7h54.257c3.85,0,7,3.15,7,7v9.82C347.324,251.784,344.174,254.934,340.324,254.934z"/>
		<path fill="#AFCDF9" stroke="#2C97E8" stroke-width="1.7719" stroke-miterlimit="10" d="M354.471,224.582h-67.939
			c-3.85,0-7-3.15-7-7v-9.82c0-3.85,3.15-7,7-7h67.939c3.85,0,7,3.15,7,7v9.82C361.471,221.432,358.321,224.582,354.471,224.582z"/>
		<path fill="#FFFFFF" stroke="#2C97E8" stroke-width="1.7719" stroke-miterlimit="10" d="M340.324,224.582h-54.257
			c-3.85,0-7-3.15-7-7v-9.82c0-3.85,3.15-7,7-7h54.257c3.85,0,7,3.15,7,7v9.82C347.324,221.432,344.174,224.582,340.324,224.582z"/>
		<circle fill="#63D18C" cx="291.004" cy="212.672" r="4.742"/>
		<path fill="#2C97E8" d="M343.14,213.674H300.26c-0.344,0-0.626-0.282-0.626-0.626v-0.072c0-0.344,0.282-0.626,0.626-0.626h42.881
			c0.344,0,0.626,0.282,0.626,0.626v0.072C343.766,213.393,343.484,213.674,343.14,213.674z"/>
		<path fill="#2C97E8" d="M340.108,244.174h-56.445c-0.344,0-0.626-0.282-0.626-0.626v-0.072c0-0.344,0.282-0.626,0.626-0.626
			h56.445c0.344,0,0.626,0.282,0.626,0.626v0.072C340.733,243.892,340.452,244.174,340.108,244.174z"/>
		<path fill="#AFCDF9" stroke="#2C97E8" stroke-width="0.8822" stroke-miterlimit="10" d="M329.908,219.96L329.908,219.96
			c-1.25,0-2.273-1.023-2.273-2.273v-9.35c0-1.25,1.023-2.273,2.273-2.273l0,0c1.25,0,2.273,1.023,2.273,2.273v9.35
			C332.181,218.938,331.158,219.96,329.908,219.96z"/>
		<path fill="#AFCDF9" stroke="#2C97E8" stroke-width="0.8822" stroke-miterlimit="10" d="M337.995,219.96L337.995,219.96
			c-1.25,0-2.273-1.023-2.273-2.273v-9.35c0-1.25,1.023-2.273,2.273-2.273l0,0c1.25,0,2.273,1.023,2.273,2.273v9.35
			C340.267,218.938,339.245,219.96,337.995,219.96z"/>
		<path fill="#AFCDF9" stroke="#2C97E8" stroke-width="0.8822" stroke-miterlimit="10" d="M316.559,250.46L316.559,250.46
			c-1.25,0-2.273-1.023-2.273-2.273v-9.35c0-1.25,1.023-2.273,2.273-2.273l0,0c1.25,0,2.273,1.023,2.273,2.273v9.35
			C318.831,249.437,317.809,250.46,316.559,250.46z"/>
		<path fill="#AFCDF9" stroke="#1077F8" stroke-width="0.8822" stroke-miterlimit="10" d="M290.546,250.46h-0.247
			c-1.182,0-2.149-0.967-2.149-2.149v-9.597c0-1.182,0.967-2.149,2.149-2.149h0.247c1.182,0,2.149,0.967,2.149,2.149v9.597
			C292.695,249.493,291.728,250.46,290.546,250.46z"/>
	</g>
	<g>
		<g>
			<path fill="#AFCDF9" stroke="#2C97E8" stroke-width="2.2149" stroke-miterlimit="10" d="M286.67,250.974h-69.105
				c-6.6,0-12-5.4-12-12v-24.657c0-6.6,5.4-12,12-12h69.105c6.6,0,12,5.4,12,12v24.657
				C298.67,245.574,293.27,250.974,286.67,250.974z"/>
			<path fill="#FFFFFF" stroke="#2C97E8" stroke-width="2.2149" stroke-miterlimit="10" d="M273.016,250.974h-55.451
				c-6.6,0-12-5.4-12-12v-24.657c0-6.6,5.4-12,12-12h55.451c6.6,0,12,5.4,12,12v24.657
				C285.016,245.574,279.616,250.974,273.016,250.974z"/>
		</g>
		<path fill="#AFCDF9" stroke="#2C97E8" stroke-width="2.2149" stroke-miterlimit="10" d="M297.931,262.567H206.9
			c-3.85,0-7-3.15-7-7v-16.532c0-3.85,3.15-7,7-7h91.031c3.85,0,7,3.15,7,7v16.532C304.931,259.417,301.781,262.567,297.931,262.567
			z"/>
		<path fill="#FFFFFF" stroke="#2C97E8" stroke-width="2.2149" stroke-miterlimit="10" d="M279.797,262.567h-73.492
			c-3.85,0-7-3.15-7-7v-16.532c0-3.85,3.15-7,7-7h73.492c3.85,0,7,3.15,7,7v16.532C286.797,259.417,283.647,262.567,279.797,262.567
			z"/>
		<path fill="#AFCDF9" stroke="#2C97E8" stroke-width="2.2149" stroke-miterlimit="10" d="M297.931,223.662H206.9
			c-3.85,0-7-3.15-7-7v-16.532c0-3.85,3.15-7,7-7h91.031c3.85,0,7,3.15,7,7v16.532C304.931,220.512,301.781,223.662,297.931,223.662
			z"/>
		<path fill="#FFFFFF" stroke="#2C97E8" stroke-width="2.2149" stroke-miterlimit="10" d="M279.797,223.662h-73.492
			c-3.85,0-7-3.15-7-7v-16.532c0-3.85,3.15-7,7-7h73.492c3.85,0,7,3.15,7,7v16.532C286.797,220.512,283.647,223.662,279.797,223.662
			z"/>
		<circle fill="#AFCDF9" stroke="#2C97E8" stroke-width="1.1308" stroke-miterlimit="10" cx="214.606" cy="208.395" r="6.078"/>
		<path fill="#2C97E8" d="M281.434,209.68H226.47c-0.441,0-0.802-0.361-0.802-0.802v-0.092c0-0.441,0.361-0.802,0.802-0.802h54.965
			c0.441,0,0.802,0.361,0.802,0.802v0.092C282.236,209.319,281.875,209.68,281.434,209.68z"/>
		<path fill="#2C97E8" d="M277.547,248.775h-72.351c-0.441,0-0.802-0.361-0.802-0.802v-0.092c0-0.441,0.361-0.802,0.802-0.802
			h72.351c0.441,0,0.802,0.361,0.802,0.802v0.092C278.349,248.414,277.988,248.775,277.547,248.775z"/>
		<path fill="#AFCDF9" stroke="#2C97E8" stroke-width="1.1308" stroke-miterlimit="10" d="M264.473,217.737L264.473,217.737
			c-1.602,0-2.913-1.311-2.913-2.913V202.84c0-1.602,1.311-2.913,2.913-2.913l0,0c1.602,0,2.913,1.311,2.913,2.913v11.985
			C267.386,216.426,266.075,217.737,264.473,217.737z"/>
		<path fill="#AFCDF9" stroke="#2C97E8" stroke-width="1.1308" stroke-miterlimit="10" d="M274.839,217.737L274.839,217.737
			c-1.602,0-2.913-1.311-2.913-2.913V202.84c0-1.602,1.311-2.913,2.913-2.913l0,0c1.602,0,2.913,1.311,2.913,2.913v11.985
			C277.752,216.426,276.441,217.737,274.839,217.737z"/>
		<path fill="#AFCDF9" stroke="#2C97E8" stroke-width="1.1308" stroke-miterlimit="10" d="M236.006,256.832L236.006,256.832
			c-1.602,0-2.913-1.311-2.913-2.913v-11.985c0-1.602,1.311-2.913,2.913-2.913l0,0c1.602,0,2.913,1.311,2.913,2.913v11.985
			C238.919,255.521,237.608,256.832,236.006,256.832z"/>
		<path fill="#AFCDF9" stroke="#2C97E8" stroke-width="1.1308" stroke-miterlimit="10" d="M213.86,256.832L213.86,256.832
			c-1.602,0-2.913-1.311-2.913-2.913v-11.985c0-1.602,1.311-2.913,2.913-2.913l0,0c1.602,0,2.913,1.311,2.913,2.913v11.985
			C216.773,255.521,215.463,256.832,213.86,256.832z"/>
	</g>
	<path fill="#FFFFFF" stroke="#2C97E8" stroke-width="3.1725" stroke-miterlimit="10" d="M153.854,140.349V8.502
		c0-3.59,2.937-6.527,6.527-6.527H340.34c3.59,0,6.527,2.937,6.527,6.527v34.036"/>
	<polyline fill="none" stroke="#92B4DD" stroke-width="1.1534" stroke-miterlimit="10" points="162.437,133.022 162.437,10.767 
		338.283,10.767 338.283,42.302 	"/>
	<rect x="162.552" y="10.78" opacity="0.2" fill="none" width="175.846" height="122.255"/>
	<polyline fill="#FFFFFF" stroke="#2C97E8" stroke-width="3.1725" stroke-miterlimit="10" points="318.559,152.072 138.533,152.072 
		138.533,140.349 316.203,140.349 	"/>
	<path fill="#AFCDF9" stroke="#2C97E8" stroke-width="2.115" stroke-miterlimit="10" d="M226.61,141.037v2.102
		c0,1.381,1.119,2.5,2.5,2.5h42.73c1.38,0,2.5-1.119,2.5-2.5v-2.102H226.61z"/>
	<path fill="#D5E7FF" stroke="#0B78F7" stroke-width="1.3747" stroke-miterlimit="10" d="M159.79,95.448"/>
	<rect x="163.006" y="11.36" fill="#EEF6FF" width="174.381" height="129.569"/>
	<path fill="#FFFFFF" stroke="#2C97E8" stroke-width="3.1725" stroke-miterlimit="10" d="M174.343,156.692h-47.291
		c-4.01,0-7.292-3.281-7.292-7.292V55.49c0-4.01,3.281-7.292,7.292-7.292h47.291c4.01,0,7.292,3.281,7.292,7.292v93.91
		C181.634,153.41,178.353,156.692,174.343,156.692z"/>
	
		<rect x="125.609" y="61.111" fill="#EEF6FF" stroke="#2C97E8" stroke-width="1.0575" stroke-miterlimit="10" width="50.176" height="81.994"/>
	<path fill="#455D82" d="M156.947,56.73h-12.5c-0.601,0-1.093-0.492-1.093-1.093v-0.126c0-0.601,0.492-1.093,1.093-1.093h12.5
		c0.601,0,1.093,0.492,1.093,1.093v0.126C158.04,56.238,157.548,56.73,156.947,56.73z"/>
	<path fill="#7F9ABA" d="M139.735,56.73h0.126c0.601,0,1.093-0.492,1.093-1.093v-0.126c0-0.601-0.492-1.093-1.093-1.093h-0.126
		c-0.601,0-1.093,0.492-1.093,1.093v0.126C138.642,56.238,139.134,56.73,139.735,56.73z"/>
	<path opacity="0.2" fill="#1077F8" d="M152.693,152.072h-8.321c-1.444,0-2.625-1.181-2.625-2.625v-0.302
		c0-1.444,1.181-2.625,2.625-2.625h8.321c1.444,0,2.625,1.181,2.625,2.625v0.302C155.318,150.891,154.137,152.072,152.693,152.072z"
		/>
	<path fill="none" stroke="#2C97E8" stroke-width="1.0575" stroke-miterlimit="10" d="M159.616,92.897c0.199,0,0.36,0.161,0.36,0.36
		l0.032,14.38c0,0.48-0.158,0.884-0.475,1.212c-0.317,0.328-0.704,0.491-1.163,0.491h-0.098c-0.199,0-0.36,0.161-0.36,0.36v4.225
		c0,0.437-0.158,0.819-0.475,1.146c-0.317,0.327-0.704,0.491-1.163,0.491h-0.95c-0.437,0-0.813-0.164-1.13-0.491
		c-0.317-0.328-0.475-0.71-0.475-1.146V109.7c0-0.199-0.161-0.36-0.36-0.36h-5.306c-0.199,0-0.36,0.161-0.36,0.36v4.225
		c0,0.437-0.158,0.819-0.475,1.146c-0.317,0.327-0.704,0.491-1.163,0.491h-0.95c-0.437,0-0.813-0.164-1.13-0.491
		c-0.317-0.328-0.475-0.71-0.475-1.146V109.7c0-0.199-0.161-0.36-0.36-0.36l0,0c-0.458,0-0.846-0.164-1.163-0.491
		c-0.317-0.327-0.475-0.732-0.475-1.212V93.257c0-0.199,0.161-0.36,0.36-0.36H159.616z"/>
	<path fill="none" stroke="#2C97E8" stroke-width="1.0575" stroke-miterlimit="10" d="M155.89,85.881l1.61-2.789
		c0.187-0.324,0.075-0.742-0.249-0.929c-0.324-0.187-0.742-0.075-0.929,0.249l-1.637,2.835c-1.148-0.502-2.416-0.782-3.75-0.782
		c-1.334,0-2.601,0.28-3.75,0.782l-1.637-2.835c-0.187-0.324-0.605-0.436-0.929-0.249c-0.324,0.187-0.436,0.605-0.249,0.929
		l1.61,2.789c-1.879,1.173-3.312,2.993-3.987,5.149h17.883C159.202,88.874,157.769,87.054,155.89,85.881z"/>
	<path fill="#2C97E8" d="M147.248,89.047c0.252,0,0.465-0.087,0.639-0.262c0.174-0.174,0.261-0.387,0.261-0.639
		c0-0.252-0.087-0.465-0.261-0.639c-0.174-0.174-0.387-0.262-0.639-0.262s-0.465,0.087-0.639,0.262
		c-0.174,0.174-0.262,0.387-0.262,0.639c0,0.252,0.087,0.465,0.262,0.639C146.783,88.96,146.997,89.047,147.248,89.047
		L147.248,89.047z"/>
	<path fill="#2C97E8" d="M154.395,88.931c0.252,0,0.465-0.087,0.639-0.261s0.261-0.387,0.261-0.639c0-0.252-0.087-0.465-0.261-0.639
		c-0.174-0.174-0.387-0.262-0.639-0.262c-0.252,0-0.465,0.087-0.639,0.262c-0.174,0.174-0.261,0.387-0.261,0.639
		c0,0.252,0.087,0.465,0.261,0.639S154.143,88.931,154.395,88.931L154.395,88.931z"/>
	<path fill="none" stroke="#2C97E8" stroke-width="1.0575" stroke-miterlimit="10" d="M138.066,106.186h-0.198
		c-0.945,0-1.719-0.773-1.719-1.719v-9.851c0-0.945,0.773-1.719,1.719-1.719h0.198c0.945,0,1.719,0.773,1.719,1.719v9.851
		C139.784,105.412,139.011,106.186,138.066,106.186z"/>
	<path fill="none" stroke="#2C97E8" stroke-width="1.0575" stroke-miterlimit="10" d="M163.644,106.186h-0.198
		c-0.945,0-1.719-0.773-1.719-1.719v-9.851c0-0.945,0.773-1.719,1.719-1.719h0.198c0.945,0,1.719,0.773,1.719,1.719v9.851
		C165.362,105.412,164.589,106.186,163.644,106.186z"/>
	<path fill="#FFFFFF" stroke="#2C97E8" stroke-width="3.1725" stroke-miterlimit="10" d="M372.357,156.427h-47.291
		c-4.01,0-7.292-3.281-7.292-7.292v-93.91c0-4.01,3.281-7.292,7.292-7.292h47.291c4.01,0,7.292,3.281,7.292,7.292v93.91
		C379.649,153.146,376.367,156.427,372.357,156.427z"/>
	
		<rect x="323.623" y="60.847" fill="#EEF6FF" stroke="#2C97E8" stroke-width="1.0575" stroke-miterlimit="10" width="50.176" height="81.994"/>
	<path fill="#455D82" d="M354.961,58.263h-12.5c-0.601,0-1.093-0.492-1.093-1.093v-0.126c0-0.601,0.492-1.093,1.093-1.093h12.5
		c0.601,0,1.093,0.492,1.093,1.093v0.126C356.054,57.771,355.562,58.263,354.961,58.263z"/>
	<path fill="#7F9ABA" d="M348.648,54.184h0.126c0.601,0,1.093-0.492,1.093-1.093v-0.126c0-0.601-0.492-1.093-1.093-1.093h-0.126
		c-0.601,0-1.093,0.492-1.093,1.093v0.126C347.555,53.692,348.047,54.184,348.648,54.184z"/>
	<circle opacity="0.2" fill="#1077F8" cx="348.711" cy="149.233" r="3.654"/>
	<path fill="#EEF6FF" stroke="#2C97E8" stroke-width="1.0575" stroke-miterlimit="10" d="M356.701,98.33
		c0.042,4.353,4.003,5.801,4.05,5.821c-0.036,0.1-0.635,2.065-2.09,4.094c-1.258,1.754-2.561,3.499-4.617,3.534
		c-2.023,0.036-2.67-1.143-4.982-1.143c-2.31,0-3.033,1.107-4.944,1.179c-1.982,0.072-3.494-1.893-4.762-3.64
		c-2.594-3.575-4.573-10.1-1.913-14.505c1.32-2.189,3.682-3.572,6.243-3.61c1.949-0.033,3.79,1.254,4.979,1.254
		c1.193,0,3.428-1.547,5.778-1.32c0.983,0.039,3.745,0.378,5.518,2.851C359.819,92.934,356.663,94.683,356.701,98.33L356.701,98.33z
		 M348.426,88.247c-0.228-1.655,0.626-3.374,1.601-4.455c1.089-1.216,2.927-2.121,4.445-2.178c0.195,1.685-0.518,3.377-1.57,4.596
		C351.848,87.425,350.119,88.372,348.426,88.247L348.426,88.247z M348.426,89.668"/>
	<circle fill="#FF6989" cx="176.216" cy="25.453" r="5.607"/>
	<circle fill="#FFCC80" cx="191.726" cy="25.453" r="5.607"/>
	<circle fill="#63D18C" cx="207.236" cy="25.453" r="5.607"/>
	<path fill="#2C97E8" d="M251.571,53.029c-11.843,0-21.445,9.601-21.445,21.445c0,11.844,9.601,21.445,21.445,21.445
		c11.844,0,21.445-9.601,21.445-21.445C273.016,62.63,263.415,53.029,251.571,53.029L251.571,53.029z M245.785,55.852
		c-0.42,0.44-0.82,0.93-1.205,1.458c-0.036,0.05-0.072,0.098-0.108,0.148c-0.772,1.085-1.47,2.336-2.073,3.735
		c-0.032,0.075-0.062,0.154-0.095,0.231c-0.035,0.084-0.063,0.176-0.099,0.262c-1.205-0.587-2.28-1.291-3.226-2.077
		C240.95,57.935,243.253,56.638,245.785,55.852L245.785,55.852z M237.572,60.933c1.153,0.986,2.475,1.86,3.962,2.572
		c-0.026,0.08-0.054,0.159-0.08,0.24c-0.469,1.482-0.844,3.07-1.109,4.75c-0.034,0.211-0.06,0.428-0.09,0.641
		c-0.09,0.639-0.163,1.287-0.22,1.948c-0.021,0.246-0.044,0.489-0.061,0.739c-0.037,0.55-0.045,1.114-0.062,1.676h-7.794
		C232.358,68.621,234.395,64.223,237.572,60.933L237.572,60.933z M232.116,75.448h7.794c0.018,0.56,0.025,1.126,0.062,1.676
		c0.018,0.249,0.04,0.493,0.061,0.739c0.058,0.661,0.131,1.31,0.22,1.948c0.03,0.215,0.056,0.43,0.09,0.642
		c0.265,1.679,0.64,3.267,1.109,4.749c0.025,0.081,0.052,0.161,0.08,0.241c-1.487,0.711-2.809,1.585-3.962,2.572
		C234.395,84.724,232.358,80.326,232.116,75.448L232.116,75.448z M238.979,89.337c0.946-0.786,2.022-1.489,3.226-2.077
		c0.035,0.086,0.063,0.179,0.099,0.263c0.032,0.076,0.062,0.155,0.095,0.23c0.603,1.4,1.301,2.651,2.073,3.736
		c0.036,0.051,0.072,0.098,0.108,0.148c0.385,0.528,0.786,1.02,1.206,1.458C243.253,92.309,240.95,91.012,238.979,89.337
		L238.979,89.337z M250.596,93.871c-2.707-0.538-5.082-3.297-6.676-7.346c2.014-0.747,4.278-1.188,6.676-1.287V93.871z
		 M250.596,83.29c-2.616,0.1-5.092,0.583-7.307,1.404c-0.837-2.715-1.359-5.863-1.443-9.246h8.749V83.29z M250.596,73.499h-8.749
		c0.084-3.384,0.605-6.532,1.443-9.247c2.215,0.823,4.691,1.304,7.307,1.407V73.499z M250.596,63.709
		c-2.397-0.098-4.661-0.541-6.676-1.287c1.594-4.05,3.969-6.809,6.676-7.346V63.709z M271.027,73.499h-7.794
		c-0.017-0.56-0.025-1.125-0.062-1.676c-0.017-0.25-0.04-0.493-0.061-0.739c-0.058-0.661-0.131-1.309-0.219-1.948
		c-0.03-0.214-0.057-0.43-0.09-0.641c-0.266-1.68-0.641-3.268-1.109-4.75c-0.025-0.081-0.053-0.16-0.08-0.24
		c1.487-0.712,2.809-1.586,3.962-2.572C268.749,64.223,270.785,68.621,271.027,73.499L271.027,73.499z M264.164,59.61
		c-0.946,0.787-2.022,1.489-3.227,2.077c-0.034-0.086-0.062-0.178-0.097-0.262c-0.032-0.077-0.062-0.156-0.095-0.231
		c-0.603-1.4-1.301-2.651-2.073-3.735c-0.036-0.051-0.072-0.099-0.108-0.148c-0.385-0.528-0.786-1.018-1.205-1.458
		C259.89,56.638,262.193,57.935,264.164,59.61L264.164,59.61z M252.546,55.076c2.707,0.538,5.082,3.297,6.676,7.346
		c-2.014,0.747-4.278,1.188-6.676,1.287V55.076z M252.546,65.658c2.616-0.102,5.092-0.584,7.308-1.407
		c0.837,2.715,1.358,5.863,1.443,9.247h-8.751V65.658z M252.546,75.448h8.751c-0.085,3.384-0.605,6.532-1.443,9.246
		c-2.215-0.823-4.691-1.304-7.308-1.404V75.448z M252.546,93.871v-8.633c2.398,0.099,4.662,0.541,6.676,1.287
		C257.629,90.575,255.253,93.333,252.546,93.871L252.546,93.871z M257.359,93.096c0.42-0.439,0.82-0.93,1.205-1.458
		c0.036-0.05,0.072-0.098,0.108-0.148c0.773-1.085,1.47-2.335,2.073-3.735c0.033-0.075,0.062-0.154,0.095-0.23
		c0.035-0.084,0.063-0.178,0.097-0.263c1.205,0.588,2.281,1.292,3.227,2.077C262.193,91.012,259.891,92.309,257.359,93.096
		L257.359,93.096z M265.571,88.014c-1.153-0.987-2.475-1.861-3.961-2.572c0.027-0.08,0.055-0.16,0.08-0.241
		c0.468-1.483,0.844-3.071,1.109-4.749c0.033-0.213,0.06-0.428,0.09-0.642c0.09-0.638,0.163-1.287,0.219-1.948
		c0.021-0.246,0.045-0.489,0.062-0.739c0.037-0.549,0.046-1.115,0.062-1.676h7.794C270.785,80.326,268.748,84.724,265.571,88.014
		L265.571,88.014z M265.571,88.014"/>
	<g>
		<g>
			<g>
				
					<line fill="none" stroke="#2C97E8" stroke-width="2.115" stroke-miterlimit="10" x1="251.479" y1="160.557" x2="251.483" y2="162.672"/>
				
					<line fill="none" stroke="#2C97E8" stroke-width="2.115" stroke-miterlimit="10" stroke-dasharray="4.1879,2.0939" x1="251.487" y1="164.766" x2="251.529" y2="188.846"/>
				
					<line fill="none" stroke="#2C97E8" stroke-width="2.115" stroke-miterlimit="10" x1="251.531" y1="189.893" x2="251.535" y2="192.008"/>
			</g>
		</g>
		<g>
			<g>
				
					<line fill="none" stroke="#2C97E8" stroke-width="2.115" stroke-miterlimit="10" x1="150.094" y1="159.782" x2="152.071" y2="160.533"/>
				
					<line fill="none" stroke="#2C97E8" stroke-width="2.115" stroke-miterlimit="10" stroke-dasharray="4.0864,2.0432" x1="153.981" y1="161.258" x2="233.246" y2="191.374"/>
				
					<line fill="none" stroke="#2C97E8" stroke-width="2.115" stroke-miterlimit="10" x1="234.201" y1="191.737" x2="236.178" y2="192.488"/>
			</g>
		</g>
		<g>
			<g>
				
					<line fill="none" stroke="#2C97E8" stroke-width="2.115" stroke-miterlimit="10" x1="348.251" y1="160.889" x2="346.28" y2="161.656"/>
				
					<line fill="none" stroke="#2C97E8" stroke-width="2.115" stroke-miterlimit="10" stroke-dasharray="4.1141,2.057" x1="344.363" y1="162.402" x2="270.559" y2="191.126"/>
				
					<line fill="none" stroke="#2C97E8" stroke-width="2.115" stroke-miterlimit="10" x1="269.6" y1="191.499" x2="267.629" y2="192.266"/>
			</g>
		</g>
	</g>
	<rect x="144.238" y="42.027" fill="#FFFFFF" width="18.768" height="4.582"/>
	<g>
		<circle fill="#63D18C" stroke="#FFFFFF" stroke-width="2.115" stroke-miterlimit="10" cx="251.461" cy="147.619" r="11.897"/>
		<path fill="#FFFFFF" d="M249.991,152.585c-0.251,0-0.501-0.096-0.693-0.288l-3.92-3.936c-0.382-0.384-0.382-1.008,0-1.392
			c0.383-0.384,1.004-0.384,1.386,0l3.227,3.24l6.167-6.192c0.382-0.385,1.003-0.385,1.386,0c0.382,0.384,0.382,1.007,0,1.391
			l-6.86,6.889C250.493,152.488,250.242,152.585,249.991,152.585z"/>
	</g>
	<g>
		<circle fill="#63D18C" stroke="#FFFFFF" stroke-width="2.115" stroke-miterlimit="10" cx="150.524" cy="147.619" r="11.897"/>
		<path fill="#FFFFFF" d="M149.054,152.585c-0.251,0-0.501-0.096-0.693-0.288l-3.92-3.936c-0.382-0.384-0.382-1.008,0-1.392
			c0.383-0.384,1.004-0.384,1.386,0l3.227,3.24l6.167-6.192c0.382-0.385,1.003-0.385,1.386,0c0.382,0.384,0.382,1.007,0,1.391
			l-6.86,6.889C149.556,152.488,149.305,152.585,149.054,152.585z"/>
	</g>
	<g>
		<circle fill="#63D18C" stroke="#FFFFFF" stroke-width="2.115" stroke-miterlimit="10" cx="348.433" cy="147.619" r="11.897"/>
		<path fill="#FFFFFF" d="M346.963,152.585c-0.251,0-0.501-0.096-0.693-0.288l-3.92-3.936c-0.382-0.384-0.382-1.008,0-1.392
			c0.383-0.384,1.004-0.384,1.386,0l3.227,3.24l6.167-6.192c0.382-0.385,1.003-0.385,1.386,0c0.382,0.384,0.382,1.007,0,1.391
			l-6.86,6.889C347.465,152.488,347.213,152.585,346.963,152.585z"/>
	</g>
</g>
</svg>
