<?xml version="1.0" encoding="utf-8"?>
<!-- Generator: Adobe Illustrator 21.0.0, SVG Export Plug-In . SVG Version: 6.00 Build 0)  -->
<svg version="1.0" id="图层_1" xmlns="http://www.w3.org/2000/svg" xmlns:xlink="http://www.w3.org/1999/xlink" x="0px" y="0px"
	 viewBox="0 0 500 264" enable-background="new 0 0 500 264" xml:space="preserve">
<g>
	<g>
		<path fill="#B3D9FF" stroke="#2C97E8" stroke-width="2.6094" stroke-miterlimit="10" d="M348.482,236.414H228.264
			c-3.104,0-5.643-2.539-5.643-5.643V110.552c0-3.104,2.539-5.643,5.643-5.643h120.219c3.104,0,5.643,2.539,5.643,5.643v120.219
			C354.126,233.875,351.586,236.414,348.482,236.414z"/>
		<path fill="#FFFFFF" stroke="#2C97E8" stroke-width="2.5459" stroke-miterlimit="10" d="M335.363,221.114h-93.98
			c-1.904,0-3.462-1.558-3.462-3.462v-89.125c0-1.904,1.558-3.462,3.462-3.462h93.98c1.904,0,3.462,1.558,3.462,3.462v89.125
			C338.826,219.556,337.267,221.114,335.363,221.114z"/>
		<circle fill="none" stroke="#5FA9FF" stroke-width="4.0463" stroke-miterlimit="10" cx="426.065" cy="208.76" r="5.627"/>
		<circle fill="none" stroke="#5FA9FF" stroke-width="4.0463" stroke-miterlimit="10" cx="414.247" cy="190.846" r="5.627"/>
		<circle fill="none" stroke="#E3F1FF" stroke-width="4.0463" stroke-miterlimit="10" cx="396.921" cy="172.537" r="5.627"/>
		<line fill="none" stroke="#5FA9FF" stroke-width="4" stroke-miterlimit="10" x1="369.877" y1="208.76" x2="422.012" y2="208.76"/>
		
			<rect x="355.353" y="203.863" transform="matrix(-1 -1.224647e-16 1.224647e-16 -1 726.0491 417.1675)" fill="#C7DFFE" width="15.342" height="9.441"/>
		<line fill="none" stroke="#5FA9FF" stroke-width="4" stroke-miterlimit="10" x1="370.13" y1="190.846" x2="410" y2="190.846"/>
		
			<rect x="355.353" y="186.125" transform="matrix(-1 -1.224647e-16 1.224647e-16 -1 726.0491 381.6919)" fill="#C7DFFE" width="15.342" height="9.441"/>
		
			<line fill="none" stroke="#E3F1FF" stroke-width="4" stroke-miterlimit="10" x1="368.179" y1="172.537" x2="392.929" y2="172.537"/>
		
			<rect x="355.42" y="166.419" transform="matrix(-1 -1.224647e-16 1.224647e-16 -1 724.8402 345.8386)" fill="#7DB7FD" width="14" height="13"/>
		<g>
			
				<rect x="355.92" y="123.285" transform="matrix(3.833893e-11 1 -1 3.833893e-11 492.7055 -232.1347)" fill="#7DB7FD" width="13" height="14"/>
		</g>
		<g>
			
				<rect x="355.92" y="144.162" transform="matrix(3.917825e-11 1 -1 3.917825e-11 513.5823 -211.258)" fill="#7DB7FD" width="13" height="14"/>
		</g>
		<circle fill="none" stroke="#E3F1FF" stroke-width="4.0463" stroke-miterlimit="10" cx="427.688" cy="117.076" r="5.627"/>
		<circle fill="none" stroke="#E3F1FF" stroke-width="4.0463" stroke-miterlimit="10" cx="419.45" cy="87.068" r="5.627"/>
		<polyline fill="none" stroke="#E3F1FF" stroke-width="4" stroke-miterlimit="10" points="369.42,130.394 379.445,130.394 
			397.316,99.71 411.984,99.71 417.885,90.437 		"/>
		<polyline fill="none" stroke="#E3F1FF" stroke-width="4" stroke-miterlimit="10" points="369.42,150.806 381.468,150.806 
			401.362,118.098 424.123,118.098 		"/>
		<g>
			<path fill="#2C97E8" d="M250.653,163.775l7.85-21.673h5.506l7.615,21.673h-4.687l-1.64-4.568h-8.553l-1.64,4.568H250.653z
				 M264.126,155.575l-2.929-9.255h-0.117l-3.163,9.255H264.126z"/>
			<path fill="#2C97E8" d="M273.849,163.775v-21.673h6.678c5.935-0.077,8.864,2.149,8.787,6.678
				c-0.157,4.218-2.656,6.443-7.498,6.678h-3.397v8.317H273.849z M278.419,151.826c0.312,0,0.78,0,1.406,0
				c3.122,0.312,4.646-0.703,4.568-3.046c0.077-2.343-1.446-3.357-4.568-3.046c-0.626,0-1.095,0-1.406,0V151.826z"/>
			<path fill="#2C97E8" d="M305.013,163.775l-8.436-18.041l-0.117,0.117v17.924h-4.335v-21.673h6.912l8.201,17.104l0.117-0.117
				v-16.987h4.335v21.673H305.013z"/>
			<path fill="#2C97E8" d="M322.937,152.764c-0.078-0.938-0.743-1.444-1.991-1.523c-1.172,0-1.758,0.469-1.758,1.406
				c0,0.626,0.976,1.172,2.929,1.64c3.123,0.234,4.998,1.915,5.624,5.038c-0.234,2.812-2.501,4.375-6.795,4.686
				c-4.297-0.078-6.522-1.6-6.678-4.568h4.218c0.155,1.095,0.976,1.68,2.46,1.757c1.405,0,2.108-0.545,2.108-1.64
				c-0.078-0.859-1.095-1.482-3.046-1.875c-3.827-0.703-5.664-2.343-5.506-4.92c0.155-2.654,2.303-4.139,6.443-4.452
				c3.825,0,5.857,1.484,6.092,4.452H322.937z"/>
		</g>
		<g opacity="0.4">
			<path fill="none" stroke="#1077F8" stroke-width="4.1867" stroke-miterlimit="10" d="M334.273,75.606V20.824
				c0-9.937,8.13-18.067,18.067-18.067h108.912c9.937,0,18.067,8.13,18.067,18.067v224.862"/>
			<polyline fill="none" stroke="#1077F8" stroke-width="2.479" stroke-miterlimit="10" points="347.986,76.048 347.986,33.026 
				465.607,33.026 465.607,230.342 			"/>
			<path fill="#455D82" d="M421.3,26.97l-29.007,0c-1.49,0-2.709-1.219-2.709-2.709v0c0-1.49,1.219-2.709,2.709-2.709H421.3
				c1.49,0,2.709,1.219,2.709,2.709v0C424.009,25.751,422.79,26.97,421.3,26.97z"/>
			<path fill="#7F9ABA" d="M406.796,17.407L406.796,17.407c1.49,0,2.709-1.219,2.709-2.709v0c0-1.49-1.219-2.709-2.709-2.709h0
				c-1.49,0-2.709,1.219-2.709,2.709v0C404.087,16.188,405.306,17.407,406.796,17.407z"/>
		</g>
		<path fill="#B3D9FF" stroke="#2C97E8" stroke-width="2.6094" stroke-miterlimit="10" d="M359.115,112.848H217.631
			c-4.408,0-8.015-3.607-8.015-8.015V89.984c0-4.408,3.607-8.015,8.015-8.015h141.484c4.408,0,8.015,3.607,8.015,8.015v14.849
			C367.13,109.241,363.523,112.848,359.115,112.848z"/>
		<path fill="#2C97E8" d="M152.165,246.236H2.464c-0.825,0-1.5-0.675-1.5-1.5l0,0c0-0.825,0.675-1.5,1.5-1.5h149.701
			c0.825,0,1.5,0.675,1.5,1.5l0,0C153.665,245.561,152.99,246.236,152.165,246.236z"/>
		<path fill="#2C97E8" d="M497.636,246.236h-81.233c-0.825,0-1.5-0.675-1.5-1.5l0,0c0-0.825,0.675-1.5,1.5-1.5h81.233
			c0.825,0,1.5,0.675,1.5,1.5l0,0C499.136,245.561,498.461,246.236,497.636,246.236z"/>
		<g opacity="0.4">
			
				<line fill="#B3D9FF" stroke="#0B78FF" stroke-width="2.6094" stroke-miterlimit="10" x1="157.244" y1="125.064" x2="221.942" y2="125.064"/>
			<g>
				<g>
					<path fill="#AFCDF9" stroke="#1077F8" stroke-width="3" stroke-miterlimit="10" d="M142.441,230.736H44.659
						c-6.6,0-12-5.4-12-12v-80.225c0-6.6,5.4-12,12-12h97.782c6.6,0,12,5.4,12,12v80.225
						C154.441,225.336,149.041,230.736,142.441,230.736z"/>
					<path fill="#FFFFFF" stroke="#1077F8" stroke-width="3" stroke-miterlimit="10" d="M124.581,230.736H44.659
						c-6.6,0-12-5.4-12-12v-80.225c0-6.6,5.4-12,12-12h79.923c6.6,0,12,5.4,12,12v80.225
						C136.581,225.336,131.181,230.736,124.581,230.736z"/>
				</g>
				<g>
					<path fill="#AFCDF9" stroke="#1077F8" stroke-width="3" stroke-miterlimit="10" d="M154.63,244.369H33.248c-4.4,0-8-3.6-8-8
						v-23.937c0-4.4,3.6-8,8-8H154.63c4.4,0,8,3.6,8,8v23.937C162.63,240.769,159.03,244.369,154.63,244.369z"/>
					<path fill="#FFFFFF" stroke="#1077F8" stroke-width="3" stroke-miterlimit="10" d="M130.91,244.369H32.469c-4.4,0-8-3.6-8-8
						v-23.937c0-4.4,3.6-8,8-8h98.441c4.4,0,8,3.6,8,8v23.937C138.91,240.769,135.31,244.369,130.91,244.369z"/>
					<circle fill="#63D18C" stroke="#1077F8" stroke-width="2.2187" stroke-miterlimit="10" cx="44.484" cy="224.401" r="7.95"/>
					<path fill="#AFCDF9" stroke="#1077F8" stroke-width="1.6589" stroke-miterlimit="10" d="M72.7,236.049h-0.45
						c-1.972,0-3.585-1.613-3.585-3.585v-16.125c0-1.972,1.613-3.585,3.585-3.585h0.45c1.972,0,3.585,1.613,3.585,3.585v16.125
						C76.285,234.436,74.672,236.049,72.7,236.049z"/>
					<path fill="#AFCDF9" stroke="#1077F8" stroke-width="1.6589" stroke-miterlimit="10" d="M85.112,236.049h-0.45
						c-1.972,0-3.585-1.613-3.585-3.585v-16.125c0-1.972,1.613-3.585,3.585-3.585h0.45c1.972,0,3.585,1.613,3.585,3.585v16.125
						C88.697,234.436,87.084,236.049,85.112,236.049z"/>
					<path fill="#AFCDF9" stroke="#1077F8" stroke-width="1.6589" stroke-miterlimit="10" d="M97.523,236.049h-0.45
						c-1.972,0-3.585-1.613-3.585-3.585v-16.125c0-1.972,1.613-3.585,3.585-3.585h0.45c1.972,0,3.585,1.613,3.585,3.585v16.125
						C101.109,234.436,99.495,236.049,97.523,236.049z"/>
					<path fill="#AFCDF9" stroke="#1077F8" stroke-width="1.6589" stroke-miterlimit="10" d="M109.935,236.049h-0.45
						c-1.972,0-3.585-1.613-3.585-3.585v-16.125c0-1.972,1.613-3.585,3.585-3.585h0.45c1.972,0,3.585,1.613,3.585,3.585v16.125
						C113.521,234.436,111.907,236.049,109.935,236.049z"/>
					<path fill="#AFCDF9" stroke="#1077F8" stroke-width="1.6589" stroke-miterlimit="10" d="M122.347,236.049h-0.45
						c-1.972,0-3.585-1.613-3.585-3.585v-16.125c0-1.972,1.613-3.585,3.585-3.585h0.45c1.972,0,3.585,1.613,3.585,3.585v16.125
						C125.932,234.436,124.319,236.049,122.347,236.049z"/>
				</g>
				<g>
					<path fill="#AFCDF9" stroke="#1077F8" stroke-width="3" stroke-miterlimit="10" d="M154.63,194.407H33.248c-4.4,0-8-3.6-8-8
						v-23.937c0-4.4,3.6-8,8-8H154.63c4.4,0,8,3.6,8,8v23.937C162.63,190.807,159.03,194.407,154.63,194.407z"/>
					<path fill="#FFFFFF" stroke="#1077F8" stroke-width="3" stroke-miterlimit="10" d="M130.91,194.407H32.469c-4.4,0-8-3.6-8-8
						v-23.937c0-4.4,3.6-8,8-8h98.441c4.4,0,8,3.6,8,8v23.937C138.91,190.807,135.31,194.407,130.91,194.407z"/>
					<circle fill="#63D18C" stroke="#1077F8" stroke-width="2.2187" stroke-miterlimit="10" cx="44.484" cy="174.439" r="7.95"/>
					<path fill="#AFCDF9" stroke="#1077F8" stroke-width="1.6589" stroke-miterlimit="10" d="M72.7,186.087h-0.45
						c-1.972,0-3.585-1.613-3.585-3.585v-16.125c0-1.972,1.613-3.585,3.585-3.585h0.45c1.972,0,3.585,1.613,3.585,3.585v16.125
						C76.285,184.474,74.672,186.087,72.7,186.087z"/>
					<path fill="#AFCDF9" stroke="#1077F8" stroke-width="1.6589" stroke-miterlimit="10" d="M85.112,186.087h-0.45
						c-1.972,0-3.585-1.613-3.585-3.585v-16.125c0-1.972,1.613-3.585,3.585-3.585h0.45c1.972,0,3.585,1.613,3.585,3.585v16.125
						C88.697,184.474,87.084,186.087,85.112,186.087z"/>
					<path fill="#AFCDF9" stroke="#1077F8" stroke-width="1.6589" stroke-miterlimit="10" d="M97.523,186.087h-0.45
						c-1.972,0-3.585-1.613-3.585-3.585v-16.125c0-1.972,1.613-3.585,3.585-3.585h0.45c1.972,0,3.585,1.613,3.585,3.585v16.125
						C101.109,184.474,99.495,186.087,97.523,186.087z"/>
					<path fill="#AFCDF9" stroke="#1077F8" stroke-width="1.6589" stroke-miterlimit="10" d="M109.935,186.087h-0.45
						c-1.972,0-3.585-1.613-3.585-3.585v-16.125c0-1.972,1.613-3.585,3.585-3.585h0.45c1.972,0,3.585,1.613,3.585,3.585v16.125
						C113.521,184.474,111.907,186.087,109.935,186.087z"/>
					<path fill="#AFCDF9" stroke="#1077F8" stroke-width="1.6589" stroke-miterlimit="10" d="M122.347,186.087h-0.45
						c-1.972,0-3.585-1.613-3.585-3.585v-16.125c0-1.972,1.613-3.585,3.585-3.585h0.45c1.972,0,3.585,1.613,3.585,3.585v16.125
						C125.932,184.474,124.319,186.087,122.347,186.087z"/>
				</g>
				<g>
					<path fill="#AFCDF9" stroke="#1077F8" stroke-width="3" stroke-miterlimit="10" d="M154.63,144.446H33.248c-4.4,0-8-3.6-8-8
						v-23.937c0-4.4,3.6-8,8-8H154.63c4.4,0,8,3.6,8,8v23.937C162.63,140.846,159.03,144.446,154.63,144.446z"/>
					<path fill="#FFFFFF" stroke="#1077F8" stroke-width="3" stroke-miterlimit="10" d="M130.91,144.446H32.469c-4.4,0-8-3.6-8-8
						v-23.937c0-4.4,3.6-8,8-8h98.441c4.4,0,8,3.6,8,8v23.937C138.91,140.846,135.31,144.446,130.91,144.446z"/>
					<circle fill="#63D18C" stroke="#1077F8" stroke-width="2.2187" stroke-miterlimit="10" cx="44.484" cy="124.477" r="7.95"/>
					<path fill="#AFCDF9" stroke="#1077F8" stroke-width="1.6589" stroke-miterlimit="10" d="M72.7,136.125h-0.45
						c-1.972,0-3.585-1.613-3.585-3.585v-16.125c0-1.972,1.613-3.585,3.585-3.585h0.45c1.972,0,3.585,1.613,3.585,3.585v16.125
						C76.285,134.512,74.672,136.125,72.7,136.125z"/>
					<path fill="#AFCDF9" stroke="#1077F8" stroke-width="1.6589" stroke-miterlimit="10" d="M85.112,136.125h-0.45
						c-1.972,0-3.585-1.613-3.585-3.585v-16.125c0-1.972,1.613-3.585,3.585-3.585h0.45c1.972,0,3.585,1.613,3.585,3.585v16.125
						C88.697,134.512,87.084,136.125,85.112,136.125z"/>
					<path fill="#AFCDF9" stroke="#1077F8" stroke-width="1.6589" stroke-miterlimit="10" d="M97.523,136.125h-0.45
						c-1.972,0-3.585-1.613-3.585-3.585v-16.125c0-1.972,1.613-3.585,3.585-3.585h0.45c1.972,0,3.585,1.613,3.585,3.585v16.125
						C101.109,134.512,99.495,136.125,97.523,136.125z"/>
					<path fill="#AFCDF9" stroke="#1077F8" stroke-width="1.6589" stroke-miterlimit="10" d="M109.935,136.125h-0.45
						c-1.972,0-3.585-1.613-3.585-3.585v-16.125c0-1.972,1.613-3.585,3.585-3.585h0.45c1.972,0,3.585,1.613,3.585,3.585v16.125
						C113.521,134.512,111.907,136.125,109.935,136.125z"/>
					<path fill="#AFCDF9" stroke="#1077F8" stroke-width="1.6589" stroke-miterlimit="10" d="M122.347,136.125h-0.45
						c-1.972,0-3.585-1.613-3.585-3.585v-16.125c0-1.972,1.613-3.585,3.585-3.585h0.45c1.972,0,3.585,1.613,3.585,3.585v16.125
						C125.932,134.512,124.319,136.125,122.347,136.125z"/>
				</g>
			</g>
			<path fill="#0B78FF" d="M163.562,119.983v10.162c2.806,0,5.081-2.275,5.081-5.081
				C168.642,122.258,166.368,119.983,163.562,119.983z"/>
			<path fill="#0B78FF" d="M163.562,170.07v10.162c2.806,0,5.081-2.275,5.081-5.081S166.368,170.07,163.562,170.07z"/>
			<circle fill="#AFCDF9" stroke="#1077F8" stroke-width="2.6094" stroke-miterlimit="10" cx="193.275" cy="125.064" r="5.627"/>
			
				<line fill="#B3D9FF" stroke="#0B78FF" stroke-width="2.4787" stroke-miterlimit="10" x1="163.562" y1="175.513" x2="221.942" y2="175.513"/>
			<circle fill="#AFCDF9" stroke="#1077F8" stroke-width="2.6094" stroke-miterlimit="10" cx="193.275" cy="175.513" r="5.627"/>
		</g>
		<g>
			<path fill="#FFFFFF" stroke="#2C97E8" stroke-width="2.8748" stroke-miterlimit="10" d="M390.908,262.147H171.52
				c-14.924,0-27.135-12.211-27.135-27.135v0c0-14.924,12.211-27.135,27.135-27.135h219.388c14.924,0,27.135,12.211,27.135,27.135v0
				C418.042,249.936,405.832,262.147,390.908,262.147z"/>
			<polygon fill="#FFFFFF" points="186.127,232.132 182.196,206.863 199.229,192.824 218.9,186.647 234.793,188.75 287.016,201.247 
				300.493,206.863 325.388,202.774 338.871,196.802 375.365,200.311 398.95,217.719 392.472,242.988 			"/>
			<path fill="#FFFFFF" stroke="#2C97E8" stroke-width="2.8748" stroke-miterlimit="10" d="M173.371,232.329
				c-6.487-14.796-2.455-32.658,10.838-43.101c11.824-9.289,27.616-10.071,39.999-3.23"/>
			<path fill="#FFFFFF" stroke="#2C97E8" stroke-width="2.8748" stroke-miterlimit="10" d="M330.417,199.833
				c3.669-11.933,14.779-20.607,27.915-20.607c16.127,0,29.2,13.073,29.2,29.2c0,0.408-0.008,0.815-0.025,1.219"/>
			<path fill="#FFFFFF" stroke="#2C97E8" stroke-width="2.8748" stroke-miterlimit="10" d="M218.558,198.74
				c4.31-16.688,19.465-29.014,37.499-29.014c21.389,0,38.727,17.339,38.727,38.727c0,0.841-0.027,1.676-0.08,2.504"/>
			<path fill="#FFFFFF" stroke="#2C97E8" stroke-width="2.8748" stroke-miterlimit="10" d="M294.746,206.743
				c4.944-6.566,12.805-10.811,21.657-10.811c9.352,0,17.598,4.738,22.467,11.946"/>
			<g opacity="0.17">
				<path fill="#0086FF" d="M391.686,262.547H178.589c-14.496,0-26.356-11.86-26.356-26.356v0c0-14.496,11.86-26.356,26.356-26.356
					h213.096c14.496,0,26.356,11.86,26.356,26.356v0C418.042,250.687,406.182,262.547,391.686,262.547z"/>
				<polygon fill="#0086FF" points="192.777,232.548 188.959,208.003 205.504,194.368 224.611,188.368 240.048,190.411 
					290.774,202.549 303.864,208.003 328.045,204.033 341.141,198.231 376.589,201.64 399.497,218.549 393.206,243.093 				"/>
				<path fill="#0086FF" d="M180.388,233.584c-6.301-14.371-2.384-31.721,10.527-41.865c11.485-9.023,26.824-9.782,38.852-3.138"/>
				<path fill="#0086FF" d="M332.93,202.021c3.564-11.591,14.355-20.016,27.115-20.016c15.664,0,28.363,12.698,28.363,28.363
					c0,0.397-0.008,0.792-0.024,1.184"/>
				<path fill="#0086FF" d="M224.278,200.959c4.186-16.209,18.907-28.182,36.424-28.182c20.775,0,37.617,16.842,37.617,37.617
					c0,0.817-0.026,1.628-0.077,2.433"/>
				<path fill="#0086FF" d="M298.282,208.732c4.803-6.377,12.438-10.501,21.036-10.501c9.084,0,17.093,4.603,21.823,11.603"/>
			</g>
		</g>
		
			<line opacity="0.4" fill="none" stroke="#1077F8" stroke-width="2.479" stroke-miterlimit="10" x1="466.83" y1="231.576" x2="416.698" y2="231.576"/>
	</g>
	<circle fill="#2C97E8" cx="173.379" cy="232.329" r="1.421"/>
	<circle fill="#2C97E8" cx="218.558" cy="198.715" r="1.421"/>
	<circle fill="#2C97E8" cx="294.711" cy="210.918" r="1.421"/>
	<circle fill="#2C97E8" cx="338.871" cy="207.877" r="1.421"/>
	<circle fill="#2C97E8" cx="387.532" cy="209.497" r="1.421"/>
</g>
</svg>
