<?xml version="1.0" encoding="utf-8"?>
<!-- Generator: Adobe Illustrator 21.0.0, SVG Export Plug-In . SVG Version: 6.00 Build 0)  -->
<svg version="1.0" id="图层_1" xmlns="http://www.w3.org/2000/svg" xmlns:xlink="http://www.w3.org/1999/xlink" x="0px" y="0px"
	 viewBox="0 0 500 314" enable-background="new 0 0 500 314" xml:space="preserve">
<g>
	<g opacity="0.6">
		<g>
			<path fill="#FFFFFF" stroke="#1077F8" stroke-width="3.2875" stroke-miterlimit="10" d="M162.956,257.356h-79.37
				c-9.494,0-17.262-7.768-17.262-17.262V74.915c0-9.494,7.768-17.262,17.262-17.262h79.37c9.494,0,17.262,7.768,17.262,17.262
				v165.179C180.217,249.588,172.449,257.356,162.956,257.356z"/>
			
				<rect x="77.092" y="81.421" fill="none" stroke="#1077F8" stroke-width="1.9465" stroke-miterlimit="10" width="92.358" height="150.927"/>
			<path fill="#455D82" d="M134.958,76.666h-23.376c-1.005,0-1.828-0.823-1.828-1.828v-0.599c0-1.005,0.823-1.828,1.828-1.828
				h23.376c1.005,0,1.828,0.823,1.828,1.828v0.599C136.787,75.843,135.964,76.666,134.958,76.666z"/>
			<path fill="#7F9ABA" d="M122.971,69.157h0.599c1.005,0,1.828-0.823,1.828-1.828V66.73c0-1.005-0.823-1.828-1.828-1.828h-0.599
				c-1.005,0-1.828,0.823-1.828,1.828v0.599C121.143,68.334,121.966,69.157,122.971,69.157z"/>
			<path opacity="0.2" fill="#1077F8" d="M130.179,249.08h-13.816c-2.322,0-4.222-1.9-4.222-4.222v-1.383
				c0-2.322,1.9-4.222,4.222-4.222h13.816c2.322,0,4.222,1.9,4.222,4.222v1.383C134.401,247.18,132.501,249.08,130.179,249.08z"/>
		</g>
		<g>
			<path fill="#FFFFFF" stroke="#1077F8" stroke-width="3.7581" stroke-miterlimit="10" d="M221.448,254.947h-95.674
				c-9.494,0-17.262-7.768-17.262-17.262V43.918c0-9.494,7.768-17.262,17.262-17.262h95.674c9.494,0,17.262,7.768,17.262,17.262
				v193.768C238.71,247.179,230.942,254.947,221.448,254.947z"/>
			
				<rect x="120.822" y="53.827" fill="none" stroke="#1077F8" stroke-width="2.2252" stroke-miterlimit="10" width="105.58" height="172.532"/>
			<path fill="#455D82" d="M186.63,48.39h-26.037c-1.338,0-2.432-1.094-2.432-2.432v0c0-1.338,1.094-2.432,2.432-2.432h26.037
				c1.338,0,2.432,1.094,2.432,2.432v0C189.062,47.296,187.968,48.39,186.63,48.39z"/>
			<path fill="#7F9ABA" d="M173.269,39.807h0.685c1.149,0,2.09-0.94,2.09-2.09v-0.685c0-1.149-0.94-2.09-2.09-2.09h-0.685
				c-1.149,0-2.09,0.94-2.09,2.09v0.685C171.18,38.866,172.12,39.807,173.269,39.807z"/>
			<path opacity="0.2" fill="#1077F8" d="M181.508,245.487h-15.794c-2.655,0-4.826-2.172-4.826-4.826v-1.581
				c0-2.655,2.172-4.827,4.826-4.827h15.794c2.655,0,4.827,2.172,4.827,4.827v1.581
				C186.335,243.315,184.163,245.487,181.508,245.487z"/>
		</g>
	</g>
	<g opacity="0.6">
		<g>
			<path fill="#FFFFFF" stroke="#1077F8" stroke-width="3.2875" stroke-miterlimit="10" d="M421.154,261.276h-79.37
				c-9.494,0-17.262-7.768-17.262-17.262V78.835c0-9.494,7.768-17.262,17.262-17.262h79.37c9.494,0,17.262,7.768,17.262,17.262
				v165.179C438.415,253.509,430.647,261.276,421.154,261.276z"/>
			
				<rect x="335.29" y="85.342" fill="none" stroke="#1077F8" stroke-width="1.9465" stroke-miterlimit="10" width="92.358" height="150.927"/>
			<path fill="#455D82" d="M393.156,80.586h-23.376c-1.005,0-1.828-0.823-1.828-1.828v-0.599c0-1.005,0.823-1.828,1.828-1.828
				h23.376c1.005,0,1.828,0.823,1.828,1.828v0.599C394.985,79.763,394.162,80.586,393.156,80.586z"/>
			<path fill="#7F9ABA" d="M381.169,73.077h0.599c1.005,0,1.828-0.823,1.828-1.828V70.65c0-1.005-0.823-1.828-1.828-1.828h-0.599
				c-1.005,0-1.828,0.823-1.828,1.828v0.599C379.341,72.255,380.164,73.077,381.169,73.077z"/>
			<path opacity="0.2" fill="#1077F8" d="M388.377,253h-13.816c-2.322,0-4.222-1.9-4.222-4.222v-1.383
				c0-2.322,1.9-4.222,4.222-4.222h13.816c2.322,0,4.222,1.9,4.222,4.222v1.383C392.599,251.1,390.699,253,388.377,253z"/>
		</g>
		<g>
			<path fill="#FFFFFF" stroke="#1077F8" stroke-width="3.7581" stroke-miterlimit="10" d="M381.202,257.817h-95.674
				c-9.494,0-17.262-7.768-17.262-17.262V46.788c0-9.494,7.768-17.262,17.262-17.262h95.674c9.494,0,17.262,7.768,17.262,17.262
				v193.768C398.463,250.05,390.696,257.817,381.202,257.817z"/>
			
				<rect x="280.575" y="56.697" fill="none" stroke="#1077F8" stroke-width="2.2252" stroke-miterlimit="10" width="105.58" height="172.532"/>
			<path fill="#455D82" d="M346.383,51.26h-26.037c-1.338,0-2.432-1.094-2.432-2.432v0c0-1.338,1.094-2.432,2.432-2.432h26.037
				c1.338,0,2.432,1.094,2.432,2.432v0C348.816,50.166,347.721,51.26,346.383,51.26z"/>
			<path fill="#7F9ABA" d="M333.023,42.677h0.685c1.149,0,2.09-0.94,2.09-2.09v-0.685c0-1.149-0.94-2.09-2.09-2.09h-0.685
				c-1.149,0-2.09,0.94-2.09,2.09v0.685C330.933,41.736,331.873,42.677,333.023,42.677z"/>
			<path opacity="0.2" fill="#1077F8" d="M341.262,248.357h-15.794c-2.655,0-4.827-2.172-4.827-4.826v-1.581
				c0-2.655,2.172-4.827,4.827-4.827h15.794c2.655,0,4.827,2.172,4.827,4.827v1.581
				C346.088,246.185,343.916,248.357,341.262,248.357z"/>
		</g>
	</g>
	<path fill="#FFFFFF" stroke="#2C97E8" stroke-width="4.6552" stroke-miterlimit="10" d="M172.087,149.475V23.245
		c0-11.049,9.04-20.089,20.089-20.089h121.1c11.049,0,20.089,9.04,20.089,20.089v126.231"/>
	<polyline fill="none" stroke="#2C97E8" stroke-width="2.7564" stroke-miterlimit="10" points="187.334,135.316 187.334,36.812 
		318.118,36.812 318.118,135.316 	"/>
	<path fill="#455D82" d="M268.852,30.078H236.6c-1.657,0-3.013-1.356-3.013-3.013v0c0-1.657,1.356-3.013,3.013-3.013h32.253
		c1.657,0,3.013,1.356,3.013,3.013v0C271.865,28.722,270.509,30.078,268.852,30.078z"/>
	<path fill="#7F9ABA" d="M252.726,19.445L252.726,19.445c1.657,0,3.013-1.356,3.013-3.013v0c0-1.657-1.356-3.013-3.013-3.013l0,0
		c-1.657,0-3.013,1.356-3.013,3.013v0C249.713,18.09,251.069,19.445,252.726,19.445z"/>
	<path opacity="0.2" fill="#1077F8" d="M263.612,274.225H241.84c-2.681,0-4.875-2.194-4.875-4.875v-4.166
		c0-2.681,2.194-4.875,4.875-4.875h21.771c2.681,0,4.875,2.194,4.875,4.875v4.166C268.487,272.031,266.293,274.225,263.612,274.225z
		"/>
	<rect x="48.004" y="202.274" fill="#FFFFFF" width="405.216" height="110.615"/>
	<path fill="#D5E7FF" stroke="#4373F9" stroke-width="3.4914" stroke-miterlimit="10" d="M162.635,171.785"/>
	<rect x="208.431" y="132.881" fill="#FFFFFF" width="88.578" height="46.042"/>
	<path fill="#D5E7FF" stroke="#2C97E8" stroke-width="3.6952" stroke-miterlimit="10" d="M311.956,155.492
		c1.36,0,2.463,1.101,2.466,2.461l0.219,98.4c0,3.287-1.083,6.052-3.25,8.293c-2.167,2.242-4.818,3.362-7.956,3.362h-0.672
		c-1.362,0-2.466,1.104-2.466,2.466v28.912c0,2.988-1.084,5.603-3.25,7.845c-2.167,2.241-4.818,3.361-7.956,3.361h-6.5
		c-2.988,0-5.565-1.12-7.732-3.361c-2.168-2.242-3.25-4.857-3.25-7.845v-28.912c0-1.362-1.104-2.466-2.466-2.466h-36.308
		c-1.362,0-2.466,1.104-2.466,2.466v28.912c0,2.988-1.083,5.603-3.249,7.845c-2.167,2.241-4.819,3.361-7.957,3.361h-6.499
		c-2.988,0-5.565-1.12-7.733-3.361c-2.167-2.242-3.249-4.857-3.249-7.845v-28.912c0-1.362-1.104-2.466-2.466-2.466l0,0
		c-3.137,0-5.79-1.121-7.956-3.362c-2.167-2.241-3.25-5.006-3.25-8.293v-98.394c0-1.362,1.104-2.466,2.466-2.466H311.956z"/>
	<g>
		<path fill="#D5E7FF" stroke="#2C97E8" stroke-width="3.4914" stroke-miterlimit="10" d="M338.601,247.031h-1.439
			c-7.085,0-12.882-5.797-12.882-12.882v-59.36c0-7.085,5.797-12.882,12.882-12.882h1.439c7.085,0,12.882,5.797,12.882,12.882v59.36
			C351.483,241.234,345.686,247.031,338.601,247.031z"/>
		<path fill="#D5E7FF" stroke="#2C97E8" stroke-width="3.4914" stroke-miterlimit="10" d="M165.486,247.031h-1.439
			c-7.085,0-12.882-5.797-12.882-12.882v-59.36c0-7.085,5.797-12.882,12.882-12.882h1.439c7.085,0,12.882,5.797,12.882,12.882v59.36
			C178.368,241.234,172.571,247.031,165.486,247.031z"/>
	</g>
	<path fill="#D5E7FF" stroke="#2C97E8" stroke-width="3.4914" stroke-miterlimit="10" d="M286.008,111.276l11.02-19.088
		c1.28-2.217,0.513-5.079-1.704-6.359c-2.217-1.28-5.079-0.514-6.359,1.704l-11.199,19.398c-7.858-3.437-16.534-5.35-25.66-5.35
		s-17.802,1.913-25.66,5.35l-11.199-19.398c-1.28-2.217-4.142-2.984-6.359-1.704c-2.217,1.28-2.984,4.141-1.704,6.359l11.02,19.088
		c-12.855,8.028-22.663,20.481-27.283,35.231H313.29C308.671,131.757,298.863,119.304,286.008,111.276z"/>
	<circle fill="#D5E7FF" stroke="#2C97E8" stroke-width="3.7707" stroke-miterlimit="10" cx="231.624" cy="128.226" r="5.237"/>
	<circle fill="#D5E7FF" stroke="#2C97E8" stroke-width="3.7707" stroke-miterlimit="10" cx="272.717" cy="128.226" r="5.237"/>
	<path fill="#2C97E8" stroke="#FFFFFF" stroke-width="3.1675" stroke-miterlimit="10" d="M491.582,202.903H290.154l-8.209-22.511
		c-0.104-1.242-0.938-2.364-2.194-2.763c-0.95-0.302-1.936-0.115-2.71,0.401c-0.004,0.003-0.008,0.005-0.012,0.008
		c-0.114,0.076-0.223,0.158-0.326,0.249c-0.626,0.514-1.026,1.245-1.131,2.038l-12.796,40.307l-16.028-57.68
		c-0.466-1.679-2.221-2.671-3.9-2.204c-0.03,0.008-0.055,0.024-0.084,0.032c-1.073,0.235-2.002,1.006-2.356,2.123l-14.597,45.981
		l-2.671-7.324c-0.345-0.944-1.104-1.615-1.995-1.909c-0.04-0.013-0.078-0.03-0.118-0.042c-0.114-0.032-0.23-0.053-0.347-0.073
		c-0.105-0.019-0.209-0.039-0.314-0.047c-0.052-0.004-0.103-0.001-0.155-0.002c-1.144-0.032-2.271,0.543-2.865,1.606l-7.399,13.262
		H8.586c-1.742,0-3.168,1.426-3.168,3.168c0,1.743,1.425,3.168,3.168,3.168H211.85c0.043,0,0.083-0.011,0.126-0.012
		c0.073-0.004,0.144-0.013,0.217-0.022c1.19-0.131,2.184-0.916,2.604-1.996l4.738-8.492l3.493,9.579
		c0.597,1.637,2.424,2.488,4.061,1.891c0.523-0.191,0.954-0.516,1.295-0.911c0.039-0.043,0.077-0.085,0.114-0.129
		c0.049-0.064,0.093-0.13,0.138-0.197c0.178-0.254,0.332-0.529,0.43-0.839l14.31-45.077l16.092,57.911
		c0.466,1.679,2.221,2.671,3.9,2.204c0.224-0.062,0.433-0.15,0.63-0.255c0.768-0.364,1.394-1.024,1.67-1.894l13.272-41.806
		l6.025,16.522c0.475,1.302,1.73,2.093,3.047,2.066c0.011,0,0.021,0.003,0.031,0.003h203.538c1.742,0,3.168-1.425,3.168-3.168
		S493.324,202.903,491.582,202.903z"/>
	<rect x="376.019" y="193.926" fill="#FFFFFF" width="84.625" height="8.249"/>
</g>
</svg>
