<?xml version="1.0" encoding="utf-8"?>
<!-- Generator: Adobe Illustrator 21.0.0, SVG Export Plug-In . SVG Version: 6.00 Build 0)  -->
<svg version="1.0" id="图层_1" xmlns="http://www.w3.org/2000/svg" xmlns:xlink="http://www.w3.org/1999/xlink" x="0px" y="0px"
	 viewBox="0 0 275.75 265" enable-background="new 0 0 275.75 265" xml:space="preserve">
<g>
	<line fill="none" stroke="#455D82" stroke-width="4" stroke-miterlimit="10" x1="219.87" y1="248.049" x2="219.87" y2="261.952"/>
	<g>
		<path fill="#455D82" d="M221.87,46.882h-4V31.06c0-14.575-11.857-26.432-26.432-26.432H66.24
			c-14.574,0-26.432,11.857-26.432,26.432v15.672h-4V31.06c0-16.78,13.651-30.432,30.432-30.432h125.198
			c16.78,0,30.432,13.652,30.432,30.432V46.882z"/>
	</g>
	<line fill="none" stroke="#455D82" stroke-width="4" stroke-miterlimit="10" x1="37.808" y1="261.952" x2="37.808" y2="248.015"/>
	
		<line fill="none" stroke="#455D82" stroke-width="3" stroke-miterlimit="10" x1="202.658" y1="247.547" x2="202.658" y2="261.952"/>
	<polyline fill="none" stroke="#455D82" stroke-width="3" stroke-miterlimit="10" points="55.021,47.565 55.021,40.622 
		202.658,40.622 202.658,47.532 	"/>
	<line fill="none" stroke="#455D82" stroke-width="3" stroke-miterlimit="10" x1="55.021" y1="261.952" x2="55.021" y2="247.38"/>
	<path fill="#455D82" d="M148.055,30.999h-38.431c-1.315,0-2.39-1.076-2.39-2.39v0c0-1.315,1.076-2.39,2.39-2.39h38.431
		c1.315,0,2.39,1.076,2.39,2.39v0C150.445,29.924,149.369,30.999,148.055,30.999z"/>
	<path fill="#7F9ABA" d="M128.839,21.017L128.839,21.017c1.87,0,3.401-1.53,3.401-3.401v0c0-1.87-1.53-3.401-3.401-3.401h0
		c-1.87,0-3.401,1.53-3.401,3.401v0C125.438,19.487,126.969,21.017,128.839,21.017z"/>
	<circle fill="#455D82" cx="37.802" cy="261.967" r="2"/>
	<circle fill="#455D82" cx="219.857" cy="261.967" r="2"/>
	<circle fill="#455D82" cx="55.018" cy="261.842" r="1.501"/>
	<circle fill="#455D82" cx="202.654" cy="261.894" r="1.499"/>
	<rect x="126.905" y="72.336" fill="none" width="83.647" height="72.27"/>
	<path fill="#FFFFFF" d="M158.628,80.974h-29.574c-0.95,0-1.728-0.778-1.728-1.728v0c0-0.95,0.778-1.728,1.728-1.728h29.574
		c0.95,0,1.728,0.778,1.728,1.728v0C160.356,80.197,159.578,80.974,158.628,80.974z"/>
	<path fill="#FFFFFF" d="M211.395,94.15h-82.34c-0.95,0-1.728-0.778-1.728-1.728l0,0c0-0.95,0.778-1.728,1.728-1.728h82.34
		c0.95,0,1.728,0.778,1.728,1.728l0,0C213.123,93.372,212.345,94.15,211.395,94.15z"/>
	<path fill="#FFFFFF" d="M211.395,107.325h-82.34c-0.95,0-1.728-0.778-1.728-1.728l0,0c0-0.95,0.778-1.728,1.728-1.728h82.34
		c0.95,0,1.728,0.778,1.728,1.728l0,0C213.123,106.548,212.345,107.325,211.395,107.325z"/>
	<path fill="#FFFFFF" d="M186.026,120.502h-56.972c-0.95,0-1.728-0.778-1.728-1.728v0c0-0.95,0.778-1.728,1.728-1.728h56.972
		c0.95,0,1.728,0.778,1.728,1.728v0C187.754,119.724,186.977,120.502,186.026,120.502z"/>
	<path fill="#0B78F7" d="M212.906,108.837h-82.34c-0.95,0-1.728-0.778-1.728-1.728v0c0-0.95,0.778-1.728,1.728-1.728h82.34
		c0.95,0,1.728,0.778,1.728,1.728v0C214.635,108.06,213.857,108.837,212.906,108.837z"/>
	<path fill="#0B78F7" d="M187.658,122.013h-57.092c-0.95,0-1.728-0.778-1.728-1.728v0c0-0.95,0.778-1.728,1.728-1.728h57.092
		c0.95,0,1.728,0.778,1.728,1.728l0,0C189.386,121.235,188.608,122.013,187.658,122.013z"/>
	<g>
		<path fill="#FFFFFF" d="M85.813,83.791v-1.979c0-4.354-3.563-7.917-7.917-7.917h-25.73c-4.354,0-7.917,3.562-7.917,7.917v35.626
			c0,4.354,3.562,7.917,7.917,7.917h33.647c4.354,0,7.917-3.563,7.917-7.917v-25.73C93.729,87.353,90.167,83.791,85.813,83.791
			L85.813,83.791z M89.771,117.437c0,2.177-1.781,3.958-3.958,3.958H52.166c-2.177,0-3.958-1.781-3.958-3.958V81.812
			c0-2.177,1.781-3.958,3.958-3.958h25.73c2.177,0,3.958,1.781,3.958,3.958V111.5c0,1.089,0.891,1.979,1.979,1.979
			c1.088,0,1.979-0.891,1.979-1.979v-23.75c2.177,0,3.958,1.781,3.958,3.958V117.437z M89.771,117.437"/>
		<path fill="#FFFFFF" d="M74.216,89.664h-18.37c-0.935,0-1.701-0.765-1.701-1.701v0c0-0.935,0.765-1.701,1.701-1.701h18.37
			c0.935,0,1.701,0.765,1.701,1.701l0,0C75.917,88.898,75.152,89.664,74.216,89.664z"/>
		<path fill="#FFFFFF" d="M74.216,99.631h-18.37c-0.935,0-1.701-0.765-1.701-1.701l0,0c0-0.935,0.765-1.701,1.701-1.701h18.37
			c0.935,0,1.701,0.765,1.701,1.701l0,0C75.917,98.865,75.152,99.631,74.216,99.631z"/>
		<path fill="#FFFFFF" d="M63.844,109.597h-7.997c-0.935,0-1.701-0.765-1.701-1.701l0,0c0-0.935,0.765-1.701,1.701-1.701h7.997
			c0.935,0,1.701,0.765,1.701,1.701l0,0C65.545,108.832,64.779,109.597,63.844,109.597z"/>
	</g>
	<rect x="126.905" y="170.227" fill="none" width="83.647" height="72.27"/>
	<path fill="#FFFFFF" d="M158.628,178.865h-29.574c-0.95,0-1.728-0.778-1.728-1.728l0,0c0-0.95,0.778-1.728,1.728-1.728h29.574
		c0.95,0,1.728,0.778,1.728,1.728l0,0C160.356,178.088,159.578,178.865,158.628,178.865z"/>
	<path fill="#FFFFFF" d="M211.395,192.041h-82.34c-0.95,0-1.728-0.778-1.728-1.728v0c0-0.95,0.778-1.728,1.728-1.728h82.34
		c0.95,0,1.728,0.778,1.728,1.728v0C213.123,191.263,212.345,192.041,211.395,192.041z"/>
	<path fill="#FFFFFF" d="M211.395,204.4h-82.34c-0.95,0-1.728-0.778-1.728-1.728v0c0-0.95,0.778-1.728,1.728-1.728h82.34
		c0.95,0,1.728,0.778,1.728,1.728v0C213.123,203.622,212.345,204.4,211.395,204.4z"/>
	<path fill="#FFFFFF" d="M186.026,217.576h-56.972c-0.95,0-1.728-0.778-1.728-1.728v0c0-0.95,0.778-1.728,1.728-1.728h56.972
		c0.95,0,1.728,0.778,1.728,1.728v0C187.754,216.798,186.977,217.576,186.026,217.576z"/>
	<path fill="#0B78F7" d="M160.14,180.377h-29.574c-0.95,0-1.728-0.778-1.728-1.728v0c0-0.95,0.778-1.728,1.728-1.728h29.574
		c0.95,0,1.728,0.778,1.728,1.728v0C161.868,179.6,161.09,180.377,160.14,180.377z"/>
	<path fill="#0B78F7" d="M212.906,193.553h-82.34c-0.95,0-1.728-0.778-1.728-1.728l0,0c0-0.95,0.778-1.728,1.728-1.728h82.34
		c0.95,0,1.728,0.778,1.728,1.728l0,0C214.635,192.775,213.857,193.553,212.906,193.553z"/>
	<path fill="#FFFFFF" d="M67.48,171.748c0-0.761,0.761-1.522,1.522-1.522c0.761,0,1.522,0.761,1.522,1.522v5.797
		c7.361,0.886,13.694,8.076,13.694,16.265v9.129c0,1.141,0.38,2.282,0.761,3.043l3.804,6.086c0.761,1.141,0.761,2.283,0,3.424
		c-0.761,1.141-1.902,1.902-3.043,1.902h-9.19c0.038,0.126,0.061,0.251,0.061,0.38c0,4.565-3.424,8.368-7.608,8.368
		c-4.184,0-7.608-3.804-7.608-7.988c0.006-0.272,0.091-0.536,0.243-0.761h-8.992c-1.141,0-2.282-0.761-3.043-1.902
		c-0.761-1.141-0.38-2.282,0-3.424l3.804-6.086c0.761-1.141,1.141-2.282,0.761-3.424v-8.749c0-5.706,3.043-10.651,7.608-13.694
		c0.761-0.38,1.521-0.38,2.282,0.38c0.761,0.761,0.38,1.522-0.38,2.283c-3.804,2.282-6.467,6.466-6.467,11.031l0.381,8.749
		c0,1.902-0.381,3.424-1.522,5.325l-3.804,6.086v0.38l0.38,0.38h33.093c0,0,0.381,0,0.381-0.38v-0.38l-3.804-6.086
		c-0.761-1.902-1.521-3.423-1.521-5.325v-8.749c0-7.227-5.326-13.314-12.173-13.314c-0.38,0-1.141-0.761-1.141-1.521V171.748z
		 M73.627,217.394h-9.262c0.046,0.114,0.072,0.24,0.072,0.38c0,2.663,1.902,4.945,4.564,4.945c2.663,0,4.565-2.282,4.565-4.945
		C73.566,217.645,73.585,217.52,73.627,217.394L73.627,217.394z M73.627,217.394"/>
	<g opacity="0.6">
		<path fill="#F6F8FD" stroke="#455D82" stroke-width="3" stroke-miterlimit="10" d="M226.442,153.061H27.369
			c-4.562,0-8.295,2.963-8.295,6.584v73.766c0,3.621,3.733,6.583,8.295,6.583h199.073c4.562,0,8.295-2.963,8.295-6.583v-73.766
			C234.736,156.024,231.004,153.061,226.442,153.061z"/>
		<path fill="#455D82" d="M212.906,205.094h-82.34c-0.95,0-1.728-0.778-1.728-1.728l0,0c0-0.95,0.778-1.728,1.728-1.728h82.34
			c0.95,0,1.728,0.778,1.728,1.728l0,0C214.635,204.317,213.857,205.094,212.906,205.094z"/>
		<path fill="#455D82" d="M187.658,218.27h-57.092c-0.95,0-1.728-0.778-1.728-1.728l0,0c0-0.95,0.778-1.728,1.728-1.728h57.092
			c0.95,0,1.728,0.778,1.728,1.728l0,0C189.386,217.492,188.608,218.27,187.658,218.27z"/>
		<path fill="#455D82" d="M68.174,170.992c0-0.761,0.761-1.522,1.522-1.522c0.761,0,1.522,0.761,1.522,1.522v5.797
			c7.361,0.886,13.694,8.076,13.694,16.265v9.129c0,1.141,0.38,2.282,0.761,3.043l3.804,6.086c0.761,1.141,0.761,2.283,0,3.424
			c-0.761,1.141-1.902,1.902-3.043,1.902h-9.19c0.038,0.126,0.061,0.251,0.061,0.38c0,4.565-3.424,8.369-7.608,8.369
			c-4.184,0-7.608-3.804-7.608-7.988c0.006-0.272,0.091-0.536,0.243-0.761h-8.992c-1.141,0-2.282-0.761-3.043-1.902
			c-0.761-1.141-0.38-2.282,0-3.424l3.804-6.086c0.761-1.141,1.141-2.282,0.761-3.424v-8.749c0-5.706,3.043-10.651,7.608-13.694
			c0.761-0.38,1.521-0.38,2.282,0.38c0.761,0.761,0.38,1.522-0.38,2.283c-3.804,2.282-6.467,6.466-6.467,11.031l0.381,8.749
			c0,1.902-0.381,3.424-1.522,5.325l-3.804,6.086v0.38l0.38,0.38h33.093c0,0,0.381,0,0.381-0.38v-0.38l-3.804-6.086
			c-0.761-1.902-1.521-3.423-1.521-5.325v-8.749c0-7.227-5.326-13.314-12.173-13.314c-0.38,0-1.141-0.761-1.141-1.521V170.992z
			 M74.321,216.638h-9.262c0.046,0.114,0.072,0.24,0.072,0.38c0,2.663,1.902,4.945,4.564,4.945s4.565-2.282,4.565-4.945
			C74.261,216.889,74.279,216.764,74.321,216.638L74.321,216.638z M74.321,216.638"/>
	</g>
	<rect x="126.905" y="118.943" fill="none" width="90.415" height="78.117"/>
	<g opacity="0.6">
		<path fill="#F6F8FD" stroke="#455D82" stroke-width="3" stroke-miterlimit="10" d="M226.442,54.036H27.369
			c-4.562,0-8.295,2.963-8.295,6.584v73.766c0,3.621,3.733,6.583,8.295,6.583h199.073c4.562,0,8.295-2.963,8.295-6.583V60.62
			C234.736,56.999,231.004,54.036,226.442,54.036z"/>
		<path fill="#455D82" d="M160.14,81.352h-29.574c-0.95,0-1.728-0.778-1.728-1.728v0c0-0.95,0.778-1.728,1.728-1.728h29.574
			c0.95,0,1.728,0.778,1.728,1.728v0C161.868,80.575,161.09,81.352,160.14,81.352z"/>
		<path fill="#455D82" d="M212.906,93.711h-82.34c-0.95,0-1.728-0.778-1.728-1.728l0,0c0-0.95,0.778-1.728,1.728-1.728h82.34
			c0.95,0,1.728,0.778,1.728,1.728l0,0C214.635,92.933,213.857,93.711,212.906,93.711z"/>
		<g>
			<path fill="#455D82" d="M87.325,81.901v-1.979c0-4.354-3.563-7.917-7.917-7.917h-25.73c-4.354,0-7.917,3.562-7.917,7.917v35.626
				c0,4.354,3.562,7.917,7.917,7.917h33.647c4.354,0,7.917-3.563,7.917-7.917v-25.73C95.241,85.464,91.679,81.901,87.325,81.901
				L87.325,81.901z M91.283,115.548c0,2.177-1.781,3.958-3.958,3.958H53.678c-2.177,0-3.958-1.781-3.958-3.958V79.922
				c0-2.177,1.781-3.958,3.958-3.958h25.73c2.177,0,3.958,1.781,3.958,3.958v29.688c0,1.089,0.891,1.979,1.979,1.979
				c1.088,0,1.979-0.891,1.979-1.979V85.86c2.177,0,3.958,1.781,3.958,3.958V115.548z M91.283,115.548"/>
			<path fill="#455D82" d="M75.728,87.774h-18.37c-0.935,0-1.701-0.765-1.701-1.701l0,0c0-0.935,0.765-1.701,1.701-1.701h18.37
				c0.935,0,1.701,0.765,1.701,1.701l0,0C77.429,87.009,76.663,87.774,75.728,87.774z"/>
			<path fill="#455D82" d="M75.728,97.741h-18.37c-0.935,0-1.701-0.765-1.701-1.701v0c0-0.935,0.765-1.701,1.701-1.701h18.37
				c0.935,0,1.701,0.765,1.701,1.701v0C77.429,96.975,76.663,97.741,75.728,97.741z"/>
			<path fill="#455D82" d="M65.356,107.708h-7.997c-0.935,0-1.701-0.765-1.701-1.701v0c0-0.935,0.765-1.701,1.701-1.701h7.997
				c0.935,0,1.701,0.765,1.701,1.701v0C67.056,106.942,66.291,107.708,65.356,107.708z"/>
		</g>
		<g>
			<path fill="#455D82" d="M242.474,89.459L242.474,89.459c-1.164,0-2.117-0.953-2.117-2.117V76.373
				c0-1.164,0.953-2.117,2.117-2.117h0c1.164,0,2.117,0.953,2.117,2.117v10.969C244.591,88.506,243.638,89.459,242.474,89.459z"/>
			<path fill="#455D82" d="M258.221,106.203L258.221,106.203c0-1.164,0.953-2.117,2.117-2.117h10.969
				c1.164,0,2.117,0.953,2.117,2.117v0c0,1.164-0.953,2.117-2.117,2.117h-10.969C259.174,108.319,258.221,107.367,258.221,106.203z"
				/>
			<path fill="#455D82" d="M256.245,91.933L256.245,91.933c-0.823-0.823-0.823-2.171,0-2.994l7.756-7.756
				c0.823-0.823,2.171-0.823,2.994,0l0,0c0.823,0.823,0.823,2.171,0,2.994l-7.756,7.756
				C258.415,92.757,257.068,92.757,256.245,91.933z"/>
		</g>
	</g>
	<rect x="7.327" y="94.079" fill="#F6F8FD" width="238.937" height="106.973"/>
	<g>
		<path fill="#FFFFFF" stroke="#455D82" stroke-width="3" stroke-miterlimit="10" d="M239.398,100.388H14.413
			c-4.931,0-8.966,3.202-8.966,7.116v79.735c0,3.914,4.035,7.116,8.966,7.116h224.985c4.931,0,8.966-3.202,8.966-7.116v-79.735
			C248.364,103.591,244.329,100.388,239.398,100.388z"/>
		<path opacity="0.18" fill="#2C97E8" d="M238.322,107.138H20.382c-4.777,0-8.685,2.921-8.685,6.491v72.734
			c0,3.57,3.908,6.491,8.685,6.491h217.94c4.777,0,8.685-2.921,8.685-6.491V113.63C247.007,110.06,243.099,107.138,238.322,107.138z
			"/>
		<path fill="#FFFFFF" d="M161.195,128.281h-31.966c-1.027,0-1.868-0.841-1.868-1.868l0,0c0-1.027,0.841-1.868,1.868-1.868h31.966
			c1.027,0,1.868,0.841,1.868,1.868l0,0C163.062,127.44,162.222,128.281,161.195,128.281z"/>
		<path fill="#FFFFFF" d="M218.231,142.522h-89.003c-1.027,0-1.868-0.841-1.868-1.868l0,0c0-1.027,0.841-1.868,1.868-1.868h89.003
			c1.027,0,1.868,0.841,1.868,1.868l0,0C220.099,141.682,219.258,142.522,218.231,142.522z"/>
		<path fill="#FFFFFF" d="M218.231,156.764h-89.003c-1.027,0-1.868-0.841-1.868-1.868l0,0c0-1.027,0.841-1.868,1.868-1.868h89.003
			c1.027,0,1.868,0.841,1.868,1.868l0,0C220.099,155.924,219.258,156.764,218.231,156.764z"/>
		<path fill="#FFFFFF" d="M190.81,171.006h-61.582c-1.027,0-1.868-0.841-1.868-1.868l0,0c0-1.027,0.841-1.868,1.868-1.868h61.582
			c1.027,0,1.868,0.841,1.868,1.868l0,0C192.678,170.166,191.837,171.006,190.81,171.006z"/>
		<path fill="#455D82" d="M162.829,129.915h-31.966c-1.027,0-1.868-0.841-1.868-1.868l0,0c0-1.027,0.841-1.868,1.868-1.868h31.966
			c1.027,0,1.868,0.841,1.868,1.868l0,0C164.697,129.074,163.856,129.915,162.829,129.915z"/>
		<path fill="#455D82" d="M219.865,144.157h-89.003c-1.027,0-1.868-0.841-1.868-1.868v0c0-1.027,0.841-1.868,1.868-1.868h89.003
			c1.027,0,1.868,0.841,1.868,1.868v0C221.733,143.316,220.892,144.157,219.865,144.157z"/>
		<path fill="#455D82" d="M219.865,158.398h-89.003c-1.027,0-1.868-0.841-1.868-1.868l0,0c0-1.027,0.841-1.868,1.868-1.868l89.003,0
			c1.027,0,1.868,0.841,1.868,1.868l0,0C221.733,157.558,220.892,158.398,219.865,158.398z"/>
		<path fill="#455D82" d="M192.574,172.64h-61.711c-1.027,0-1.868-0.841-1.868-1.868l0,0c0-1.027,0.841-1.868,1.868-1.868h61.711
			c1.027,0,1.868,0.841,1.868,1.868l0,0C194.441,171.799,193.601,172.64,192.574,172.64z"/>
		<g>
			<path fill="#FBFBFB" d="M52.453,172.673c0,1.468,0.783,2.825,2.054,3.559c1.271,0.734,2.838,0.734,4.109,0
				c1.271-0.734,2.054-2.091,2.054-3.559c0-1.468-0.783-2.825-2.054-3.559c-1.271-0.734-2.838-0.734-4.109,0
				C53.236,169.848,52.453,171.205,52.453,172.673L52.453,172.673z M52.453,172.673"/>
			<path fill="#FBFBFB" d="M84.831,172.673c0,1.468,0.783,2.825,2.054,3.559c1.271,0.734,2.838,0.734,4.109,0
				c1.271-0.734,2.055-2.091,2.054-3.559c0-1.468-0.783-2.825-2.054-3.559c-1.271-0.734-2.838-0.734-4.109,0
				C85.614,169.848,84.831,171.205,84.831,172.673L84.831,172.673z M84.831,172.673"/>
			<path fill="#FBFBFB" d="M67.927,165.495H56.432c-4.052-0.47-7.209-3.736-7.542-7.802c0-0.156-2.601-18.386-3.433-26.136
				c-0.031-1.826-0.768-3.568-2.054-4.863c-0.443-0.332-0.981-0.515-1.534-0.52h-5.019c-0.688,0-1.323-0.367-1.667-0.962
				c-0.344-0.595-0.344-1.329,0-1.924c0.344-0.595,0.979-0.962,1.667-0.962h4.577c1.522-0.112,3.031,0.341,4.239,1.274
				c2.158,1.893,3.439,4.595,3.537,7.464c0.936,7.802,3.407,26.006,3.433,26.006c0.026,0,0.52,4.265,4.031,4.551
				c3.953,0.234,36.045,0,36.409,0c0.505-0.022,0.997,0.168,1.357,0.523c0.36,0.355,0.556,0.844,0.541,1.35
				c0,1.038-0.834,1.884-1.872,1.898C92.165,165.391,78.433,165.495,67.927,165.495L67.927,165.495z M67.927,165.495"/>
			<path fill="#FBFBFB" d="M58.044,156.133c-1.048,0-1.898-0.85-1.898-1.899c0-1.048,0.85-1.898,1.898-1.898
				c0.182,0,18.569-0.39,25.772-0.858c5.617-0.364,6.476-2.835,6.502-2.939c0.026-0.104,2.965-11.417,3.797-15.812
				c0.333-0.966,0.229-2.03-0.286-2.913c-0.601-0.432-1.349-0.61-2.081-0.494H54.533c-0.678,0-1.305-0.362-1.644-0.949
				c-0.339-0.588-0.339-1.311,0-1.899c0.339-0.587,0.966-0.949,1.644-0.949h36.773c1.887-0.264,3.794,0.327,5.201,1.613
				c1.462,1.736,1.951,4.093,1.3,6.268c-0.858,4.447-3.771,15.604-3.901,16.124c-0.13,0.52-1.456,5.201-9.934,5.747
				c-7.256,0.468-25.747,0.858-26.007,0.858H58.044z M58.044,156.133"/>
			<path fill="#FBFBFB" d="M50.218,173.54h-8.825c-0.415,0-0.755-0.34-0.755-0.755l0,0c0-0.415,0.34-0.755,0.755-0.755h8.825
				c0.415,0,0.755,0.34,0.755,0.755l0,0C50.973,173.201,50.633,173.54,50.218,173.54z"/>
			<path fill="#FBFBFB" d="M102.482,173.54h-7.248c-0.415,0-0.755-0.34-0.755-0.755l0,0c0-0.415,0.34-0.755,0.755-0.755h7.248
				c0.415,0,0.755,0.34,0.755,0.755l0,0C103.238,173.2,102.898,173.54,102.482,173.54z"/>
			<path fill="#FBFBFB" d="M82.346,173.54H63.087c-0.415,0-0.755-0.34-0.755-0.755l0,0c0-0.415,0.34-0.755,0.755-0.755h19.259
				c0.415,0,0.755,0.34,0.755,0.755l0,0C83.102,173.2,82.762,173.54,82.346,173.54z"/>
		</g>
		<g>
			<path fill="#455D82" d="M53.782,172.008c0,1.468,0.783,2.825,2.054,3.559c1.271,0.734,2.838,0.734,4.109,0
				c1.271-0.734,2.054-2.091,2.054-3.559c0-1.468-0.783-2.825-2.054-3.559c-1.271-0.734-2.838-0.734-4.109,0
				C54.565,169.183,53.782,170.54,53.782,172.008L53.782,172.008z M53.782,172.008"/>
			<path fill="#455D82" d="M86.16,172.008c0,1.468,0.783,2.825,2.054,3.559c1.271,0.734,2.838,0.734,4.109,0
				c1.271-0.734,2.055-2.091,2.054-3.559c0-1.468-0.783-2.825-2.054-3.559c-1.271-0.734-2.838-0.734-4.109,0
				C86.943,169.183,86.16,170.54,86.16,172.008L86.16,172.008z M86.16,172.008"/>
			<path fill="#455D82" d="M69.256,164.831H57.761c-4.052-0.47-7.209-3.736-7.542-7.802c0-0.156-2.601-18.386-3.433-26.136
				c-0.031-1.826-0.768-3.568-2.054-4.863c-0.443-0.332-0.981-0.515-1.534-0.52h-5.019c-0.688,0-1.323-0.367-1.667-0.962
				c-0.344-0.595-0.344-1.329,0-1.924c0.344-0.595,0.979-0.962,1.667-0.962h4.577c1.522-0.112,3.031,0.341,4.239,1.274
				c2.158,1.893,3.439,4.595,3.537,7.464c0.936,7.802,3.407,26.006,3.433,26.006c0.026,0,0.52,4.265,4.031,4.551
				c3.953,0.234,36.045,0,36.409,0c0.505-0.022,0.997,0.168,1.357,0.523c0.36,0.355,0.556,0.844,0.541,1.35
				c0,1.038-0.834,1.884-1.872,1.898C93.493,164.727,79.762,164.831,69.256,164.831L69.256,164.831z M69.256,164.831"/>
			<path fill="#455D82" d="M59.373,155.468c-1.048,0-1.898-0.85-1.898-1.899c0-1.048,0.85-1.898,1.898-1.898
				c0.182,0,18.569-0.39,25.772-0.858c5.617-0.364,6.476-2.835,6.502-2.939c0.026-0.104,2.965-11.417,3.797-15.812
				c0.333-0.966,0.229-2.03-0.286-2.913c-0.601-0.432-1.349-0.61-2.081-0.494H55.862c-0.678,0-1.305-0.362-1.644-0.949
				c-0.339-0.588-0.339-1.311,0-1.899c0.339-0.587,0.966-0.949,1.644-0.949h36.773c1.887-0.264,3.794,0.327,5.201,1.613
				c1.462,1.736,1.951,4.093,1.3,6.268c-0.858,4.447-3.771,15.604-3.901,16.124c-0.13,0.52-1.456,5.201-9.934,5.747
				c-7.256,0.468-25.747,0.858-26.007,0.858H59.373z M59.373,155.468"/>
			<path fill="#455D82" d="M51.547,172.876h-8.825c-0.415,0-0.755-0.34-0.755-0.755l0,0c0-0.415,0.34-0.755,0.755-0.755h8.825
				c0.415,0,0.755,0.34,0.755,0.755l0,0C52.302,172.536,51.962,172.876,51.547,172.876z"/>
			<path fill="#455D82" d="M103.811,172.875h-7.248c-0.415,0-0.755-0.34-0.755-0.755l0,0c0-0.415,0.34-0.755,0.755-0.755h7.248
				c0.415,0,0.755,0.34,0.755,0.755l0,0C104.566,172.535,104.226,172.875,103.811,172.875z"/>
			<path fill="#455D82" d="M83.675,172.875H64.416c-0.415,0-0.755-0.34-0.755-0.755l0,0c0-0.415,0.34-0.755,0.755-0.755h19.259
				c0.415,0,0.755,0.34,0.755,0.755l0,0C84.43,172.535,84.091,172.875,83.675,172.875z"/>
		</g>
	</g>
	<circle fill="#455D82" cx="37.82" cy="46.787" r="2"/>
	<circle fill="#455D82" cx="219.882" cy="46.999" r="2"/>
	<circle fill="#455D82" cx="55.033" cy="47.577" r="1.493"/>
	<circle fill="#455D82" cx="202.663" cy="47.557" r="1.493"/>
	<circle fill="#455D82" cx="37.82" cy="248.047" r="2"/>
	<circle fill="#455D82" cx="219.882" cy="248.047" r="2"/>
	<circle fill="#455D82" cx="55.033" cy="247.54" r="1.493"/>
	<circle fill="#455D82" cx="202.663" cy="247.54" r="1.493"/>
</g>
</svg>
