<?xml version="1.0" encoding="utf-8"?>
<!-- Generator: Adobe Illustrator 21.0.0, SVG Export Plug-In . SVG Version: 6.00 Build 0)  -->
<svg version="1.1" id="图层_1" xmlns="http://www.w3.org/2000/svg" xmlns:xlink="http://www.w3.org/1999/xlink" x="0px" y="0px"
	 viewBox="0 0 553 285" style="enable-background:new 0 0 553 285;" xml:space="preserve">
<style type="text/css">
	.st0{clip-path:url(#SVGID_2_);}
	.st1{clip-path:url(#SVGID_4_);fill:#7FB1F2;}
	.st2{clip-path:url(#SVGID_6_);}
	.st3{clip-path:url(#SVGID_8_);fill:#7FB1F2;}
	.st4{clip-path:url(#SVGID_10_);}
	.st5{clip-path:url(#SVGID_12_);fill:#7FB1F2;}
	.st6{clip-path:url(#SVGID_14_);}
	.st7{clip-path:url(#SVGID_16_);fill:#7FB1F2;}
	.st8{fill:none;stroke:#7FB1F2;stroke-width:3.8321;stroke-miterlimit:10;}
	.st9{fill:none;stroke:#7FB1F2;stroke-width:4.0723;stroke-miterlimit:10;}
	.st10{opacity:0.42;}
	.st11{clip-path:url(#SVGID_18_);}
	.st12{fill:#E1F2FB;}
	.st13{fill:#FEF2ED;}
	.st14{fill:#9ACAE2;}
	.st15{opacity:0.4;fill:#A4D5F3;}
	.st16{fill:#A4D5F3;}
	.st17{opacity:0.6;fill:#A4D5F3;}
	.st18{fill:#BEDDED;}
	.st19{opacity:0.7;fill:#A4D5F3;}
	.st20{fill:#C6E9F4;}
	.st21{opacity:0.6;fill:#9ACAE2;}
	.st22{opacity:0.5;fill:#9ACAE2;}
	.st23{opacity:0.8;fill:#A4D5F3;}
	.st24{fill:#AFDDEF;}
	.st25{fill:#67A6BF;}
	.st26{opacity:0.5;fill:#67A6BF;}
	.st27{fill:#FEBAA3;}
	.st28{fill:#273238;}
	.st29{fill:#E3927E;}
	.st30{fill:#6C64A6;}
	.st31{fill:#FDD5CB;}
	.st32{fill:#86A9DC;}
	.st33{fill:#85A9DB;}
	.st34{fill:#85A7DA;}
	.st35{fill:#849ED3;}
	.st36{fill:#CC7665;}
	.st37{fill:#B1685B;}
	.st38{fill:#E3937E;}
	.st39{fill:#E99E8B;}
	.st40{fill:#86A8DC;}
	.st41{fill:#CB0152;}
	.st42{fill:#293239;}
	.st43{fill:#CC0B57;}
	.st44{fill:#CE0D59;}
	.st45{fill:#DC4278;}
	.st46{fill:#F9F0F4;}
	.st47{fill:#FEA085;}
	.st48{fill:#FEA084;}
	.st49{fill:#CF2746;}
	.st50{fill:#671F45;}
	.st51{fill:#F08576;}
	.st52{fill:#253138;}
	.st53{fill:#F08676;}
	.st54{fill:#782E4D;}
	.st55{fill:#CF2745;}
	.st56{fill:#F48E79;}
	.st57{fill:#CB2945;}
	.st58{fill:#FEC701;}
	.st59{clip-path:url(#SVGID_22_);}
	.st60{fill:#CA0052;}
	.st61{fill:#E4947F;}
	.st62{fill:#86A9DD;}
</style>
<g>
	<g>
		<g>
			<defs>
				<rect id="SVGID_1_" x="1650.7" y="1251.1" width="3.7" height="68.7"/>
			</defs>
			<use xlink:href="#SVGID_1_"  style="overflow:visible;fill-rule:evenodd;clip-rule:evenodd;fill:#4373F9;"/>
			<clipPath id="SVGID_2_">
				<use xlink:href="#SVGID_1_"  style="overflow:visible;"/>
			</clipPath>
			<g class="st0">
				<defs>
					<rect id="SVGID_3_" x="1616.2" y="1249.8" width="73.1" height="73.1"/>
				</defs>
				<use xlink:href="#SVGID_3_"  style="overflow:visible;fill:#4373F9;"/>
				<clipPath id="SVGID_4_">
					<use xlink:href="#SVGID_3_"  style="overflow:visible;"/>
				</clipPath>
				<rect x="1646.6" y="1247" class="st1" width="11.9" height="76.9"/>
			</g>
		</g>
		<g>
			<defs>
				<rect id="SVGID_5_" x="1618.1" y="1284" width="68.7" height="3.7"/>
			</defs>
			<use xlink:href="#SVGID_5_"  style="overflow:visible;fill-rule:evenodd;clip-rule:evenodd;fill:#4373F9;"/>
			<clipPath id="SVGID_6_">
				<use xlink:href="#SVGID_5_"  style="overflow:visible;"/>
			</clipPath>
			<g class="st2">
				<defs>
					<rect id="SVGID_7_" x="1616.1" y="1249.9" width="73.1" height="73.1"/>
				</defs>
				<use xlink:href="#SVGID_7_"  style="overflow:visible;fill:#4373F9;"/>
				<clipPath id="SVGID_8_">
					<use xlink:href="#SVGID_7_"  style="overflow:visible;"/>
				</clipPath>
				<rect x="1614" y="1279.9" class="st3" width="76.9" height="11.9"/>
			</g>
		</g>
		<g>
			<defs>
				<path id="SVGID_9_" d="M1675.1,1263.1c-5.8,5.6-13.8,9.2-22.5,9.2s-16.7-3.6-22.5-9.2l-5,0.1c6.6,7.8,16.4,12.8,27.5,12.8
					c11,0,20.9-5,27.5-12.8L1675.1,1263.1z"/>
			</defs>
			<use xlink:href="#SVGID_9_"  style="overflow:visible;fill-rule:evenodd;clip-rule:evenodd;fill:#4373F9;"/>
			<clipPath id="SVGID_10_">
				<use xlink:href="#SVGID_9_"  style="overflow:visible;"/>
			</clipPath>
			<g class="st4">
				<defs>
					<rect id="SVGID_11_" x="1616.2" y="1249.8" width="73.1" height="73.1"/>
				</defs>
				<use xlink:href="#SVGID_11_"  style="overflow:visible;fill:#4373F9;"/>
				<clipPath id="SVGID_12_">
					<use xlink:href="#SVGID_11_"  style="overflow:visible;"/>
				</clipPath>
				<rect x="1621" y="1259" class="st5" width="63.2" height="21.2"/>
			</g>
		</g>
		<g>
			<defs>
				<path id="SVGID_13_" d="M1675.1,1308.7c-5.8-5.6-13.8-9.2-22.5-9.2s-16.7,3.6-22.5,9.2l-5-0.1c6.6-7.8,16.4-12.8,27.5-12.8
					c11,0,20.9,5,27.5,12.8L1675.1,1308.7z"/>
			</defs>
			<use xlink:href="#SVGID_13_"  style="overflow:visible;fill-rule:evenodd;clip-rule:evenodd;fill:#4373F9;"/>
			<clipPath id="SVGID_14_">
				<use xlink:href="#SVGID_13_"  style="overflow:visible;"/>
			</clipPath>
			<g class="st6">
				<defs>
					<rect id="SVGID_15_" x="1616.2" y="1249.8" width="73.1" height="73.1"/>
				</defs>
				<use xlink:href="#SVGID_15_"  style="overflow:visible;fill:#4373F9;"/>
				<clipPath id="SVGID_16_">
					<use xlink:href="#SVGID_15_"  style="overflow:visible;"/>
				</clipPath>
				<rect x="1621" y="1291.7" class="st7" width="63.2" height="21.2"/>
			</g>
		</g>
		<circle class="st8" cx="1652.6" cy="1285.9" r="34.1"/>
	</g>
	<ellipse class="st9" cx="1652.1" cy="1285.9" rx="18.9" ry="33.9"/>
</g>
<g>
	<g class="st10">
		<defs>
			<path id="SVGID_17_" class="st10" d="M429.2,67.7h-1.6h-5.7c-1,0-1.9-0.8-1.9-1.9c0-1,0.8-1.9,1.9-1.9h0.8h7.5h4.9
				c1,0,1.9-0.8,1.9-1.9c0-1-0.8-1.9-1.9-1.9h-1.9c-0.5,0-0.9-0.5-0.7-1c1.3-3.5,1.9-7.3,1.8-11.2c-0.5-15.5-13.1-28-28.5-28.5
				c-9.3-0.3-17.6,3.7-23.2,10.2c-0.5,0.5-1.1,0.9-1.9,0.9h-3.5c-1,0-1.9,0.8-1.9,1.9c0,1,0.8,1.9,1.9,1.9h2h5.2
				c1,0,1.9,0.8,1.9,1.9s-0.8,1.9-1.9,1.9h-7.1H374c-1,0-1.9,0.8-1.9,1.9c0,1,0.8,1.9,1.9,1.9h1.3c0.5,0,0.9,0.5,0.8,1
				c-0.5,2.3-0.7,4.8-0.6,7.3c0.5,15.4,13.1,27.9,28.5,28.4c7.2,0.2,13.8-2.1,19.1-6.2c0.6-0.5,1.3-0.7,2-0.7h4.1
				c1,0,1.9-0.8,1.9-1.9C431.1,68.5,430.2,67.7,429.2,67.7"/>
		</defs>
		<use xlink:href="#SVGID_17_"  style="overflow:visible;fill-rule:evenodd;clip-rule:evenodd;fill:#F2A711;"/>
		<clipPath id="SVGID_18_">
			<use xlink:href="#SVGID_17_"  style="overflow:visible;"/>
		</clipPath>
		<g class="st11">
			<defs>
				<rect id="SVGID_19_" x="-107.9" y="19.4" width="567.9" height="287"/>
			</defs>
			<use xlink:href="#SVGID_19_"  style="overflow:visible;fill:#F2A711;"/>
			<clipPath id="SVGID_20_">
				<use xlink:href="#SVGID_19_"  style="overflow:visible;"/>
			</clipPath>
		</g>
	</g>
	<path class="st12" d="M120.5,96.8H74.3c-2.6,0-4.7-2.1-4.7-4.7s2.1-4.7,4.7-4.7h19.5c2.6,0,4.7-2.1,4.7-4.7c0-2.6-2.1-4.7-4.7-4.7
		h-2.3c-2.6,0-4.7-2.1-4.7-4.7c0-2.6,2.1-4.7,4.7-4.7h8c2.6,0,4.7-2.1,4.7-4.7s-2.1-4.7-4.7-4.7H61.1c-2.6,0-4.7,2.1-4.7,4.7
		s2.1,4.7,4.7,4.7h10.9c2.6,0,4.7,2.1,4.7,4.7c0,2.6-2.1,4.7-4.7,4.7H37.2c-2.6,0-4.7,2.1-4.7,4.7c0,2.6,2.1,4.7,4.7,4.7h17.5
		c2.6,0,4.7,2.1,4.7,4.7s-2.1,4.7-4.7,4.7h-0.5c-2.6,0-4.7,2.1-4.7,4.7s2.1,4.7,4.7,4.7h66.2c2.6,0,4.7-2.1,4.7-4.7
		S123.1,96.8,120.5,96.8z"/>
	<path class="st12" d="M500.4,89.1h-28.1c-2.1,0-3.8-1.7-3.8-3.8c0-2.1,1.7-3.8,3.8-3.8h8.8c2.1,0,3.8-1.7,3.8-3.8l0,0
		c0-2.1-1.7-3.8-3.8-3.8h-31.1c-2.1,0-3.8,1.7-3.8,3.8l0,0c0,2.1,1.7,3.8,3.8,3.8h6.5c2.1,0,3.8,1.7,3.8,3.8c0,2.1-1.7,3.8-3.8,3.8
		h-1.9c-2.1,0-3.8,1.7-3.8,3.8l0,0c0,2.1,1.7,3.8,3.8,3.8h15.8c2.1,0,3.8,1.7,3.8,3.8c0,2.1-1.7,3.8-3.8,3.8h-37.5
		c-2.1,0-3.8,1.7-3.8,3.8l0,0c0,2.1,1.7,3.8,3.8,3.8h53.7c2.1,0,3.8-1.7,3.8-3.8l0,0c0-2.1-1.7-3.8-3.8-3.8h-0.4
		c-2.1,0-3.8-1.7-3.8-3.8c0-2.1,1.7-3.8,3.8-3.8h14.2c2.1,0,3.8-1.7,3.8-3.8l0,0C504.2,90.8,502.5,89.1,500.4,89.1z"/>
	<path class="st13" d="M87.3,260.3c0.8,0.7,1.3,1.6,1.7,2.6C86.4,263.4,87.6,261.4,87.3,260.3z"/>
	<path class="st14" d="M533.1,268.3H28.5c-1.4,0-2.5-1.1-2.5-2.5v0c0-1.4,1.1-2.5,2.5-2.5h504.6c1.4,0,2.5,1.1,2.5,2.5v0
		C535.6,267.2,534.5,268.3,533.1,268.3z"/>
	<rect x="49.5" y="195" class="st15" width="64.2" height="68.7"/>
	<g>
		<g>
			<rect x="398.6" y="153.7" class="st16" width="8" height="11"/>
			<rect x="382.6" y="153.7" class="st16" width="12.8" height="11"/>
			<rect x="398.4" y="167.7" class="st16" width="8" height="11"/>
			<rect x="382.4" y="167.7" class="st16" width="12.8" height="11"/>
		</g>
		<g>
			<rect x="421.4" y="154.3" class="st16" width="8" height="11"/>
			<rect x="448.4" y="154.3" class="st16" width="8" height="11"/>
			<rect x="432.3" y="154.3" class="st16" width="12.8" height="11"/>
			<rect x="421.3" y="168.3" class="st16" width="8" height="11"/>
			<rect x="448.2" y="168.3" class="st16" width="8" height="11"/>
			<rect x="432.1" y="168.3" class="st16" width="12.8" height="11"/>
		</g>
		<g>
			<rect x="421.2" y="191.8" class="st16" width="8" height="11"/>
			<rect x="448.1" y="191.8" class="st16" width="8" height="11"/>
			<rect x="432" y="191.8" class="st16" width="12.8" height="11"/>
			<rect x="421" y="205.7" class="st16" width="8" height="11"/>
			<rect x="447.9" y="205.7" class="st16" width="8" height="11"/>
			<rect x="431.8" y="205.7" class="st16" width="12.8" height="11"/>
		</g>
		<g>
			<rect x="371.6" y="191.8" class="st16" width="8" height="11"/>
			<rect x="398.5" y="191.8" class="st16" width="8" height="11"/>
			<rect x="382.5" y="191.8" class="st16" width="12.8" height="11"/>
			<rect x="371.4" y="205.7" class="st16" width="8" height="11"/>
			<rect x="398.3" y="205.7" class="st16" width="8" height="11"/>
			<rect x="382.3" y="205.7" class="st16" width="12.8" height="11"/>
		</g>
		<g>
			<rect x="398.4" y="229" class="st16" width="8" height="11"/>
			<rect x="382.4" y="229" class="st16" width="12.8" height="11"/>
			<rect x="398.3" y="243" class="st16" width="8" height="11"/>
		</g>
		<g>
			<rect x="421.2" y="229.2" class="st16" width="8" height="11"/>
			<rect x="448.1" y="229.2" class="st16" width="8" height="11"/>
			<rect x="432" y="229.2" class="st16" width="12.8" height="11"/>
			<rect x="447.9" y="243.1" class="st16" width="8" height="11"/>
			<rect x="431.8" y="243.1" class="st16" width="12.8" height="11"/>
		</g>
		<rect x="360" y="138" class="st17" width="112.2" height="4.8"/>
		<rect x="435.2" y="210.5" class="st18" width="84.9" height="4.8"/>
		<rect x="440.3" y="215.3" class="st16" width="74" height="48"/>
		<rect x="356.1" y="142.8" class="st15" width="112.2" height="120.5"/>
		<rect x="199.1" y="109.8" class="st15" width="54.3" height="153.9"/>
		<rect x="87.9" y="204.1" class="st15" width="111.3" height="59.7"/>
		<rect x="80" y="114.9" class="st15" width="44" height="83"/>
		<rect x="253.4" y="180.9" class="st17" width="53" height="82.5"/>
		<path class="st17" d="M448.5,127.1h-68.3c-1.3,0-2.3-1-2.3-2.3l0,0c0-1.3,1-2.3,2.3-2.3h68.3c1.3,0,2.3,1,2.3,2.3l0,0
			C450.8,126,449.8,127.1,448.5,127.1z"/>
		<rect x="382.4" y="127.1" class="st15" width="64.8" height="11"/>
		<rect x="392.3" y="118.4" class="st19" width="45.2" height="4.1"/>
		<rect x="210.4" y="117.9" class="st15" width="5.2" height="14.3"/>
		<rect x="223.4" y="117.9" class="st15" width="5.2" height="14.3"/>
		<rect x="236.4" y="117.9" class="st15" width="5.2" height="14.3"/>
		<rect x="210.4" y="138.9" class="st16" width="5.2" height="14.3"/>
		<rect x="223.4" y="138.9" class="st15" width="5.2" height="14.3"/>
		<rect x="236.4" y="138.9" class="st15" width="5.2" height="14.3"/>
		<rect x="210.4" y="159.9" class="st16" width="5.2" height="14.3"/>
		<rect x="223.4" y="159.9" class="st16" width="5.2" height="14.3"/>
		<rect x="236.4" y="159.9" class="st15" width="5.2" height="14.3"/>
		<rect x="210.4" y="180.9" class="st16" width="5.2" height="14.3"/>
		<rect x="223.4" y="180.9" class="st16" width="5.2" height="14.3"/>
		<rect x="236.4" y="180.9" class="st16" width="5.2" height="14.3"/>
		<rect x="210.4" y="201.9" class="st15" width="5.2" height="14.3"/>
		<rect x="223.4" y="201.9" class="st15" width="5.2" height="14.3"/>
		<rect x="236.4" y="201.9" class="st15" width="5.2" height="14.3"/>
		<rect x="210.4" y="223.9" class="st16" width="5.2" height="14.3"/>
		<rect x="223.4" y="223.9" class="st15" width="5.2" height="14.3"/>
		<rect x="236.4" y="223.9" class="st15" width="5.2" height="14.3"/>
		<rect x="210.4" y="244.9" class="st15" width="5.2" height="14.3"/>
		<rect x="55.1" y="141" class="st20" width="32.8" height="109.2"/>
		<rect x="116.5" y="213.9" class="st21" width="17" height="28.7"/>
		<rect x="63" y="147.6" class="st22" width="17" height="28.7"/>
		<rect x="63" y="180.6" class="st22" width="17" height="28.7"/>
		<rect x="63" y="213.6" class="st22" width="17" height="28.7"/>
		<rect x="138.5" y="213.9" class="st21" width="17" height="28.7"/>
		<rect x="160.5" y="213.9" class="st21" width="17" height="28.7"/>
		<rect x="182.5" y="213.9" class="st21" width="17" height="28.7"/>
		<rect x="223.4" y="244.9" class="st15" width="5.2" height="14.3"/>
		<rect x="236.4" y="244.9" class="st15" width="5.2" height="14.3"/>
		<rect x="260.3" y="189" class="st19" width="6.2" height="6.2"/>
		<rect x="271.3" y="189" class="st19" width="6.2" height="6.2"/>
		<rect x="282.3" y="189" class="st19" width="6.2" height="6.2"/>
		<rect x="293.3" y="189" class="st19" width="6.2" height="6.2"/>
		<rect x="260.3" y="205" class="st19" width="6.2" height="6.2"/>
		<rect x="271.3" y="205" class="st19" width="6.2" height="6.2"/>
		<rect x="282.3" y="205" class="st19" width="6.2" height="6.2"/>
		<rect x="293.3" y="205" class="st19" width="6.2" height="6.2"/>
		<rect x="260.3" y="221" class="st19" width="6.2" height="6.2"/>
		<rect x="271.3" y="221" class="st19" width="6.2" height="6.2"/>
		<rect x="282.3" y="221" class="st19" width="6.2" height="6.2"/>
		<rect x="293.3" y="221" class="st19" width="6.2" height="6.2"/>
		<rect x="260.3" y="237" class="st19" width="6.2" height="6.2"/>
		<rect x="271.3" y="237" class="st19" width="6.2" height="6.2"/>
		<rect x="282.3" y="237" class="st19" width="6.2" height="6.2"/>
		<rect x="293.3" y="237" class="st19" width="6.2" height="6.2"/>
		<rect x="260.3" y="252" class="st19" width="6.2" height="6.2"/>
		<rect x="271.3" y="252" class="st19" width="6.2" height="6.2"/>
		<rect x="282.3" y="252" class="st19" width="6.2" height="6.2"/>
		<rect x="293.3" y="252" class="st19" width="6.2" height="6.2"/>
		<rect x="282.6" y="172" class="st23" width="14.7" height="8.9"/>
		<path class="st24" d="M214.1,205.5H89.5c-2.9,0-5.3-2.4-5.3-5.3l0,0c0-2.9,2.4-5.3,5.3-5.3h124.6c2.9,0,5.3,2.4,5.3,5.3l0,0
			C219.4,203.1,217,205.5,214.1,205.5z"/>
		<path class="st14" d="M170.5,200.1h-53.5c-1.9,0-3.4-1.5-3.4-3.4v-36c0-1.9,1.5-3.4,3.4-3.4h53.5c1.9,0,3.4,1.5,3.4,3.4v36
			C173.9,198.6,172.3,200.1,170.5,200.1z"/>
		<path class="st25" d="M165.1,167.8h-40.2c-1.1,0-2-0.9-2-2v0c0-1.1,0.9-2,2-2h40.2c1.1,0,2,0.9,2,2v0
			C167.1,166.9,166.2,167.8,165.1,167.8z"/>
		<path class="st26" d="M165.1,176.8h-40.2c-1.1,0-2-0.9-2-2v0c0-1.1,0.9-2,2-2h40.2c1.1,0,2,0.9,2,2v0
			C167.1,175.9,166.2,176.8,165.1,176.8z"/>
		<path class="st26" d="M165.1,185.8h-40.2c-1.1,0-2-0.9-2-2v0c0-1.1,0.9-2,2-2h40.2c1.1,0,2,0.9,2,2v0
			C167.1,184.9,166.2,185.8,165.1,185.8z"/>
		<rect x="225.3" y="103.7" class="st15" width="21.1" height="6.1"/>
		<rect x="253.4" y="149.3" class="st15" width="16.7" height="31.6"/>
		<polygon class="st15" points="356.1,263.3 306.4,263.3 306.4,141.9 356.1,104.2 		"/>
		<path class="st15" d="M362.8,159.9h-47.2c-1.6,0-3-1.3-3-3v0c0-1.6,1.4-3,3-3h47.2c1.6,0,3,1.4,3,3v0
			C365.8,158.6,364.4,159.9,362.8,159.9z"/>
		<path class="st15" d="M362.8,173.9h-47.2c-1.6,0-3-1.3-3-3v0c0-1.6,1.4-3,3-3h47.2c1.6,0,3,1.4,3,3v0
			C365.8,172.6,364.4,173.9,362.8,173.9z"/>
		<path class="st15" d="M362.8,187.9h-47.2c-1.6,0-3-1.3-3-3v0c0-1.6,1.4-3,3-3h47.2c1.6,0,3,1.4,3,3v0
			C365.8,186.6,364.4,187.9,362.8,187.9z"/>
		<path class="st15" d="M362.8,201.9h-47.2c-1.6,0-3-1.3-3-3v0c0-1.6,1.4-3,3-3h47.2c1.6,0,3,1.4,3,3v0
			C365.8,200.6,364.4,201.9,362.8,201.9z"/>
		<path class="st15" d="M362.8,215.9h-47.2c-1.6,0-3-1.3-3-3v0c0-1.6,1.4-3,3-3h47.2c1.6,0,3,1.4,3,3v0
			C365.8,214.6,364.4,215.9,362.8,215.9z"/>
		<path class="st15" d="M362.8,229.9h-47.2c-1.6,0-3-1.3-3-3v0c0-1.6,1.4-3,3-3h47.2c1.6,0,3,1.4,3,3v0
			C365.8,228.6,364.4,229.9,362.8,229.9z"/>
		<path class="st15" d="M362.8,243.9h-47.2c-1.6,0-3-1.3-3-3v0c0-1.6,1.4-3,3-3h47.2c1.6,0,3,1.4,3,3v0
			C365.8,242.6,364.4,243.9,362.8,243.9z"/>
		<path class="st15" d="M362.8,257.9h-47.2c-1.6,0-3-1.4-3-3v0c0-1.6,1.4-3,3-3h47.2c1.6,0,3,1.4,3,3v0
			C365.8,256.6,364.4,257.9,362.8,257.9z"/>
	</g>
	<g>
		<path class="st27" d="M513,203.3c0,2.5,0,4.9,0,7.4c-0.3,3.7-0.8,7.3-2.2,10.7c-3.6,9.1-9.5,16.3-18,21.2
			c-1.1,0.6-1.7,1.4-2.1,2.6c-1.1,3.5-3.9,5.6-7.5,5.7c-3.4,0.1-6.3-1.9-7.6-5.3c-0.2-0.4-0.3-0.8-0.4-1.2c-0.2-2.2-1.3-3.2-3.4-4
			c-5.4-1.9-6.8-8.8-2.6-12.8c1.6-1.5,1.9-2.9,1.4-5c-1.3-5.2-2.2-10.6-3.4-15.8c-0.1-0.5-0.1-1-0.5-1.4c-0.5-0.6-1.2-1.3-2-1.1
			c-0.6,0.2-0.3,1.1-0.3,1.7c0,3.2-0.1,6.4,0,9.6c0.1,2.5-0.7,4.5-3,5.6c-0.2,0.1-0.4,0.1-0.6,0.1c-1.1-0.1-2.3-0.1-3.4-0.1
			c-2.4,0-4.7,0-7.1,0c-1.1,0.1-2.3,0.1-3.4,0c-2.4,0-4.8,0-7.2,0c-1,0.1-2.1,0.1-3.1,0c-2.4,0-4.8,0-7.2,0c-1.1,0.1-2.3,0.1-3.4,0
			c-2.4,0.1-4.8,0.1-7.2,0c-1,0-2.1,0.1-3.1,0c-2.5,0-5.1,0-7.6,0c-1,0.1-2.1,0.1-3.1,0c-2.4,0.1-4.8,0.1-7.2,0
			c-1.1,0-2.3,0.1-3.4,0c-2.4,0-4.8,0-7.2,0c-1,0-2,0.1-3,0c-1.3,0-2.7,0-4,0c-1.2,0-2.3,0-3.5,0c-7.3-0.6-12.5-6.2-12.6-13.6
			c-0.1-4.9,0.1-9.7,2-14.3c3.9-9.3,10.6-15.3,20.4-17.8c0.2-0.1,0.5-0.1,0.8-0.3c-3.6-1.8-4.8-4.7-4.7-8.5c0-2.3,0.5-4.6-0.4-6.9
			c-0.1-1,0.4-1.7,0.8-2.5c1-0.8,2.2-0.5,3.3-0.6c4.4-0.1,6.4-2.1,6.6-6.5c0.1-2-0.5-4,0.5-5.9c0.8-0.2,1.4,0.3,2.1,0.6
			c2.3,1.2,4.8,1.9,7.4,1.9c9.8,0,19.5,0,29.3,0c2.6,0,2.7-0.1,2.4-2.7c-0.3-2.4-1.5-4.4-2-6.7c0.5-1.2,1.5-0.6,2.2-0.4
			c6.1,1.4,11.8,3.9,16.1,8.4c3.9,4,8.7,6,13.5,8.2c10.7,4.8,21.6,9.2,32.1,14.3c7.3,3.6,11.9,9.5,13.5,17.6
			c0.7,3.6,1.5,7.2,2.3,10.8C512.8,198.6,512.6,201,513,203.3z"/>
		<path class="st28" d="M402.5,126c3.1,0,6,0.1,8.8,0c9.3-0.4,16.5,3.1,21.4,11.1c1.2,2.8,2.2,5.6,2.5,8.6c0.1,1.3-0.1,1.8-1.6,1.8
			c-10.4-0.1-20.7-0.1-31.1,0c-3.5,0-6.5-1.2-9.3-3c-0.7-0.1-1.2-0.6-1.7-1.1c-0.6-0.6-1.6-1.3-1.3-2.3c0.3-1,1.4-0.7,2.2-0.8
			c1-0.2,1.8-0.6,1.8-1.7c0-1.3-1-1.6-2.1-1.6c-0.9,0-1.7,0.1-2.4,0.6c-0.8,0.6-1.5,0.6-1.9-0.4c-0.3-0.9-0.4-1.8,0.8-2.3
			c0.3-0.1,0.7-0.2,1.1-0.3c1.3-0.4,1.9-1.3,1.7-2.7c-0.2-1.4-1.3-1.7-2.5-1.7c-4.7,0-9.3,0-14,0c-0.8,0-1.7,0.2-2.4-0.5
			c-3.1-2.6-1.5-6.2-1.8-9.4c-0.1-0.8,0.7-0.5,1.1-0.5c2.2,0,4.7,2.2,5.1,4.7c0.2,1.3,0.7,1.7,2,1.6c2.6-0.1,5.3,0,7.9,0
			c0.2,0,0.4,0,0.9,0"/>
		<path class="st29" d="M377.1,263.4c0-1,0.2-1.3,1.1-1.3c1.6,0,4,0,5.8,0c0.9,0,1.3-0.1,1.3-1.1c-0.1-5.5,0-10.9,0-16.4
			c-0.8-1-0.5-2.1-0.5-3.2c0-0.7,0-1.3,0.4-1.9c0.9-0.4,1.5,0.2,2.2,0.6c4.3,2.7,8.9,4.3,14.1,4c2.3-0.1,4.5,0,6.8,0
			c0.8,0,1.8-0.1,2.4,0.7c0.4,0.8,0.3,1.6,0.3,2.4c0,4.5,0,9.1,0,13.6c0,0.9,0.1,1.9-0.6,2.6C399.2,263.4,388.1,263.4,377.1,263.4z"
			/>
		<path class="st27" d="M457,244.6c0,6.2,0,12.5,0,18.7c-11.1,0-22.2,0-33.2,0c0-1.3,0.2-1.7,1.2-1.7c1.2,0,3.2,0.1,4.4,0.1
			c1.9,0,2-0.3,2-2.2c0-4.2,0-8.3,0-12.5c0-0.9-0.1-1.9,0.6-2.6c0.7-0.5,1.5-0.4,2.3-0.4c6.8,0,13.6,0,20.4,0
			C455.5,244,456.4,243.9,457,244.6z"/>
		<path class="st29" d="M376.4,224.6c-14.7,0.8-26.8-4.3-36.1-15.9c-0.8-1-1.3-1.5-2.5-0.6c-1.3,1-2.8,1.3-4.5,0.7
			c-3.4-1.2-6.9-2.2-10.3-3.4c-2.8-1-4.1-3.3-3.8-6.2c0.3-2.3,2.4-4.4,5-4.6c1.8-0.2,3.5,0.7,5.1,1.3c1.5,0.6,2.1,0.3,2.6-1.3
			c0.6-1.8,0.5-3.6,0.2-5.4c-0.5-2.6,0-5.4-0.8-8c-0.1-2.8-0.1-5.5-0.1-8.3c0-1.2-0.4-2.1-1.2-2.9c-0.4-0.3-0.7-0.7-1-1
			c-2.5-2-4.2-4.6-5-7.7c0.9-0.3,1.4-0.8,2-1.7c1.5-2.3,4.6-2.9,6.8-1.2c2.9,2.3,5.4,5,7.8,7.7c0.9,1,1.2,2.2,1.1,3.5
			c-0.1,2.8,0,5.6-0.1,8.5c0,1.2,0.3,1.6,1.5,1.6c9.4,0,18.9,0,28.3,0c1.1,0,1.6-0.4,2-1.4c2.2-5.1,4.5-10.2,6.8-15.3
			c0.5-1.2,1.1-2.3,1.9-3.3c1-0.3,0.8,0.5,0.8,0.9c0,2.3,0,4.5,0,6.8c0,3.8,1.5,6,5.1,7.4c0.2,0.1,0.5,0.1,0.5,0.6
			c-4.7,0.8-9.1,2.6-12.9,5.6c-6,4.8-9.8,10.9-10.8,18.7c-0.4,3.6-0.7,7.2,0.1,10.8c1.2,5.7,5.6,9.4,11.5,10
			C377.1,222,377.1,223.3,376.4,224.6z"/>
		<path class="st30" d="M376.4,224.6c0-1.3,0-2.6,0-3.9c1.2,0,2.4,0,3.6,0c0.3,0.2,0.6,0.5,0.7,0.8c0.7,2.5,1.3,5,2.7,7.2
			c0.3-1.9,0.1-3.9,0.2-5.8c0-0.8-0.1-1.6,0.5-2.2c1,0,2,0,2.9,0c0.6,0.6,0.5,1.5,0.5,2.3c0,2.9,0,5.8,0,8.7c0,0.7-0.1,1.5,0.3,2.2
			c1,1.8,2.7,2.8,4.4,3.8c1.3,0.8,1.6,0.6,1.6-0.9c0-4.1,0-8.2,0-12.3c0-1-0.1-2.1,0.2-3.1c0.1-0.2,0.2-0.3,0.4-0.5
			c1.1,0,3.3,0,3.3,0l1.3,0.1c0,0-0.7,1.9-0.7,2.5c0,4.7,0,9.4,0,14.2c0,2.4,0.2,2.7,2.6,2.9c3.7,0.3,3.7,0.3,3.7-3.4
			c0-4.5,0-9.1,0-13.6c0-0.9-0.1-1.9,0.6-2.6c1,0,2,0,3,0c0.7,0.7,0.5,1.6,0.5,2.4c0,5,0,9.9,0,14.9c0,0.7-0.1,1.5,0.3,2.1
			c2,0.9,4.1,0.9,6.1,0c0.4-0.7,0.3-1.4,0.3-2.2c0-4.9,0-9.9,0-14.8c0-0.8-0.2-1.7,0.5-2.4c1,0,2,0,2.9,0c4.9,0,0.6,1.7,0.6,2.6
			c0,4.9,0,9.8,0,14.7c0,2.5,0.1,2.6,2.5,2.6c3.7,0,3.7,0,3.7-3.6c0-4.6,0-9.2,0-13.8c0-0.9-0.1-1.9,0.6-2.6c1.1,0,2.2,0,3.2,0
			c0.2,0.2,0.3,0.4,0.4,0.6c0.4,2,0.2,4.1,0.2,6.2c0,3.5,0,7.1,0,10.6c0,0.7-0.1,1.5,0.3,2.1c1.6,1.1,3.4,0.6,5.1,0.4
			c1-0.1,0.8-1.2,0.8-2c0-5.1,0-10.3,0-15.4c0-0.8-0.2-1.7,0.5-2.4c1,0,2,0,2.9,0c0.7,0.7,0.5,1.6,0.5,2.4c0,4.9,0,9.9,0,14.8
			c0,0.8-0.2,1.6,0.4,2.3c1.6,0.9,3.2,0.5,4.8,0.3c1.2-0.1,1-1.3,1-2.1c0-4.3,0-8.6,0-12.9c0-1.5-1.1-3.4-0.7-4.9
			c0.1-0.2,1.2,0.1,1.3-0.1c1.1,0,2.2,0,3.2,0c0.2,0.2,0.3,0.4,0.4,0.6c0.4,1.5,0.2,3.1,0.2,4.6c0,4.3,0,8.6,0,12.9
			c0,1.4,0.5,2,1.9,2c4.9-0.1,4.3,0.4,4.3-4.2c0-4.2,0-8.5,0-12.7c0-0.9-0.1-1.7,0.2-2.6c0.1-0.2,0.2-0.4,0.4-0.6
			c1.1,0,2.2-0.4,3.3,0.2c0.6,0.8,0.6,1.7,0.6,2.6c0,4.6,0.1,9.1,0,13.7c-0.1,2,0.2,3.5,2.4,4c0.1,3.3,0.1,3.3-3.1,3.3
			c-1.3,0-2.6,0-3.8,0.1c-8.3,0-16.7,0-25,0c-7.3,0-14.6,0-21.9,0c-3.1,0-6.3-0.1-9.4,0c-5.2,0.2-9.8-1.5-14.2-4.3
			c-0.5-0.3-0.9-0.6-1.4-0.9c-2.1-1.1-3.5-3-4.8-4.8c-0.1,0.3,0,0.8,0,1.3c0,3.1,0.6,3.8,3.5,4.8c0.4,0.1,0.8,0.2,1.2,0.5
			c0,1.1,0,2.2,0,3.3c-1.5,0-2.9,0.1-4.4,0c-2.5-0.1-4.1-1.6-4.1-4.1c0-4.6,0-9.3,0-13.9C376.7,225.8,376.9,225.1,376.4,224.6z"/>
		<path class="st31" d="M372.7,129.6c5.6,0,11.2,0,16.8,0c1.8,0,2.7,0.8,2.9,2.4c0.1,1.5-0.8,2.8-2.3,3.1c-0.6,0.1-1.2,0.1-1.8,0.2
			c0,0-0.1,0.2-0.1,0.3c0.1,0.7,0.3,1.3,0.6,2.2c1.1-1.8,2.7-1.8,4.3-1.6c1.3,0.1,2.1,0.8,2.1,2.1c0.1,1.3-0.7,2.1-2,2.3
			c-0.9,0.1-1.8,0-2.9,0c0.8,1.7,2.1,2.5,3,3.7c0,2.2,0,4.4,0,6.6c0,3.9-2.5,6.3-6.4,6.4c-1.3,0-2.7-0.4-3.9,0.4c-3.2,0-6.4,0-9.6,0
			c-2.3,0-2.9-0.7-3-3c-0.1-1.1,0.6-2.4-0.9-3.2c-0.4-0.2,0-0.7,0.5-0.8c1.4-0.4,2.8-0.1,4.2-0.2c0.5,0-0.4-0.4-0.1,0
			c-0.3-0.4,0.4,0.2,0.2-0.1c-1.2-0.2-2,0.3-3.2-0.2c0-0.6,0-1.2,0-1.8c0.9-1.7,1-3.4,1-5.3c0-1.2-0.2-2.3-1-3.2
			c-0.6-2.3-0.9-4.7-0.7-7.1C370.5,131.2,371.1,130.1,372.7,129.6z"/>
		<path class="st32" d="M464,241.3c-2.9-0.1-2.9-0.1-2.9-3.1c0-5.7,0-11.5,0-17.2c0.1,0,0.2,0,0.3,0c1.7,0.7,2.7,1.9,2.6,3.9
			C464,230.3,464,235.8,464,241.3z"/>
		<path class="st33" d="M394.4,220.7c0,0.1,0,0.2,0,0.3c-1.3,0.9-2.7,0.5-4.1,0.6c-2.2,0.1-2.3,0.2-2.3,2.3c0,2.7,0,5.4,0,8.1
			c0,0.8,0.1,1.7-0.6,2.4c-0.5-0.6-0.3-1.3-0.3-1.9c0-3.9,0-7.8,0-11.7C389.5,220.7,391.9,220.7,394.4,220.7z"/>
		<path class="st34" d="M384.1,220.7c0,2.8,0,5.6,0,8.4c0,0.6,0,1.3-0.7,0.4c-0.2-1.6-0.2-3.2-0.2-4.7c0-3,0-3-2.8-3.3
			c-0.1-0.2-0.2-0.5-0.3-0.7C381.4,220.7,382.7,220.7,384.1,220.7z"/>
		<path class="st35" d="M450.4,221c0-0.1,0-0.2-0.1-0.3c2.5,0,4.9,0,7.4,0c0,0.1,0,0.2,0,0.3C455.3,221.9,452.8,221.9,450.4,221z"/>
		<path class="st36" d="M324,161.3c0.6,0,1.1,0.1,1.1,0.9c0,2.2,1.1,3.8,2.7,4.9c3.2,2.4,4.6,5.5,3.9,9.5c-0.3,1.5,0.5,3.2-0.4,4.6
			c-0.4-0.6-0.6-1.2-0.7-1.9c-0.2-1.7-0.8-3.3-1.2-4.9c-0.2-0.7-0.8-1-1.4-1.4c-1.6-0.9-3.2-1.8-4.8-2.6c-1.6-0.8-2.7-2.1-2.9-4
			c0.5-0.6,0.4-1.4,0.6-2.1C321.5,162.9,322.3,161.7,324,161.3z"/>
		<path class="st37" d="M320.3,166.5c1.4,3.6,4.9,4.4,7.7,6c1.2,0.7,2,1.5,2.1,2.9c0.1,1.3,1.3,2.6,0.5,4c0,0-0.1-0.1-0.1-0.1
			c-0.5-3.4-2.6-4.2-5.8-4.1c-2.7,0.1-5.3-0.4-6.3-3.5c-0.2-0.8-0.3-1.7,0-2.6C318.7,167.9,319.3,167,320.3,166.5z"/>
		<path class="st38" d="M371.1,139.8c0.9,0.1,1.5,0.4,1.5,1.4c0,1.6,0,3.3,0,4.9c0,1-0.2,2.2-1.5,2.2c-0.5,0-1.1,0.1-1.1-0.8
			c0-2.1,0-4.3,0-6.4C370.1,140.4,370.2,139.8,371.1,139.8z"/>
		<path class="st39" d="M371.1,150.2c1.4,0.3,2.8-0.4,4.1,0.4c-0.2-0.1-0.3-0.1-0.4,0c-1.6,0-3.2,0-4.8,0
			C370.2,150.1,370.8,150.3,371.1,150.2z"/>
		<path class="st40" d="M385.1,241.2c-4-0.2-5.6-1.6-5-7.8c1.5,2.5,3.5,4,5.1,6C385.2,240,385.1,240.6,385.1,241.2z"/>
		<path class="st33" d="M387.3,234.3c0-3.5,0-7.1,0-10.6c0-3-0.3-2.7,2.8-2.7c1.4,0,2.8,0,4.2,0c0,5.5,0,11,0,16.6
			c0,1.4-0.4,1.6-1.6,0.9C390.8,237.3,388.8,236.2,387.3,234.3z"/>
		<path class="st34" d="M380.3,221.4c2.7-1,3.4-0.6,3.3,2c-0.1,2,0.4,4.1-0.3,6.1C381.7,227,380.7,224.3,380.3,221.4z"/>
		<path class="st41" d="M379.6,138c1.3-0.6,2.5-1.3,3.8-1.9c0.4-0.2,0.9-0.9,1.4-0.3c0.4,0.4,0.4,1.1,0.2,1.6
			c-0.7,1.7,0.1,1.9,1.5,1.9c1.3,0,0.9,1.2,1.1,2c0.2,1-0.6,0.9-1.2,0.9c-1.7,0-3.3-0.6-5-1.1c1.3,2,3.3,2.9,5.6,3.1
			c0.8,0,1.3,0.1,1.4,1.2c0.1,1.4-0.3,1.8-1.7,1.7c-2.6-0.3-4.8-1.3-6.8-3c-0.2-0.1-0.4-0.2-0.5-0.1c-0.2,0.2,0,0.4,0.1,0.6
			c1.7,2.5,4.1,4,7,4.7c1.4,0.3,1.2,1,1,2c-0.2,1.3-0.9,1-1.7,0.8c-4-1-7-3.3-9.3-6.7c-0.4-0.6-0.4-1.3-1.6-1.1
			c-1,0.2-0.5-0.9-0.7-1.5c0-0.3,0.1-0.5,0.4-0.6c1.8,0,4.4-1.3,5.5-2.8c-0.5,0-1,0.5-1.5-0.1C378.6,138.4,378.9,138,379.6,138z"/>
		<path class="st42" d="M379.6,138c-0.5,0.4-0.8,0.9-1,1.5c-0.7,1.5-2,2.4-3.7,2.7c-0.2,0.1-0.4,0.2-0.6,0.4c-1.4-0.6,0.3-1.2,0-1.8
			c-0.1-0.8,0-1.4,0.8-1.9c1-2.5,1.3-5.2,1.3-7.9c1,0.3,0.9,1.3,1.5,1.7c0.6-0.3,0-1.1,0.7-1.4c0.5,0.5,0.6,1.3,0.7,2
			c0.8-0.2,0.4-1.2,1.2-1.5C381.3,134,380.6,136,379.6,138z"/>
		<path class="st43" d="M375.1,138.9c-0.3,0.6-0.5,1.2-0.8,1.9c-1.9-1.2-2.1-2.6-0.6-4.9c0.7,0,0.6,0.4,0.5,0.8
			C374.3,137.5,374.3,138.4,375.1,138.9z"/>
		<path class="st44" d="M378,152.4c1.1,0.5,1.8,0.8,2.5,1.1c0.5,0.2,0.8,0.7,0.5,1.2c-0.4,0.6-1,0.5-1.4,0
			C379,154.2,378.3,153.7,378,152.4z"/>
		<path class="st31" d="M379.6,144.4c-0.5-0.4-0.7-0.9-1-1.6c0.9,0.1,1.1,0.7,1.4,1.1C379.9,144.1,379.7,144.3,379.6,144.4z"/>
		<path class="st45" d="M374.2,136.7c-0.1-0.3-0.1-0.7-0.5-0.8c0.1-0.3,0.4-0.7,0.6-0.5C374.6,135.8,374.4,136.3,374.2,136.7z"/>
		<path class="st46" d="M375,142.2c1.2-0.9,2.4-1.8,3.7-2.8c0.6-0.3,1.2-0.5,1.8-0.8c0.4,0.3,0.3,0.7,0.2,1c-0.3,0.7-4.7,3.1-5.5,3
			C375.1,142.7,375,142.4,375,142.2z"/>
	</g>
	<g>
		<path class="st47" d="M235,263c-2.4-3.7-6.1-6.6-9.3-9.6c0.5-1.9,6.8-8.1,8.6-8.6c3.5,3.4,7,6.8,10.4,10.3
			c0.9,0.9,1.9,1.4,3.2,1.3c4.2-0.1,8.4,0.1,12.5-0.1c2.6-0.1,4.4,0.7,5.4,3.1c0,0.3,0,0.6,0,0.9c-0.5,1-1,2.1-2.2,2.6
			C254.1,262.9,244.6,263,235,263z"/>
		<path class="st48" d="M106.8,249.1c0,2.9-0.1,5.7,0,8.6c0.1,1.9-0.1,3.7-1.3,5.2c-9.8,0-19.6,0-29.4,0c-1.1-0.5-1.3-1.6-1.7-2.6
			c0-0.6,0-1.2,0-1.7c1.4-2,3.3-2.3,5.6-2.2c4.4,0.1,8.7-0.1,13.1,0.1c1.8,0.1,2.2-0.6,2.1-2.2c-0.1-1.7-0.1-3.4-0.1-5.1
			c0.4-0.5,0.9-0.7,1.5-0.7c2.9-0.1,5.8-0.1,8.7,0C105.8,248.4,106.4,248.6,106.8,249.1z"/>
		<path class="st49" d="M135.4,177.5c-4.3-2.3-4.9-6.3-4.8-10.6c0.9-0.9,2.1-1,3.2-1c2.3,0,3.8-0.9,4.5-3.1
			c3.3-1.3,6.9-1.1,10.3-1.7c1.4-0.2,2.8-0.4,4.3-0.6c5.4-0.8,8.8-5.1,8.4-10.6c-0.1-0.7-0.1-1.4,0.3-2.1c0.5-0.6,1.3-0.6,2-0.7
			c9.4-1.8,15.6-7.5,19.5-16c1.4-3.1,1.3-6.3,0.1-9.4c-0.7-1.6-0.7-3.2-0.6-4.9c0-0.6-0.1-1.5,1-1.6c5.7,3.2,11.4,6.4,17,9.7
			c1,0.6,2,0.9,3.1,0.6c3.6-0.9,6.8,0,9.9,1.7c2.1,1.2,4.1,2.4,6.2,3.5c1,0.5,0.9,1,0.4,1.8c-1,1.5-2.6,2.5-3.7,3.9
			c-1.2,1.3-2.7,1.9-4.4,2c0.3,0.5,1.1,0.6,1.7,1c2.1,1.2,2.3,2.1,0.6,4.1c-1.9,2.2-4.3,3.8-7,4.6c0,0.3,0,0.4,0.2,0.5
			c3,2,3.1,3,0.4,5.5c-0.9,0.8-1.9,1.5-3,2.1c-1,0.5-2.1,1-3.1,1.5c-0.1,0.4,0.2,0.5,0.5,0.6c2.8,1.8,2.9,2.4,0.7,4.7
			c-4.4,4.7-9.8,5.6-15.8,3.9c-1.1-0.3-2-0.5-3.2-0.4c-1.7,0.3-2.6,1.1-2.3,2.9c0,1.5,0,3-1.2,4.2c-0.6,0.4-1.2,0.2-1.9,0.2
			c-2.2,0.1-4.2,0.8-5.7,2.6c-0.5,0.7-1.1,1.3-2,1.5c-2.7,0.3-5.3,0.2-8,0.2c-8,0-16,0-23.9,0C137.5,178.3,136.2,178.6,135.4,177.5z
			"/>
		<path class="st49" d="M106.8,249.1c-3.9,0-7.8,0-11.7,0c-3.9-0.2-3.9-0.2-3.9-4c0-11.3,0-22.6,0-33.9c0-4.6,2.3-7.9,6.5-9.7
			c6.1-2.5,12.2-4.9,18.4-7.3c1.5-0.6,2-1,1.2-2.6c-1.2-2.6-1.1-2.7,1.6-3.8c4.7-1.9,9.3-3.7,14-5.5c1-0.4,2-0.8,2.5-1.9
			c0.7-0.9,1.7-0.8,2.6-0.8c4.5,0,8.9-0.1,13.4,0c2.7,0,3.4,0.7,3.1,3.4c-0.6,6.5-1.2,13-1.7,19.6c-0.1,0.8-0.2,1.6-1,2
			c-2.7,1-5.4,1.9-8,3.1c-3.2,1.4-6.6,1.9-10.1,1.5c-1.4-0.2-2.7,0.1-4,0.6c-5.8,2.3-11.5,4.7-17.4,6.9c-1.4,0.5-1.8,1.2-1.8,2.7
			c0.1,8.9,0,17.9,0,26.8c0,2.9,0,2.9-2.8,2.9C107.5,249,107.1,249.1,106.8,249.1z"/>
		<path class="st48" d="M180.8,169.5c-0.1-2.8,2.4-4.3,5.4-3.2c6,2.3,12.1,0.9,16.2-3.7c1.9-2.1,1.9-2.2-0.6-3.6
			c-0.6-0.3-1.3-0.5-1.8-1.3c2.4-0.8,4.8-1.7,6.7-3.4c0.2-0.2,0.5-0.3,0.7-0.5c2.6-2.5,2.6-2.8-0.5-4.7c-0.3-0.2-0.6-0.4-0.9-0.6
			c-0.1-0.1-0.1-0.2-0.3-0.5c3.2-0.7,5.9-2.4,8.1-4.8c1.2-1.3,1.6-2.4-0.5-3.2c-0.8-0.3-1.5-0.8-2.4-1.4c1.9-0.7,3.6-1.4,5.3-2.1
			c2.8,3.5,4.2,7.5,4.3,11.9c0.1,2,0.7,3.3,2,4.7c7.5,8.1,15.2,15.9,22.2,24.4c8,9.8,2,25-10.5,27.3c-5.3,1-10.6,1.8-15.9,2.7
			c-0.8,0.1-1.6,0.2-2.2,0.7c-1.2-0.3-0.9-1.3-1-2.1c-1.7-9.9-3.3-19.8-5.1-29.8c-0.1-0.4-0.1-0.9-0.2-1.3c-0.5-2.4-1.2-2.9-3.6-2.5
			c-3.8,0.6-7.7,1.3-11.5,1.9c-1.1,0.2-2.1,0.4-3.2,0.4c-3.1-1-6.1-2-8.8-3.7C182,170.8,181.3,170.2,180.8,169.5z"/>
		<path class="st48" d="M113.6,166c-5.7,0.7-11.4,1.4-17.1,2.3c-6.7,1-12.2-0.9-16.4-6.1c-4.6-5.7-5.1-12.1-1.9-18.6
			c4.5-9.3,9.1-18.6,14-27.8c1.2-2.3,0.5-4.3,0.2-6.4c-2.3-14.1,9-27.6,23.3-27.8c0.9,0,1.9,0.2,2.7-0.4c0.6,0.4,0.6,1.1,0.7,1.8
			c0.1,0.9,0.6,1.9-0.3,2.6c-0.8,0.6-1.7-0.1-2.4-0.6c-1.2-0.8-1.8-0.3-2.2,0.9c-0.9,2.5-1,5.1-0.4,7.6c0.1,0.6,0.5,1.4-0.1,1.8
			c-0.7,0.6-1.4,0-2-0.3c-2.7-1.3-2.7-1.3-3.5,1.7c-0.5,2.1-0.5,4.2,0,6.4c0.4,1.9-0.1,2.2-1.9,1.5c-2.7-1.1-3-1-3.6,2
			c-1.1,5.2,0.4,9.6,4.2,13.1c1.5,1.4,2.6,2.9,2.9,4.9c0.2,1.7,1.5,3.1,1,5c-0.8,1.4-0.8,2.8-0.6,4.4c1.2,9.9,2.6,19.8,3.7,29.7
			C114,164.4,114.4,165.3,113.6,166z"/>
		<path class="st50" d="M113.6,166c-1.4-10.8-2.7-21.6-4.1-32.5c-0.2-1.6-0.8-3.3,1.1-4.5c0.6-0.8,1.4-0.9,2.3-1
			c5.8-0.8,11.6-1.4,17.3-2.2c1.3-0.2,2.4-0.1,3.4,0.8c0.5,0.6,0.8,1.3,0.9,2.1c0.1,0.5,0.1,1,0.1,1.5c0.1,1,0.6,1.3,1.6,1.1
			c4.2-1.1,8.5-1.3,12.8-1.8c4-0.5,6.1,1.2,6.7,5.2c0.8,5.1,1.3,10.3,2,15.4c0.2,1.1,0.1,2.2,0.1,3.2c-0.1,2.7-1.4,4.6-4.1,5.1
			c-4.3,0.8-8.7,1.4-13.1,1.5c-1.8,0-2.5,0.3-2.2,2.2c0.1,0.3-0.1,0.6-0.3,0.8c0.2,2.1-0.9,3.1-2.9,3.4c-1.6,0.2-3.2,0.4-4.8,0.5
			c-4.1,0.5-8.2,1-12.3,1.6C115.1,168.9,114.3,168.6,113.6,166z"/>
		<path class="st50" d="M191.1,174.6c5.1-0.8,10.2-1.7,15.3-2.5c2.9-0.5,3.5,0,4,2.9c1.5,8.9,3,17.9,4.5,26.8
			c0.4,2.2,0.8,4.4,1.2,6.5c0.1,1.9-0.7,2.9-2.6,3.1c-2,0.3-4,0.6-6.1,1c-0.5,0.8-1.4,0.9-2.2,1.1c-3.3,0.6-6.6,1.2-9.9,1.6
			c-2.5,0.4-3.4-0.2-4.3-2.8c0-0.3-0.1-0.6-0.1-0.9c-0.4-2.2-0.3-2-2.5-1.5c-4.4,1.1-8.9,1.8-13.4,2.3c-3,0.3-4.9-1.6-5.6-5.1
			c-0.8-4.4-1.5-8.8-2.2-13.2c-0.2-1.3-0.5-2.5-0.7-3.8c-0.6-3.5,0.8-5.8,4.3-6.6c4-1,8.1-1.5,12.1-2.1c2.8-0.4,2.8-0.3,2.5-3
			C185.5,175.1,187.1,174,191.1,174.6z"/>
		<path class="st49" d="M133.5,127.1c-1.2-0.9-2.5-0.7-3.9-0.5c-6.4,0.9-12.7,1.7-19.1,2.5c-0.7-2-1.5-3.9-1.8-6
			c-0.2-1.2-1-1.8-1.9-2.5c-4.8-3.8-6.5-10.3-4.4-15.9c0.6-1.6,1.2-2.4,2.9-1c0.7,0.5,1.5,0.8,2.6,1.4c-1.1-3.5-1.1-6.7,0-9.9
			c0.6-1.7,1.3-2.4,3-1.1c0.7,0.5,1.5,0.9,2.6,1.5c-1-3.7-1.2-7,0.1-10.3c0.6-1.5,1.2-1.9,2.6-0.9c0.7,0.5,1.3,1.1,2.4,1.1
			c-0.1-1.4-0.3-2.8-0.4-4.2c-0.1-2.2,0.3-4.3,1.3-6.3c0.2-0.5,0.3-1.3,1.1-0.8c3.7,2.4,8.1,3.8,10.9,7.5c0.6,0.7,1.2,1.5,1.4,2.4
			c0.6,2.8,2.7,4,4.9,5.2c4.7,2.6,9.4,5.3,14,8c1,1.1,0.7,2.4,0.4,3.7c-0.5,0.8-1.4,0.6-2.1,0.5c-4.8-0.4-8.5,1.4-11.3,5.3
			c-3.1,4.5-4.9,9.5-5.3,15c-0.1,0.9,0.1,1.7,0.2,2.6C134.1,125.3,134.4,126.3,133.5,127.1z"/>
		<path class="st49" d="M191.5,212.3c0.5,2,1.6,2.7,3.8,2.3c4-0.9,8.1-1.4,12.2-2.1c0.1,0.7,0.7,1.1,1.1,1.5
			c8.8,8.7,17.6,17.5,26.5,26.1c1.6,1.6,1.8,2.6,0,3.9c-0.3,0.2-0.4,0.6-0.6,0.8c-3,2.7-5.9,5.7-8.6,8.6c-2.8,2.4-2.8,2.4-5.5-0.3
			c-13-12.9-26.1-25.8-39.1-38.7c0-0.8,0.6-1,1.1-1.1c2.8-0.6,5.6-1.3,8.5-1.4C191,211.9,191.3,212.1,191.5,212.3z"/>
		<path class="st51" d="M152.1,101.1c0.4,6.5-2,11.7-7.2,15.7c-1.8,1.4-1.8,1.4,0.3,2.3c4.9,1.9,9.6,2.4,13.8-1.5
			c1.4,2.6,3.8,3.4,6.5,4c3.5,0.7,7,1.6,10.5,2.4c4,0.9,5.7-0.5,5.8-4.6c0-1.5-0.5-3.2,0.6-4.6c0.3,0.1,0.7,0.1,0.9,0.5
			c-1,1.6-0.9,3.6-0.3,4.9c3,6.3,0.8,11.6-2.7,16.6c-4.5,6.5-10.7,10.2-18.6,11c-1.8-2.3-1.9-6.9,0-8.9c2.2-2.4,2.9-5.1,1.5-8.1
			c-1.5-3.1-4.1-4.1-7.3-4.1c-1.4,0-2.9,0.4-4.3,0.5c-1.6,0.1-2.7-0.3-3.6-1.7c-1.4-2.2-3.5-3.3-6.2-3.1c-3.1,0.3-5,1.9-6.2,4.7
			c-0.3,0.7-0.1,2.1-1.6,1.7c-0.2-0.6-0.3-1.1-0.5-1.7c-0.5-4.6-0.4-9.2,1.3-13.5c1.2-3.2,2.7-6.4,5.1-8.9
			C143.2,101.2,147.4,100,152.1,101.1z"/>
		<path class="st48" d="M182.5,114.8c0,1.8,0,3.6,0,5.4c0,3.4-2.2,5.4-5.6,4.6c-4.9-1.1-9.7-2.2-14.6-3.4c-1.9-0.5-3.1-1.7-3.2-3.8
			c0.8-1.3,1.7-2.5,2-4c0.3-1.5,0.6-2.9-1.2-4.1c-1.7-1.1-1.8-5.7-0.4-7.2c1.1-1.3,2.1-1.1,2.7,0.5c1.5,3.8,2.1,7.7,1.3,12.2
			c4.4-4.1,5.9-8.8,5.5-14.8c2.3,3.5,3.2,6.9,3.6,10.8c2.6-3.3,3.1-6.9,3.4-10.6c2.5-0.1,4.7,0.6,6.5,2.4c0,0.6,0,1.1-0.1,1.7
			c-0.4,2.8-0.4,5.5,0.1,8.3C182.5,113.5,182.5,114.2,182.5,114.8z"/>
		<path class="st52" d="M151.7,204.6c0.4-4.1,0.9-8.1,1.2-12.2c0.3-3.4,0.6-6.9,0.9-10.3c0.1-1.3-0.3-1.8-1.6-1.8
			c-5.6,0.1-11.2,0.1-16.9,0.1c-1.5-1-1.5-1.9,0-2.9c10.8,0,21.7,0,32.5,0.1c1.1,0,2.2,0,3.2,0.1c0.4,1.3,0,2.2-1,3
			c-2.8,0.6-5.6,0.2-8.4,0.3c-2.7,0.1-2.8,0.1-2.9,2.7c0,0.9-0.1,1.7-0.1,2.6c-0.5,2.4-0.5,4.8,0,7.2c0.1,2.1,0.1,4.3,0.1,6.4
			c0,0.9,0,1.7-0.6,2.4c0,8.7,0,17.5-0.1,26.2c0,0.7-0.1,1.8-1.2,2c-1.1,0.2-1.2-0.5-1.3-1.8c-0.1-0.2-0.2-0.4-0.2-0.6
			c-0.1-9.3,0.1-18.5-0.1-27.9c-0.3,1.5,0.5,2.9-0.1,4.3c-1.3,3.1-0.9,6.4-1.3,9.6c-0.5,4.5-0.9,9-1.3,13.5
			c-0.1,1.7-1.1,2.5-2.8,2.8C150.2,221.7,151.5,213.2,151.7,204.6z"/>
		<path class="st48" d="M175.9,99.4c-0.3-1.3-0.6-2.6-1-3.9c-0.5-1.5,0.4-1.5,1.3-1.2c2.6,0.6,4.8,2,6.6,3.8
			c-0.7,1.1-0.1,2.4-0.4,3.6C179.9,101.8,177.8,100.8,175.9,99.4z"/>
		<path class="st53" d="M182.5,112.9c-0.2-0.1-0.6-0.1-0.6-0.2c-0.6-2.6-0.7-5.3,0.1-7.9c0-0.1,0.3-0.1,0.4-0.1
			c1.6,2.3,1.9,5,2.7,7.5c0.2,0.7-0.3,0.7-0.7,0.7C183.8,112.8,183.2,112.8,182.5,112.9z"/>
		<path class="st54" d="M175.9,99.4c2.2,0.7,4.3,1.5,6.5,2.2c0.5,0.6,1.5,0.4,1.8,1.3c-0.6,0.7-1.2-0.3-1.7,0
			c-2.2-0.8-4.3-1.6-6.5-2.4C176,100.1,175.9,99.8,175.9,99.4z"/>
		<path class="st48" d="M158.3,193.2c-0.8-2.3-0.8-4.6,0-6.8c0.8-2.9,2.9-4.1,5.6-4.8c2.1-0.6,4.4-0.5,6.5-1.2
			c0.3-0.9,0.5-1.8,0.8-2.7c2-3.3,4.9-4.6,8.7-3.9c2-0.1,3.1,1.2,4.3,2.6c0.6,0.7,1,1.6,1.7,2.2c0.1,0.4,0.1,0.7,0.2,1.1
			c0.5,2.6,0.5,2.3-1.9,2.5c-4.9,0.4-9.7,1.2-14.4,2.4c-2.1,0.5-3.1,2.7-2.7,5c1,6,2,12,3.1,18c0.6,3.4,2.7,4.8,6,4.2
			c3.3-0.6,6.7-1.1,10-1.7c1.7-0.3,3.3-0.7,4.9-2.1c0.2,1.6,0.4,3,0.6,4.3c-3.4,0.7-7,0.8-10.3,2.1c-1.4-0.9-2.8-0.1-4.2,0.1
			c-4.7,0.9-9-1.8-10.9-5.8c-0.3-0.7-0.9-1.1-1.3-1.6c-0.6-2.4-0.9-4.9-1.3-7.4c-0.2-1.3-0.8-2.2-2-2.8
			C159.9,196.2,158.6,195,158.3,193.2z"/>
		<path class="st55" d="M158.3,193.2c1.2,1.7,2.5,3.2,4.5,3.9c0.5,0.2,0.9,0.5,1,1c0.5,2.8,0.9,5.7,1.3,8.5c0,0.1-0.2,0.3-0.3,0.5
			c-2.2-1.6-4.3-3.2-6.5-4.8C158.2,199.2,158.3,196.2,158.3,193.2z"/>
		<path class="st52" d="M155.2,204.5c0.1-2-0.9-4.1,0.4-6.3c0,10.4,0,20.4,0,30.5c-0.4-0.8-0.3-1.6-0.3-2.4
			C155.3,219,155.2,211.8,155.2,204.5z"/>
		<path class="st48" d="M134,128.8c0.9-0.1,0.7-0.9,0.9-1.5c1-3,2.9-5,6-5.4c3.4-0.5,6.1,0.6,7.8,3.7c0.5,1,1.1,1.2,2.2,1.1
			c1.9-0.3,3.8-0.5,5.8-0.4c3.2,0,5.7,1.4,7,4.4c1.4,3.2,0.9,6.2-1.6,8.6c-1.2,1.2-1.7,2.3-1.2,4c0.5,1.5,0,3.2,0.7,4.7
			c-0.3,1.6,0.4,3.1,0.1,4.7c-1,4.5-3.9,7.8-8.3,8.5c-5,0.8-10.1,1.3-15.2,1.9c-0.2-1.3-0.5-2.5-0.7-3.8c5.2,0.8,10.2-0.7,15.2-1.2
			c3.6-0.3,4.9-2.1,4.6-5.7c-0.7-6.2-1.4-12.3-2.3-18.4c-0.3-2.4-2.2-4.1-4.7-3.8c-4.4,0.4-8.9,1.1-13.3,1.6c-1,0.1-1.7,0.7-2.6,1.3
			C134.2,131.6,133.9,130.2,134,128.8z"/>
		<path class="st56" d="M180.3,114.8c-3.2-0.4-6.8,1.6-9.5-1.7c2,1.9,4.5,0.7,6.8,1C178.5,114.2,179.6,113.8,180.3,114.8z"/>
		<path class="st57" d="M170.3,180.3c-0.8,1.4-2.3,1-3.6,1.2c-3.5,0.4-6.6,1.5-8.5,4.8c-0.3-6-0.3-6,5.6-6
			C166,180.3,168.2,180.3,170.3,180.3z"/>
		<path class="st48" d="M76.1,263.3h27c1.9,0,3.5-1.6,3.5-3.5l0,0c0-1.9-1.6-3.5-3.5-3.5h-27c-1.9,0-3.5,1.6-3.5,3.5l0,0
			C72.6,261.8,74.2,263.3,76.1,263.3z"/>
		<path class="st48" d="M236.6,263.3h26.9c1.7,0,3.2-1.4,3.2-3.2v-0.5c0-1.7-1.4-3.2-3.2-3.2h-26.9c-1.7,0-3.2,1.4-3.2,3.2v0.5
			C233.5,261.9,234.9,263.3,236.6,263.3z"/>
		<path class="st58" d="M152.1,101.1c0-1.3,0-2.6,0-3.9c0.3-2.1-0.1-4.1,0.4-6.2c1.2-4.8,5.1-8,10.1-8c6.9,0,13.8,0.3,20.7-0.1
			c7.3-0.4,13.8,5.5,11,14.9c-0.4,1.3-0.7,2.6-1.7,3.7c-1.7-2.2-3.2-4.6-6.3-5.6c1.2,2.8,1,5.2,0.5,8.3c-1.4-2.4-2.3-4.5-4.1-6
			c-1.1-0.1-1.8-0.9-2.6-1.4c-0.9-0.6-1.8-1.2-2.9-1.5c-1.7-0.6-1.9-0.4-1.5,1.4c0.2,1,0.3,2,0.6,3c0.1,0.4,0.2,0.9,0.2,1.3
			c-0.1,3.1-0.7,6.1-2.3,8.9c-0.3,0.6-0.7,1.4-1.5,1.3c-0.8-0.1-0.7-1-0.8-1.6c-0.4-2.6-1.2-5.1-2.3-7.4c0.4,3.9-0.9,7.5-3.2,10.8
			c-0.4,0.5-0.8,1-1.3,1.4c-0.4,0.4-0.9,0.9-1.5,0.6c-0.7-0.3-0.4-1-0.4-1.5c0.3-3.4-0.2-6.6-1.4-9.8c-0.2-0.5-0.1-1.3-0.9-1.3
			c-0.7,0-1.2,0.6-1.4,1.2c-0.5,1.8-0.7,3.6,0.4,5.2c2.2,3.1,2.2,4.8,0.3,8c-0.3,0.4-0.6,0.8-0.9,1.2c-4.3,4.9-11.2,3.4-15.1,1.4
			c-1.4-0.7-1.1-1.7-0.1-2.5c1.3-1.1,2.7-2.1,3.7-3.6c2.2-3.1,3.5-6.4,3.7-10.2C151.6,102.3,151.7,101.6,152.1,101.1z"/>
	</g>
	<g>
		<defs>
			<path id="SVGID_21_" d="M424.8,64.2h-1.3h-4.6c-0.9,0-1.5-0.7-1.5-1.5s0.7-1.5,1.5-1.5h0.7h6.1h4c0.9,0,1.5-0.7,1.5-1.5
				s-0.7-1.5-1.5-1.5h-1.6c-0.4,0-0.7-0.4-0.6-0.9c1.1-2.8,1.6-5.9,1.5-9.1c-0.4-12.6-10.7-22.8-23.3-23.2c-7.6-0.2-14.4,3-18.9,8.3
				c-0.4,0.4-0.9,0.7-1.5,0.7h-2.8c-0.9,0-1.5,0.7-1.5,1.5s0.7,1.5,1.5,1.5h1.7h4.2c0.9,0,1.5,0.7,1.5,1.5s-0.7,1.5-1.5,1.5h-5.7
				h-2.9c-0.9,0-1.5,0.7-1.5,1.5s0.7,1.5,1.5,1.5h1.1c0.4,0,0.7,0.4,0.6,0.8c-0.4,1.9-0.6,3.9-0.5,5.9c0.4,12.6,10.7,22.8,23.3,23.1
				c5.9,0.2,11.3-1.7,15.5-5.1c0.5-0.4,1.1-0.6,1.7-0.6h3.4c0.9,0,1.5-0.7,1.5-1.5C426.3,64.9,425.7,64.2,424.8,64.2"/>
		</defs>
		<use xlink:href="#SVGID_21_"  style="overflow:visible;fill-rule:evenodd;clip-rule:evenodd;fill:#FFAB15;"/>
		<clipPath id="SVGID_22_">
			<use xlink:href="#SVGID_21_"  style="overflow:visible;"/>
		</clipPath>
		<g class="st59">
			<defs>
				<rect id="SVGID_23_" x="-12.8" y="24.9" width="462.7" height="233.9"/>
			</defs>
			<use xlink:href="#SVGID_23_"  style="overflow:visible;fill:#FFAB15;"/>
			<clipPath id="SVGID_24_">
				<use xlink:href="#SVGID_23_"  style="overflow:visible;"/>
			</clipPath>
		</g>
	</g>
	<path class="st28" d="M399.5,127.2h-7.8c-3.7,0-6.7-3-6.7-6.7v0c0-3.7,3-6.7,6.7-6.7h7.8c3.7,0,6.7,3,6.7,6.7v0
		C406.2,124.1,403.2,127.2,399.5,127.2z"/>
	<path class="st60" d="M398.7,123.1h-6.3c-1.5,0-2.7-1.2-2.7-2.7l0,0c0-1.5,1.2-2.7,2.7-2.7h6.3c1.5,0,2.7,1.2,2.7,2.7l0,0
		C401.4,121.9,400.2,123.1,398.7,123.1z"/>
	<path class="st61" d="M389.8,171.2h-1.3c-0.5,0-1-0.4-1-1l0,0c0-0.5,0.4-1,1-1h1.3c0.5,0,1,0.4,1,1l0,0
		C390.8,170.7,390.3,171.2,389.8,171.2z"/>
	<path class="st61" d="M417.8,171.2h-1.3c-0.5,0-1-0.4-1-1l0,0c0-0.5,0.4-1,1-1h1.3c0.5,0,1,0.4,1,1l0,0
		C418.8,170.7,418.3,171.2,417.8,171.2z"/>
	<path class="st61" d="M412.8,175.8h-19.5c-0.1,0-0.2-0.1-0.2-0.2l0,0c0-0.1,0.1-0.2,0.2-0.2h19.5c0.1,0,0.2,0.1,0.2,0.2l0,0
		C413,175.7,412.9,175.8,412.8,175.8z"/>
	<path class="st62" d="M414.8,241.3H409c-0.5,0-1-0.4-1-1v-19.6h7.8v19.6C415.8,240.9,415.3,241.3,414.8,241.3z"/>
	<path class="st62" d="M404.8,241.3H399c-0.5,0-1-0.4-1-1v-19.6h7.8v19.6C405.8,240.9,405.3,241.3,404.8,241.3z"/>
	<path class="st62" d="M425.8,241.3H420c-0.5,0-1-0.4-1-1v-19.6h7.8v19.6C426.8,240.9,426.3,241.3,425.8,241.3z"/>
	<path class="st62" d="M435.8,241.3H430c-0.5,0-1-0.4-1-1v-19.6h7.8v19.6C436.8,240.9,436.3,241.3,435.8,241.3z"/>
	<path class="st62" d="M445.8,241.3H440c-0.5,0-1-0.4-1-1v-19.6h7.8v19.6C446.8,240.9,446.3,241.3,445.8,241.3z"/>
	<path class="st62" d="M456.8,241.3H451c-0.5,0-1-0.4-1-1v-19.6h7.8v19.6C457.8,240.9,457.3,241.3,456.8,241.3z"/>
	<path class="st30" d="M378.7,244.6L378.7,244.6c-1.3,0-2.3-1-2.3-2.3v-21.6h2.3V244.6z"/>
	<rect x="378.7" y="243.6" class="st30" width="6.4" height="1"/>
	<rect x="397.4" y="244.6" class="st29" width="2.1" height="4.5"/>
	<path class="st52" d="M156.7,230.7L156.7,230.7c-0.8,0-1.5-0.7-1.5-1.5v-20.7c0-0.8,0.7-1.5,1.5-1.5l0,0c0.8,0,1.5,0.7,1.5,1.5
		v20.7C158.2,230,157.5,230.7,156.7,230.7z"/>
	<path class="st52" d="M167.6,180.4h-19.1c-0.8,0-1.4-0.6-1.4-1.4l0,0c0-0.8,0.6-1.4,1.4-1.4h19.1c0.8,0,1.4,0.6,1.4,1.4l0,0
		C169,179.7,168.4,180.4,167.6,180.4z"/>
	<path class="st39" d="M376.5,150.6h-5.3c-0.1,0-0.2-0.1-0.2-0.2v0c0-0.1,0.1-0.2,0.2-0.2h5.3c0.1,0,0.2,0.1,0.2,0.2v0
		C376.7,150.5,376.6,150.6,376.5,150.6z"/>
</g>
</svg>
