<?xml version="1.0" encoding="utf-8"?>
<!-- Generator: Adobe Illustrator 21.0.0, SVG Export Plug-In . SVG Version: 6.00 Build 0)  -->
<svg version="1.1" id="图层_1" xmlns="http://www.w3.org/2000/svg" xmlns:xlink="http://www.w3.org/1999/xlink" x="0px" y="0px"
	 viewBox="0 0 553 285" style="enable-background:new 0 0 553 285;" xml:space="preserve">
<style type="text/css">
	.st0{clip-path:url(#SVGID_2_);}
	.st1{clip-path:url(#SVGID_4_);fill:#7FB1F2;}
	.st2{clip-path:url(#SVGID_6_);}
	.st3{clip-path:url(#SVGID_8_);fill:#7FB1F2;}
	.st4{clip-path:url(#SVGID_10_);}
	.st5{clip-path:url(#SVGID_12_);fill:#7FB1F2;}
	.st6{clip-path:url(#SVGID_14_);}
	.st7{clip-path:url(#SVGID_16_);fill:#7FB1F2;}
	.st8{fill:none;stroke:#7FB1F2;stroke-width:3.8321;stroke-miterlimit:10;}
	.st9{fill:none;stroke:#7FB1F2;stroke-width:4.0723;stroke-miterlimit:10;}
	.st10{fill:none;stroke:#D6E0F2;stroke-width:3.9528;stroke-miterlimit:10;}
	.st11{fill:none;stroke:#D6E0F2;stroke-width:3.9528;stroke-miterlimit:10;stroke-dasharray:11.8558,11.8558;}
	.st12{opacity:0.5;fill:#DAE4ED;}
	.st13{fill:none;}
	.st14{fill:#FFFFFF;}
	.st15{fill:#D6E0F2;}
	.st16{fill:#326699;}
	.st17{fill:#08DCE8;}
	.st18{fill:#01FF00;}
	.st19{fill:#FF0004;}
	.st20{fill:#CCD8EA;}
	.st21{fill:#DD542A;}
	.st22{fill:#C43A1A;}
	.st23{fill:#32BEA6;}
	.st24{fill:#B7E8E0;}
	.st25{fill:#FFD800;}
	.st26{fill:#E8A600;}
	.st27{fill:#EFB105;}
	.st28{fill:#E6ECF4;}
	.st29{fill:#DDE5ED;}
	.st30{fill:#C0CFD8;}
	.st31{fill:#E7EDF7;}
	.st32{fill:#F2F5F9;}
	.st33{fill:#2F9CED;}
	.st34{fill:#C63A28;}
	.st35{fill:#1B6ABF;}
	.st36{fill:#035089;}
	.st37{clip-path:url(#SVGID_18_);fill:#32BEA6;}
	.st38{fill:#287FCE;}
</style>
<g>
	<g>
		<g>
			<defs>
				<rect id="SVGID_1_" x="1650.7" y="1251.1" width="3.7" height="68.7"/>
			</defs>
			<use xlink:href="#SVGID_1_"  style="overflow:visible;fill-rule:evenodd;clip-rule:evenodd;fill:#4373F9;"/>
			<clipPath id="SVGID_2_">
				<use xlink:href="#SVGID_1_"  style="overflow:visible;"/>
			</clipPath>
			<g class="st0">
				<defs>
					<rect id="SVGID_3_" x="1616.2" y="1249.8" width="73.1" height="73.1"/>
				</defs>
				<use xlink:href="#SVGID_3_"  style="overflow:visible;fill:#4373F9;"/>
				<clipPath id="SVGID_4_">
					<use xlink:href="#SVGID_3_"  style="overflow:visible;"/>
				</clipPath>
				<rect x="1646.6" y="1247" class="st1" width="11.9" height="76.9"/>
			</g>
		</g>
		<g>
			<defs>
				<rect id="SVGID_5_" x="1618.1" y="1284" width="68.7" height="3.7"/>
			</defs>
			<use xlink:href="#SVGID_5_"  style="overflow:visible;fill-rule:evenodd;clip-rule:evenodd;fill:#4373F9;"/>
			<clipPath id="SVGID_6_">
				<use xlink:href="#SVGID_5_"  style="overflow:visible;"/>
			</clipPath>
			<g class="st2">
				<defs>
					<rect id="SVGID_7_" x="1616.1" y="1249.9" width="73.1" height="73.1"/>
				</defs>
				<use xlink:href="#SVGID_7_"  style="overflow:visible;fill:#4373F9;"/>
				<clipPath id="SVGID_8_">
					<use xlink:href="#SVGID_7_"  style="overflow:visible;"/>
				</clipPath>
				<rect x="1614" y="1279.9" class="st3" width="76.9" height="11.9"/>
			</g>
		</g>
		<g>
			<defs>
				<path id="SVGID_9_" d="M1675.1,1263.1c-5.8,5.6-13.8,9.2-22.5,9.2s-16.7-3.6-22.5-9.2l-5,0.1c6.6,7.8,16.4,12.8,27.5,12.8
					c11,0,20.9-5,27.5-12.8L1675.1,1263.1z"/>
			</defs>
			<use xlink:href="#SVGID_9_"  style="overflow:visible;fill-rule:evenodd;clip-rule:evenodd;fill:#4373F9;"/>
			<clipPath id="SVGID_10_">
				<use xlink:href="#SVGID_9_"  style="overflow:visible;"/>
			</clipPath>
			<g class="st4">
				<defs>
					<rect id="SVGID_11_" x="1616.2" y="1249.8" width="73.1" height="73.1"/>
				</defs>
				<use xlink:href="#SVGID_11_"  style="overflow:visible;fill:#4373F9;"/>
				<clipPath id="SVGID_12_">
					<use xlink:href="#SVGID_11_"  style="overflow:visible;"/>
				</clipPath>
				<rect x="1621" y="1259" class="st5" width="63.2" height="21.2"/>
			</g>
		</g>
		<g>
			<defs>
				<path id="SVGID_13_" d="M1675.1,1308.7c-5.8-5.6-13.8-9.2-22.5-9.2s-16.7,3.6-22.5,9.2l-5-0.1c6.6-7.8,16.4-12.8,27.5-12.8
					c11,0,20.9,5,27.5,12.8L1675.1,1308.7z"/>
			</defs>
			<use xlink:href="#SVGID_13_"  style="overflow:visible;fill-rule:evenodd;clip-rule:evenodd;fill:#4373F9;"/>
			<clipPath id="SVGID_14_">
				<use xlink:href="#SVGID_13_"  style="overflow:visible;"/>
			</clipPath>
			<g class="st6">
				<defs>
					<rect id="SVGID_15_" x="1616.2" y="1249.8" width="73.1" height="73.1"/>
				</defs>
				<use xlink:href="#SVGID_15_"  style="overflow:visible;fill:#4373F9;"/>
				<clipPath id="SVGID_16_">
					<use xlink:href="#SVGID_15_"  style="overflow:visible;"/>
				</clipPath>
				<rect x="1621" y="1291.7" class="st7" width="63.2" height="21.2"/>
			</g>
		</g>
		<circle class="st8" cx="1652.6" cy="1285.9" r="34.1"/>
	</g>
	<ellipse class="st9" cx="1652.1" cy="1285.9" rx="18.9" ry="33.9"/>
</g>
<g>
	<g>
		<path class="st10" d="M180.2,195.3c-0.8-1.8-1.5-3.7-2.2-5.5"/>
		<path class="st11" d="M174.5,178.5c-2.5-9.7-3.8-19.8-3.8-30.2c0-66.8,54.1-120.9,120.9-120.9c20.2,0,39.2,4.9,55.9,13.7"/>
		<path class="st10" d="M352.8,43.9c1.7,1,3.4,2,5,3.1"/>
	</g>
</g>
<path class="st12" d="M183.4,203.1h-73.5c-4.1,0-7.4-3.3-7.4-7.4c0-4.1,3.3-7.4,7.4-7.4h31c4.1,0,7.4-3.3,7.4-7.4
	c0-4.1-3.3-7.4-7.4-7.4h-3.7c-4.1,0-7.4-3.3-7.4-7.4c0-4.1,3.3-7.4,7.4-7.4h12.7c4.1,0,7.4-3.3,7.4-7.4c0-4.1-3.3-7.4-7.4-7.4h-61
	c-4.1,0-7.4,3.3-7.4,7.4c0,4.1,3.3,7.4,7.4,7.4h17.3c4.1,0,7.4,3.3,7.4,7.4c0,4.1-3.3,7.4-7.4,7.4H51.1c-4.1,0-7.4,3.3-7.4,7.4
	c0,4.1,3.3,7.4,7.4,7.4h27.8c4.1,0,7.4,3.3,7.4,7.4c0,4.1-3.3,7.4-7.4,7.4h-0.8c-4.1,0-7.4,3.3-7.4,7.4l0,0c0,4.1,3.3,7.4,7.4,7.4
	h105.3c4.1,0,7.4-3.3,7.4-7.4l0,0C190.8,206.4,187.5,203.1,183.4,203.1z"/>
<path class="st12" d="M499.6,114.3h-40.4c-3,0-5.4-2.4-5.4-5.4c0-3,2.4-5.4,5.4-5.4h12.7c3,0,5.4-2.4,5.4-5.4c0-3-2.4-5.4-5.4-5.4
	h-44.7c-3,0-5.4,2.4-5.4,5.4c0,3,2.4,5.4,5.4,5.4h9.3c3,0,5.4,2.4,5.4,5.4c0,3-2.4,5.4-5.4,5.4h-2.7c-3,0-5.4,2.4-5.4,5.4
	s2.4,5.4,5.4,5.4h22.7c3,0,5.4,2.4,5.4,5.4c0,3-2.4,5.4-5.4,5.4h-53.8c-3,0-5.4,2.4-5.4,5.4c0,3,2.4,5.4,5.4,5.4h77.1
	c3,0,5.4-2.4,5.4-5.4c0-3-2.4-5.4-5.4-5.4h-0.6c-3,0-5.4-2.4-5.4-5.4c0-3,2.4-5.4,5.4-5.4h20.4c3,0,5.4-2.4,5.4-5.4
	S502.6,114.3,499.6,114.3z"/>
<rect x="303.2" y="231" class="st13" width="65.5" height="60.8"/>
<path class="st14" d="M365.7,255.5c0,0-26.9,11.4-28.2,11.9c-1,0.4-1.9,0.4-3,0c-1.1-0.4-28.2-11.9-28.2-11.9l-1.3,3
	c0,0,26.1,11,27.9,11.8c1.9,0.8,3.9,0.9,6.3-0.1c1.8-0.7,27.7-11.7,27.7-11.7L365.7,255.5z M365.7,255.5"/>
<circle class="st15" cx="209.2" cy="222.7" r="23.1"/>
<g>
	<rect x="303" y="203.9" class="st16" width="92.5" height="3.4"/>
	<rect x="361.3" y="210.8" class="st17" width="34.3" height="3.4"/>
	<rect x="306.5" y="210.8" class="st18" width="3.4" height="3.4"/>
	<rect x="313.3" y="210.8" class="st19" width="3.4" height="3.4"/>
</g>
<g>
	<rect x="303" y="219.3" class="st16" width="92.5" height="3.4"/>
	<rect x="361.3" y="226.2" class="st17" width="34.3" height="3.4"/>
	<rect x="306.5" y="226.2" class="st18" width="3.4" height="3.4"/>
	<rect x="313.3" y="226.2" class="st19" width="3.4" height="3.4"/>
</g>
<circle class="st15" cx="264" cy="221" r="47"/>
<g>
	<path class="st20" d="M175.7,223.5c1.5,1.3,2.5,3,2.8,5.1h-3.4c-0.4-1.4-1-2.4-2-3.1c-1-0.7-2.2-1-3.7-1c-2.2,0-3.9,0.7-5,2.3
		c-1,1.4-1.5,3.3-1.5,5.7c0,2.5,0.5,4.4,1.5,5.8c1.1,1.4,2.8,2.2,5.2,2.2c1.5,0,2.8-0.4,3.7-1.1c1-0.8,1.7-2,2.1-3.6h3.4
		c-0.5,2.5-1.6,4.4-3.3,5.8c-1.6,1.3-3.6,2-5.9,2c-3.5,0-6.2-1.1-7.9-3.3c-1.5-1.9-2.3-4.5-2.3-7.7c0-3.2,0.8-5.7,2.4-7.7
		c1.8-2.3,4.4-3.4,7.8-3.4C172,221.5,174.1,222.1,175.7,223.5z"/>
	<path class="st20" d="M188.5,221.5v21.7h-3.4v-21.7H188.5z"/>
	<path class="st20" d="M208.1,229.7c1.4,1.5,2.1,3.5,2.1,5.8c0,2.4-0.7,4.3-2.1,5.8c-1.4,1.5-3.3,2.3-5.7,2.3
		c-2.4,0-4.2-0.8-5.7-2.3c-1.4-1.5-2.1-3.4-2.1-5.8c0-2.4,0.7-4.3,2.1-5.8c1.4-1.5,3.3-2.3,5.6-2.3
		C204.8,227.4,206.7,228.1,208.1,229.7z M199.2,231.8c-0.7,1-1,2.2-1,3.7s0.3,2.7,1,3.7c0.8,1.1,1.8,1.7,3.3,1.7
		c1.4,0,2.5-0.6,3.3-1.7c0.7-1,1-2.2,1-3.7c0-1.5-0.4-2.7-1-3.7c-0.8-1.1-1.9-1.7-3.3-1.7C201,230.1,200,230.7,199.2,231.8z"/>
	<path class="st20" d="M219.6,227.8v9.4c0,1.3,0.2,2.1,0.8,2.7c0.5,0.6,1.4,0.9,2.6,0.9c0.7,0,1.5-0.3,2.1-1
		c0.7-0.7,1.2-1.5,1.5-2.6v-9.4h3.4v15.4h-3.4v-2c-1.3,1.6-2.9,2.4-4.8,2.4c-3.7,0-5.5-2.1-5.5-6.2v-9.6H219.6z"/>
	<path class="st20" d="M250.8,221.5v21.7h-3.2v-1.6c-1.1,1.4-2.6,2.1-4.6,2.1c-2.3,0-4.1-0.8-5.4-2.4c-1.2-1.5-1.8-3.4-1.8-5.8
		c0-2.3,0.6-4.1,1.8-5.6c1.3-1.6,3-2.4,5.2-2.4c1.8,0,3.3,0.8,4.6,2.5v-8.4H250.8z M240.3,231.6c-0.6,0.9-0.9,2.1-0.9,3.8
		c0,1.7,0.3,2.9,0.9,3.8c0.7,1.1,1.8,1.6,3.3,1.6c1.3,0,2.4-0.5,3.1-1.6c0.6-1,1-2.2,1-3.7v-0.2c0-1.6-0.4-2.9-1.2-3.9
		c-0.7-0.9-1.6-1.3-2.7-1.3C242.1,230.1,241,230.6,240.3,231.6z"/>
</g>
<path class="st21" d="M405.5,196.7H308c-6.6,0-12-5.4-12-12V57.9c0-6.6,5.4-12,12-12h97.5c6.6,0,12,5.4,12,12v126.8
	C417.5,191.3,412.1,196.7,405.5,196.7z"/>
<path class="st22" d="M402.6,170.8h-91.8c-2.3,0-4.1-1.8-4.1-4.1V60.1c0-2.3,1.8-4.1,4.1-4.1h91.8c2.3,0,4.1,1.8,4.1,4.1v106.5
	C406.7,168.9,404.9,170.8,402.6,170.8z"/>
<path class="st14" d="M401.7,177h-89.8c-2.8,0-5.1-2.3-5.1-5.1V60c0-2.8,2.3-5.1,5.1-5.1h89.8c2.8,0,5.1,2.3,5.1,5.1v111.9
	C406.8,174.7,404.5,177,401.7,177z"/>
<path class="st23" d="M391.2,76.3H350c-1.3,0-2.3-1-2.3-2.3v0c0-1.3,1-2.3,2.3-2.3h41.2c1.3,0,2.3,1,2.3,2.3v0
	C393.5,75.3,392.4,76.3,391.2,76.3z"/>
<path class="st23" d="M368.2,84.4H350c-1.3,0-2.3-1-2.3-2.3l0,0c0-1.3,1-2.3,2.3-2.3h18.2c1.3,0,2.3,1,2.3,2.3l0,0
	C370.5,83.4,369.5,84.4,368.2,84.4z"/>
<path class="st23" d="M373.7,101H350c-1.3,0-2.3-1-2.3-2.3v0c0-1.3,1-2.3,2.3-2.3h23.7c1.3,0,2.3,1,2.3,2.3v0
	C376,99.9,375,101,373.7,101z"/>
<path class="st23" d="M386.2,109.1H350c-1.3,0-2.3-1-2.3-2.3l0,0c0-1.3,1-2.3,2.3-2.3h36.2c1.3,0,2.3,1,2.3,2.3l0,0
	C388.5,108.1,387.5,109.1,386.2,109.1z"/>
<path class="st23" d="M375.5,124.6H350c-1.3,0-2.3-1-2.3-2.3l0,0c0-1.3,1-2.3,2.3-2.3h25.5c1.3,0,2.3,1,2.3,2.3l0,0
	C377.8,123.6,376.7,124.6,375.5,124.6z"/>
<path class="st23" d="M381.7,132.7H350c-1.3,0-2.3-1-2.3-2.3l0,0c0-1.3,1-2.3,2.3-2.3h31.7c1.3,0,2.3,1,2.3,2.3l0,0
	C383.9,131.7,382.9,132.7,381.7,132.7z"/>
<path class="st23" d="M389,148.9h-39c-1.3,0-2.3-1-2.3-2.3l0,0c0-1.3,1-2.3,2.3-2.3h39c1.3,0,2.3,1,2.3,2.3l0,0
	C391.3,147.9,390.3,148.9,389,148.9z"/>
<path class="st23" d="M381.7,157H350c-1.3,0-2.3-1-2.3-2.3l0,0c0-1.3,1-2.3,2.3-2.3h31.7c1.3,0,2.3,1,2.3,2.3l0,0
	C383.9,156,382.9,157,381.7,157z"/>
<circle class="st23" cx="330.7" cy="102.2" r="9"/>
<circle class="st24" cx="332.3" cy="150.7" r="9"/>
<circle class="st23" cx="330.7" cy="78.2" r="9"/>
<path class="st14" d="M332.7,75.1l-2.7,2.7l-1.3-1.3c-0.6-0.6-1.7-0.6-2.3,0c-0.6,0.6-0.6,1.7,0,2.3l2.5,2.5l0,0
	c0.6,0.6,1.7,0.6,2.3,0l3.8-3.8c0.6-0.6,0.6-1.7,0-2.3C334.4,74.5,333.3,74.5,332.7,75.1z"/>
<path class="st14" d="M332.7,99.5l-2.7,2.7l-1.3-1.3c-0.6-0.6-1.7-0.6-2.3,0c-0.6,0.6-0.6,1.7,0,2.3l2.5,2.5l0,0
	c0.6,0.6,1.7,0.6,2.3,0l3.8-3.8c0.6-0.6,0.6-1.7,0-2.3S333.3,98.8,332.7,99.5z"/>
<circle class="st23" cx="330.8" cy="126.3" r="9"/>
<path class="st14" d="M332.8,123.2l-2.7,2.7l-1.3-1.3c-0.6-0.6-1.7-0.6-2.3,0c-0.6,0.6-0.6,1.7,0,2.3l2.5,2.5l0,0
	c0.6,0.6,1.7,0.6,2.3,0l3.8-3.8c0.6-0.6,0.6-1.7,0-2.3C334.5,122.6,333.4,122.6,332.8,123.2z"/>
<g>
	<path class="st25" d="M343.1,196.9H239.6c-3.7,0-6.6-3-6.6-6.6v-34.5h116.8v34.5C349.8,193.9,346.8,196.9,343.1,196.9z"/>
	<polygon class="st26" points="349.8,155.8 233,155.8 252,121.9 330.4,121.9 	"/>
	<circle class="st27" cx="291.4" cy="171" r="6.6"/>
	<rect x="242.6" y="146.9" class="st14" width="97.5" height="9"/>
	<rect x="250.9" y="135.8" class="st28" width="80.9" height="11.3"/>
	<rect x="254.9" y="106" class="st29" width="72.9" height="29.9"/>
	<path class="st30" d="M300.4,115.7h-16.8c-0.8,0-1.4-0.6-1.4-1.4v0c0-0.8,0.6-1.4,1.4-1.4h16.8c0.8,0,1.4,0.6,1.4,1.4v0
		C301.8,115.1,301.2,115.7,300.4,115.7z"/>
	<path class="st30" d="M318.2,123.6h-52.5c-0.8,0-1.4-0.6-1.4-1.4v0c0-0.8,0.6-1.4,1.4-1.4h52.5c0.8,0,1.4,0.6,1.4,1.4v0
		C319.7,123,319,123.6,318.2,123.6z"/>
	<path class="st30" d="M318.2,130.7h-52.5c-0.8,0-1.4-0.6-1.4-1.4l0,0c0-0.8,0.6-1.4,1.4-1.4h52.5c0.8,0,1.4,0.6,1.4,1.4l0,0
		C319.7,130.1,319,130.7,318.2,130.7z"/>
</g>
<circle class="st15" cx="309" cy="231.3" r="47"/>
<path class="st31" d="M469.7,250.5c0-16-12.9-29-28.9-29.1c0.2-1.7,0.3-3.5,0.3-5.3c0-26-21.1-47-47-47c-14.2,0-27,6.3-35.6,16.3
	c-3.4-0.8-6.9-1.2-10.6-1.2c-26,0-47,21.1-47,47c0,2.4,0.2,4.7,0.5,7h-38.6c-11.5,0-20.9,9.4-20.9,20.9v0c0,11.5,9.4,20.9,20.9,20.9
	h178c3,0,5.8-0.6,8.4-1.8C461,274.7,469.7,263.6,469.7,250.5z"/>
<path class="st32" d="M160.9,199.6c0,0,6.8-31.8,43.2-34.1c36.4-2.3,45.5,22.7,45.5,22.7s20.5-6.8,36.4,9.1
	c11.4,11.4,9.1,27.3,9.1,27.3s25,4.5,25,29.6s-22.7,29.6-22.7,29.6H154.1c0,0-37.5-7.4-31.8-47.8
	C126.8,201.9,160.9,199.6,160.9,199.6L160.9,199.6z M160.9,199.6"/>
<g>
	<g>
		<path class="st15" d="M216.8,252.3c-13.3,0-24-10.8-24-24c0-13.3,10.8-24,24-24c13.3,0,24,10.8,24,24
			C240.9,241.6,230.1,252.3,216.8,252.3L216.8,252.3z M209.7,242.3c2.3,0,4.6-0.9,6.3-2.5c1.6-1.5,2.5-3.6,2.6-5.8h0v-12.9
			c0-2.9,2.4-5.2,5.3-5.2c2.9,0,5.3,2.3,5.3,5.2c0,2.9-2.4,5.2-5.3,5.2c-1,0-1.8,0.8-1.8,1.8c0,1,0.8,1.8,1.8,1.8
			c4.9,0,8.9-3.9,8.9-8.8s-4-8.8-8.9-8.8c-2.3,0-4.6,0.9-6.3,2.5c-1.6,1.5-2.5,3.6-2.6,5.9h0v12.8c0,2.9-2.4,5.2-5.3,5.2
			c-2.9,0-5.3-2.3-5.3-5.2c0-2.9,2.4-5.2,5.3-5.2c0.5,0,0.9-0.2,1.3-0.5c0.3-0.3,0.5-0.8,0.5-1.3c0-1-0.8-1.8-1.8-1.8
			c-4.9,0-8.9,3.9-8.9,8.8S204.8,242.3,209.7,242.3L209.7,242.3z M209.7,242.3"/>
	</g>
</g>
<g>
	<circle class="st33" cx="283.2" cy="26.3" r="25"/>
	<g>
		<path class="st14" d="M293.5,15.8c-0.5,0-0.9,0.3-0.9,0.9v19.8c0,0.9-0.9,1.7-1.7,1.7h-15c-1,0-2.2-0.9-2.2-1.7v-1.9
			c0-0.9,1-1.4,2-1.4h14.3c0.5,0,0.9-0.3,0.9-0.9V15.7c0-1.9-1.4-3.1-3.4-3.1h-11.6c-1.9,0-3.8,1-3.8,3.1v21.5
			c0.2,1.5,1.7,2.7,3.2,2.9h15.5c1.9,0,3.4-1.5,3.4-3.2V16.7C294.3,16.4,294,15.8,293.5,15.8L293.5,15.8z M290.2,34.9h-14
			c-0.5,0-0.9,0.3-0.9,0.9c0,0.5,0.3,0.9,0.9,0.9h14c0.5,0,0.9-0.3,0.9-0.9S290.7,34.9,290.2,34.9L290.2,34.9z M290.2,34.9"/>
	</g>
</g>
<circle class="st14" cx="220.2" cy="57.9" r="18.5"/>
<g>
	<path class="st34" d="M218.7,30.7c-13.9,0-25.1,11.2-25.1,25.1c0,13.9,11.2,25.1,25.1,25.1c13.9,0,25.1-11.2,25.1-25.1
		C243.8,41.9,232.6,30.7,218.7,30.7L218.7,30.7z M228.4,44.7V61c0,1.6-1.5,3.1-3.7,3.7c-2.4,0.5-4.7-0.4-5.2-2.3
		c-0.4-1.9,1.2-3.8,3.6-4.4c1.3-0.4,2.4-0.2,3.3,0.2v-8.2l-10.8,3.4v10.4c0,1.6-1.5,3.2-3.7,3.8c-2.4,0.5-4.7-0.4-5.2-2.3
		c-0.4-1.9,1.2-3.8,3.6-4.4c1.3-0.4,2.4-0.2,3.3,0.2V49.1c0-0.8,0.5-1.4,1.3-1.7l12.3-3.8C227.8,43.4,228.5,44,228.4,44.7
		L228.4,44.7z M228.4,44.7"/>
</g>
<path class="st35" d="M376,41h-6.9c-0.5-3.4-3.4-6-6.9-6h-10.8c-3.5,0-6.4,2.6-6.9,6h-7.1c-3.8,0-6.9,3.1-6.9,6.9V55
	c0,1.1,0.9,2,2,2h48.6c1.1,0,2-0.9,2-2v-6.9C383,44.2,379.9,41,376,41z"/>
<circle class="st36" cx="356.8" cy="41" r="3.4"/>
<circle class="st14" cx="176.9" cy="120" r="22.6"/>
<g>
	<g>
		<defs>
			<rect id="SVGID_17_" x="151.9" y="94.5" width="50.2" height="50.3"/>
		</defs>
		<clipPath id="SVGID_18_">
			<use xlink:href="#SVGID_17_"  style="overflow:visible;"/>
		</clipPath>
		<path class="st37" d="M177,94.5c-13.9,0-25.1,11.2-25.1,25.1c0,13.9,11.2,25.1,25.1,25.1c13.9,0,25.1-11.2,25.1-25.1
			C202.1,105.7,190.8,94.5,177,94.5L177,94.5z M171.1,136.4c-1.2,0-2.1-1-2.1-2.1c0-1.2,1-2.1,2.1-2.1c1.2,0,2.1,1,2.1,2.1
			C173.2,135.5,172.2,136.4,171.1,136.4L171.1,136.4z M186,136.4c-1.2,0-2.1-1-2.1-2.1c0-1.2,1-2.1,2.1-2.1c1.2,0,2.1,1,2.1,2.1
			C188.2,135.5,187.2,136.4,186,136.4L186,136.4z M188.2,131.1h-17.3c-1.6,0-2.9-1.3-3.1-2.8l-1.8-12.8l-1-6c-0.1-0.6-0.6-1-1-1
			h-1.3c-0.6,0-1.1-0.5-1.1-1.1s0.5-1.1,1.1-1.1h1.3c1.6,0,2.9,1.3,3.1,2.8l1,6l1.8,12.9c0.1,0.5,0.5,1,1,1h17.3
			c0.6,0,1.1,0.5,1.1,1.1C189.3,130.7,188.7,131.1,188.2,131.1L188.2,131.1z M191.4,113.2l-1.7,9.7c-0.2,1.5-1.5,2.8-3.1,2.8
			l-14.6,1.2c-0.6,0-1-0.4-1.1-1c-0.1-0.6,0.4-1.1,1-1.2l14.5-1.1c0.6,0,1-0.4,1-0.9l1.7-9.7c0.1-0.4-0.1-0.8-0.2-1
			c-0.2-0.2-0.3-0.2-0.6-0.2H170c-0.6,0-1.1-0.5-1.1-1.1c0-0.6,0.5-1.1,1.1-1.1h18.5c0.8,0,1.6,0.3,2.1,1
			C191.2,111.2,191.5,112.2,191.4,113.2L191.4,113.2z M191.4,113.2"/>
	</g>
</g>
<path class="st38" d="M378.4,55.1l-43.2,0c-0.5,0-0.9-0.4-0.9-0.9v0c0-0.5,0.4-0.9,0.9-0.9h43.2c0.5,0,0.9,0.4,0.9,0.9v0
	C379.2,54.7,378.8,55.1,378.4,55.1z"/>
</svg>
