<?xml version="1.0" encoding="utf-8"?>
<!-- Generator: Adobe Illustrator 21.0.0, SVG Export Plug-In . SVG Version: 6.00 Build 0)  -->
<svg version="1.1" id="图层_1" xmlns="http://www.w3.org/2000/svg" xmlns:xlink="http://www.w3.org/1999/xlink" x="0px" y="0px"
	 viewBox="0 0 553 285" style="enable-background:new 0 0 553 285;" xml:space="preserve">
<style type="text/css">
	.st0{clip-path:url(#SVGID_2_);}
	.st1{clip-path:url(#SVGID_4_);fill:#7FB1F2;}
	.st2{clip-path:url(#SVGID_6_);}
	.st3{clip-path:url(#SVGID_8_);fill:#7FB1F2;}
	.st4{clip-path:url(#SVGID_10_);}
	.st5{clip-path:url(#SVGID_12_);fill:#7FB1F2;}
	.st6{clip-path:url(#SVGID_14_);}
	.st7{clip-path:url(#SVGID_16_);fill:#7FB1F2;}
	.st8{fill:none;stroke:#7FB1F2;stroke-width:3.8321;stroke-miterlimit:10;}
	.st9{fill:none;stroke:#7FB1F2;stroke-width:4.0723;stroke-miterlimit:10;}
	.st10{fill:#264B8B;}
	.st11{fill:#B7DDF6;}
	.st12{fill:#FFFFFF;}
	.st13{fill:#FFE576;}
	.st14{fill:#EFB105;}
	.st15{fill:#A4D5F3;}
	.st16{fill:#4AABE8;}
	.st17{fill:#F67675;}
	.st18{fill:#90C99E;}
	.st19{fill:#A3CEE5;}
	.st20{fill:#89BDD3;}
	.st21{fill:#6099CC;}
	.st22{opacity:0.6;fill:#A4D5F3;}
	.st23{opacity:0.8;fill:none;stroke:#A4D5F3;stroke-width:5.3202;stroke-miterlimit:10;}
	.st24{opacity:0.8;fill:none;stroke:#A4D5F3;stroke-width:3.7241;stroke-miterlimit:10;}
	.st25{fill:#163F7A;}
	.st26{fill:#7FC6F9;}
	.st27{fill:#56BCEF;}
	.st28{fill:#375F9B;}
	.st29{fill:#59B3EA;}
	.st30{fill:#6BBAEC;}
</style>
<g>
	<g>
		<g>
			<defs>
				<rect id="SVGID_1_" x="1650.7" y="1251.1" width="3.7" height="68.7"/>
			</defs>
			<use xlink:href="#SVGID_1_"  style="overflow:visible;fill-rule:evenodd;clip-rule:evenodd;fill:#4373F9;"/>
			<clipPath id="SVGID_2_">
				<use xlink:href="#SVGID_1_"  style="overflow:visible;"/>
			</clipPath>
			<g class="st0">
				<defs>
					<rect id="SVGID_3_" x="1616.2" y="1249.8" width="73.1" height="73.1"/>
				</defs>
				<use xlink:href="#SVGID_3_"  style="overflow:visible;fill:#4373F9;"/>
				<clipPath id="SVGID_4_">
					<use xlink:href="#SVGID_3_"  style="overflow:visible;"/>
				</clipPath>
				<rect x="1646.6" y="1247" class="st1" width="11.9" height="76.9"/>
			</g>
		</g>
		<g>
			<defs>
				<rect id="SVGID_5_" x="1618.1" y="1284" width="68.7" height="3.7"/>
			</defs>
			<use xlink:href="#SVGID_5_"  style="overflow:visible;fill-rule:evenodd;clip-rule:evenodd;fill:#4373F9;"/>
			<clipPath id="SVGID_6_">
				<use xlink:href="#SVGID_5_"  style="overflow:visible;"/>
			</clipPath>
			<g class="st2">
				<defs>
					<rect id="SVGID_7_" x="1616.1" y="1249.9" width="73.1" height="73.1"/>
				</defs>
				<use xlink:href="#SVGID_7_"  style="overflow:visible;fill:#4373F9;"/>
				<clipPath id="SVGID_8_">
					<use xlink:href="#SVGID_7_"  style="overflow:visible;"/>
				</clipPath>
				<rect x="1614" y="1279.9" class="st3" width="76.9" height="11.9"/>
			</g>
		</g>
		<g>
			<defs>
				<path id="SVGID_9_" d="M1675.1,1263.1c-5.8,5.6-13.8,9.2-22.5,9.2s-16.7-3.6-22.5-9.2l-5,0.1c6.6,7.8,16.4,12.8,27.5,12.8
					c11,0,20.9-5,27.5-12.8L1675.1,1263.1z"/>
			</defs>
			<use xlink:href="#SVGID_9_"  style="overflow:visible;fill-rule:evenodd;clip-rule:evenodd;fill:#4373F9;"/>
			<clipPath id="SVGID_10_">
				<use xlink:href="#SVGID_9_"  style="overflow:visible;"/>
			</clipPath>
			<g class="st4">
				<defs>
					<rect id="SVGID_11_" x="1616.2" y="1249.8" width="73.1" height="73.1"/>
				</defs>
				<use xlink:href="#SVGID_11_"  style="overflow:visible;fill:#4373F9;"/>
				<clipPath id="SVGID_12_">
					<use xlink:href="#SVGID_11_"  style="overflow:visible;"/>
				</clipPath>
				<rect x="1621" y="1259" class="st5" width="63.2" height="21.2"/>
			</g>
		</g>
		<g>
			<defs>
				<path id="SVGID_13_" d="M1675.1,1308.7c-5.8-5.6-13.8-9.2-22.5-9.2s-16.7,3.6-22.5,9.2l-5-0.1c6.6-7.8,16.4-12.8,27.5-12.8
					c11,0,20.9,5,27.5,12.8L1675.1,1308.7z"/>
			</defs>
			<use xlink:href="#SVGID_13_"  style="overflow:visible;fill-rule:evenodd;clip-rule:evenodd;fill:#4373F9;"/>
			<clipPath id="SVGID_14_">
				<use xlink:href="#SVGID_13_"  style="overflow:visible;"/>
			</clipPath>
			<g class="st6">
				<defs>
					<rect id="SVGID_15_" x="1616.2" y="1249.8" width="73.1" height="73.1"/>
				</defs>
				<use xlink:href="#SVGID_15_"  style="overflow:visible;fill:#4373F9;"/>
				<clipPath id="SVGID_16_">
					<use xlink:href="#SVGID_15_"  style="overflow:visible;"/>
				</clipPath>
				<rect x="1621" y="1291.7" class="st7" width="63.2" height="21.2"/>
			</g>
		</g>
		<circle class="st8" cx="1652.6" cy="1285.9" r="34.1"/>
	</g>
	<ellipse class="st9" cx="1652.1" cy="1285.9" rx="18.9" ry="33.9"/>
</g>
<g>
	<path class="st10" d="M389.7,237.8H129.2c-10.6,0-19.3-8.7-19.3-19.3V24.8c0-9.5,7.8-17.3,17.3-17.3h262.5
		c9.5,0,17.3,7.8,17.3,17.3v195.8C407,230.1,399.2,237.8,389.7,237.8z"/>
	<path class="st11" d="M109.9,202.9v15.9c0,10.5,8.6,19.1,19.1,19.1h259c10.5,0,19.1-8.6,19.1-19.1v-15.9H109.9z"/>
	<rect x="129" y="24.9" class="st12" width="259" height="162.1"/>
	<g>
		<circle class="st13" cx="183.2" cy="67.4" r="28"/>
		<circle class="st12" cx="183.2" cy="63.9" r="11.2"/>
		<path class="st14" d="M183.2,95.4c7.2,0,13.8-2.7,18.8-7.2c-3.6-6.6-10.7-11.1-18.8-11.1c-8.1,0-15.1,4.5-18.8,11.1
			C169.4,92.7,176,95.4,183.2,95.4z"/>
	</g>
	<path class="st15" d="M223,123.7h-60.4c-1.7,0-3.1-1.4-3.1-3.1l0,0c0-1.7,1.4-3.1,3.1-3.1H223c1.7,0,3.1,1.4,3.1,3.1v0
		C226,122.3,224.6,123.7,223,123.7z"/>
	<path class="st15" d="M278.6,123.7h-35c-1.7,0-3.1-1.4-3.1-3.1l0,0c0-1.7,1.4-3.1,3.1-3.1h35c1.7,0,3.1,1.4,3.1,3.1v0
		C281.6,122.3,280.2,123.7,278.6,123.7z"/>
	<path class="st15" d="M343.7,123.7H296c-1.7,0-3.1-1.4-3.1-3.1l0,0c0-1.7,1.4-3.1,3.1-3.1h47.7c1.7,0,3.1,1.4,3.1,3.1v0
		C346.8,122.3,345.4,123.7,343.7,123.7z"/>
	<path class="st15" d="M343.7,139.6h-68.4c-1.7,0-3.1-1.4-3.1-3.1v0c0-1.7,1.4-3.1,3.1-3.1h68.4c1.7,0,3.1,1.4,3.1,3.1l0,0
		C346.8,138.2,345.4,139.6,343.7,139.6z"/>
	<path class="st15" d="M250,139.6h-85.9c-1.7,0-3.1-1.4-3.1-3.1v0c0-1.7,1.4-3.1,3.1-3.1H250c1.7,0,3.1,1.4,3.1,3.1v0
		C253,138.2,251.6,139.6,250,139.6z"/>
	<path class="st15" d="M208.7,157.8h-46.1c-1.7,0-3.1-1.4-3.1-3.1v0c0-1.7,1.4-3.1,3.1-3.1h46.1c1.7,0,3.1,1.4,3.1,3.1v0
		C211.7,156.5,210.3,157.8,208.7,157.8z"/>
	<path class="st15" d="M283.3,157.8h-57.3c-1.7,0-3.1-1.4-3.1-3.1v0c0-1.7,1.4-3.1,3.1-3.1h57.3c1.7,0,3.1,1.4,3.1,3.1v0
		C286.4,156.5,285,157.8,283.3,157.8z"/>
	<path class="st16" d="M264.1,60.5h-31.8c-2.6,0-4.8-2.1-4.8-4.8v0c0-2.6,2.1-4.8,4.8-4.8h31.8c2.6,0,4.8,2.1,4.8,4.8v0
		C268.9,58.4,266.8,60.5,264.1,60.5z"/>
	<path class="st15" d="M316.6,60.5h-31.8c-2.6,0-4.8-2.1-4.8-4.8v0c0-2.6,2.1-4.8,4.8-4.8h31.8c2.6,0,4.8,2.1,4.8,4.8v0
		C321.3,58.4,319.2,60.5,316.6,60.5z"/>
	<path class="st17" d="M261.1,84h-33.7c-2.5,0-4.6-2.1-4.6-4.6v0c0-2.5,2.1-4.6,4.6-4.6h33.7c2.5,0,4.6,2.1,4.6,4.6v0
		C265.7,81.9,263.7,84,261.1,84z"/>
	<path class="st18" d="M300.9,84h-22.6c-2.5,0-4.6-2.1-4.6-4.6v0c0-2.5,2.1-4.6,4.6-4.6h22.6c2.5,0,4.6,2.1,4.6,4.6v0
		C305.4,81.9,303.4,84,300.9,84z"/>
	<circle class="st10" cx="260.4" cy="218" r="7.2"/>
	<polygon class="st19" points="292.8,271 228,271 236.3,237.8 284.3,237.8 	"/>
	<polygon class="st20" points="286.3,245.8 284.3,237.8 236.3,237.8 234.3,245.8 	"/>
	<path class="st11" d="M305.6,272.4h-90.5c-1.6,0-3-1.4-3-3v-2.6c0-1.6,1.4-3,3-3h90.5c1.6,0,3,1.4,3,3v2.6
		C308.6,271,307.3,272.4,305.6,272.4z"/>
	<path class="st21" d="M340.6,274.9H108.1c-1.4,0-2.5-1.1-2.5-2.5l0,0c0-1.4,1.1-2.5,2.5-2.5h232.4c1.4,0,2.5,1.1,2.5,2.5l0,0
		C343.1,273.8,341.9,274.9,340.6,274.9z"/>
	<path class="st21" d="M95.7,274.9H38.7c-1.4,0-2.5-1.1-2.5-2.5l0,0c0-1.4,1.1-2.5,2.5-2.5h57.1c1.4,0,2.5,1.1,2.5,2.5l0,0
		C98.2,273.8,97.1,274.9,95.7,274.9z"/>
	<path class="st21" d="M513.3,274.9h-37c-1.4,0-2.5-1.1-2.5-2.5l0,0c0-1.4,1.1-2.5,2.5-2.5h37c1.4,0,2.5,1.1,2.5,2.5l0,0
		C515.8,273.8,514.7,274.9,513.3,274.9z"/>
	<path class="st22" d="M61.4,7.9h-4.5V3.4c0-1.3-1.1-2.4-2.4-2.4c-1.3,0-2.4,1.1-2.4,2.4v4.5h-4.5c-1.3,0-2.4,1.1-2.4,2.4
		s1.1,2.4,2.4,2.4h4.5v4.5c0,1.3,1.1,2.4,2.4,2.4c1.3,0,2.4-1.1,2.4-2.4v-4.5h4.5c1.3,0,2.4-1.1,2.4-2.4S62.7,7.9,61.4,7.9z"/>
	<path class="st22" d="M91.5,17.5h-6.9v-6.9c0-2-1.7-3.7-3.7-3.7s-3.7,1.7-3.7,3.7v6.9h-6.9c-2,0-3.7,1.7-3.7,3.7s1.7,3.7,3.7,3.7
		h6.9v6.9c0,2,1.7,3.7,3.7,3.7s3.7-1.7,3.7-3.7V25h6.9c2,0,3.7-1.7,3.7-3.7S93.5,17.5,91.5,17.5z"/>
	<circle class="st23" cx="83" cy="206.7" r="8"/>
	<circle class="st23" cx="506.6" cy="70.9" r="8"/>
	<circle class="st24" cx="480.8" cy="54.2" r="5.6"/>
	<g>
		<path id="XMLID_30_" class="st10" d="M452.7,282.3h-89.2c-8.4,0-15.3-6.9-15.3-15.3V84.2c0-8.4,6.9-15.3,15.3-15.3h89.2
			c8.4,0,15.3,6.9,15.3,15.3v182.9C468,275.5,461.1,282.3,452.7,282.3z"/>
		<path id="XMLID_29_" class="st25" d="M454.2,275.2H362c-7.6,0-13.8-6.2-13.8-13.8v7.1c0,7.6,6.2,13.8,13.8,13.8h92.2
			c7.6,0,13.8-6.2,13.8-13.8v-7.1C468,269,461.8,275.2,454.2,275.2z"/>
		<path id="XMLID_28_" class="st26" d="M454.3,257h-92.4c-3.7,0-6.8-3.1-6.8-6.8V83.5c0-3.7,3.1-6.8,6.8-6.8h92.4
			c3.7,0,6.8,3.1,6.8,6.8v166.7C461.1,253.9,458,257,454.3,257z"/>
		<path id="XMLID_18_" class="st27" d="M455,76.7h-93.7c-3.4,0-6.1,2.8-6.1,6.1v4.3c0-3.4,2.8-6.1,6.1-6.1H455
			c3.4,0,6.1,2.8,6.1,6.1v-4.3C461.1,79.4,458.3,76.7,455,76.7z"/>
		<path id="XMLID_17_" class="st28" d="M418.2,270.9H401c-2.6,0-4.7-2.1-4.7-4.7l0,0c0-2.6,2.1-4.7,4.7-4.7h17.1
			c2.6,0,4.7,2.1,4.7,4.7l0,0C422.9,268.8,420.8,270.9,418.2,270.9z"/>
		<path id="XMLID_16_" class="st25" d="M401,269.7h17.1c2.4,0,4.4-1.8,4.7-4.1c0,0.2,0.1,0.4,0.1,0.6c0,2.6-2.1,4.7-4.7,4.7H401
			c-2.6,0-4.7-2.1-4.7-4.7c0-0.2,0-0.4,0.1-0.6C396.7,267.9,398.6,269.7,401,269.7z"/>
		<g>
			<g>
				<path class="st29" d="M443.8,247.9c-4.9,0-8.9-4-8.9-8.9c0-4.9,4-8.9,8.9-8.9c4.9,0,8.9,4,8.9,8.9
					C452.7,243.9,448.7,247.9,443.8,247.9L443.8,247.9z M441.1,244.2c0.9,0,1.7-0.3,2.3-0.9c0.6-0.6,0.9-1.3,1-2.2h0v-4.8
					c0-1.1,0.9-1.9,2-1.9c1.1,0,2,0.9,2,1.9c0,1.1-0.9,1.9-2,1.9c-0.4,0-0.7,0.3-0.7,0.7c0,0.4,0.3,0.7,0.7,0.7
					c1.8,0,3.3-1.5,3.3-3.2c0-1.8-1.5-3.2-3.3-3.2c-0.9,0-1.7,0.3-2.3,0.9c-0.6,0.6-0.9,1.3-1,2.2h0v4.8c0,1.1-0.9,1.9-2,1.9
					c-1.1,0-2-0.9-2-1.9c0-1.1,0.9-1.9,2-1.9c0.2,0,0.3-0.1,0.5-0.2c0.1-0.1,0.2-0.3,0.2-0.5c0-0.4-0.3-0.7-0.7-0.7
					c-1.8,0-3.3,1.5-3.3,3.2S439.3,244.2,441.1,244.2L441.1,244.2z M441.1,244.2"/>
			</g>
		</g>
		<g>
			<circle class="st11" cx="408.1" cy="122.6" r="29.3"/>
			<circle class="st12" cx="408.1" cy="118.9" r="11.7"/>
			<path class="st30" d="M408.1,151.9c7.5,0,14.4-2.9,19.6-7.5c-3.8-6.9-11.1-11.6-19.6-11.6c-8.5,0-15.8,4.7-19.6,11.6
				C393.7,149,400.6,151.9,408.1,151.9z"/>
		</g>
		<path class="st30" d="M434.9,210.1h-53.6c-1.7,0-3-1.4-3-3v-0.4c0-1.6,1.3-3,3-3h53.6c1.6,0,3,1.4,3,3v0.4
			C437.9,208.7,436.5,210.1,434.9,210.1z"/>
		<path class="st30" d="M434.9,197h-53.6c-1.7,0-3-1.3-3-3v-0.4c0-1.6,1.3-3,3-3h53.6c1.6,0,3,1.4,3,3v0.4
			C437.9,195.7,436.5,197,434.9,197z"/>
		<path class="st30" d="M434.9,184h-53.6c-1.7,0-3-1.3-3-3v-0.4c0-1.6,1.3-3,3-3h53.6c1.6,0,3,1.3,3,3v0.4
			C437.9,182.6,436.5,184,434.9,184z"/>
		<path class="st30" d="M434.9,170.9h-53.6c-1.7,0-3-1.3-3-3v-0.4c0-1.7,1.3-3,3-3h53.6c1.6,0,3,1.3,3,3v0.4
			C437.9,169.6,436.5,170.9,434.9,170.9z"/>
		<path class="st15" d="M422.1,224.7h-28c-1.6,0-3-1.3-3-3v-0.4c0-1.6,1.4-3,3-3h28c1.6,0,3,1.4,3,3v0.4
			C425.1,223.4,423.8,224.7,422.1,224.7z"/>
	</g>
</g>
</svg>
