<?xml version="1.0" encoding="utf-8"?>
<!-- Generator: Adobe Illustrator 21.0.0, SVG Export Plug-In . SVG Version: 6.00 Build 0)  -->
<svg version="1.1" id="图层_1" xmlns="http://www.w3.org/2000/svg" xmlns:xlink="http://www.w3.org/1999/xlink" x="0px" y="0px"
	 viewBox="0 0 510 280" style="enable-background:new 0 0 510 280;" xml:space="preserve">
<style type="text/css">
	.st0{fill:none;stroke:#2C97E8;stroke-width:1.9072;stroke-miterlimit:10;}
	.st1{opacity:0.36;}
	.st2{fill:#AFCDF9;stroke:#1077F8;stroke-width:2.1233;stroke-miterlimit:10;}
	.st3{fill:#FFFFFF;stroke:#1077F8;stroke-width:1.9615;stroke-miterlimit:10;}
	.st4{fill:#AFCDF9;stroke:#1077F8;stroke-width:2.7214;stroke-miterlimit:10;}
	.st5{fill:#FFFFFF;stroke:#1077F8;stroke-width:2.7214;stroke-miterlimit:10;}
	.st6{fill:#63D18C;stroke:#1077F8;stroke-width:1.9072;stroke-miterlimit:10;}
	.st7{fill:#AFCDF9;stroke:#1077F8;stroke-width:1.9072;stroke-miterlimit:10;}
	.st8{fill:#AFCDF9;stroke:#1077F8;stroke-width:2.5508;stroke-miterlimit:10;}
	.st9{fill:#63D18C;stroke:#1077F8;stroke-width:2.5508;stroke-miterlimit:10;}
	.st10{fill:#AFCDF9;stroke:#1077F8;stroke-width:2.1013;stroke-miterlimit:10;}
	.st11{fill:#FFFFFF;stroke:#1077F8;stroke-width:1.9411;stroke-miterlimit:10;}
	.st12{fill:#FFFFFF;stroke:#2C97E8;stroke-width:3.0522;stroke-miterlimit:10;}
	.st13{fill:#FFFFFF;stroke:#2C97E8;stroke-width:2.8609;stroke-miterlimit:10;}
	.st14{fill:none;stroke:#2C97E8;stroke-width:2.8609;stroke-miterlimit:10;}
	.st15{fill:#2C97E8;}
	.st16{fill:#AFCDF9;stroke:#2C97E8;stroke-width:2.416;stroke-miterlimit:10;}
	.st17{fill:#FFFFFF;stroke:#2C97E8;stroke-width:2.2319;stroke-miterlimit:10;}
	.st18{fill:#AFCDF9;stroke:#2C97E8;stroke-width:3.0522;stroke-miterlimit:10;}
	.st19{fill:#63D18C;}
	.st20{fill:#AFCDF9;stroke:#2C97E8;stroke-width:1.9072;stroke-miterlimit:10;}
</style>
<g>
	<polyline class="st0" points="270.3,37.8 270.3,53 263.2,53 277.1,65.5 290.9,53 283.8,53 283.8,37.8 	"/>
	<polyline class="st0" points="220.2,37.8 220.2,53 213.1,53 227,65.5 240.8,53 233.7,53 233.7,37.8 	"/>
	<g class="st1">
		<g>
			<path class="st2" d="M198.1,261h-116c-6.6,0-12-5.4-12-12v-98.3c0-6.6,5.4-12,12-12h116c6.6,0,12,5.4,12,12V249
				C210.1,255.6,204.7,261,198.1,261z"/>
			<path class="st3" d="M177.6,261H82.1c-6.6,0-12-5.4-12-12v-98.3c0-6.6,5.4-12,12-12h95.5c6.6,0,12,5.4,12,12V249
				C189.6,255.6,184.2,261,177.6,261z"/>
		</g>
		<g>
			<path class="st4" d="M211.5,274.1H69.6c-4.4,0-8-3.6-8-8v-29.9c0-4.4,3.6-8,8-8h141.9c4.4,0,8,3.6,8,8v29.9
				C219.5,270.5,215.9,274.1,211.5,274.1z"/>
			<path class="st5" d="M184.3,274.1H68.7c-4.4,0-8-3.6-8-8v-29.9c0-4.4,3.6-8,8-8h115.6c4.4,0,8,3.6,8,8v29.9
				C192.3,270.5,188.7,274.1,184.3,274.1z"/>
			<circle class="st6" cx="83.7" cy="251.2" r="9.1"/>
			<path class="st7" d="M116.7,264.6h-1.6c-2,0-3.6-1.6-3.6-3.6v-19.6c0-2,1.6-3.6,3.6-3.6h1.6c2,0,3.6,1.6,3.6,3.6V261
				C120.3,263,118.6,264.6,116.7,264.6z"/>
			<path class="st7" d="M130.9,264.6h-1.6c-2,0-3.6-1.6-3.6-3.6v-19.6c0-2,1.6-3.6,3.6-3.6h1.6c2,0,3.6,1.6,3.6,3.6V261
				C134.5,263,132.9,264.6,130.9,264.6z"/>
			<path class="st7" d="M145.2,264.6h-1.6c-2,0-3.6-1.6-3.6-3.6v-19.6c0-2,1.6-3.6,3.6-3.6h1.6c2,0,3.6,1.6,3.6,3.6V261
				C148.8,263,147.2,264.6,145.2,264.6z"/>
			<path class="st7" d="M159.5,264.6h-1.6c-2,0-3.6-1.6-3.6-3.6v-19.6c0-2,1.6-3.6,3.6-3.6h1.6c2,0,3.6,1.6,3.6,3.6V261
				C163.1,263,161.5,264.6,159.5,264.6z"/>
			<path class="st8" d="M173.7,264.6h-1.6c-2,0-3.6-1.6-3.6-3.6v-19.6c0-2,1.6-3.6,3.6-3.6h1.6c2,0,3.6,1.6,3.6,3.6V261
				C177.3,263,175.7,264.6,173.7,264.6z"/>
		</g>
		<g>
			<path class="st4" d="M211.5,216.7H69.6c-4.4,0-8-3.6-8-8v-29.9c0-4.4,3.6-8,8-8h141.9c4.4,0,8,3.6,8,8v29.9
				C219.5,213.1,215.9,216.7,211.5,216.7z"/>
			<path class="st5" d="M184.3,216.7H68.7c-4.4,0-8-3.6-8-8v-29.9c0-4.4,3.6-8,8-8h115.6c4.4,0,8,3.6,8,8v29.9
				C192.3,213.1,188.7,216.7,184.3,216.7z"/>
			<circle class="st6" cx="83.7" cy="193.7" r="9.1"/>
			<path class="st7" d="M116.7,207.1h-1.6c-2,0-3.6-1.6-3.6-3.6v-19.6c0-2,1.6-3.6,3.6-3.6h1.6c2,0,3.6,1.6,3.6,3.6v19.6
				C120.3,205.5,118.6,207.1,116.7,207.1z"/>
			<path class="st7" d="M130.9,207.1h-1.6c-2,0-3.6-1.6-3.6-3.6v-19.6c0-2,1.6-3.6,3.6-3.6h1.6c2,0,3.6,1.6,3.6,3.6l0,19.6
				C134.5,205.5,132.9,207.1,130.9,207.1z"/>
			<path class="st7" d="M145.2,207.1h-1.6c-2,0-3.6-1.6-3.6-3.6v-19.6c0-2,1.6-3.6,3.6-3.6h1.6c2,0,3.6,1.6,3.6,3.6v19.6
				C148.8,205.5,147.2,207.1,145.2,207.1z"/>
			<path class="st7" d="M159.5,207.1h-1.6c-2,0-3.6-1.6-3.6-3.6v-19.6c0-2,1.6-3.6,3.6-3.6h1.6c2,0,3.6,1.6,3.6,3.6v19.6
				C163.1,205.5,161.5,207.1,159.5,207.1z"/>
			<path class="st8" d="M173.7,207.1h-1.6c-2,0-3.6-1.6-3.6-3.6v-19.6c0-2,1.6-3.6,3.6-3.6h1.6c2,0,3.6,1.6,3.6,3.6v19.6
				C177.3,205.5,175.7,207.1,173.7,207.1z"/>
		</g>
		<g>
			<path class="st4" d="M211.5,159.3H69.6c-4.4,0-8-3.6-8-8v-29.9c0-4.4,3.6-8,8-8h141.9c4.4,0,8,3.6,8,8v29.9
				C219.5,155.7,215.9,159.3,211.5,159.3z"/>
			<path class="st5" d="M184.3,159.3H68.7c-4.4,0-8-3.6-8-8v-29.9c0-4.4,3.6-8,8-8h115.6c4.4,0,8,3.6,8,8v29.9
				C192.3,155.7,188.7,159.3,184.3,159.3z"/>
			<circle class="st9" cx="83.7" cy="136.3" r="9.1"/>
			<path class="st7" d="M116.7,149.7h-1.6c-2,0-3.6-1.6-3.6-3.6v-19.6c0-2,1.6-3.6,3.6-3.6h1.6c2,0,3.6,1.6,3.6,3.6v19.6
				C120.3,148.1,118.6,149.7,116.7,149.7z"/>
			<path class="st7" d="M130.9,149.7h-1.6c-2,0-3.6-1.6-3.6-3.6v-19.6c0-2,1.6-3.6,3.6-3.6h1.6c2,0,3.6,1.6,3.6,3.6v19.6
				C134.5,148.1,132.9,149.7,130.9,149.7z"/>
			<path class="st7" d="M145.2,149.7h-1.6c-2,0-3.6-1.6-3.6-3.6v-19.6c0-2,1.6-3.6,3.6-3.6h1.6c2,0,3.6,1.6,3.6,3.6v19.6
				C148.8,148.1,147.2,149.7,145.2,149.7z"/>
			<path class="st7" d="M159.5,149.7h-1.6c-2,0-3.6-1.6-3.6-3.6v-19.6c0-2,1.6-3.6,3.6-3.6h1.6c2,0,3.6,1.6,3.6,3.6v19.6
				C163.1,148.1,161.5,149.7,159.5,149.7z"/>
			<path class="st7" d="M173.7,149.7h-1.6c-2,0-3.6-1.6-3.6-3.6v-19.6c0-2,1.6-3.6,3.6-3.6h1.6c2,0,3.6,1.6,3.6,3.6v19.6
				C177.3,148.1,175.7,149.7,173.7,149.7z"/>
		</g>
	</g>
	<g class="st1">
		<g>
			<path class="st10" d="M427.3,258.5h-116c-6.6,0-12-5.4-12-12v-95.8c0-6.6,5.4-12,12-12h116c6.6,0,12,5.4,12,12v95.8
				C439.3,253.1,433.9,258.5,427.3,258.5z"/>
			<path class="st11" d="M406.7,258.5h-95.5c-6.6,0-12-5.4-12-12v-95.8c0-6.6,5.4-12,12-12h95.5c6.6,0,12,5.4,12,12v95.8
				C418.7,253.1,413.3,258.5,406.7,258.5z"/>
		</g>
		<g>
			<path class="st4" d="M440.7,274.1H298.7c-4.4,0-8-3.6-8-8v-29.9c0-4.4,3.6-8,8-8h141.9c4.4,0,8,3.6,8,8v29.9
				C448.7,270.5,445.1,274.1,440.7,274.1z"/>
			<path class="st5" d="M413.4,274.1H297.8c-4.4,0-8-3.6-8-8v-29.9c0-4.4,3.6-8,8-8h115.6c4.4,0,8,3.6,8,8v29.9
				C421.4,270.5,417.8,274.1,413.4,274.1z"/>
			<circle class="st9" cx="312.8" cy="251.2" r="9.1"/>
			<path class="st7" d="M345.8,264.6h-1.6c-2,0-3.6-1.6-3.6-3.6v-19.6c0-2,1.6-3.6,3.6-3.6h1.6c2,0,3.6,1.6,3.6,3.6V261
				C349.4,263,347.8,264.6,345.8,264.6z"/>
			<path class="st7" d="M360.1,264.6h-1.6c-2,0-3.6-1.6-3.6-3.6v-19.6c0-2,1.6-3.6,3.6-3.6h1.6c2,0,3.6,1.6,3.6,3.6V261
				C363.7,263,362.1,264.6,360.1,264.6z"/>
			<path class="st7" d="M374.4,264.6h-1.6c-2,0-3.6-1.6-3.6-3.6v-19.6c0-2,1.6-3.6,3.6-3.6h1.6c2,0,3.6,1.6,3.6,3.6V261
				C377.9,263,376.3,264.6,374.4,264.6z"/>
			<path class="st7" d="M388.6,264.6H387c-2,0-3.6-1.6-3.6-3.6v-19.6c0-2,1.6-3.6,3.6-3.6h1.6c2,0,3.6,1.6,3.6,3.6V261
				C392.2,263,390.6,264.6,388.6,264.6z"/>
			<path class="st7" d="M402.9,264.6h-1.6c-2,0-3.6-1.6-3.6-3.6v-19.6c0-2,1.6-3.6,3.6-3.6h1.6c2,0,3.6,1.6,3.6,3.6V261
				C406.5,263,404.9,264.6,402.9,264.6z"/>
		</g>
		<g>
			<path class="st4" d="M440.7,216.7H298.7c-4.4,0-8-3.6-8-8v-29.9c0-4.4,3.6-8,8-8h141.9c4.4,0,8,3.6,8,8v29.9
				C448.7,213.1,445.1,216.7,440.7,216.7z"/>
			<path class="st5" d="M413.4,216.7H297.8c-4.4,0-8-3.6-8-8v-29.9c0-4.4,3.6-8,8-8h115.6c4.4,0,8,3.6,8,8v29.9
				C421.4,213.1,417.8,216.7,413.4,216.7z"/>
			<circle class="st9" cx="312.8" cy="193.7" r="9.1"/>
			<path class="st7" d="M345.8,207.1h-1.6c-2,0-3.6-1.6-3.6-3.6v-19.6c0-2,1.6-3.6,3.6-3.6h1.6c2,0,3.6,1.6,3.6,3.6v19.6
				C349.4,205.5,347.8,207.1,345.8,207.1z"/>
			<path class="st7" d="M360.1,207.1h-1.6c-2,0-3.6-1.6-3.6-3.6v-19.6c0-2,1.6-3.6,3.6-3.6h1.6c2,0,3.6,1.6,3.6,3.6v19.6
				C363.7,205.5,362.1,207.1,360.1,207.1z"/>
			<path class="st7" d="M374.4,207.1h-1.6c-2,0-3.6-1.6-3.6-3.6v-19.6c0-2,1.6-3.6,3.6-3.6h1.6c2,0,3.6,1.6,3.6,3.6v19.6
				C377.9,205.5,376.3,207.1,374.4,207.1z"/>
			<path class="st7" d="M388.6,207.1H387c-2,0-3.6-1.6-3.6-3.6v-19.6c0-2,1.6-3.6,3.6-3.6h1.6c2,0,3.6,1.6,3.6,3.6v19.6
				C392.2,205.5,390.6,207.1,388.6,207.1z"/>
			<path class="st7" d="M402.9,207.1h-1.6c-2,0-3.6-1.6-3.6-3.6v-19.6c0-2,1.6-3.6,3.6-3.6h1.6c2,0,3.6,1.6,3.6,3.6v19.6
				C406.5,205.5,404.9,207.1,402.9,207.1z"/>
		</g>
		<g>
			<path class="st4" d="M440.7,159.3H298.7c-4.4,0-8-3.6-8-8v-29.9c0-4.4,3.6-8,8-8h141.9c4.4,0,8,3.6,8,8v29.9
				C448.7,155.7,445.1,159.3,440.7,159.3z"/>
			<path class="st5" d="M413.4,159.3H297.8c-4.4,0-8-3.6-8-8v-29.9c0-4.4,3.6-8,8-8h115.6c4.4,0,8,3.6,8,8v29.9
				C421.4,155.7,417.8,159.3,413.4,159.3z"/>
			<circle class="st9" cx="312.8" cy="136.3" r="9.1"/>
			<path class="st7" d="M345.8,149.7h-1.6c-2,0-3.6-1.6-3.6-3.6v-19.6c0-2,1.6-3.6,3.6-3.6h1.6c2,0,3.6,1.6,3.6,3.6v19.6
				C349.4,148.1,347.8,149.7,345.8,149.7z"/>
			<path class="st7" d="M360.1,149.7h-1.6c-2,0-3.6-1.6-3.6-3.6v-19.6c0-2,1.6-3.6,3.6-3.6h1.6c2,0,3.6,1.6,3.6,3.6v19.6
				C363.7,148.1,362.1,149.7,360.1,149.7z"/>
			<path class="st7" d="M374.4,149.7h-1.6c-2,0-3.6-1.6-3.6-3.6v-19.6c0-2,1.6-3.6,3.6-3.6h1.6c2,0,3.6,1.6,3.6,3.6v19.6
				C377.9,148.1,376.3,149.7,374.4,149.7z"/>
			<path class="st7" d="M388.6,149.7H387c-2,0-3.6-1.6-3.6-3.6v-19.6c0-2,1.6-3.6,3.6-3.6h1.6c2,0,3.6,1.6,3.6,3.6v19.6
				C392.2,148.1,390.6,149.7,388.6,149.7z"/>
			<path class="st7" d="M402.9,149.7h-1.6c-2,0-3.6-1.6-3.6-3.6v-19.6c0-2,1.6-3.6,3.6-3.6h1.6c2,0,3.6,1.6,3.6,3.6v19.6
				C406.5,148.1,404.9,149.7,402.9,149.7z"/>
		</g>
	</g>
	<g>
		<g>
			<line class="st12" x1="80.3" y1="177.4" x2="177" y2="177.4"/>
			<circle class="st13" cx="120.3" cy="177.5" r="6"/>
			<circle class="st13" cx="66.5" cy="177.4" r="13.5"/>
		</g>
		<g>
			<line class="st12" x1="80.3" y1="150.6" x2="176.5" y2="150.6"/>
			<line class="st12" x1="81.3" y1="151.4" x2="81.3" y2="124.2"/>
			<line class="st12" x1="121" y1="144.7" x2="121" y2="67.4"/>
			<circle class="st13" cx="81.3" cy="110.4" r="13.5"/>
			<circle class="st13" cx="121" cy="56.4" r="13.5"/>
			<circle class="st13" cx="81.3" cy="150.6" r="6"/>
			<circle class="st13" cx="121" cy="151.4" r="6"/>
		</g>
		<g>
			<g>
				<line class="st12" x1="78.9" y1="203.2" x2="167.1" y2="203.2"/>
				<circle class="st13" cx="118.9" cy="203.2" r="6"/>
				<circle class="st13" cx="81.6" cy="203.2" r="6"/>
				<circle class="st13" cx="81.6" cy="252.6" r="13.5"/>
			</g>
			<line class="st14" x1="81.6" y1="238" x2="81.6" y2="209.2"/>
		</g>
	</g>
	<g>
		<line class="st12" x1="431.8" y1="177.4" x2="335.2" y2="177.4"/>
		<circle class="st13" cx="391.9" cy="177.3" r="6"/>
		<circle class="st13" cx="445.7" cy="177.4" r="13.5"/>
	</g>
	<line class="st12" x1="430.1" y1="151.6" x2="334.9" y2="151.6"/>
	<line class="st12" x1="429.1" y1="152.4" x2="429.1" y2="125.2"/>
	<line class="st12" x1="389.4" y1="145.6" x2="389.4" y2="68.3"/>
	<circle class="st13" cx="429.1" cy="111.4" r="13.5"/>
	<circle class="st13" cx="389.4" cy="57.3" r="13.5"/>
	<circle class="st13" cx="429.1" cy="151.6" r="6"/>
	<circle class="st13" cx="389.4" cy="152.4" r="6"/>
	<g>
		<g>
			<line class="st12" x1="437.4" y1="203.2" x2="344.6" y2="203.2"/>
			<circle class="st13" cx="397.5" cy="203.2" r="6"/>
			<circle class="st13" cx="434.7" cy="203.2" r="6"/>
			<circle class="st13" cx="434.7" cy="252.6" r="13.5"/>
		</g>
		<line class="st14" x1="434.7" y1="238" x2="434.7" y2="209.2"/>
	</g>
	<g>
		<path class="st15" d="M130.5,7.2v20.4h-3.3V11.2c-1.2,1.1-2.8,1.9-4.7,2.5v-3.3c0.9-0.2,1.9-0.6,2.9-1.2c1-0.6,1.9-1.3,2.6-2
			H130.5z"/>
		<path class="st15" d="M139,24.2c0.5,0.6,0.7,1.5,0.7,2.5c0,1.5-0.5,2.8-1.3,4c-0.9,1.1-2.1,1.9-3.6,2.3v-1.9
			c0.8-0.3,1.4-0.7,2-1.4c0.5-0.7,0.7-1.3,0.7-2c-0.2,0.1-0.4,0.1-0.7,0.1c-0.6,0-1.1-0.2-1.6-0.7s-0.6-1-0.6-1.6
			c0-0.7,0.2-1.2,0.7-1.6c0.4-0.4,1-0.6,1.7-0.6C137.8,23.3,138.4,23.6,139,24.2z"/>
		<path class="st15" d="M155.1,9.7c1.3,1.9,1.9,4.4,1.9,7.6s-0.6,5.8-1.9,7.6c-1.3,2-3.2,3-5.6,3c-2.4,0-4.3-1-5.6-3
			c-1.3-1.9-1.9-4.4-1.9-7.6s0.6-5.8,1.9-7.6c1.3-2,3.2-3,5.6-3C151.9,6.8,153.8,7.7,155.1,9.7z M146.1,12.3
			c-0.5,1.2-0.7,2.9-0.7,5.1c0,2.1,0.2,3.8,0.7,5.1c0.7,1.8,1.8,2.7,3.4,2.7c1.6,0,2.7-0.9,3.4-2.7c0.5-1.3,0.7-2.9,0.7-5.1
			c0-2.1-0.2-3.8-0.7-5.1c-0.7-1.8-1.8-2.7-3.4-2.7C147.9,9.6,146.7,10.5,146.1,12.3z"/>
		<path class="st15" d="M172.3,9.7c1.3,1.9,1.9,4.4,1.9,7.6s-0.6,5.8-1.9,7.6c-1.3,2-3.2,3-5.6,3c-2.4,0-4.3-1-5.6-3
			c-1.3-1.9-1.9-4.4-1.9-7.6s0.6-5.8,1.9-7.6c1.3-2,3.2-3,5.6-3C169.1,6.8,170.9,7.7,172.3,9.7z M163.3,12.3
			c-0.5,1.2-0.7,2.9-0.7,5.1c0,2.1,0.2,3.8,0.7,5.1c0.7,1.8,1.8,2.7,3.4,2.7c1.6,0,2.7-0.9,3.4-2.7c0.5-1.3,0.7-2.9,0.7-5.1
			c0-2.1-0.2-3.8-0.7-5.1c-0.7-1.8-1.8-2.7-3.4-2.7C165.1,9.6,163.9,10.5,163.3,12.3z"/>
		<path class="st15" d="M189.4,9.7c1.3,1.9,1.9,4.4,1.9,7.6s-0.6,5.8-1.9,7.6c-1.3,2-3.2,3-5.6,3c-2.4,0-4.3-1-5.6-3
			c-1.3-1.9-1.9-4.4-1.9-7.6s0.6-5.8,1.9-7.6c1.3-2,3.2-3,5.6-3C186.2,6.8,188.1,7.7,189.4,9.7z M180.4,12.3
			c-0.5,1.2-0.7,2.9-0.7,5.1c0,2.1,0.2,3.8,0.7,5.1c0.7,1.8,1.8,2.7,3.4,2.7c1.6,0,2.7-0.9,3.4-2.7c0.5-1.3,0.7-2.9,0.7-5.1
			c0-2.1-0.2-3.8-0.7-5.1c-0.7-1.8-1.8-2.7-3.4-2.7C182.2,9.6,181.1,10.5,180.4,12.3z"/>
		<path class="st15" d="M198.3,24.2c0.5,0.6,0.7,1.5,0.7,2.5c0,1.5-0.5,2.8-1.3,4c-0.9,1.1-2.1,1.9-3.6,2.3v-1.9
			c0.8-0.3,1.4-0.7,2-1.4c0.5-0.7,0.7-1.3,0.7-2c-0.2,0.1-0.4,0.1-0.7,0.1c-0.6,0-1.1-0.2-1.6-0.7s-0.6-1-0.6-1.6
			c0-0.7,0.2-1.2,0.7-1.6c0.4-0.4,1-0.6,1.7-0.6C197.2,23.3,197.8,23.6,198.3,24.2z"/>
		<path class="st15" d="M214.5,9.7c1.3,1.9,1.9,4.4,1.9,7.6s-0.6,5.8-1.9,7.6c-1.3,2-3.2,3-5.6,3c-2.4,0-4.3-1-5.6-3
			c-1.3-1.9-1.9-4.4-1.9-7.6s0.6-5.8,1.9-7.6c1.3-2,3.2-3,5.6-3C211.3,6.8,213.1,7.7,214.5,9.7z M205.4,12.3
			c-0.5,1.2-0.7,2.9-0.7,5.1c0,2.1,0.2,3.8,0.7,5.1c0.7,1.8,1.8,2.7,3.4,2.7c1.6,0,2.7-0.9,3.4-2.7c0.5-1.3,0.7-2.9,0.7-5.1
			c0-2.1-0.2-3.8-0.7-5.1c-0.7-1.8-1.8-2.7-3.4-2.7C207.3,9.6,206.1,10.5,205.4,12.3z"/>
		<path class="st15" d="M231.6,9.7c1.3,1.9,1.9,4.4,1.9,7.6s-0.6,5.8-1.9,7.6c-1.3,2-3.2,3-5.6,3c-2.4,0-4.3-1-5.6-3
			c-1.3-1.9-1.9-4.4-1.9-7.6s0.6-5.8,1.9-7.6c1.3-2,3.2-3,5.6-3C228.4,6.8,230.3,7.7,231.6,9.7z M222.6,12.3
			c-0.5,1.2-0.7,2.9-0.7,5.1c0,2.1,0.2,3.8,0.7,5.1c0.7,1.8,1.8,2.7,3.4,2.7c1.6,0,2.7-0.9,3.4-2.7c0.5-1.3,0.7-2.9,0.7-5.1
			c0-2.1-0.2-3.8-0.7-5.1c-0.7-1.8-1.8-2.7-3.4-2.7C224.4,9.6,223.3,10.5,222.6,12.3z"/>
		<path class="st15" d="M248.8,9.7c1.3,1.9,1.9,4.4,1.9,7.6s-0.6,5.8-1.9,7.6c-1.3,2-3.2,3-5.6,3c-2.4,0-4.3-1-5.6-3
			c-1.3-1.9-1.9-4.4-1.9-7.6s0.6-5.8,1.9-7.6c1.3-2,3.2-3,5.6-3C245.6,6.8,247.4,7.7,248.8,9.7z M239.8,12.3
			c-0.5,1.2-0.7,2.9-0.7,5.1c0,2.1,0.2,3.8,0.7,5.1c0.7,1.8,1.8,2.7,3.4,2.7c1.6,0,2.7-0.9,3.4-2.7c0.5-1.3,0.7-2.9,0.7-5.1
			c0-2.1-0.2-3.8-0.7-5.1c-0.7-1.8-1.8-2.7-3.4-2.7C241.6,9.6,240.4,10.5,239.8,12.3z"/>
		<path class="st15" d="M257.7,24.2c0.5,0.6,0.7,1.5,0.7,2.5c0,1.5-0.5,2.8-1.3,4c-0.9,1.1-2.1,1.9-3.6,2.3v-1.9
			c0.8-0.3,1.4-0.7,2-1.4c0.5-0.7,0.7-1.3,0.7-2c-0.2,0.1-0.4,0.1-0.7,0.1c-0.6,0-1.1-0.2-1.6-0.7s-0.6-1-0.6-1.6
			c0-0.7,0.2-1.2,0.7-1.6c0.4-0.4,1-0.6,1.7-0.6C256.5,23.3,257.2,23.6,257.7,24.2z"/>
		<path class="st15" d="M273.8,9.7c1.3,1.9,1.9,4.4,1.9,7.6s-0.6,5.8-1.9,7.6c-1.3,2-3.2,3-5.6,3c-2.4,0-4.3-1-5.6-3
			c-1.3-1.9-1.9-4.4-1.9-7.6s0.6-5.8,1.9-7.6c1.3-2,3.2-3,5.6-3C270.6,6.8,272.5,7.7,273.8,9.7z M264.8,12.3
			c-0.5,1.2-0.7,2.9-0.7,5.1c0,2.1,0.2,3.8,0.7,5.1c0.7,1.8,1.8,2.7,3.4,2.7c1.6,0,2.7-0.9,3.4-2.7c0.5-1.3,0.7-2.9,0.7-5.1
			c0-2.1-0.2-3.8-0.7-5.1c-0.7-1.8-1.8-2.7-3.4-2.7C266.6,9.6,265.5,10.5,264.8,12.3z"/>
		<path class="st15" d="M291,9.7c1.3,1.9,1.9,4.4,1.9,7.6s-0.6,5.8-1.9,7.6c-1.3,2-3.2,3-5.6,3c-2.4,0-4.3-1-5.6-3
			c-1.3-1.9-1.9-4.4-1.9-7.6s0.6-5.8,1.9-7.6c1.3-2,3.2-3,5.6-3C287.8,6.8,289.6,7.7,291,9.7z M282,12.3c-0.5,1.2-0.7,2.9-0.7,5.1
			c0,2.1,0.2,3.8,0.7,5.1c0.7,1.8,1.8,2.7,3.4,2.7c1.6,0,2.7-0.9,3.4-2.7c0.5-1.3,0.7-2.9,0.7-5.1c0-2.1-0.2-3.8-0.7-5.1
			c-0.7-1.8-1.8-2.7-3.4-2.7C283.8,9.6,282.6,10.5,282,12.3z"/>
		<path class="st15" d="M308.2,9.7c1.3,1.9,1.9,4.4,1.9,7.6s-0.6,5.8-1.9,7.6c-1.3,2-3.2,3-5.6,3c-2.4,0-4.3-1-5.6-3
			c-1.3-1.9-1.9-4.4-1.9-7.6s0.6-5.8,1.9-7.6c1.3-2,3.2-3,5.6-3C304.9,6.8,306.8,7.7,308.2,9.7z M299.1,12.3
			c-0.5,1.2-0.7,2.9-0.7,5.1c0,2.1,0.2,3.8,0.7,5.1c0.7,1.8,1.8,2.7,3.4,2.7c1.6,0,2.7-0.9,3.4-2.7c0.5-1.3,0.7-2.9,0.7-5.1
			c0-2.1-0.2-3.8-0.7-5.1c-0.7-1.8-1.8-2.7-3.4-2.7C300.9,9.6,299.8,10.5,299.1,12.3z"/>
		<path class="st15" d="M329.3,18.5c-1.5,4-3.1,7.8-4.9,11.2l-2.8-1.3c1.9-3.6,3.7-7.2,5.1-11L329.3,18.5z M329.2,11.1l-2.3,1.6
			c-1.2-1.8-2.9-3.9-4.9-6.1l2.4-1.5C326.4,7.4,328,9.4,329.2,11.1z M339.9,12.6c0,1.5-0.1,2.9-0.2,4.2c1.6,4.9,4.5,8.7,8.8,11.6
			l-2,2.3c-3.3-2.6-5.9-5.7-7.7-9.4l-0.3,1c-1.1,3.4-3.9,6.2-8.2,8.4l-2-2.4c3.7-1.9,6.2-4.1,7.4-6.8c0.9-2.3,1.3-5.3,1.4-8.9H339.9
			z M331.4,17.3l-2.5-1.7c2.3-2.8,3.7-6.7,4.4-11.7l3,0.5c-0.2,1.3-0.4,2.6-0.7,3.7h11.8v2c-0.6,2.4-1.4,4.8-2.3,7.2l-2.9-0.8
			c0.8-1.5,1.5-3.3,2.1-5.4h-9.4C333.9,13.7,332.8,15.8,331.4,17.3z"/>
		<path class="st15" d="M362.8,4.1l-9.9,26.3h-2.8l10-26.3H362.8z"/>
		<path class="st15" d="M375.8,13.9c0.3-1.7,0.5-3.6,0.6-5.6h-10V5.4h22.8v2.9h-9.8c-0.2,2.1-0.4,4-0.6,5.6h11.3v2.9h-10
			c2,5,5.7,8.8,11,11.5l-1.9,2.5c-5.5-3-9.2-7.2-11.4-12.6c-0.5,1.4-0.9,2.7-1.5,3.7c-1.9,3.4-5.2,6.4-9.8,8.9l-1.9-2.5
			c4.2-2.1,7.1-4.7,8.9-7.6c0.6-1.1,1.1-2.4,1.6-3.9h-9.4v-2.9H375.8z"/>
	</g>
	<g>
		<g>
			<path class="st16" d="M322,263.4H189c-6.6,0-12-5.4-12-12V134.2c0-6.6,5.4-12,12-12h133c6.6,0,12,5.4,12,12v117.2
				C334,258,328.6,263.4,322,263.4z"/>
			<path class="st17" d="M299,263.4H189c-6.6,0-12-5.4-12-12V134.2c0-6.6,5.4-12,12-12h110c6.6,0,12,5.4,12,12v117.2
				C311,258,305.6,263.4,299,263.4z"/>
		</g>
		<g>
			<path class="st18" d="M336.6,274.1H175.4c-4.4,0-8-3.6-8-8v-35.5c0-4.4,3.6-8,8-8h161.1c4.4,0,8,3.6,8,8v35.5
				C344.6,270.5,341,274.1,336.6,274.1z"/>
			<path class="st12" d="M306,274.1H174.4c-4.4,0-8-3.6-8-8v-35.5c0-4.4,3.6-8,8-8H306c4.4,0,8,3.6,8,8v35.5
				C314,270.5,310.4,274.1,306,274.1z"/>
			<circle class="st19" cx="192.2" cy="248.4" r="10.3"/>
			<path class="st20" d="M228.3,263.4L228.3,263.4c-2.7,0-4.9-2.2-4.9-4.9v-20.2c0-2.7,2.2-4.9,4.9-4.9h0c2.7,0,4.9,2.2,4.9,4.9
				v20.2C233.2,261.2,231,263.4,228.3,263.4z"/>
			<path class="st20" d="M244.3,263.4L244.3,263.4c-2.7,0-4.9-2.2-4.9-4.9v-20.2c0-2.7,2.2-4.9,4.9-4.9h0c2.7,0,4.9,2.2,4.9,4.9
				v20.2C249.2,261.2,247,263.4,244.3,263.4z"/>
			<path class="st20" d="M260.3,263.4L260.3,263.4c-2.7,0-4.9-2.2-4.9-4.9v-20.2c0-2.7,2.2-4.9,4.9-4.9l0,0c2.7,0,4.9,2.2,4.9,4.9
				v20.2C265.2,261.2,263,263.4,260.3,263.4z"/>
			<path class="st20" d="M276.3,263.4L276.3,263.4c-2.7,0-4.9-2.2-4.9-4.9v-20.2c0-2.7,2.2-4.9,4.9-4.9l0,0c2.7,0,4.9,2.2,4.9,4.9
				v20.2C281.2,261.2,279,263.4,276.3,263.4z"/>
			<path class="st20" d="M292.3,263.4L292.3,263.4c-2.7,0-4.9-2.2-4.9-4.9v-20.2c0-2.7,2.2-4.9,4.9-4.9h0c2.7,0,4.9,2.2,4.9,4.9
				v20.2C297.2,261.2,295,263.4,292.3,263.4z"/>
		</g>
		<g>
			<path class="st18" d="M336.6,209.7H175.4c-4.4,0-8-3.6-8-8v-35.5c0-4.4,3.6-8,8-8h161.1c4.4,0,8,3.6,8,8v35.5
				C344.6,206.1,341,209.7,336.6,209.7z"/>
			<path class="st12" d="M306,209.7H174.4c-4.4,0-8-3.6-8-8v-35.5c0-4.4,3.6-8,8-8H306c4.4,0,8,3.6,8,8v35.5
				C314,206.1,310.4,209.7,306,209.7z"/>
			<circle class="st19" cx="192.2" cy="184" r="10.3"/>
			<path class="st20" d="M228.3,199L228.3,199c-2.7,0-4.9-2.2-4.9-4.9v-20.2c0-2.7,2.2-4.9,4.9-4.9h0c2.7,0,4.9,2.2,4.9,4.9v20.2
				C233.2,196.8,231,199,228.3,199z"/>
			<path class="st20" d="M244.3,199L244.3,199c-2.7,0-4.9-2.2-4.9-4.9v-20.2c0-2.7,2.2-4.9,4.9-4.9h0c2.7,0,4.9,2.2,4.9,4.9v20.2
				C249.2,196.8,247,199,244.3,199z"/>
			<path class="st20" d="M260.3,199L260.3,199c-2.7,0-4.9-2.2-4.9-4.9v-20.2c0-2.7,2.2-4.9,4.9-4.9l0,0c2.7,0,4.9,2.2,4.9,4.9v20.2
				C265.2,196.8,263,199,260.3,199z"/>
			<path class="st20" d="M276.3,199L276.3,199c-2.7,0-4.9-2.2-4.9-4.9v-20.2c0-2.7,2.2-4.9,4.9-4.9l0,0c2.7,0,4.9,2.2,4.9,4.9v20.2
				C281.2,196.8,279,199,276.3,199z"/>
			<path class="st20" d="M292.3,199L292.3,199c-2.7,0-4.9-2.2-4.9-4.9v-20.2c0-2.7,2.2-4.9,4.9-4.9h0c2.7,0,4.9,2.2,4.9,4.9v20.2
				C297.2,196.8,295,199,292.3,199z"/>
		</g>
		<g>
			<path class="st18" d="M336.6,145.3H175.4c-4.4,0-8-3.6-8-8v-35.5c0-4.4,3.6-8,8-8h161.1c4.4,0,8,3.6,8,8v35.5
				C344.6,141.7,341,145.3,336.6,145.3z"/>
			<path class="st12" d="M306,145.3H174.4c-4.4,0-8-3.6-8-8v-35.5c0-4.4,3.6-8,8-8H306c4.4,0,8,3.6,8,8v35.5
				C314,141.7,310.4,145.3,306,145.3z"/>
			<circle class="st19" cx="192.2" cy="119.6" r="10.3"/>
			<path class="st20" d="M228.3,134.6L228.3,134.6c-2.7,0-4.9-2.2-4.9-4.9v-20.2c0-2.7,2.2-4.9,4.9-4.9l0,0c2.7,0,4.9,2.2,4.9,4.9
				v20.2C233.2,132.4,231,134.6,228.3,134.6z"/>
			<path class="st20" d="M244.3,134.6L244.3,134.6c-2.7,0-4.9-2.2-4.9-4.9v-20.2c0-2.7,2.2-4.9,4.9-4.9h0c2.7,0,4.9,2.2,4.9,4.9
				v20.2C249.2,132.4,247,134.6,244.3,134.6z"/>
			<path class="st20" d="M260.3,134.6L260.3,134.6c-2.7,0-4.9-2.2-4.9-4.9v-20.2c0-2.7,2.2-4.9,4.9-4.9l0,0c2.7,0,4.9,2.2,4.9,4.9
				v20.2C265.2,132.4,263,134.6,260.3,134.6z"/>
			<path class="st20" d="M276.3,134.6L276.3,134.6c-2.7,0-4.9-2.2-4.9-4.9v-20.2c0-2.7,2.2-4.9,4.9-4.9l0,0c2.7,0,4.9,2.2,4.9,4.9
				v20.2C281.2,132.4,279,134.6,276.3,134.6z"/>
			<path class="st20" d="M292.3,134.6L292.3,134.6c-2.7,0-4.9-2.2-4.9-4.9v-20.2c0-2.7,2.2-4.9,4.9-4.9h0c2.7,0,4.9,2.2,4.9,4.9
				v20.2C297.2,132.4,295,134.6,292.3,134.6z"/>
		</g>
	</g>
	<path class="st15" d="M507.8,276.3H3.8c-0.8,0-1.5-0.7-1.5-1.5l0,0c0-0.8,0.7-1.5,1.5-1.5h504.1c0.8,0,1.5,0.7,1.5,1.5l0,0
		C509.3,275.6,508.7,276.3,507.8,276.3z"/>
</g>
</svg>
