<?xml version="1.0" encoding="utf-8"?>
<!-- Generator: Adobe Illustrator 21.0.0, SVG Export Plug-In . SVG Version: 6.00 Build 0)  -->
<svg version="1.0" id="图层_1" xmlns="http://www.w3.org/2000/svg" xmlns:xlink="http://www.w3.org/1999/xlink" x="0px" y="0px"
	 viewBox="0 0 520 280" enable-background="new 0 0 520 280" xml:space="preserve">
<g>
	<g>
		<g>
			<path fill="#DEECFC" d="M303.643,29.753h-0.07c-3.51-9.46-12.615-16.203-23.296-16.203c-4.235,0-8.221,1.063-11.711,2.932
				c-4.422-6.856-12.121-11.4-20.886-11.4c-13.72,0-24.843,11.122-24.843,24.843c0,0.177,0.01,0.351,0.013,0.527
				c-7.528,2.162-13.079,9.123-13.079,17.322l0,0c0,9.912,8.109,18.021,18.021,18.021h75.852c9.911,0,18.021-8.109,18.021-18.021
				l0,0C321.664,37.862,313.555,29.753,303.643,29.753z"/>
			<path fill="#DEECFC" d="M222.837,29.924c0-13.72,11.122-24.843,24.843-24.843c11.983,0,21.984,8.484,24.325,19.772"/>
			<path fill="#DEECFC" d="M268.423,16.786c3.523-1.916,7.561-3.005,11.854-3.005c13.72,0,24.843,11.122,24.843,24.843"/>
		</g>
	</g>
	<g>
		<path fill="none" stroke="#2C97E8" stroke-width="3" stroke-miterlimit="10" d="M305.671,30.7h-0.075
			c-3.767-10.152-13.538-17.388-25-17.388c-4.545,0-8.823,1.14-12.568,3.146c-4.745-7.358-13.008-12.234-22.414-12.234
			c-14.724,0-26.66,11.936-26.66,26.66c0,0.19,0.01,0.377,0.014,0.566c-8.079,2.321-14.036,9.79-14.036,18.589l0,0
			c0,10.637,8.703,19.339,19.339,19.339h81.4c10.637,0,19.339-8.702,19.339-19.339l0,0C325.01,39.403,316.307,30.7,305.671,30.7z"/>
		<path fill="none" stroke="#2C97E8" stroke-width="3" stroke-miterlimit="10" d="M218.953,30.885
			c0-14.724,11.936-26.66,26.66-26.66c12.859,0,23.592,9.104,26.104,21.218"/>
		<path fill="none" stroke="#2C97E8" stroke-width="3" stroke-miterlimit="10" d="M267.874,16.786
			c3.781-2.057,8.114-3.225,12.721-3.225c14.724,0,26.66,11.936,26.66,26.66"/>
	</g>
	<line fill="none" stroke="#2C97E8" stroke-width="3" stroke-miterlimit="10" x1="238.98" y1="69.379" x2="238.98" y2="120.63"/>
	<line fill="none" stroke="#2C97E8" stroke-width="3" stroke-miterlimit="10" x1="264.758" y1="69.379" x2="264.758" y2="240.265"/>
	<line fill="none" stroke="#2C97E8" stroke-width="3" stroke-miterlimit="10" x1="290.98" y1="69.379" x2="290.98" y2="120.63"/>
	<circle fill="#FFFFFF" stroke="#2C97E8" stroke-width="3" stroke-miterlimit="10" cx="264.758" cy="246.225" r="6.223"/>
	<line fill="none" stroke="#2C97E8" stroke-width="3" stroke-miterlimit="10" x1="227.98" y1="69.514" x2="227.98" y2="105.511"/>
	<line fill="none" stroke="#2C97E8" stroke-width="3" stroke-miterlimit="10" x1="127.313" y1="104.416" x2="227.98" y2="104.416"/>
	<circle fill="#FFFFFF" stroke="#2C97E8" stroke-width="3" stroke-miterlimit="10" cx="123.098" cy="104.416" r="6.223"/>
	<circle fill="#FFFFFF" stroke="#2C97E8" stroke-width="3" stroke-miterlimit="10" cx="171.919" cy="122.166" r="6.223"/>
	<circle fill="#FFFFFF" stroke="#2C97E8" stroke-width="3" stroke-miterlimit="10" cx="355.419" cy="122.166" r="6.223"/>
	<circle fill="#FFFFFF" stroke="#2C97E8" stroke-width="3" stroke-miterlimit="10" cx="238.98" cy="124.916" r="6.223"/>
	<circle fill="#FFFFFF" stroke="#2C97E8" stroke-width="3" stroke-miterlimit="10" cx="290.98" cy="124.916" r="6.223"/>
	<circle fill="#FFFFFF" stroke="#2C97E8" stroke-width="3" stroke-miterlimit="10" cx="227.471" cy="104.416" r="6.223"/>
	<g>
		
			<line fill="none" stroke="#2C97E8" stroke-width="3" stroke-miterlimit="10" x1="301.462" y1="69.514" x2="301.462" y2="105.511"/>
		
			<line fill="none" stroke="#2C97E8" stroke-width="3" stroke-miterlimit="10" x1="402.129" y1="104.416" x2="301.462" y2="104.416"/>
		<circle fill="#FFFFFF" stroke="#2C97E8" stroke-width="3" stroke-miterlimit="10" cx="406.344" cy="104.416" r="6.223"/>
	</g>
	<circle fill="#FFFFFF" stroke="#2C97E8" stroke-width="3" stroke-miterlimit="10" cx="302.138" cy="104.416" r="6.223"/>
	<g>
		<path fill="#DEECFC" stroke="#A1CEFF" stroke-width="2" stroke-miterlimit="10" d="M130.841,249.583H61.253c-5.5,0-10-4.5-10-10
			v-69.588c0-5.5,4.5-10,10-10h69.588c5.5,0,10,4.5,10,10v69.588C140.841,245.083,136.341,249.583,130.841,249.583z"/>
		<path fill="#FFFFFF" stroke="#A1CEFF" stroke-width="2" stroke-miterlimit="10" d="M127.566,242.308H64.528c-3.3,0-6-2.7-6-6
			v-63.038c0-3.3,2.7-6,6-6h63.038c3.3,0,6,2.7,6,6v63.038C133.566,239.608,130.866,242.308,127.566,242.308z"/>
	</g>
	<g>
		<path fill="#DEECFC" stroke="#69B8FF" stroke-width="2" stroke-miterlimit="10" d="M177.023,262.733H85.135c-6.6,0-12-5.4-12-12
			v-91.888c0-6.6,5.4-12,12-12h91.888c6.6,0,12,5.4,12,12v91.888C189.023,257.333,183.623,262.733,177.023,262.733z"/>
		<path fill="#FFFFFF" stroke="#69B8FF" stroke-width="2" stroke-miterlimit="10" d="M171.613,253.322H90.546c-4.4,0-8-3.6-8-8
			v-81.067c0-4.4,3.6-8,8-8h81.067c4.4,0,8,3.6,8,8v81.067C179.613,249.722,176.013,253.322,171.613,253.322z"/>
	</g>
	<path fill="#DEECFC" stroke="#2C97E8" stroke-width="3" stroke-miterlimit="10" d="M218.607,272.267H111.123c-7.7,0-14-6.3-14-14
		V150.783c0-7.7,6.3-14,14-14h107.485c7.7,0,14,6.3,14,14v25.33v2.666v79.488C232.607,265.967,226.307,272.267,218.607,272.267z"/>
	<path fill="#FFFFFF" stroke="#2C97E8" stroke-width="2.4" stroke-miterlimit="10" d="M211.605,261.266h-93.481c-5.5,0-10-4.5-10-10
		v-93.481c0-5.5,4.5-10,10-10h93.481c5.5,0,10,4.5,10,10v93.481C221.605,256.766,217.105,261.266,211.605,261.266z"/>
	<g>
		<g>
			<path fill="#2C97E8" d="M154.342,165.871c3.342-0.887,6.773-1.333,10.207-1.333c5.368,0,10.589,1.056,15.522,3.144l-0.656,28.982
				L154.342,165.871z M154.342,165.871"/>
			<path fill="#2C97E8" d="M129.992,184.409c1.746-3.001,3.858-5.747,6.282-8.16c3.794-3.794,8.23-6.738,13.192-8.754l20.038,20.954
				L129.992,184.409z M129.992,184.409"/>
			<path fill="#2C97E8" d="M125.892,214.738c-0.884-3.329-1.333-6.76-1.333-10.213c0-5.373,1.058-10.593,3.143-15.516l28.985,0.65
				L125.892,214.738z M125.892,214.738"/>
			<path fill="#2C97E8" d="M144.431,239.08c-2.98-1.736-5.72-3.847-8.155-6.282c-3.796-3.788-6.741-8.224-8.754-13.192l20.954-20.03
				L144.431,239.08z M144.431,239.08"/>
			<path fill="#2C97E8" d="M164.549,244.512c-5.368,0-10.588-1.056-15.521-3.138l0.656-28.983l25.073,30.793
				C171.408,244.066,167.98,244.512,164.549,244.512L164.549,244.512z M164.549,244.512"/>
			<path fill="#2C97E8" d="M159.594,220.603l39.512,4.041c-1.733,2.974-3.839,5.715-6.284,8.154
				c-3.789,3.799-8.23,6.744-13.192,8.759L159.594,220.603z M159.594,220.603"/>
			<path fill="#2C97E8" d="M172.411,219.397l30.793-25.079c0.884,3.332,1.33,6.765,1.33,10.207c0,5.39-1.058,10.605-3.141,15.522
				L172.411,219.397z M172.411,219.397"/>
			<path fill="#2C97E8" d="M184.662,169.973c2.977,1.728,5.723,3.837,8.16,6.276c3.799,3.789,6.744,8.23,8.753,13.192
				l-20.954,20.035L184.662,169.973z M184.662,169.973"/>
		</g>
	</g>
	<path fill="#DEECFC" stroke="#2C97E8" stroke-width="3" stroke-miterlimit="10" d="M227.721,228.673h-0.5c-6.6,0-12-5.4-12-12
		V192.84c0-6.6,5.4-12,12-12h0.5c6.6,0,12,5.4,12,12v23.833C239.721,223.273,234.321,228.673,227.721,228.673z"/>
	<path fill="#DEECFC" stroke="#2C97E8" stroke-width="3" stroke-miterlimit="10" d="M102.836,228.673L102.836,228.673
		c-6.738,0-12.25-5.512-12.25-12.25V193.09c0-6.737,5.512-12.25,12.25-12.25h0c6.737,0,12.25,5.512,12.25,12.25v23.333
		C115.086,223.161,109.574,228.673,102.836,228.673z"/>
	<g>
		<path fill="#DEECFC" stroke="#A1CEFF" stroke-width="2" stroke-miterlimit="10" d="M466.89,250.165h-69.588c-5.5,0-10-4.5-10-10
			v-69.588c0-5.5,4.5-10,10-10h69.588c5.5,0,10,4.5,10,10v69.588C476.89,245.665,472.39,250.165,466.89,250.165z"/>
		<path fill="#FFFFFF" stroke="#A1CEFF" stroke-width="2" stroke-miterlimit="10" d="M463.615,242.891h-63.038c-3.3,0-6-2.7-6-6
			v-63.038c0-3.3,2.7-6,6-6h63.038c3.3,0,6,2.7,6,6v63.038C469.615,240.191,466.915,242.891,463.615,242.891z"/>
	</g>
	<g>
		<path fill="#DEECFC" stroke="#69B8FF" stroke-width="2" stroke-miterlimit="10" d="M444.958,263.315h-91.888c-6.6,0-12-5.4-12-12
			v-91.888c0-6.6,5.4-12,12-12h91.888c6.6,0,12,5.4,12,12v91.888C456.958,257.915,451.558,263.315,444.958,263.315z"/>
		<path fill="#FFFFFF" stroke="#69B8FF" stroke-width="2" stroke-miterlimit="10" d="M439.547,253.905H358.48c-4.4,0-8-3.6-8-8
			v-81.067c0-4.4,3.6-8,8-8h81.067c4.4,0,8,3.6,8,8v81.067C447.547,250.305,443.947,253.905,439.547,253.905z"/>
	</g>
	<path fill="#DEECFC" stroke="#2C97E8" stroke-width="3" stroke-miterlimit="10" d="M418.096,272.267H310.611c-7.7,0-14-6.3-14-14
		V150.783c0-7.7,6.3-14,14-14h107.485c7.7,0,14,6.3,14,14v107.485C432.096,265.967,425.796,272.267,418.096,272.267z"/>
	<path fill="#FFFFFF" stroke="#2C97E8" stroke-width="2.4" stroke-miterlimit="10" d="M409.094,261.266h-89.481c-6.6,0-12-5.4-12-12
		v-89.481c0-6.6,5.4-12,12-12h89.481c6.6,0,12,5.4,12,12v89.481C421.094,255.865,415.694,261.266,409.094,261.266z"/>
	<g>
		<path fill="#2C97E8" d="M351.895,233.731l-20.592,6.951l10.183-11.835c-9.512-6.178-15.658-15.869-15.658-26.732
			c0-18.588,17.992-33.747,40.053-33.747c22.06,0,40.052,15.159,40.052,33.747c0,18.587-17.992,33.744-40.052,33.744
			C360.966,235.86,356.254,235.106,351.895,233.731L351.895,233.731z M347.861,196.463c-2.716,0-4.918,2.202-4.918,4.918
			c0,2.716,2.202,4.921,4.918,4.921c2.714,0,4.918-2.204,4.918-4.921C352.779,198.665,350.576,196.463,347.861,196.463
			L347.861,196.463z M383.901,196.463c-2.715,0-4.918,2.202-4.918,4.918c0,2.716,2.204,4.921,4.918,4.921
			c2.718,0,4.917-2.204,4.917-4.921C388.818,198.665,386.619,196.463,383.901,196.463L383.901,196.463z M365.881,196.463
			c-2.718,0-4.918,2.202-4.918,4.918c0,2.716,2.199,4.921,4.918,4.921c2.718,0,4.918-2.204,4.918-4.921
			C370.799,198.665,368.599,196.463,365.881,196.463L365.881,196.463z M365.881,196.463"/>
		<circle fill="#FFFFFF" cx="347.456" cy="201.555" r="7.385"/>
		<circle fill="#FFFFFF" cx="366.081" cy="201.555" r="7.385"/>
		<circle fill="#FFFFFF" cx="384.707" cy="201.555" r="7.385"/>
	</g>
	<path fill="#DEECFC" stroke="#2C97E8" stroke-width="3" stroke-miterlimit="10" d="M427.115,228.21L427.115,228.21
		c-6.738,0-12.25-5.512-12.25-12.25v-23.333c0-6.737,5.512-12.25,12.25-12.25l0,0c6.738,0,12.25,5.512,12.25,12.25v23.333
		C439.365,222.698,433.853,228.21,427.115,228.21z"/>
	<path fill="#DEECFC" stroke="#2C97E8" stroke-width="3" stroke-miterlimit="10" d="M302.747,228.21h-0.5c-6.6,0-12-5.4-12-12
		v-23.833c0-6.6,5.4-12,12-12h0.5c6.6,0,12,5.4,12,12v23.833C314.747,222.81,309.347,228.21,302.747,228.21z"/>
	<path fill="#2C97E8" d="M92.623,273.767H7.604c-0.825,0-1.5-0.675-1.5-1.5l0,0c0-0.825,0.675-1.5,1.5-1.5h85.018
		c0.825,0,1.5,0.675,1.5,1.5l0,0C94.123,273.092,93.448,273.767,92.623,273.767z"/>
	<path fill="#2C97E8" d="M289.881,273.767h-49.108c-0.825,0-1.5-0.675-1.5-1.5l0,0c0-0.825,0.675-1.5,1.5-1.5h49.108
		c0.825,0,1.5,0.675,1.5,1.5l0,0C291.381,273.092,290.706,273.767,289.881,273.767z"/>
	<path fill="#2C97E8" d="M512.367,273.767h-75.91c-0.825,0-1.5-0.675-1.5-1.5l0,0c0-0.825,0.675-1.5,1.5-1.5h75.91
		c0.825,0,1.5,0.675,1.5,1.5l0,0C513.867,273.092,513.192,273.767,512.367,273.767z"/>
	
		<line fill="none" stroke="#2C97E8" stroke-width="3" stroke-miterlimit="10" x1="171.919" y1="104.495" x2="171.919" y2="116.626"/>
	
		<line fill="none" stroke="#2C97E8" stroke-width="3" stroke-miterlimit="10" x1="355.419" y1="104.495" x2="355.419" y2="116.626"/>
</g>
</svg>
