<?xml version="1.0" encoding="utf-8"?>
<!-- Generator: Adobe Illustrator 21.0.0, SVG Export Plug-In . SVG Version: 6.00 Build 0)  -->
<svg version="1.0" id="图层_1" xmlns="http://www.w3.org/2000/svg" xmlns:xlink="http://www.w3.org/1999/xlink" x="0px" y="0px"
	 viewBox="0 0 520 280" enable-background="new 0 0 520 280" xml:space="preserve">
<g>
	<path fill="#AFCDF9" stroke="#1077F8" stroke-width="2.2" stroke-miterlimit="10" d="M217.59,215.356h-52.475c-6.6,0-12-5.4-12-12
		V84.62c0-6.6,5.4-12,12-12h52.475c6.6,0,12,5.4,12,12v118.735C229.59,209.956,224.19,215.356,217.59,215.356z"/>
	<path fill="#FFFFFF" stroke="#2C97E8" stroke-width="3" stroke-miterlimit="10" d="M147.282,72.62h55.498c6.6,0,12,5.4,12,12
		v118.735c0,6.6-5.4,12-12,12h-82.991c-6.6,0-12-5.4-12-12V84.62c0-6.6,5.4-12,12-12h4.742"/>
	<g>
		<path fill="#AFCDF9" stroke="#2C97E8" stroke-width="2.2146" stroke-miterlimit="10" d="M230.128,231.416H107.99
			c-2.208,0-4.014-1.806-4.014-4.014v-28.863c0-2.208,1.806-4.014,4.014-4.014h122.138c2.208,0,4.014,1.806,4.014,4.014v28.863
			C234.142,229.61,232.336,231.416,230.128,231.416z"/>
		<path fill="#FFFFFF" stroke="#2C97E8" stroke-width="3" stroke-miterlimit="10" d="M207.653,231.416H107.251
			c-2.208,0-4.014-1.806-4.014-4.014v-28.863c0-2.208,1.806-4.014,4.014-4.014h100.402c2.208,0,4.014,1.806,4.014,4.014v28.863
			C211.668,229.61,209.861,231.416,207.653,231.416z"/>
	</g>
	
		<line fill="#FFFFFF" stroke="#1077F8" stroke-width="2.2146" stroke-miterlimit="10" x1="110.017" y1="213.193" x2="110.017" y2="207.315"/>
	
		<line fill="#FFFFFF" stroke="#1077F8" stroke-width="2.2146" stroke-miterlimit="10" x1="117.698" y1="213.193" x2="117.698" y2="207.315"/>
	
		<line fill="#FFFFFF" stroke="#1077F8" stroke-width="2.2146" stroke-miterlimit="10" x1="125.38" y1="213.193" x2="125.38" y2="207.315"/>
	<path fill="#FFFFFF" stroke="#2C97E8" stroke-width="3" stroke-miterlimit="10" d="M211.668,205.782h-71.465
		c-4.183,0-7.575,3.391-7.575,7.575c0,4.184,3.391,7.575,7.575,7.575h71.465V205.782z"/>
	
		<line fill="#FFFFFF" stroke="#1077F8" stroke-width="2.2146" stroke-miterlimit="10" x1="103.237" y1="213.193" x2="132.628" y2="213.193"/>
	<path fill="#63D18C" d="M144.411,216.357L144.411,216.357c-1.657,0-3-1.343-3-3v0c0-1.657,1.343-3,3-3l0,0c1.657,0,3,1.343,3,3v0
		C147.411,215.014,146.068,216.357,144.411,216.357z"/>
	<path fill="#63D18C" d="M156.119,216.357L156.119,216.357c-1.657,0-3-1.343-3-3v0c0-1.657,1.343-3,3-3l0,0c1.657,0,3,1.343,3,3v0
		C159.119,215.014,157.776,216.357,156.119,216.357z"/>
	<path fill="#63D18C" d="M167.828,216.357L167.828,216.357c-1.657,0-3-1.343-3-3v0c0-1.657,1.343-3,3-3h0c1.657,0,3,1.343,3,3v0
		C170.828,215.014,169.484,216.357,167.828,216.357z"/>
	<path fill="#63D18C" d="M179.536,216.357L179.536,216.357c-1.657,0-3-1.343-3-3v0c0-1.657,1.343-3,3-3l0,0c1.657,0,3,1.343,3,3v0
		C182.536,215.014,181.193,216.357,179.536,216.357z"/>
	<path fill="#63D18C" d="M191.244,216.357L191.244,216.357c-1.657,0-3-1.343-3-3v0c0-1.657,1.343-3,3-3l0,0c1.657,0,3,1.343,3,3v0
		C194.244,215.014,192.901,216.357,191.244,216.357z"/>
	<path fill="#63D18C" d="M202.953,216.357L202.953,216.357c-1.657,0-3-1.343-3-3v0c0-1.657,1.343-3,3-3h0c1.657,0,3,1.343,3,3v0
		C205.953,215.014,204.609,216.357,202.953,216.357z"/>
	<rect x="129.28" y="122.9" fill="none" width="71.548" height="71.625"/>
	<line fill="none" stroke="#2C97E8" stroke-width="3" stroke-miterlimit="10" x1="137.211" y1="23.718" x2="137.211" y2="72.791"/>
	<g>
		<g>
			<line fill="#DEECFC" x1="118.646" y1="159.796" x2="204.718" y2="159.796"/>
		</g>
		<g>
			<path fill="#2C97E8" d="M203.518,160.996h-83.671c-0.663,0-1.2-0.537-1.2-1.2l0,0c0-0.663,0.537-1.2,1.2-1.2h83.671
				c0.663,0,1.2,0.537,1.2,1.2l0,0C204.717,160.459,204.18,160.996,203.518,160.996z"/>
		</g>
	</g>
	<g>
		<g>
			<line fill="#DEECFC" x1="118.646" y1="175.776" x2="204.718" y2="175.776"/>
		</g>
		<g>
			<path fill="#2C97E8" d="M203.518,176.976h-83.671c-0.663,0-1.2-0.537-1.2-1.2l0,0c0-0.663,0.537-1.2,1.2-1.2h83.671
				c0.663,0,1.2,0.537,1.2,1.2l0,0C204.717,176.438,204.18,176.976,203.518,176.976z"/>
		</g>
	</g>
	<g>
		<g>
			<line fill="#DEECFC" x1="118.646" y1="167.786" x2="204.718" y2="167.786"/>
		</g>
		<g>
			<path fill="#2C97E8" d="M203.518,168.986h-83.671c-0.663,0-1.2-0.537-1.2-1.2l0,0c0-0.663,0.537-1.2,1.2-1.2h83.671
				c0.663,0,1.2,0.537,1.2,1.2l0,0C204.717,168.449,204.18,168.986,203.518,168.986z"/>
		</g>
	</g>
	<polygon fill="#AFCDF9" stroke="#FFFFFF" stroke-width="2.2" stroke-miterlimit="10" points="198.701,183.292 189.062,178.948 
		179.423,183.292 179.423,158.041 198.701,158.041 	"/>
	<g>
		<g>
			<line fill="#DEECFC" x1="204.718" y1="126.668" x2="118.646" y2="126.668"/>
		</g>
		<g>
			<path fill="#2C97E8" d="M203.518,127.868h-83.671c-0.663,0-1.2-0.537-1.2-1.2l0,0c0-0.663,0.537-1.2,1.2-1.2h83.671
				c0.663,0,1.2,0.537,1.2,1.2l0,0C204.717,127.33,204.18,127.868,203.518,127.868z"/>
		</g>
	</g>
	<g>
		<g>
			<line fill="#DEECFC" x1="204.718" y1="142.647" x2="118.646" y2="142.647"/>
		</g>
		<g>
			<path fill="#2C97E8" d="M203.518,143.847h-83.671c-0.663,0-1.2-0.537-1.2-1.2l0,0c0-0.663,0.537-1.2,1.2-1.2h83.671
				c0.663,0,1.2,0.537,1.2,1.2l0,0C204.717,143.31,204.18,143.847,203.518,143.847z"/>
		</g>
	</g>
	<g>
		<g>
			<line fill="#DEECFC" x1="204.718" y1="134.657" x2="118.646" y2="134.657"/>
		</g>
		<g>
			<path fill="#2C97E8" d="M203.518,135.857h-83.671c-0.663,0-1.2-0.537-1.2-1.2l0,0c0-0.663,0.537-1.2,1.2-1.2h83.671
				c0.663,0,1.2,0.537,1.2,1.2l0,0C204.717,135.32,204.18,135.857,203.518,135.857z"/>
		</g>
	</g>
	<polygon fill="#AFCDF9" stroke="#FFFFFF" stroke-width="2.2" stroke-miterlimit="10" points="143.534,149.792 133.895,145.448 
		124.257,149.792 124.257,124.541 143.534,124.541 	"/>
	<g>
		<g>
			<line fill="#DEECFC" x1="118.646" y1="93.539" x2="204.718" y2="93.539"/>
		</g>
		<g>
			<path fill="#2C97E8" d="M203.518,94.739h-83.671c-0.663,0-1.2-0.537-1.2-1.2l0,0c0-0.663,0.537-1.2,1.2-1.2h83.671
				c0.663,0,1.2,0.537,1.2,1.2l0,0C204.717,94.202,204.18,94.739,203.518,94.739z"/>
		</g>
	</g>
	<g>
		<g>
			<line fill="#DEECFC" x1="118.646" y1="109.518" x2="204.718" y2="109.518"/>
		</g>
		<g>
			<path fill="#2C97E8" d="M203.518,110.718h-83.671c-0.663,0-1.2-0.537-1.2-1.2l0,0c0-0.663,0.537-1.2,1.2-1.2h83.671
				c0.663,0,1.2,0.537,1.2,1.2l0,0C204.717,110.181,204.18,110.718,203.518,110.718z"/>
		</g>
	</g>
	<g>
		<line fill="#DEECFC" x1="118.646" y1="101.529" x2="204.718" y2="101.529"/>
	</g>
	<g>
		<path fill="#2C97E8" d="M203.518,102.729h-83.671c-0.663,0-1.2-0.537-1.2-1.2l0,0c0-0.663,0.537-1.2,1.2-1.2h83.671
			c0.663,0,1.2,0.537,1.2,1.2l0,0C204.717,102.191,204.18,102.729,203.518,102.729z"/>
	</g>
	<polygon fill="#63D18C" stroke="#FFFFFF" stroke-width="2" stroke-miterlimit="10" points="199.065,116.459 189.426,112.114 
		179.787,116.459 179.787,91.208 199.065,91.208 	"/>
	<circle fill="none" stroke="#2C97E8" stroke-width="3" stroke-miterlimit="10" cx="137.24" cy="17.916" r="6.625"/>
	<line fill="none" stroke="#2C97E8" stroke-width="3" stroke-miterlimit="10" x1="128.532" y1="72.62" x2="142.782" y2="72.62"/>
	<path fill="#AFCDF9" stroke="#2C97E8" stroke-width="3" stroke-miterlimit="10" d="M435.593,215.356h-53.728c-6.6,0-12-5.4-12-12
		V84.62c0-6.6,5.4-12,12-12h53.728c6.6,0,12,5.4,12,12v118.735C447.593,209.956,442.193,215.356,435.593,215.356z"/>
	<path fill="#FFFFFF" stroke="#2C97E8" stroke-width="3" stroke-miterlimit="10" d="M360.896,72.62h59.888c6.6,0,12,5.4,12,12
		v118.735c0,6.6-5.4,12-12,12h-82.991c-6.6,0-12-5.4-12-12V84.62c0-6.6,5.4-12,12-12h5.822"/>
	<g>
		<path fill="#AFCDF9" stroke="#2C97E8" stroke-width="2.2146" stroke-miterlimit="10" d="M448.131,231.148H325.993
			c-2.208,0-4.014-1.806-4.014-4.014v-28.863c0-2.208,1.806-4.014,4.014-4.014h122.138c2.208,0,4.014,1.806,4.014,4.014v28.863
			C452.146,229.342,450.339,231.148,448.131,231.148z"/>
		<path fill="#FFFFFF" stroke="#2C97E8" stroke-width="2.2146" stroke-miterlimit="10" d="M425.657,231.148H325.255
			c-2.208,0-4.014-1.806-4.014-4.014v-28.863c0-2.208,1.806-4.014,4.014-4.014h100.402c2.208,0,4.014,1.806,4.014,4.014v28.863
			C429.671,229.342,427.865,231.148,425.657,231.148z"/>
	</g>
	<g>
		<g>
			<line fill="#DEECFC" x1="334.98" y1="159.796" x2="421.051" y2="159.796"/>
		</g>
		<g>
			<path fill="#2C97E8" d="M420.051,160.796H335.98c-0.552,0-1-0.448-1-1l0,0c0-0.552,0.448-1,1-1h84.071c0.552,0,1,0.448,1,1l0,0
				C421.051,160.349,420.603,160.796,420.051,160.796z"/>
		</g>
	</g>
	<g>
		<g>
			<line fill="#DEECFC" x1="334.98" y1="175.776" x2="421.051" y2="175.776"/>
		</g>
		<g>
			<path fill="#2C97E8" d="M420.051,176.776H335.98c-0.552,0-1-0.448-1-1l0,0c0-0.552,0.448-1,1-1h84.071c0.552,0,1,0.448,1,1l0,0
				C421.051,176.328,420.603,176.776,420.051,176.776z"/>
		</g>
	</g>
	<g>
		<g>
			<line fill="#DEECFC" x1="334.98" y1="167.786" x2="421.051" y2="167.786"/>
		</g>
		<g>
			<path fill="#2C97E8" d="M420.051,168.786H335.98c-0.552,0-1-0.448-1-1l0,0c0-0.552,0.448-1,1-1h84.071c0.552,0,1,0.448,1,1l0,0
				C421.051,168.338,420.603,168.786,420.051,168.786z"/>
		</g>
	</g>
	<polygon fill="#AFCDF9" stroke="#FFFFFF" stroke-width="2.2" stroke-miterlimit="10" points="415.034,183.292 405.396,178.948 
		395.757,183.292 395.757,158.041 415.034,158.041 	"/>
	<g>
		<g>
			<line fill="#DEECFC" x1="421.051" y1="126.668" x2="334.98" y2="126.668"/>
		</g>
		<g>
			<path fill="#2C97E8" d="M420.051,127.668H335.98c-0.552,0-1-0.448-1-1l0,0c0-0.552,0.448-1,1-1h84.071c0.552,0,1,0.448,1,1l0,0
				C421.051,127.22,420.603,127.668,420.051,127.668z"/>
		</g>
	</g>
	<g>
		<g>
			<line fill="#DEECFC" x1="421.051" y1="142.647" x2="334.98" y2="142.647"/>
		</g>
		<g>
			<path fill="#2C97E8" d="M420.051,143.647H335.98c-0.552,0-1-0.448-1-1l0,0c0-0.552,0.448-1,1-1h84.071c0.552,0,1,0.448,1,1l0,0
				C421.051,143.199,420.603,143.647,420.051,143.647z"/>
		</g>
	</g>
	<g>
		<g>
			<line fill="#DEECFC" x1="421.051" y1="134.657" x2="334.98" y2="134.657"/>
		</g>
		<g>
			<path fill="#2C97E8" d="M420.051,135.657H335.98c-0.552,0-1-0.448-1-1l0,0c0-0.552,0.448-1,1-1h84.071c0.552,0,1,0.448,1,1l0,0
				C421.051,135.21,420.603,135.657,420.051,135.657z"/>
		</g>
	</g>
	<polygon fill="#AFCDF9" stroke="#FFFFFF" stroke-width="2.2" stroke-miterlimit="10" points="359.868,149.792 350.229,145.448 
		340.59,149.792 340.59,124.541 359.868,124.541 	"/>
	<g>
		<g>
			<line fill="#DEECFC" x1="334.98" y1="93.539" x2="421.051" y2="93.539"/>
		</g>
		<g>
			<path fill="#2C97E8" d="M420.051,94.539H335.98c-0.552,0-1-0.448-1-1l0,0c0-0.552,0.448-1,1-1h84.071c0.552,0,1,0.448,1,1l0,0
				C421.051,94.091,420.603,94.539,420.051,94.539z"/>
		</g>
	</g>
	<g>
		<g>
			<line fill="#DEECFC" x1="334.98" y1="109.518" x2="421.051" y2="109.518"/>
		</g>
		<g>
			<path fill="#2C97E8" d="M420.051,110.518H335.98c-0.552,0-1-0.448-1-1l0,0c0-0.552,0.448-1,1-1h84.071c0.552,0,1,0.448,1,1l0,0
				C421.051,110.071,420.603,110.518,420.051,110.518z"/>
		</g>
	</g>
	<g>
		<g>
			<line fill="#DEECFC" x1="334.98" y1="101.529" x2="421.051" y2="101.529"/>
		</g>
		<g>
			<path fill="#2C97E8" d="M420.051,102.529H335.98c-0.552,0-1-0.448-1-1l0,0c0-0.552,0.448-1,1-1h84.071c0.552,0,1,0.448,1,1l0,0
				C421.051,102.081,420.603,102.529,420.051,102.529z"/>
		</g>
	</g>
	<polygon fill="#63D18C" stroke="#FFFFFF" stroke-width="2" stroke-miterlimit="10" points="415.398,116.459 405.759,112.114 
		396.121,116.459 396.121,91.208 415.398,91.208 	"/>
	<line fill="none" stroke="#2C97E8" stroke-width="3" stroke-miterlimit="10" x1="411.077" y1="23.313" x2="411.077" y2="72.386"/>
	<circle fill="none" stroke="#2C97E8" stroke-width="3" stroke-miterlimit="10" cx="411.106" cy="17.511" r="6.625"/>
	<line fill="none" stroke="#2C97E8" stroke-width="3" stroke-miterlimit="10" x1="348.459" y1="72.62" x2="355.678" y2="72.62"/>
	
		<line fill="#FFFFFF" stroke="#1077F8" stroke-width="2.2146" stroke-miterlimit="10" x1="328.021" y1="212.538" x2="328.021" y2="206.66"/>
	
		<line fill="#FFFFFF" stroke="#1077F8" stroke-width="2.2146" stroke-miterlimit="10" x1="335.702" y1="212.538" x2="335.702" y2="206.66"/>
	
		<line fill="#FFFFFF" stroke="#1077F8" stroke-width="2.2146" stroke-miterlimit="10" x1="343.383" y1="212.538" x2="343.383" y2="206.66"/>
	<path fill="#FFFFFF" stroke="#1077F8" stroke-width="2.2146" stroke-miterlimit="10" d="M429.671,205.127h-71.465
		c-4.183,0-7.575,3.391-7.575,7.575c0,4.184,3.391,7.575,7.575,7.575h71.465V205.127z"/>
	
		<line fill="#FFFFFF" stroke="#1077F8" stroke-width="2.2146" stroke-miterlimit="10" x1="321.241" y1="212.538" x2="350.632" y2="212.538"/>
	<path fill="#63D18C" d="M362.415,215.702L362.415,215.702c-1.657,0-3-1.343-3-3v0c0-1.657,1.343-3,3-3l0,0c1.657,0,3,1.343,3,3v0
		C365.415,214.359,364.071,215.702,362.415,215.702z"/>
	<path fill="#63D18C" d="M374.123,215.702L374.123,215.702c-1.657,0-3-1.343-3-3v0c0-1.657,1.343-3,3-3l0,0c1.657,0,3,1.343,3,3v0
		C377.123,214.359,375.78,215.702,374.123,215.702z"/>
	<path fill="#63D18C" d="M385.831,215.702L385.831,215.702c-1.657,0-3-1.343-3-3v0c0-1.657,1.343-3,3-3l0,0c1.657,0,3,1.343,3,3v0
		C388.831,214.359,387.488,215.702,385.831,215.702z"/>
	<path fill="#63D18C" d="M397.54,215.702L397.54,215.702c-1.657,0-3-1.343-3-3v0c0-1.657,1.343-3,3-3l0,0c1.657,0,3,1.343,3,3v0
		C400.54,214.359,399.196,215.702,397.54,215.702z"/>
	<path fill="#63D18C" d="M409.248,215.702L409.248,215.702c-1.657,0-3-1.343-3-3v0c0-1.657,1.343-3,3-3l0,0c1.657,0,3,1.343,3,3v0
		C412.248,214.359,410.905,215.702,409.248,215.702z"/>
	<path fill="#63D18C" d="M420.956,215.702L420.956,215.702c-1.657,0-3-1.343-3-3v0c0-1.657,1.343-3,3-3l0,0c1.657,0,3,1.343,3,3v0
		C423.956,214.359,422.613,215.702,420.956,215.702z"/>
	<path fill="#2C97E8" d="M272.528,245.967H10.96c-0.825,0-1.5-0.675-1.5-1.5l0,0c0-0.825,0.675-1.5,1.5-1.5h261.568
		c0.825,0,1.5,0.675,1.5,1.5l0,0C274.028,245.292,273.353,245.967,272.528,245.967z"/>
	<path fill="#2C97E8" d="M507.97,245.967H331.393c-0.825,0-1.5-0.675-1.5-1.5l0,0c0-0.825,0.675-1.5,1.5-1.5H507.97
		c0.825,0,1.5,0.675,1.5,1.5l0,0C509.47,245.292,508.795,245.967,507.97,245.967z"/>
	<path fill="#AFCDF9" stroke="#2C97E8" stroke-width="3" stroke-miterlimit="10" d="M332.848,213.559h-63.233c-6.6,0-12-5.4-12-12
		v-134c0-6.6,5.4-12,12-12h63.233c6.6,0,12,5.4,12,12v134C344.848,208.159,339.448,213.559,332.848,213.559z"/>
	<path fill="#FFFFFF" stroke="#2C97E8" stroke-width="3" stroke-miterlimit="10" d="M243.521,55.559h72.927c6.6,0,12,5.4,12,12v134
		c0,6.6-5.4,12-12,12h-94.486c-6.6,0-12-5.4-12-12v-134c0-6.6,5.4-12,12-12h5.872"/>
	<g>
		<path fill="#AFCDF9" stroke="#2C97E8" stroke-width="3" stroke-miterlimit="10" d="M345.875,231.416H209.752
			c-2.208,0-4.014-1.806-4.014-4.014v-32.827c0-2.208,1.806-4.014,4.014-4.014h136.124c2.208,0,4.014,1.806,4.014,4.014v32.827
			C349.89,229.61,348.083,231.416,345.875,231.416z"/>
		<path fill="#FFFFFF" stroke="#2C97E8" stroke-width="3" stroke-miterlimit="10" d="M320.987,231.416H208.934
			c-2.208,0-4.014-1.806-4.014-4.014v-32.827c0-2.208,1.806-4.014,4.014-4.014h112.052c2.208,0,4.014,1.806,4.014,4.014v32.827
			C325.001,229.61,323.194,231.416,320.987,231.416z"/>
	</g>
	<g>
		<g>
			<line fill="#DEECFC" x1="220.449" y1="149.598" x2="319.853" y2="149.598"/>
		</g>
		<g>
			<path fill="#2C97E8" d="M318.653,150.798h-97.004c-0.663,0-1.2-0.537-1.2-1.2l0,0c0-0.663,0.537-1.2,1.2-1.2h97.004
				c0.663,0,1.2,0.537,1.2,1.2l0,0C319.852,150.261,319.315,150.798,318.653,150.798z"/>
		</g>
	</g>
	<g>
		<g>
			<line fill="#DEECFC" x1="220.449" y1="168.053" x2="319.853" y2="168.053"/>
		</g>
		<g>
			<path fill="#2C97E8" d="M318.653,169.253h-97.004c-0.663,0-1.2-0.537-1.2-1.2l0,0c0-0.663,0.537-1.2,1.2-1.2h97.004
				c0.663,0,1.2,0.537,1.2,1.2l0,0C319.852,168.716,319.315,169.253,318.653,169.253z"/>
		</g>
	</g>
	<g>
		<g>
			<line fill="#DEECFC" x1="220.449" y1="158.826" x2="319.853" y2="158.826"/>
		</g>
		<g>
			<path fill="#2C97E8" d="M318.653,160.026h-97.004c-0.663,0-1.2-0.537-1.2-1.2l0,0c0-0.663,0.537-1.2,1.2-1.2h97.004
				c0.663,0,1.2,0.537,1.2,1.2l0,0C319.852,159.489,319.315,160.026,318.653,160.026z"/>
		</g>
	</g>
	<polygon fill="#AFCDF9" stroke="#FFFFFF" stroke-width="2.2" stroke-miterlimit="10" points="312.904,176.734 301.772,171.716 
		290.64,176.734 290.64,147.571 312.904,147.571 	"/>
	<g>
		<g>
			<line fill="#DEECFC" x1="319.853" y1="111.338" x2="220.449" y2="111.338"/>
		</g>
		<g>
			<path fill="#2C97E8" d="M318.653,112.538h-97.004c-0.663,0-1.2-0.537-1.2-1.2l0,0c0-0.663,0.537-1.2,1.2-1.2h97.004
				c0.663,0,1.2,0.537,1.2,1.2l0,0C319.852,112.001,319.315,112.538,318.653,112.538z"/>
		</g>
	</g>
	<g>
		<g>
			<line fill="#DEECFC" x1="319.853" y1="129.793" x2="220.449" y2="129.793"/>
		</g>
		<g>
			<path fill="#2C97E8" d="M318.653,130.993h-97.004c-0.663,0-1.2-0.537-1.2-1.2l0,0c0-0.663,0.537-1.2,1.2-1.2h97.004
				c0.663,0,1.2,0.537,1.2,1.2l0,0C319.852,130.456,319.315,130.993,318.653,130.993z"/>
		</g>
	</g>
	<g>
		<g>
			<line fill="#DEECFC" x1="319.853" y1="120.565" x2="220.449" y2="120.565"/>
		</g>
		<g>
			<path fill="#2C97E8" d="M318.653,121.765h-97.004c-0.663,0-1.2-0.537-1.2-1.2l0,0c0-0.663,0.537-1.2,1.2-1.2h97.004
				c0.663,0,1.2,0.537,1.2,1.2l0,0C319.852,121.228,319.315,121.765,318.653,121.765z"/>
		</g>
	</g>
	<polygon fill="#AFCDF9" stroke="#FFFFFF" stroke-width="2.2" stroke-miterlimit="10" points="249.192,138.044 238.06,133.027 
		226.928,138.044 226.928,108.882 249.192,108.882 	"/>
	<g>
		<line fill="#DEECFC" x1="220.449" y1="73.078" x2="319.853" y2="73.078"/>
		<g>
			<path fill="#2C97E8" d="M318.653,74.278h-97.004c-0.663,0-1.2-0.537-1.2-1.2l0,0c0-0.663,0.537-1.2,1.2-1.2h97.004
				c0.663,0,1.2,0.537,1.2,1.2l0,0C319.852,73.74,319.315,74.278,318.653,74.278z"/>
		</g>
	</g>
	<g>
		<g>
			<line fill="#DEECFC" x1="220.449" y1="91.532" x2="319.853" y2="91.532"/>
		</g>
		<g>
			<path fill="#2C97E8" d="M318.653,92.732h-97.004c-0.663,0-1.2-0.537-1.2-1.2l0,0c0-0.663,0.537-1.2,1.2-1.2h97.004
				c0.663,0,1.2,0.537,1.2,1.2l0,0C319.852,92.195,319.315,92.732,318.653,92.732z"/>
		</g>
	</g>
	<g>
		<g>
			<line fill="#DEECFC" x1="220.449" y1="82.305" x2="319.853" y2="82.305"/>
		</g>
		<g>
			<path fill="#2C97E8" d="M318.653,83.505h-97.004c-0.663,0-1.2-0.537-1.2-1.2l0,0c0-0.663,0.537-1.2,1.2-1.2h97.004
				c0.663,0,1.2,0.537,1.2,1.2l0,0C319.852,82.968,319.315,83.505,318.653,83.505z"/>
		</g>
	</g>
	<polygon fill="#63D18C" stroke="#FFFFFF" stroke-width="2" stroke-miterlimit="10" points="313.324,99.548 302.192,94.531 
		291.061,99.548 291.061,70.386 313.324,70.386 	"/>
	
		<line fill="#FFFFFF" stroke="#1077F8" stroke-width="2.4286" stroke-miterlimit="10" x1="213.525" y1="211.341" x2="213.525" y2="204.895"/>
	
		<line fill="#FFFFFF" stroke="#1077F8" stroke-width="2.4286" stroke-miterlimit="10" x1="221.949" y1="211.341" x2="221.949" y2="204.895"/>
	
		<line fill="#FFFFFF" stroke="#1077F8" stroke-width="2.4286" stroke-miterlimit="10" x1="230.372" y1="211.341" x2="230.372" y2="204.895"/>
	<path fill="#FFFFFF" stroke="#2C97E8" stroke-width="2.4286" stroke-miterlimit="10" d="M325.001,203.213h-78.373
		c-4.588,0-8.307,3.719-8.307,8.307s3.719,8.307,8.307,8.307h78.373V203.213z"/>
	
		<line fill="#FFFFFF" stroke="#1077F8" stroke-width="2.4286" stroke-miterlimit="10" x1="206.09" y1="211.341" x2="238.322" y2="211.341"/>
	<path fill="#63D18C" d="M251.243,214.811L251.243,214.811c-1.817,0-3.29-1.473-3.29-3.29l0,0c0-1.817,1.473-3.29,3.29-3.29h0
		c1.817,0,3.29,1.473,3.29,3.29l0,0C254.533,213.338,253.06,214.811,251.243,214.811z"/>
	<path fill="#63D18C" d="M264.083,214.811L264.083,214.811c-1.817,0-3.29-1.473-3.29-3.29l0,0c0-1.817,1.473-3.29,3.29-3.29l0,0
		c1.817,0,3.29,1.473,3.29,3.29l0,0C267.373,213.338,265.9,214.811,264.083,214.811z"/>
	<path fill="#63D18C" d="M276.923,214.811L276.923,214.811c-1.817,0-3.29-1.473-3.29-3.29l0,0c0-1.817,1.473-3.29,3.29-3.29l0,0
		c1.817,0,3.29,1.473,3.29,3.29l0,0C280.213,213.338,278.74,214.811,276.923,214.811z"/>
	<path fill="#63D18C" d="M289.763,214.811L289.763,214.811c-1.817,0-3.29-1.473-3.29-3.29l0,0c0-1.817,1.473-3.29,3.29-3.29h0
		c1.817,0,3.29,1.473,3.29,3.29l0,0C293.053,213.338,291.58,214.811,289.763,214.811z"/>
	<path fill="#63D18C" d="M302.603,214.811L302.603,214.811c-1.817,0-3.29-1.473-3.29-3.29l0,0c0-1.817,1.473-3.29,3.29-3.29l0,0
		c1.817,0,3.29,1.473,3.29,3.29l0,0C305.893,213.338,304.42,214.811,302.603,214.811z"/>
	<path fill="#63D18C" d="M315.443,214.811L315.443,214.811c-1.817,0-3.29-1.473-3.29-3.29l0,0c0-1.817,1.473-3.29,3.29-3.29l0,0
		c1.817,0,3.29,1.473,3.29,3.29l0,0C318.733,213.338,317.26,214.811,315.443,214.811z"/>
	<line fill="none" stroke="#2C97E8" stroke-width="3" stroke-miterlimit="10" x1="232.262" y1="55.559" x2="238.976" y2="55.559"/>
	<g>
		<g>
			
				<rect x="197.685" y="241.303" transform="matrix(-1 8.618560e-11 -8.618560e-11 -1 406.1547 495.954)" fill="#0B78FF" width="10.785" height="13.348"/>
			
				<rect x="199.34" y="254.651" transform="matrix(-1 8.687749e-11 -8.687749e-11 -1 406.1547 516.7976)" fill="#C4DFFE" width="7.475" height="7.496"/>
		</g>
		<g>
			
				<rect x="180.055" y="241.303" transform="matrix(-1 8.905308e-11 -8.905308e-11 -1 370.8953 495.954)" fill="#0B78FF" width="10.785" height="13.348"/>
			
				<rect x="181.71" y="254.651" transform="matrix(-1 9.101418e-11 -9.101418e-11 -1 370.8953 516.7976)" fill="#C4DFFE" width="7.475" height="7.496"/>
		</g>
		<g>
			
				<rect x="162.491" y="241.303" transform="matrix(-1 9.192012e-11 -9.192012e-11 -1 335.7673 495.954)" fill="#0B78FF" width="10.785" height="13.348"/>
			
				<rect x="164.146" y="254.651" transform="matrix(-1 9.101418e-11 -9.101418e-11 -1 335.7673 516.7976)" fill="#C4DFFE" width="7.475" height="7.496"/>
		</g>
		<g>
			
				<rect x="144.599" y="241.303" transform="matrix(-1 8.888433e-11 -8.888433e-11 -1 299.9838 495.954)" fill="#0B78FF" width="10.785" height="13.348"/>
			
				<rect x="146.255" y="254.651" transform="matrix(-1 8.955402e-11 -8.955402e-11 -1 299.9838 516.7976)" fill="#C4DFFE" width="7.475" height="7.496"/>
		</g>
		<g>
			<g>
				
					<rect x="126.778" y="241.303" transform="matrix(-1 9.006516e-11 -9.006516e-11 -1 264.3404 495.954)" fill="#0B78FF" width="10.785" height="13.348"/>
				
					<rect x="128.433" y="254.651" transform="matrix(-1 9.369115e-11 -9.369115e-11 -1 264.3404 516.7976)" fill="#C4DFFE" width="7.475" height="7.496"/>
			</g>
		</g>
	</g>
	<rect x="97.395" y="210.891" fill="#5FA9FF" width="12.956" height="7.973"/>
	<polyline fill="none" stroke="#5FA9FF" stroke-width="3.417" stroke-miterlimit="10" points="100.029,214.878 90.134,214.878 
		75.612,239.864 57.459,239.864 53.33,246.342 	"/>
	<path fill="#FFFFFF" stroke="#2C97E8" stroke-width="2.4277" stroke-miterlimit="10" d="M254.044,270.379H68.778
		c-12.603,0-22.914-10.311-22.914-22.914v0c0-12.603,10.311-22.914,22.914-22.914h185.266c12.603,0,22.914,10.311,22.914,22.914v0
		C276.958,260.067,266.647,270.379,254.044,270.379z"/>
	<polygon fill="#FFFFFF" points="81.113,244.298 77.793,222.959 92.177,211.104 108.789,205.887 122.21,207.663 166.311,218.217 
		177.692,222.959 198.715,219.506 210.1,214.463 240.919,217.426 260.835,232.127 255.365,253.466 	"/>
	<path fill="#FFFFFF" stroke="#2C97E8" stroke-width="2.4277" stroke-miterlimit="10" d="M70.341,245.199
		c-5.478-12.495-2.073-27.578,9.152-36.397c9.985-7.845,23.321-8.505,33.778-2.728"/>
	<path fill="#FFFFFF" stroke="#2C97E8" stroke-width="2.4277" stroke-miterlimit="10" d="M202.961,217.757
		c3.098-10.077,12.48-17.402,23.573-17.402c13.619,0,24.658,11.04,24.658,24.659c0,0.345-0.007,0.688-0.021,1.03"/>
	<path fill="#FFFFFF" stroke="#2C97E8" stroke-width="2.4277" stroke-miterlimit="10" d="M108.5,216.834
		c3.64-14.092,16.438-24.502,31.667-24.502c18.062,0,32.704,14.642,32.704,32.704c0,0.71-0.023,1.416-0.067,2.115"/>
	<path fill="#FFFFFF" stroke="#2C97E8" stroke-width="2.4277" stroke-miterlimit="10" d="M172.839,223.592
		c4.175-5.545,10.813-9.13,18.289-9.13c7.898,0,14.861,4.001,18.973,10.088"/>
	<g opacity="0.17">
		<path fill="#2C97E8" d="M254.701,270.717H74.748c-12.241,0-22.257-10.016-22.257-22.257v0c0-12.241,10.016-22.257,22.257-22.257
			h179.953c12.241,0,22.257,10.016,22.257,22.257v0C276.958,260.701,266.942,270.717,254.701,270.717z"/>
		<polygon fill="#2C97E8" points="86.729,245.384 83.505,224.657 97.476,213.142 113.611,208.075 126.648,209.8 169.484,220.051 
			180.538,224.657 200.958,221.303 212.017,216.404 241.952,219.283 261.298,233.562 255.984,254.289 		"/>
		<path fill="#2C97E8" d="M76.266,246.259c-5.321-12.136-2.013-26.787,8.89-35.354c9.698-7.62,22.652-8.261,32.809-2.65"/>
		<path fill="#2C97E8" d="M205.083,219.604c3.009-9.788,12.123-16.903,22.897-16.903c13.228,0,23.951,10.723,23.951,23.951
			c0,0.335-0.007,0.669-0.021,1"/>
		<path fill="#2C97E8" d="M113.331,218.708c3.535-13.688,15.966-23.799,30.759-23.799c17.544,0,31.766,14.222,31.766,31.766
			c0,0.69-0.022,1.375-0.065,2.054"/>
		<path fill="#2C97E8" d="M175.824,225.272c4.056-5.386,10.503-8.868,17.764-8.868c7.671,0,14.435,3.887,18.429,9.798"/>
	</g>
	<g>
		<path fill="#FFFFFF" stroke="#2C97E8" stroke-width="2.4277" stroke-miterlimit="10" d="M457.283,220.593h-0.098
			c-4.881-13.156-17.543-22.533-32.398-22.533c-5.89,0-11.434,1.478-16.287,4.077c-6.15-9.535-16.857-15.854-29.047-15.854
			c-19.081,0-34.549,15.468-34.549,34.549c0,0.246,0.013,0.488,0.019,0.733c-10.469,3.007-18.189,12.688-18.189,24.09l0,0
			c0,13.784,11.278,25.062,25.062,25.062h105.487c13.784,0,25.062-11.278,25.062-25.062l0,0
			C482.345,231.871,471.067,220.593,457.283,220.593z"/>
		<path fill="#FFFFFF" stroke="#2C97E8" stroke-width="2.4277" stroke-miterlimit="10" d="M344.905,220.833
			c0-19.081,15.468-34.549,34.549-34.549c16.664,0,30.573,11.798,33.829,27.497"/>
		<path fill="#FFFFFF" stroke="#2C97E8" stroke-width="2.4277" stroke-miterlimit="10" d="M409.093,202.155
			c4.899-2.665,9.724-3.773,15.694-3.773c19.081,0,34.549,15.468,34.549,34.549"/>
	</g>
	<g opacity="0.14">
		<path fill="#2C97E8" d="M457.994,222.243h-0.095c-4.743-12.783-17.046-21.894-31.48-21.894c-5.723,0-11.109,1.436-15.825,3.961
			c-5.975-9.265-16.379-15.404-28.223-15.404c-18.54,0-33.569,15.029-33.569,33.569c0,0.239,0.013,0.474,0.018,0.712
			c-10.172,2.922-17.674,12.328-17.674,23.407l0,0c0,13.393,10.958,24.351,24.351,24.351h102.497
			c13.393,0,24.351-10.958,24.351-24.351l0,0C482.345,233.201,471.387,222.243,457.994,222.243z"/>
		<path fill="#2C97E8" d="M348.802,222.476c0-18.54,15.03-33.569,33.569-33.569c16.192,0,29.706,11.464,32.87,26.718"/>
		<path fill="#2C97E8" d="M410.401,204.723c4.76-2.59,10.217-4.061,16.018-4.061c18.54,0,33.569,15.029,33.569,33.569"/>
	</g>
	<circle fill="#2C97E8" cx="70.326" cy="245.138" r="1.204"/>
	<circle fill="#2C97E8" cx="108.5" cy="216.774" r="1.204"/>
	<circle fill="#2C97E8" cx="172.839" cy="227.151" r="1.204"/>
	<circle fill="#2C97E8" cx="210.1" cy="224.55" r="1.204"/>
	<circle fill="#2C97E8" cx="251.193" cy="225.754" r="1.204"/>
	<circle fill="#2C97E8" cx="413.283" cy="213.806" r="1.204"/>
	<circle fill="#2C97E8" cx="459.336" cy="232.848" r="1.204"/>
	<rect x="205.991" y="69.543" fill="#FFFFFF" width="2.471" height="10.75"/>
</g>
</svg>
