<?xml version="1.0" encoding="utf-8"?>
<!-- Generator: Adobe Illustrator 21.0.0, SVG Export Plug-In . SVG Version: 6.00 Build 0)  -->
<svg version="1.0" id="图层_1" xmlns="http://www.w3.org/2000/svg" xmlns:xlink="http://www.w3.org/1999/xlink" x="0px" y="0px"
	 viewBox="0 0 500 264" enable-background="new 0 0 500 264" xml:space="preserve">
<g>
	<path opacity="0.06" fill="#0B78F7" d="M242.178,45.516c-118.076,0-213.795,95.719-213.795,213.795h427.589
		C455.973,141.235,360.254,45.516,242.178,45.516z"/>
	<path opacity="0.06" fill="#0B78F7" d="M242.178,86.135c-95.642,0-173.176,77.533-173.176,173.176h346.351
		C415.354,163.668,337.82,86.135,242.178,86.135z"/>
	<path opacity="0.06" fill="#0B78F7" d="M242.178,121.051c-76.359,0-138.259,61.901-138.259,138.259h276.518
		C380.437,182.952,318.537,121.051,242.178,121.051z"/>
	<path fill="#FFFFFF" stroke="#2C97E8" stroke-width="3.2714" stroke-miterlimit="10" d="M141.111,246.529V110.572
		c0-3.702,3.029-6.73,6.73-6.73H333.41c3.702,0,6.73,3.029,6.73,6.73v133.238"/>
	<polyline fill="none" stroke="#92B4DD" stroke-width="1.1894" stroke-miterlimit="10" points="149.962,238.974 149.962,112.908 
		331.289,112.908 331.289,239.204 	"/>
	<rect x="150.543" y="113.5" opacity="0.2" fill="#1077F8" width="180.417" height="125.104"/>
	<path fill="#FFFFFF" stroke="#2C97E8" stroke-width="3.1394" stroke-miterlimit="10" d="M363.757,259.699H120.599
		c-1.241,0-2.247-1.006-2.247-2.247v-9.993c0-1.241,1.006-2.247,2.247-2.247h243.158c1.241,0,2.247,1.006,2.247,2.247v9.993
		C366.003,258.693,364.998,259.699,363.757,259.699z"/>
	<path fill="#2C97E8" d="M147.448,45.633l1.754,0.39l1.422,0.507l1.15,0.585l0.877,0.623l0.662,0.662l0.487,0.662l0.312,0.643
		l0.195,0.585l0.078,0.507l0.039,0.39l-0.019,0.253v10.405l-0.097,1.228l-0.253,1.072l-0.409,0.896l-0.507,0.74l-0.585,0.604
		l-0.643,0.487l-0.682,0.37l-0.682,0.273l-0.643,0.195l-0.585,0.136l-0.507,0.078l-0.409,0.039H136.77l-1.344,0.097l-1.15,0.273
		l-0.974,0.429l-0.799,0.526l-0.643,0.623l-0.526,0.682l-0.39,0.701l-0.292,0.721l-0.195,0.682l-0.136,0.623l-0.078,0.526
		l-0.039,0.409v5.962h-4.345l-0.409-0.058l-0.546-0.136l-0.623-0.234l-0.682-0.351l-0.701-0.507l-0.701-0.701l-0.682-0.896
		l-0.623-1.15l-0.546-1.422l-0.409-1.715l-0.273-2.046l-0.097-2.397l0.117-2.377l0.312-2.026l0.468-1.695l0.623-1.383l0.701-1.111
		l0.779-0.857l0.818-0.643l0.818-0.468l0.779-0.312l0.701-0.195l0.623-0.097l0.468-0.019h0.312l0.117,0.019h15.899v-1.617h-11.379
		l-0.019-5.358l-0.039-0.721l0.097-0.662l0.214-0.604l0.331-0.546l0.487-0.507l0.604-0.448l0.74-0.39l0.857-0.351l0.994-0.292
		l1.13-0.234l1.247-0.195l1.383-0.117l1.5-0.078l1.637-0.039l2.474,0.097L147.448,45.633L147.448,45.633z M135.173,49.491
		l-0.448,0.643l-0.156,0.799l0.156,0.799l0.448,0.662l0.643,0.429l0.799,0.175l0.799-0.175l0.643-0.429l0.448-0.662l0.156-0.799
		l-0.156-0.799l-0.448-0.643l-0.643-0.429l-0.799-0.175l-0.799,0.175L135.173,49.491z"/>
	<path fill="#2C97E8" d="M160.678,57.187l0.546,0.117l0.623,0.234l0.682,0.351l0.701,0.526l0.701,0.682l0.682,0.916l0.623,1.15
		l0.546,1.422l0.409,1.715l0.273,2.026l0.097,2.397l-0.117,2.397l-0.312,2.026l-0.468,1.676l-0.623,1.383l-0.701,1.111l-0.779,0.877
		l-0.818,0.643l-0.818,0.468l-0.779,0.312l-0.701,0.175l-0.624,0.097l-0.468,0.039l-0.312-0.019h-16.016v1.598h11.379l0.019,5.378
		l0.039,0.701l-0.097,0.662l-0.214,0.604l-0.331,0.565l-0.487,0.487l-0.604,0.468l-0.74,0.39l-0.857,0.331l-0.994,0.292l-1.13,0.253
		l-1.247,0.175l-1.383,0.136l-1.5,0.078l-1.637,0.019l-2.474-0.078l-2.085-0.273l-1.754-0.39l-1.422-0.487l-1.15-0.585l-0.877-0.643
		l-0.662-0.662l-0.487-0.662l-0.312-0.643l-0.195-0.585l-0.078-0.487l-0.039-0.39l0.019-0.253V75.503l0.097-1.247l0.253-1.052
		l0.409-0.896l0.507-0.74l0.585-0.623l0.643-0.468l0.682-0.39l0.682-0.273l0.643-0.195l0.585-0.117l0.507-0.078l0.409-0.039
		l0.253-0.019h11.379l1.344-0.097l1.15-0.273l0.974-0.409l0.799-0.546l0.643-0.623l0.526-0.682l0.39-0.701l0.292-0.701l0.195-0.682
		l0.136-0.623l0.078-0.546l0.039-0.409v-5.962h4.072l0.273,0.019L160.678,57.187L160.678,57.187z M148.071,84.952l-0.448,0.643
		l-0.156,0.799l0.156,0.799l0.448,0.643l0.643,0.448l0.799,0.156l0.799-0.156l0.643-0.448l0.448-0.643l0.156-0.799l-0.156-0.799
		l-0.448-0.643l-0.643-0.448l-0.799-0.156l-0.799,0.156L148.071,84.952z"/>
	<path fill="#2C97E8" d="M339.485,35.082c-0.733,0-1.493,0.19-2.117,0.543l-20.195,11.672c-1.303,0.76-2.117,2.171-2.117,3.691
		v23.29c0,1.52,0.814,2.931,2.117,3.692l5.293,3.04c2.579,1.249,3.447,1.276,4.642,1.276c3.8,0,5.999-2.307,5.999-6.325V52.97
		c0-0.326-0.272-0.597-0.597-0.597h-2.524c-0.353,0-0.624,0.271-0.624,0.597v22.991c0,1.791-1.846,3.556-4.805,2.063l-5.564-3.176
		c-0.19-0.136-0.299-0.353-0.299-0.57v-23.29c0-0.244,0.109-0.461,0.299-0.57l20.195-11.645c0.163-0.109,0.434-0.109,0.597,0
		l20.195,11.645c0.19,0.109,0.299,0.326,0.299,0.57v23.29c0,0.217-0.108,0.434-0.299,0.57l-20.195,11.645
		c-0.163,0.109-0.434,0.109-0.624,0l-5.103-3.094c-0.217-0.081-0.434-0.109-0.57-0.027c-1.439,0.814-1.71,0.977-3.04,1.384
		c-0.326,0.108-0.842,0.299,0.19,0.869l6.731,3.99c0.652,0.38,1.358,0.57,2.117,0.57c0.76,0,1.466-0.19,2.117-0.57l20.195-11.645
		c1.303-0.76,2.117-2.172,2.117-3.692v-23.29c0-1.52-0.814-2.931-2.117-3.691l-20.195-11.672
		C340.978,35.272,340.245,35.082,339.485,35.082 M344.914,51.776c-5.754,0-9.202,2.416-9.202,6.487c0,4.37,3.42,5.646,8.958,6.189
		c6.596,0.651,7.112,1.628,7.112,2.931c0,2.253-1.819,3.203-6.053,3.203c-5.375,0-6.515-1.33-6.922-3.99
		c-0.054-0.271-0.299-0.489-0.597-0.489h-2.606c-0.326,0-0.57,0.244-0.57,0.597c0,3.366,1.846,7.438,10.695,7.438
		c6.379,0,10.043-2.525,10.043-6.922c0-4.37-2.931-5.51-9.148-6.352c-6.27-0.814-6.894-1.248-6.894-2.714
		c0-1.221,0.543-2.85,5.184-2.85c4.072,0,5.673,0.896,6.297,3.692c0.054,0.271,0.299,0.461,0.57,0.461h2.633
		c0.136,0,0.299-0.054,0.407-0.19c0.108-0.109,0.19-0.271,0.136-0.434C354.577,54.002,351.374,51.776,344.914,51.776L344.914,51.776
		z M344.914,51.776"/>
	<rect x="434.649" y="134.986" fill="none" width="48.897" height="55.176"/>
	<text transform="matrix(1 0 0 1 217.6447 181.7705)" fill="#2C97E8" font-family="'FZLTTHK--GBK1-0'" font-size="21.5987px">&lt; / &gt;</text>
	<path fill="#2C97E8" d="M98.699,46.993h-2.236v-2.236c0-0.973-0.796-1.769-1.77-1.769c-0.973,0-1.77,0.797-1.77,1.769v2.236h-2.236
		c-0.973,0-1.77,0.797-1.77,1.771c0,0.973,0.796,1.769,1.77,1.769h2.236v2.236c0,0.974,0.796,1.769,1.77,1.769
		c0.973,0,1.77-0.796,1.77-1.769v-2.236h2.236c0.973,0,1.77-0.797,1.77-1.769C100.468,47.789,99.672,46.993,98.699,46.993z"/>
	<path fill="#2C97E8" d="M424.931,4.781h-2.236V2.546c0-0.973-0.796-1.769-1.77-1.769s-1.77,0.797-1.77,1.769v2.236h-2.236
		c-0.973,0-1.77,0.797-1.77,1.771c0,0.973,0.796,1.769,1.77,1.769h2.236v2.236c0,0.974,0.796,1.769,1.77,1.769
		s1.77-0.796,1.77-1.769V8.321h2.236c0.973,0,1.77-0.797,1.77-1.769C426.701,5.578,425.905,4.781,424.931,4.781z"/>
	<circle fill="none" stroke="#2C97E8" stroke-width="2.2355" stroke-miterlimit="10" cx="111.064" cy="30.986" r="4.634"/>
	<circle fill="none" stroke="#2C97E8" stroke-width="2.2355" stroke-miterlimit="10" cx="363.914" cy="191.534" r="4.634"/>
	<g>
		<path fill="#FFFFFF" d="M419.373,258.847h-34.156c-0.854,0-1.553-0.699-1.553-1.553v-27.287c0-0.854,0.699-1.553,1.553-1.553
			h34.156c0.854,0,1.553,0.699,1.553,1.553v27.287C420.926,258.148,420.227,258.847,419.373,258.847z"/>
		<path fill="none" stroke="#2C97E8" stroke-width="3.2714" stroke-miterlimit="10" d="M419.447,258.847h-34.305
			c-0.813,0-1.479-0.665-1.479-1.479v-45.502c0-0.813,0.665-1.479,1.479-1.479h34.305c0.813,0,1.479,0.665,1.479,1.479v45.502
			C420.926,258.181,420.261,258.847,419.447,258.847z"/>
		<circle fill="none" stroke="#2C97E8" stroke-width="3.2714" stroke-miterlimit="10" cx="430.051" cy="229.087" r="9.125"/>
	</g>
	<path fill="none" stroke="#2C97E8" stroke-width="2.9291" stroke-miterlimit="10" d="M490.514,42.543h-90.766
		c-4.06,0-7.381,3.321-7.381,7.382v78.369c0,4.061,3.322,7.382,7.381,7.382h14.06l5.193,5.193c1.149,1.149,3.013,1.149,4.162,0
		l5.193-5.193h62.157c4.06,0,7.381-3.321,7.381-7.382V49.925C497.896,45.864,494.574,42.543,490.514,42.543z"/>
	<g>
		<g>
			<path fill="#2C97E8" d="M420.919,61.508c3.283-1.504,6.361-3.283,9.232-5.335h7.387V92.49h-8.002V63.97
				c-2.6,1.917-5.473,3.488-8.617,4.719V61.508z"/>
			<path fill="#2C97E8" d="M459.493,92.9c-8.072-0.138-12.244-6.29-12.516-18.466c0.271-12.583,4.443-18.944,12.516-19.082
				c8.48,0.138,12.855,6.499,13.131,19.082C472.487,86.61,468.11,92.763,459.493,92.9z M459.698,60.687
				c-3.148,0.138-4.719,4.719-4.719,13.747c0,8.894,1.57,13.408,4.719,13.542c3.145-0.134,4.719-4.648,4.719-13.542
				C464.417,65.406,462.842,60.825,459.698,60.687z"/>
			<path fill="#2C97E8" d="M413.044,102.516c-0.943,1.682-1.908,3.076-2.871,4.143c-0.943,1.066-2.297,2.235-4.102,3.527
				l-1.17-1.907c1.271-0.697,2.502-1.682,3.65-2.974c0.924-1.066,1.805-2.358,2.646-3.917L413.044,102.516z M408.059,111.026v-2.071
				h12.469c-0.082,2.666-0.205,4.799-0.41,6.439s-0.533,2.769-1.025,3.425c-0.471,0.615-1.23,0.964-2.275,1.025h-3.938l-0.574-2.112
				c1.209,0.041,2.357,0.082,3.424,0.082c1.006,0,1.662-0.431,1.99-1.251c0.328-0.861,0.553-2.707,0.635-5.537h-4.43
				c-0.471,2.092-1.107,3.753-1.928,5.004c-1.066,1.497-2.645,2.851-4.736,4.04l-1.395-1.784c1.846-0.984,3.24-2.071,4.184-3.261
				c0.717-1.025,1.291-2.358,1.701-3.999H408.059z M423.831,108.381l-1.457,1.702c-3.158-2.03-5.373-4.655-6.623-7.896l1.865-1.046
				C418.723,104.197,420.796,106.617,423.831,108.381z"/>
			<path fill="#2C97E8" d="M429.979,101.511c-0.164,0.595-0.309,1.148-0.473,1.661h3.385v1.948h-4.082
				c-0.328,0.759-0.656,1.477-1.004,2.153h4.84v1.928h-1.969v1.928h2.357v1.969h-2.357v3.958c0.881-0.308,1.764-0.697,2.645-1.189
				l0.35,1.866c-1.457,0.738-3.139,1.333-5.045,1.825l-0.842-1.784c0.533-0.185,0.801-0.451,0.801-0.82v-3.855h-2.605v-1.969h2.605
				v-1.928H427.6v-1.559c-0.246,0.41-0.473,0.8-0.697,1.169l-1.703-1.087c1.312-2.092,2.236-4.307,2.77-6.645L429.979,101.511z
				 M439.782,101.101v3.425h3.998v9.659h-2.01v-0.964h-1.988v6.85h-2.113v-6.85h-1.906v0.964h-1.969v-9.659h3.875v-3.425H439.782z
				 M437.669,111.293v-4.799h-1.906v4.799H437.669z M441.77,111.293v-4.799h-1.988v4.799H441.77z"/>
			<path fill="#2C97E8" d="M448.76,101.634l2.133,0.349l-1.025,3.712h2.83c0.369-1.497,0.676-3.076,0.902-4.717l2.193,0.267
				c-0.246,1.579-0.533,3.056-0.881,4.45h9.33v2.03h-9.863c-0.205,0.615-0.391,1.189-0.574,1.764h8.121v1.805
				c-0.492,1.6-1.477,3.076-2.934,4.43c1.539,0.841,3.363,1.6,5.477,2.297l-1.107,2.03c-2.441-0.902-4.492-1.866-6.152-2.912
				c-1.6,1.107-3.549,2.112-5.846,3.015l-1.127-2.01c1.988-0.718,3.691-1.497,5.086-2.338c-1.252-1.025-2.195-2.092-2.852-3.22
				c-1.455,2.953-3.281,5.332-5.475,7.116l-1.129-1.989c2.77-2.461,4.84-5.783,6.234-9.987h-4.982L448.76,101.634z M457.106,114.574
				c1.211-0.984,2.092-2.051,2.646-3.158h-5.723C454.708,112.544,455.733,113.59,457.106,114.574z M462.766,104.115l-1.518,1.538
				c-0.799-1.046-1.947-2.153-3.465-3.302l1.455-1.395C460.633,102.003,461.823,103.049,462.766,104.115z"/>
			<path fill="#2C97E8" d="M478.266,106.515v2.317h5.6v6.973c0,1.477-0.76,2.215-2.236,2.215h-1.824l-0.514-1.969l1.682,0.082
				c0.555,0,0.842-0.267,0.842-0.779v-4.553h-3.549v9.208h-2.07v-9.208h-3.609v7.403h-2.051v-7.506
				c-0.883,0.861-1.846,1.702-2.871,2.502l-1.395-1.825c2.338-1.723,4.225-3.671,5.639-5.845h-4.941v-2.092h6.131
				c0.41-0.82,0.738-1.661,1.025-2.522l2.174,0.267c-0.246,0.779-0.533,1.518-0.82,2.256h9.516v2.092h-10.561
				c-0.656,1.148-1.395,2.256-2.215,3.302h3.979v-2.317H478.266z"/>
		</g>
	</g>
	<circle fill="#2C97E8" cx="69.38" cy="125.73" r="26.944"/>
	<path fill="#FFFFFF" d="M68.665,124.674c-1.811-1.814-3.9-3.395-4.863-5.917c-0.452-1.184-0.465-2.399,0.422-3.316
		c1.463-1.513,3.067-2.89,4.622-4.312c0.671-0.614,1.402-1.167,2.048-1.806c1.805-1.785,2.644-3.898,2.062-6.477
		c1.093,1.162,1.265,2.549,0.931,3.993c-0.571,2.467-2.227,4.211-4.063,5.816c-0.883,0.772-1.817,1.502-2.612,2.358
		c-1.843,1.986-1.97,3.95-0.499,6.23c0.708,1.097,1.439,2.179,2.161,3.268C68.804,124.566,68.734,124.62,68.665,124.674
		L68.665,124.674z M81.461,137.283c0.738,0.613-0.418,2.343-4.835,2.944c-23.86,2.452-22.64-0.413-22.674-1.022
		c-0.097-1.745,4.42-2.581,6.24-2.292c-1.213,0.468-4.547,2.514,0.075,2.676c3.316,0.173,6.644,0.412,9.955,0.294
		C73.348,139.772,81.43,138.534,81.461,137.283L81.461,137.283z M77.806,111.012c-1.298,0.868-2.457,1.575-3.537,2.387
		c-0.791,0.595-1.556,1.263-2.195,2.014c-1.035,1.216-1.034,2.148-0.177,3.515c0.342,0.546,0.696,1.086,1.079,1.604
		c0.805,1.089,0.778,2.248,0.05,3.279c-0.599,0.848-1.446,1.521-2.321,2.412c-0.038-0.364-0.068-0.432-0.046-0.468
		c1.136-1.855,1.109-2.301-0.255-4.082c-1.682-2.197-1.984-4.147-0.7-5.985c0.605-0.866,1.431-1.69,2.342-2.205
		c1.646-0.93,3.43-1.617,5.161-2.397C77.323,111.034,77.471,111.051,77.806,111.012L77.806,111.012z M75.283,135.808
		c-9.836,2.899-13.656-0.605-13.656-0.605l1.279-1.113c0.494,0.355,3.09,1.998,8.66,0.82L75.283,135.808L75.283,135.808z
		 M63.919,124.96c0,0-6.156,2.213,0.433,2.367c0.899,0.021,12.913-0.914,12.913-0.914s-7.752,2.21-14.683,2.018
		C53.303,127.504,63.913,124.954,63.919,124.96z M62.485,129.412c0,0-0.908,1.758,1.713,1.824
		c6.237,0.157,10.793-0.945,10.793-0.945s0.958,1.231,0.958,1.357c0,0-8.355,1.932-13.121,0.717
		C59.784,131.587,61.798,129.757,62.485,129.412L62.485,129.412z M83.685,139.627c-15.876,4.578-23.9,2.404-23.9,2.404
		s3.41,2.875,11.95,1.226C74.904,142.645,80.577,140.968,83.685,139.627z M77.357,132.339c0.723-0.469,1.395-0.815,1.957-1.292
		c0.798-0.677,1.609-1.377,2.237-2.202c0.594-0.78,0.678-1.753,0.102-2.648c-0.586-0.911-3.011-0.984-3.338-1.034
		c0.155-0.124,0.468-0.356,0.468-0.356s1.191-0.313,2.749-0.122c2.152,0.472,2.893,2.773,1.579,4.562
		C82.028,130.723,79.302,132.22,77.357,132.339L77.357,132.339z"/>
	<ellipse fill="#FFFFFF" cx="243.879" cy="46.259" rx="37.848" ry="19.907"/>
	<g>
		<path fill="#2C97E8" d="M229.119,38.65h-2.977l-1.624,8.351h2.643c1.753,0,3.059-0.331,3.917-0.99
			c0.858-0.662,1.435-1.763,1.735-3.308c0.29-1.482,0.158-2.529-0.391-3.138C231.869,38.956,230.771,38.65,229.119,38.65z"/>
		<path fill="#2C97E8" d="M244.855,24.399c-20.899,0-37.844,8.912-37.844,19.906s16.945,19.909,37.844,19.909
			s37.844-8.915,37.844-19.909S265.755,24.399,244.855,24.399z M234.575,47.897c-0.823,0.788-1.813,1.381-2.892,1.738
			c-1.06,0.341-2.413,0.517-4.052,0.517h-3.724l-1.031,5.301h-4.346l3.879-19.95h8.357c2.513,0,4.346,0.659,5.5,1.98
			c1.154,1.318,1.501,3.16,1.041,5.525c-0.176,0.936-0.501,1.838-0.962,2.671C235.893,46.484,235.303,47.225,234.575,47.897z
			 M247.265,50.152l1.712-8.827c0.199-1.003,0.123-1.69-0.214-2.053c-0.337-0.366-1.06-0.549-2.167-0.549h-3.444l-2.22,11.432
			h-4.314l3.879-19.953h4.311l-1.031,5.304h3.841c2.419,0,4.084,0.423,5.002,1.265s1.192,2.208,0.829,4.097l-1.804,9.284
			L247.265,50.152L247.265,50.152z M271.223,43.009c-0.173,0.937-0.498,1.839-0.962,2.671c-0.451,0.804-1.041,1.545-1.769,2.217
			c-0.824,0.786-1.811,1.38-2.892,1.738c-1.06,0.341-2.413,0.517-4.056,0.517h-3.721l-1.031,5.304h-4.346l3.879-19.95h8.354
			c2.513,0,4.346,0.659,5.5,1.98C271.334,38.802,271.684,40.643,271.223,43.009L271.223,43.009z"/>
		<path fill="#2C97E8" d="M263.039,38.65h-2.974l-1.627,8.351h2.643c1.757,0,3.062-0.331,3.917-0.99
			c0.858-0.662,1.435-1.763,1.738-3.308c0.29-1.482,0.155-2.529-0.394-3.138S264.689,38.65,263.039,38.65z"/>
	</g>
	<rect x="119.473" y="250.851" opacity="0.1" fill="#0B78F7" width="245.411" height="7.323"/>
	<path fill="#AFCDF9" stroke="#2C97E8" stroke-width="2.6288" stroke-miterlimit="10" d="M217.604,246.12
		c0.18,4.093,2.499,7.341,5.361,7.341h38.427c2.862,0,5.181-3.248,5.361-7.341H217.604z"/>
	<path fill="#2C97E8" d="M140.446,188.527H65.969c-0.985,0-1.79-0.805-1.79-1.79l0,0c0-0.984,0.805-1.79,1.79-1.79h74.477
		c0.984,0,1.79,0.806,1.79,1.79l0,0C142.236,187.721,141.431,188.527,140.446,188.527z"/>
	<path fill="#2C97E8" d="M56.186,188.527h-8.371c-0.985,0-1.79-0.805-1.79-1.79l0,0c0-0.985,0.806-1.79,1.79-1.79h8.371
		c0.985,0,1.79,0.805,1.79,1.79l0,0C57.976,187.721,57.17,188.527,56.186,188.527z"/>
	<path fill="#2C97E8" d="M140.447,212.042h-25.659c-0.984,0-1.79-0.805-1.79-1.79v0c0-0.984,0.806-1.79,1.79-1.79h25.659
		c0.984,0,1.79,0.805,1.79,1.79v0C142.237,211.236,141.431,212.042,140.447,212.042z"/>
	<path fill="#2C97E8" d="M366.562,153.565l-25.659,0c-0.984,0-1.79-0.805-1.79-1.79l0,0c0-0.985,0.806-1.79,1.79-1.79h25.659
		c0.984,0,1.79,0.805,1.79,1.79l0,0C368.352,152.759,367.546,153.565,366.562,153.565z"/>
	<path fill="#2C97E8" d="M374.135,228.956H341.1c-0.984,0-1.79-0.805-1.79-1.79v0c0-0.984,0.806-1.79,1.79-1.79h33.035
		c0.985,0,1.79,0.805,1.79,1.79v0C375.925,228.151,375.119,228.956,374.135,228.956z"/>
	<path fill="#2C97E8" d="M450.617,228.956h-10.818c-0.984,0-1.79-0.805-1.79-1.79v0c0-0.984,0.806-1.79,1.79-1.79h10.818
		c0.985,0,1.79,0.805,1.79,1.79v0C452.407,228.151,451.601,228.956,450.617,228.956z"/>
	<path fill="#2C97E8" d="M105.704,212.042H97.7c-0.985,0-1.79-0.806-1.79-1.79l0,0c0-0.984,0.806-1.79,1.79-1.79h8.005
		c0.985,0,1.79,0.806,1.79,1.79l0,0C107.494,211.237,106.689,212.042,105.704,212.042z"/>
	<rect x="387.954" y="228.454" opacity="0.17" fill="#0B78F7" width="31.416" height="28.744"/>
	<path fill="#2C97E8" d="M497.805,261.316H2.394c-0.809,0-1.465-0.656-1.465-1.465l0,0c0-0.809,0.656-1.465,1.465-1.465h495.412
		c0.809,0,1.465,0.656,1.465,1.465l0,0C499.27,260.661,498.614,261.316,497.805,261.316z"/>
</g>
</svg>
