<?xml version="1.0" encoding="utf-8"?>
<!-- Generator: Adobe Illustrator 21.0.0, SVG Export Plug-In . SVG Version: 6.00 Build 0)  -->
<svg version="1.0" id="图层_1" xmlns="http://www.w3.org/2000/svg" xmlns:xlink="http://www.w3.org/1999/xlink" x="0px" y="0px"
	 viewBox="0 0 500 264" enable-background="new 0 0 500 264" xml:space="preserve">
<rect x="130.18" y="86.239" fill="#FFFFFF" stroke="#2C97E8" stroke-width="3.1655" stroke-miterlimit="10" width="42.106" height="42.106"/>
<rect x="172.285" y="86.239" fill="#FFFFFF" stroke="#2C97E8" stroke-width="3.1655" stroke-miterlimit="10" width="42.106" height="42.106"/>
<rect x="214.391" y="86.239" fill="#FFFFFF" stroke="#2C97E8" stroke-width="3.1655" stroke-miterlimit="10" width="42.106" height="42.106"/>
<rect x="256.497" y="86.239" fill="#FFFFFF" stroke="#2C97E8" stroke-width="3.1655" stroke-miterlimit="10" width="42.106" height="42.106"/>
<rect x="298.603" y="86.239" fill="#FFFFFF" stroke="#2C97E8" stroke-width="3.1655" stroke-miterlimit="10" width="42.106" height="42.106"/>
<g>
	
		<line fill="#FFFFFF" stroke="#50A4F8" stroke-width="1.6699" stroke-miterlimit="10" x1="179.864" y1="93.046" x2="179.864" y2="121.538"/>
	
		<line fill="#FFFFFF" stroke="#50A4F8" stroke-width="1.6699" stroke-miterlimit="10" x1="186.601" y1="93.046" x2="186.601" y2="121.538"/>
	
		<line fill="#FFFFFF" stroke="#50A4F8" stroke-width="1.6699" stroke-miterlimit="10" x1="193.338" y1="93.046" x2="193.338" y2="121.538"/>
	
		<line fill="#FFFFFF" stroke="#50A4F8" stroke-width="1.6699" stroke-miterlimit="10" x1="200.075" y1="93.046" x2="200.075" y2="121.538"/>
	
		<line fill="#FFFFFF" stroke="#50A4F8" stroke-width="1.6699" stroke-miterlimit="10" x1="206.812" y1="93.046" x2="206.812" y2="121.538"/>
</g>
<g>
	
		<line fill="#FFFFFF" stroke="#50A4F8" stroke-width="1.6699" stroke-miterlimit="10" x1="137.759" y1="93.046" x2="137.759" y2="121.538"/>
	
		<line fill="#FFFFFF" stroke="#50A4F8" stroke-width="1.6699" stroke-miterlimit="10" x1="144.496" y1="93.046" x2="144.496" y2="121.538"/>
	
		<line fill="#FFFFFF" stroke="#50A4F8" stroke-width="1.6699" stroke-miterlimit="10" x1="151.232" y1="93.046" x2="151.232" y2="121.538"/>
	
		<line fill="#FFFFFF" stroke="#50A4F8" stroke-width="1.6699" stroke-miterlimit="10" x1="157.969" y1="93.046" x2="157.969" y2="121.538"/>
	
		<line fill="#FFFFFF" stroke="#50A4F8" stroke-width="1.6699" stroke-miterlimit="10" x1="164.706" y1="93.046" x2="164.706" y2="121.538"/>
</g>
<g>
	
		<line fill="#FFFFFF" stroke="#50A4F8" stroke-width="1.6699" stroke-miterlimit="10" x1="221.268" y1="93.046" x2="221.268" y2="121.538"/>
	
		<line fill="#FFFFFF" stroke="#50A4F8" stroke-width="1.6699" stroke-miterlimit="10" x1="228.005" y1="93.046" x2="228.005" y2="121.538"/>
	
		<line fill="#FFFFFF" stroke="#50A4F8" stroke-width="1.6699" stroke-miterlimit="10" x1="234.742" y1="93.046" x2="234.742" y2="121.538"/>
	
		<line fill="#FFFFFF" stroke="#50A4F8" stroke-width="1.6699" stroke-miterlimit="10" x1="241.479" y1="93.046" x2="241.479" y2="121.538"/>
	
		<line fill="#FFFFFF" stroke="#50A4F8" stroke-width="1.6699" stroke-miterlimit="10" x1="248.216" y1="93.046" x2="248.216" y2="121.538"/>
</g>
<g>
	
		<line fill="#FFFFFF" stroke="#50A4F8" stroke-width="1.6699" stroke-miterlimit="10" x1="264.076" y1="93.046" x2="264.076" y2="121.538"/>
	
		<line fill="#FFFFFF" stroke="#50A4F8" stroke-width="1.6699" stroke-miterlimit="10" x1="270.813" y1="93.046" x2="270.813" y2="121.538"/>
	
		<line fill="#FFFFFF" stroke="#50A4F8" stroke-width="1.6699" stroke-miterlimit="10" x1="277.55" y1="93.046" x2="277.55" y2="121.538"/>
	
		<line fill="#FFFFFF" stroke="#50A4F8" stroke-width="1.6699" stroke-miterlimit="10" x1="284.287" y1="93.046" x2="284.287" y2="121.538"/>
	
		<line fill="#FFFFFF" stroke="#50A4F8" stroke-width="1.6699" stroke-miterlimit="10" x1="291.024" y1="93.046" x2="291.024" y2="121.538"/>
</g>
<rect x="172.285" y="44.066" fill="#FFFFFF" stroke="#2C97E8" stroke-width="3.1655" stroke-miterlimit="10" width="42.106" height="42.106"/>
<rect x="214.391" y="44.066" fill="#FFFFFF" stroke="#2C97E8" stroke-width="3.1655" stroke-miterlimit="10" width="42.106" height="42.106"/>
<rect x="256.497" y="44.066" fill="#FFFFFF" stroke="#2C97E8" stroke-width="3.1655" stroke-miterlimit="10" width="42.106" height="42.106"/>
<g>
	
		<line fill="#FFFFFF" stroke="#50A4F8" stroke-width="1.6699" stroke-miterlimit="10" x1="179.864" y1="50.873" x2="179.864" y2="79.365"/>
	
		<line fill="#FFFFFF" stroke="#50A4F8" stroke-width="1.6699" stroke-miterlimit="10" x1="186.601" y1="50.873" x2="186.601" y2="79.365"/>
	
		<line fill="#FFFFFF" stroke="#50A4F8" stroke-width="1.6699" stroke-miterlimit="10" x1="193.338" y1="50.873" x2="193.338" y2="79.365"/>
	
		<line fill="#FFFFFF" stroke="#50A4F8" stroke-width="1.6699" stroke-miterlimit="10" x1="200.075" y1="50.873" x2="200.075" y2="79.365"/>
	
		<line fill="#FFFFFF" stroke="#50A4F8" stroke-width="1.6699" stroke-miterlimit="10" x1="206.812" y1="50.873" x2="206.812" y2="79.365"/>
</g>
<g>
	
		<line fill="#FFFFFF" stroke="#50A4F8" stroke-width="1.6699" stroke-miterlimit="10" x1="221.268" y1="50.873" x2="221.268" y2="79.365"/>
	
		<line fill="#FFFFFF" stroke="#50A4F8" stroke-width="1.6699" stroke-miterlimit="10" x1="228.005" y1="50.873" x2="228.005" y2="79.365"/>
	
		<line fill="#FFFFFF" stroke="#50A4F8" stroke-width="1.6699" stroke-miterlimit="10" x1="234.742" y1="50.873" x2="234.742" y2="79.365"/>
	
		<line fill="#FFFFFF" stroke="#50A4F8" stroke-width="1.6699" stroke-miterlimit="10" x1="241.479" y1="50.873" x2="241.479" y2="79.365"/>
	
		<line fill="#FFFFFF" stroke="#50A4F8" stroke-width="1.6699" stroke-miterlimit="10" x1="248.216" y1="50.873" x2="248.216" y2="79.365"/>
</g>
<g>
	
		<line fill="#FFFFFF" stroke="#50A4F8" stroke-width="1.6699" stroke-miterlimit="10" x1="264.076" y1="50.873" x2="264.076" y2="79.365"/>
	
		<line fill="#FFFFFF" stroke="#50A4F8" stroke-width="1.6699" stroke-miterlimit="10" x1="270.813" y1="50.873" x2="270.813" y2="79.365"/>
	
		<line fill="#FFFFFF" stroke="#50A4F8" stroke-width="1.6699" stroke-miterlimit="10" x1="277.55" y1="50.873" x2="277.55" y2="79.365"/>
	
		<line fill="#FFFFFF" stroke="#50A4F8" stroke-width="1.6699" stroke-miterlimit="10" x1="284.287" y1="50.873" x2="284.287" y2="79.365"/>
	
		<line fill="#FFFFFF" stroke="#50A4F8" stroke-width="1.6699" stroke-miterlimit="10" x1="291.024" y1="50.873" x2="291.024" y2="79.365"/>
</g>
<rect x="256.497" y="1.893" fill="#FFFFFF" stroke="#2C97E8" stroke-width="3.1655" stroke-miterlimit="10" width="42.106" height="42.106"/>
<g>
	
		<line fill="#FFFFFF" stroke="#50A4F8" stroke-width="1.6699" stroke-miterlimit="10" x1="264.076" y1="8.7" x2="264.076" y2="37.191"/>
	
		<line fill="#FFFFFF" stroke="#50A4F8" stroke-width="1.6699" stroke-miterlimit="10" x1="270.813" y1="8.7" x2="270.813" y2="37.191"/>
	
		<line fill="#FFFFFF" stroke="#50A4F8" stroke-width="1.6699" stroke-miterlimit="10" x1="277.55" y1="8.7" x2="277.55" y2="37.191"/>
	
		<line fill="#FFFFFF" stroke="#50A4F8" stroke-width="1.6699" stroke-miterlimit="10" x1="284.287" y1="8.7" x2="284.287" y2="37.191"/>
	
		<line fill="#FFFFFF" stroke="#50A4F8" stroke-width="1.6699" stroke-miterlimit="10" x1="291.024" y1="8.7" x2="291.024" y2="37.191"/>
</g>
<g>
	
		<line fill="#FFFFFF" stroke="#50A4F8" stroke-width="1.6699" stroke-miterlimit="10" x1="306.182" y1="93.046" x2="306.182" y2="121.538"/>
	
		<line fill="#FFFFFF" stroke="#50A4F8" stroke-width="1.6699" stroke-miterlimit="10" x1="312.919" y1="93.046" x2="312.919" y2="121.538"/>
	
		<line fill="#FFFFFF" stroke="#50A4F8" stroke-width="1.6699" stroke-miterlimit="10" x1="319.656" y1="93.046" x2="319.656" y2="121.538"/>
	
		<line fill="#FFFFFF" stroke="#50A4F8" stroke-width="1.6699" stroke-miterlimit="10" x1="326.393" y1="93.046" x2="326.393" y2="121.538"/>
	
		<line fill="#FFFFFF" stroke="#50A4F8" stroke-width="1.6699" stroke-miterlimit="10" x1="333.129" y1="93.046" x2="333.129" y2="121.538"/>
</g>
<path fill="#CCE6FF" stroke="#2C97E8" stroke-width="3.1655" stroke-miterlimit="10" d="M463.963,98.45
	c-14.182-7.221-30.599-8.706-45.847-4.149c-2.863-15.684-11.76-29.623-24.783-38.825l-4.909-3.866l-4.162,4.664
	c-7.863,10.611-11.336,23.843-9.697,36.946c0.663,8.985,3.873,17.595,9.255,24.821c-4.233,2.401-8.7,4.366-13.33,5.866
	c-8.872,2.907-18.147,4.404-27.484,4.432H83.835l-0.552,5.806c-2.069,19.299,1.081,38.799,9.12,56.465l3.547,7.033l0.405,0.663
	c24.366,40.236,72.973,61.078,119.607,61.078c33.264,0,63.591-5.849,90.341-17.377c21.3-9.18,40.332-21.961,56.773-38.258
	c13.42-13.302,25.114-28.947,34.905-46.888c4.04-7.403,7.757-15.197,11.137-23.379c22.856,1.167,46.238-5.413,57.422-26.624
	l2.847-5.413l-5.424-3.044V98.45z"/>
<path fill="#FFFFFF" stroke="#2C97E8" stroke-width="3.3399" stroke-miterlimit="10" d="M201.999,196.641
	c-7.584-0.225-13.571-6.515-13.422-14.101c0.15-7.585,6.379-13.636,13.966-13.563s13.699,6.242,13.703,13.829
	C216.126,190.559,209.75,196.749,201.999,196.641L201.999,196.641z"/>
<path fill="#A9CFFE" stroke="#1077F8" stroke-width="3.3399" stroke-miterlimit="10" d="M159.362,203.216"/>
<g>
	<path opacity="0.45" fill="#FFFFFF" d="M179.91,207.782c-14.121,3.564-28.899,5.478-44.129,5.478
		c-9.998,0-19.794-1.526-29.349-3.094c28.021,31.798,66.429,46.897,109.151,47.593c6.253,0.102,16.506-0.435,22.554-0.835
		C212.986,247.498,192.268,231.336,179.91,207.782z"/>
</g>
<circle fill="#2C97E8" cx="202.632" cy="182.607" r="8.724"/>
<circle fill="#FFFFFF" cx="206.957" cy="175.69" r="3.226"/>
<g>
	<path fill="#5FACFF" d="M464.985,140.38c-7.234,7.264-21.769,12.235-38.557,12.235c-16.893,0-31.5-5.036-38.686-12.375
		c-8.35,7.339-25.323,12.375-44.952,12.375c-20.953,0-38.919-5.727-46.555-13.881c-7.637,8.154-25.603,13.881-46.556,13.881
		c-19.214,0-35.915-4.816-44.445-11.903c-8.53,7.087-25.231,11.903-44.445,11.903c-19.928,0-37.108-5.192-45.316-12.714
		c-7.064,7.522-21.849,12.714-38.999,12.714c-15.395,0-28.887-4.185-36.603-10.479C33.576,149.716,19.568,155.147,3,155.738v0.62
		h494.5v-0.507C482.026,154.147,469.581,148.167,464.985,140.38z"/>
</g>
<path fill="#FFFFFF" d="M388.616,54.723c0,0-7.485,6.269-11.228,22.082s2.246,29.568,4.398,33.872
	c2.152,4.304,5.521,8.234,5.521,8.234s-8.016-18.21-6.55-36.492C382.4,61.928,388.616,54.723,388.616,54.723z"/>
<path fill="#FFFFFF" d="M343.516,130.607H86.109c0,0-0.772,3.691-1.123,8.126c-0.351,4.435-0.14,8.208,0,10.216
	c0.14,2.008,0.211-10.834,4.281-12.939C93.337,133.906,327.656,130.677,343.516,130.607z"/>
<path fill="#2C97E8" d="M103.109,208.187c0,0,39.307,6.473,73.893-0.039s-17.105,7.623-40.878,7.654
	c-12.316,0.016-28.032-0.872-28.032-0.872L103.109,208.187z"/>
<rect x="263.317" y="3.373" opacity="0.2" fill="#1077F8" width="33.572" height="38.997"/>
<rect x="263.269" y="45.732" opacity="0.2" fill="#1077F8" width="33.759" height="38.76"/>
<rect x="220.455" y="45.81" opacity="0.2" fill="#1077F8" width="34.511" height="38.617"/>
<rect x="179.053" y="45.81" opacity="0.2" fill="#1077F8" width="33.763" height="38.617"/>
<rect x="220.455" y="87.984" opacity="0.2" fill="#1077F8" width="34.467" height="38.617"/>
<rect x="179.053" y="87.984" opacity="0.2" fill="#1077F8" width="33.808" height="38.617"/>
<rect x="136.971" y="87.984" opacity="0.2" fill="#1077F8" width="33.739" height="38.617"/>
<rect x="305.401" y="87.984" opacity="0.2" fill="#1077F8" width="33.732" height="38.617"/>
<rect x="263.248" y="87.984" opacity="0.2" fill="#1077F8" width="33.824" height="38.617"/>
<circle fill="#F8FCFF" stroke="#2C97E8" stroke-width="3.6805" stroke-miterlimit="10" cx="353.715" cy="200.688" r="43.706"/>
<path fill="#FFFFFF" stroke="#2C97E8" stroke-width="3.1655" stroke-miterlimit="10" d="M415.86,190.909h-8.786
	c-0.857-11.572-5.572-22.072-12.643-30.429l6.214-6.214c1.714-1.715,1.928-4.072,0.642-5.358l-1.286-1.286
	c-1.286-1.286-3.857-1.072-5.357,0.643l-6.214,6.214c-8.358-7.072-18.858-11.786-30.43-12.644v-8.786c0-2.357-1.5-4.286-3.428-4.286
	h-1.714c-1.929,0-3.429,1.929-3.429,4.286v8.786c-11.571,0.858-22.071,5.572-30.429,12.644l-6.214-6.214
	c-1.714-1.715-4.072-1.929-5.357-0.643l-1.286,1.286c-1.286,1.286-1.071,3.858,0.643,5.358L313,160.48
	c-7.072,8.357-11.786,18.857-12.644,30.429h-8.786c-2.357,0-4.285,1.5-4.285,3.429v1.714c0,1.928,1.928,3.428,4.285,3.428h8.786
	c0.857,11.572,5.358,22.286,12.429,30.644l-6.214,6.214c-1.715,1.714-1.929,4.071-0.643,5.357l1.286,1.286
	c1.286,1.286,3.858,1.072,5.358-0.642l6.214-6.214c8.357,7.071,18.857,11.786,30.429,12.643v8.786c0,2.358,1.5,4.286,3.429,4.286
	h1.714c1.928,0,3.428-1.928,3.428-4.286v-8.786c11.572-0.857,22.072-5.572,30.429-12.643l6.215,6.214
	c1.714,1.714,4.071,1.928,5.357,0.642l1.286-1.286c1.286-1.286,1.072-3.857-0.642-5.357l-6.215-6.214
	c7.286-8.358,11.786-19.072,12.858-30.644h8.786c2.358,0,4.286-1.5,4.286-3.428v-1.714
	C420.146,192.624,418.217,190.909,415.86,190.909L415.86,190.909z M394.216,190.909h-26.143c-0.214-1.072-0.643-1.928-1.072-2.786
	l18.43-18.429C390.145,175.695,393.359,182.981,394.216,190.909L394.216,190.909z M379.216,163.694l-18.429,18.429
	c-0.858-0.428-1.928-0.857-2.786-1.071v-26.144C365.929,155.551,373.215,158.766,379.216,163.694L379.216,163.694z M349.429,154.909
	v26.144c-1.071,0.214-1.928,0.642-2.786,1.071l-18.429-18.429C334,158.766,341.286,155.551,349.429,154.909L349.429,154.909z
	 M322,169.695l18.429,18.429c-0.428,0.857-0.857,1.929-1.071,2.786h-26.144C314.072,182.981,317.072,175.695,322,169.695
	L322,169.695z M313.214,199.481h26.144c0.214,1.072,0.642,1.928,1.071,2.786L322,220.696
	C317.072,214.91,314.072,207.624,313.214,199.481L313.214,199.481z M328,226.91l18.429-18.429c0.857,0.428,1.929,0.858,2.786,1.072
	v26.143C341.286,234.839,334,231.839,328,226.91L328,226.91z M358.001,235.696v-25.929c1.072-0.214,1.928-0.644,2.786-1.072
	l18.429,18.43C373.215,231.839,365.929,234.839,358.001,235.696L358.001,235.696z M385.216,220.91l-18.429-18.429
	c0.428-0.858,0.858-1.928,1.072-2.786h26.357C393.359,207.624,390.145,214.91,385.216,220.91L385.216,220.91z M385.216,220.91"/>
</svg>
