<?xml version="1.0" encoding="utf-8"?>
<!-- Generator: Adobe Illustrator 21.0.0, SVG Export Plug-In . SVG Version: 6.00 Build 0)  -->
<svg version="1.0" id="图层_1" xmlns="http://www.w3.org/2000/svg" xmlns:xlink="http://www.w3.org/1999/xlink" x="0px" y="0px"
	 viewBox="0 0 538.667 264" enable-background="new 0 0 538.667 264" xml:space="preserve">
<g>
	<path fill="#E2E2E2" stroke="#848484" stroke-width="1.6515" stroke-miterlimit="10" d="M515.508,100.266h-87.847c-2.2,0-4-1.8-4-4
		V76.403c0-2.2,1.8-4,4-4h87.847c2.2,0,4,1.8,4,4v19.863C519.508,98.466,517.708,100.266,515.508,100.266z"/>
	<path fill="#FFFFFF" stroke="#848484" stroke-width="1.6515" stroke-miterlimit="10" d="M498.959,100.266h-71.842c-2.2,0-4-1.8-4-4
		V76.403c0-2.2,1.8-4,4-4h71.842c2.2,0,4,1.8,4,4v19.863C502.959,98.466,501.159,100.266,498.959,100.266z"/>
	<circle fill="#E2E2E2" stroke="#848484" stroke-width="1.0319" stroke-miterlimit="10" cx="437.081" cy="86.335" r="5.547"/>
	<path fill="#E2E2E2" stroke="#848484" stroke-width="1.0319" stroke-miterlimit="10" d="M456.61,94.461L456.61,94.461
		c-1.462,0-2.658-1.196-2.658-2.658V80.866c0-1.462,1.196-2.658,2.658-2.658l0,0c1.462,0,2.658,1.196,2.658,2.658v10.937
		C459.268,93.265,458.072,94.461,456.61,94.461z"/>
	<path fill="#E2E2E2" stroke="#848484" stroke-width="1.0319" stroke-miterlimit="10" d="M465.269,94.461L465.269,94.461
		c-1.462,0-2.658-1.196-2.658-2.658V80.866c0-1.462,1.196-2.658,2.658-2.658l0,0c1.462,0,2.658,1.196,2.658,2.658v10.937
		C467.927,93.265,466.731,94.461,465.269,94.461z"/>
	<path fill="#E2E2E2" stroke="#848484" stroke-width="1.0319" stroke-miterlimit="10" d="M473.928,94.461L473.928,94.461
		c-1.462,0-2.658-1.196-2.658-2.658V80.866c0-1.462,1.196-2.658,2.658-2.658l0,0c1.462,0,2.658,1.196,2.658,2.658v10.937
		C476.586,93.265,475.39,94.461,473.928,94.461z"/>
	<path fill="#E2E2E2" stroke="#848484" stroke-width="1.0319" stroke-miterlimit="10" d="M482.587,94.461L482.587,94.461
		c-1.462,0-2.658-1.196-2.658-2.658V80.866c0-1.462,1.196-2.658,2.658-2.658l0,0c1.462,0,2.658,1.196,2.658,2.658v10.937
		C485.246,93.265,484.05,94.461,482.587,94.461z"/>
	<path fill="#E2E2E2" stroke="#848484" stroke-width="1.0319" stroke-miterlimit="10" d="M491.247,94.461L491.247,94.461
		c-1.462,0-2.658-1.196-2.658-2.658V80.866c0-1.462,1.196-2.658,2.658-2.658l0,0c1.462,0,2.658,1.196,2.658,2.658v10.937
		C493.905,93.265,492.709,94.461,491.247,94.461z"/>
</g>
<g>
	<path fill="#AFCDF9" stroke="#2C97E8" stroke-width="1.6515" stroke-miterlimit="10" d="M515.508,154.301h-87.847c-2.2,0-4-1.8-4-4
		v-19.863c0-2.2,1.8-4,4-4h87.847c2.2,0,4,1.8,4,4v19.863C519.508,152.501,517.708,154.301,515.508,154.301z"/>
	<path fill="#FFFFFF" stroke="#2C97E8" stroke-width="1.6515" stroke-miterlimit="10" d="M498.959,154.301h-71.842c-2.2,0-4-1.8-4-4
		v-19.863c0-2.2,1.8-4,4-4h71.842c2.2,0,4,1.8,4,4v19.863C502.959,152.501,501.159,154.301,498.959,154.301z"/>
	<circle fill="#63D18C" stroke="#2C97E8" stroke-width="1.0319" stroke-miterlimit="10" cx="437.081" cy="140.37" r="5.547"/>
	<path fill="#AFCDF9" stroke="#2C97E8" stroke-width="1.0319" stroke-miterlimit="10" d="M456.61,148.497L456.61,148.497
		c-1.462,0-2.658-1.196-2.658-2.658v-10.937c0-1.462,1.196-2.658,2.658-2.658l0,0c1.462,0,2.658,1.196,2.658,2.658v10.937
		C459.268,147.3,458.072,148.497,456.61,148.497z"/>
	<path fill="#AFCDF9" stroke="#2C97E8" stroke-width="1.0319" stroke-miterlimit="10" d="M465.269,148.497L465.269,148.497
		c-1.462,0-2.658-1.196-2.658-2.658v-10.937c0-1.462,1.196-2.658,2.658-2.658l0,0c1.462,0,2.658,1.196,2.658,2.658v10.937
		C467.927,147.3,466.731,148.497,465.269,148.497z"/>
	<path fill="#AFCDF9" stroke="#2C97E8" stroke-width="1.0319" stroke-miterlimit="10" d="M473.928,148.497L473.928,148.497
		c-1.462,0-2.658-1.196-2.658-2.658v-10.937c0-1.462,1.196-2.658,2.658-2.658l0,0c1.462,0,2.658,1.196,2.658,2.658v10.937
		C476.586,147.3,475.39,148.497,473.928,148.497z"/>
	<path fill="#AFCDF9" stroke="#2C97E8" stroke-width="1.0319" stroke-miterlimit="10" d="M482.587,148.497L482.587,148.497
		c-1.462,0-2.658-1.196-2.658-2.658v-10.937c0-1.462,1.196-2.658,2.658-2.658l0,0c1.462,0,2.658,1.196,2.658,2.658v10.937
		C485.246,147.3,484.05,148.497,482.587,148.497z"/>
	<path fill="#AFCDF9" stroke="#2C97E8" stroke-width="1.0319" stroke-miterlimit="10" d="M491.247,148.497L491.247,148.497
		c-1.462,0-2.658-1.196-2.658-2.658v-10.937c0-1.462,1.196-2.658,2.658-2.658l0,0c1.462,0,2.658,1.196,2.658,2.658v10.937
		C493.905,147.3,492.709,148.497,491.247,148.497z"/>
</g>
<g>
	<path fill="#AFCDF9" stroke="#1077F8" stroke-width="1.6515" stroke-miterlimit="10" d="M515.508,208.336h-87.847c-2.2,0-4-1.8-4-4
		v-19.863c0-2.2,1.8-4,4-4h87.847c2.2,0,4,1.8,4,4v19.863C519.508,206.536,517.708,208.336,515.508,208.336z"/>
	<path fill="#FFFFFF" stroke="#1077F8" stroke-width="1.6515" stroke-miterlimit="10" d="M498.959,208.336h-71.842c-2.2,0-4-1.8-4-4
		v-19.863c0-2.2,1.8-4,4-4h71.842c2.2,0,4,1.8,4,4v19.863C502.959,206.536,501.159,208.336,498.959,208.336z"/>
	<circle fill="#63D18C" stroke="#1077F8" stroke-width="1.0319" stroke-miterlimit="10" cx="437.081" cy="194.405" r="5.547"/>
	<path fill="#AFCDF9" stroke="#1077F8" stroke-width="1.0319" stroke-miterlimit="10" d="M456.61,202.532L456.61,202.532
		c-1.462,0-2.658-1.196-2.658-2.658v-10.937c0-1.462,1.196-2.658,2.658-2.658l0,0c1.462,0,2.658,1.196,2.658,2.658v10.937
		C459.268,201.336,458.072,202.532,456.61,202.532z"/>
	<path fill="#AFCDF9" stroke="#1077F8" stroke-width="1.0319" stroke-miterlimit="10" d="M465.269,202.532L465.269,202.532
		c-1.462,0-2.658-1.196-2.658-2.658v-10.937c0-1.462,1.196-2.658,2.658-2.658l0,0c1.462,0,2.658,1.196,2.658,2.658v10.937
		C467.927,201.336,466.731,202.532,465.269,202.532z"/>
	<path fill="#AFCDF9" stroke="#1077F8" stroke-width="1.0319" stroke-miterlimit="10" d="M473.928,202.532L473.928,202.532
		c-1.462,0-2.658-1.196-2.658-2.658v-10.937c0-1.462,1.196-2.658,2.658-2.658l0,0c1.462,0,2.658,1.196,2.658,2.658v10.937
		C476.586,201.336,475.39,202.532,473.928,202.532z"/>
	<path fill="#AFCDF9" stroke="#1077F8" stroke-width="1.0319" stroke-miterlimit="10" d="M482.587,202.532L482.587,202.532
		c-1.462,0-2.658-1.196-2.658-2.658v-10.937c0-1.462,1.196-2.658,2.658-2.658l0,0c1.462,0,2.658,1.196,2.658,2.658v10.937
		C485.246,201.336,484.05,202.532,482.587,202.532z"/>
	<path fill="#AFCDF9" stroke="#1077F8" stroke-width="1.0319" stroke-miterlimit="10" d="M491.247,202.532L491.247,202.532
		c-1.462,0-2.658-1.196-2.658-2.658v-10.937c0-1.462,1.196-2.658,2.658-2.658l0,0c1.462,0,2.658,1.196,2.658,2.658v10.937
		C493.905,201.336,492.709,202.532,491.247,202.532z"/>
</g>
<g>
	<path fill="#2C97E8" d="M303.601,32.76h5.01v2.145h-7.459V23.14h2.449V32.76z"/>
	<path fill="#2C97E8" d="M317.011,30.743v0.752h-5.49c0.049,1.041,0.688,1.633,1.857,1.633c0.8,0,1.424-0.352,1.776-0.832
		l1.616,1.312c-0.848,0.977-1.92,1.457-3.441,1.457c-2.545,0-4.178-1.761-4.178-4.194c0-2.433,1.665-4.242,4.082-4.242
		C315.778,26.629,317.011,28.519,317.011,30.743z M311.52,30.007h3.17c-0.032-0.912-0.576-1.601-1.537-1.601
		C312.193,28.406,311.569,29.078,311.52,30.007z"/>
	<path fill="#2C97E8" d="M323.922,27.702l0.128-0.913h2.113v8.115h-2.113l-0.128-0.896c-0.416,0.577-1.2,1.057-2.368,1.057
		c-2.162,0-3.618-1.777-3.618-4.209c0-2.434,1.456-4.226,3.618-4.226C322.721,26.629,323.506,27.109,323.922,27.702z
		 M320.305,30.855c0,1.328,0.752,2.161,1.825,2.161c0.816,0,1.312-0.432,1.664-1.008v-2.305c-0.352-0.576-0.848-1.024-1.664-1.024
		C321.056,28.678,320.305,29.511,320.305,30.855z"/>
	<path fill="#2C97E8" d="M335.875,30.231v4.674h-2.353v-4.546c0-0.896-0.496-1.521-1.329-1.521c-0.736,0-1.232,0.464-1.536,0.96
		v5.106h-2.354V26.79h2.113l0.111,0.896c0.4-0.592,1.186-1.056,2.305-1.056C334.803,26.629,335.875,28.038,335.875,30.231z"/>
	<path fill="#2C97E8" d="M347.54,24.692l-1.537,1.777c-0.625-0.736-1.521-1.313-2.721-1.313c-2.162,0-3.57,1.617-3.57,3.858
		c0,2.241,1.408,3.873,3.57,3.873c1.216,0,2.129-0.592,2.752-1.344l1.521,1.777c-1.168,1.28-2.561,1.792-4.273,1.792
		c-3.538,0-6.035-2.609-6.035-6.098c0-3.474,2.497-6.083,6.035-6.083C345.138,22.932,346.403,23.524,347.54,24.692z"/>
	<path fill="#2C97E8" d="M351.104,34.905h-2.354V22.74h2.354V34.905z"/>
	<path fill="#2C97E8" d="M361.171,30.871c0,2.433-1.825,4.194-4.29,4.194s-4.258-1.761-4.258-4.194c0-2.433,1.793-4.242,4.258-4.242
		S361.171,28.438,361.171,30.871z M354.992,30.871c0,1.232,0.8,2.145,1.889,2.145c1.104,0,1.905-0.913,1.905-2.145
		c0-1.249-0.801-2.193-1.905-2.193C355.792,28.678,354.992,29.623,354.992,30.871z"/>
	<path fill="#2C97E8" d="M370.003,34.905h-2.113l-0.111-0.88c-0.434,0.592-1.186,1.041-2.354,1.041c-1.921,0-2.93-1.393-2.93-3.57
		V26.79h2.354v4.578c0,0.881,0.447,1.489,1.248,1.489c0.769,0,1.232-0.464,1.553-0.96V26.79h2.354V34.905z"/>
	<path fill="#2C97E8" d="M379.73,34.905h-2.112l-0.129-0.896c-0.416,0.577-1.2,1.057-2.369,1.057c-2.16,0-3.617-1.777-3.617-4.209
		c0-2.434,1.457-4.226,3.617-4.226c1.152,0,1.857,0.448,2.241,0.896V22.74h2.369V34.905z M373.872,30.855
		c0,1.328,0.752,2.161,1.824,2.161c0.816,0,1.312-0.432,1.665-1.008v-2.305c-0.353-0.576-0.849-1.024-1.665-1.024
		C374.624,28.678,373.872,29.511,373.872,30.855z"/>
</g>
<g>
	<path fill="#939393" d="M425.181,54.472v9.94h6.29v1.489h-8.019V54.472H425.181z"/>
	<path fill="#939393" d="M439.566,58.65c0.736,0.816,1.121,1.857,1.121,3.122c0,1.248-0.369,2.289-1.105,3.089
		c-0.768,0.833-1.775,1.265-3.024,1.265s-2.257-0.432-3.025-1.265c-0.736-0.8-1.104-1.841-1.104-3.089
		c0-1.265,0.368-2.305,1.121-3.122c0.752-0.833,1.76-1.249,3.009-1.249S438.814,57.817,439.566,58.65z M434.732,59.723
		c-0.384,0.528-0.561,1.216-0.561,2.049c0,0.832,0.177,1.504,0.561,2.032c0.433,0.608,1.041,0.929,1.825,0.929
		s1.393-0.32,1.841-0.929c0.384-0.544,0.576-1.216,0.576-2.032c0-0.833-0.192-1.521-0.576-2.049
		c-0.448-0.625-1.057-0.929-1.841-0.929S435.165,59.098,434.732,59.723z"/>
	<path fill="#939393" d="M448.91,60.011h-1.648c-0.128-0.448-0.32-0.752-0.592-0.929c-0.289-0.192-0.736-0.288-1.312-0.288
		c-0.513,0-0.896,0.064-1.152,0.224c-0.305,0.16-0.449,0.417-0.449,0.736c0,0.288,0.225,0.528,0.673,0.736
		c0.288,0.128,0.832,0.288,1.665,0.496c0.943,0.224,1.648,0.497,2.096,0.785c0.656,0.416,0.993,0.992,0.993,1.729
		c0,1.745-1.232,2.625-3.682,2.625c-2.272,0-3.489-0.977-3.682-2.897h1.665c0.096,0.561,0.305,0.961,0.592,1.185
		c0.289,0.208,0.736,0.32,1.377,0.32c1.312,0,1.984-0.384,1.984-1.12c0-0.4-0.256-0.721-0.736-0.945
		c-0.256-0.128-0.816-0.288-1.664-0.48c-0.977-0.224-1.665-0.464-2.049-0.721c-0.641-0.4-0.961-0.96-0.961-1.664
		c0-0.753,0.305-1.345,0.929-1.761c0.624-0.433,1.44-0.641,2.433-0.641C447.533,57.401,448.719,58.266,448.91,60.011z"/>
	<path fill="#939393" d="M453.133,57.625h1.889v1.409h-1.889v4.802c0,0.224,0.048,0.384,0.145,0.496
		c0.096,0.096,0.239,0.16,0.447,0.16h1.089v1.409h-1.36c-0.705,0-1.232-0.192-1.553-0.56c-0.32-0.353-0.465-0.849-0.465-1.505
		v-4.802h-1.536v-1.409h1.536v-1.969l1.697-0.705V57.625z"/>
</g>
<g>
	<path fill="#2C97E8" d="M430.574,109.814c0.801,0.593,1.249,1.505,1.361,2.753h-1.729c-0.16-0.736-0.449-1.281-0.896-1.601
		c-0.448-0.336-1.088-0.497-1.953-0.497c-0.752,0-1.328,0.112-1.729,0.336c-0.496,0.256-0.736,0.672-0.736,1.249
		c0,0.512,0.271,0.912,0.848,1.217c0.257,0.144,0.913,0.384,1.985,0.704c1.536,0.48,2.546,0.848,2.993,1.12
		c0.977,0.593,1.473,1.409,1.473,2.465c0,1.024-0.4,1.825-1.2,2.417c-0.8,0.576-1.921,0.864-3.361,0.864
		c-1.393,0-2.481-0.288-3.266-0.833c-0.944-0.672-1.456-1.729-1.553-3.169h1.729c0.127,0.896,0.447,1.553,0.96,1.937
		c0.464,0.353,1.169,0.528,2.129,0.528c0.864,0,1.552-0.16,2.064-0.448s0.769-0.688,0.769-1.2c0-0.641-0.368-1.137-1.088-1.505
		c-0.257-0.128-1.009-0.384-2.273-0.769c-1.408-0.448-2.273-0.752-2.625-0.944c-0.881-0.528-1.312-1.296-1.312-2.289
		c0-1.008,0.416-1.792,1.264-2.369c0.801-0.544,1.81-0.816,3.025-0.816C428.782,108.966,429.822,109.238,430.574,109.814z"/>
	<path fill="#2C97E8" d="M436.156,112.344h1.889v1.409h-1.889v4.802c0,0.224,0.049,0.384,0.145,0.497
		c0.096,0.096,0.24,0.16,0.447,0.16h1.09v1.409h-1.361c-0.704,0-1.232-0.192-1.553-0.561c-0.32-0.352-0.464-0.848-0.464-1.504
		v-4.802h-1.536v-1.409h1.536v-1.969l1.696-0.704V112.344z"/>
	<path fill="#2C97E8" d="M445.822,113.032c0.496,0.528,0.752,1.296,0.752,2.305v5.282h-1.568v-1.168
		c-0.32,0.417-0.721,0.752-1.201,0.993c-0.544,0.256-1.184,0.4-1.92,0.4c-0.865,0-1.537-0.224-2.018-0.656
		c-0.527-0.432-0.784-0.993-0.784-1.681c0-0.928,0.368-1.649,1.104-2.145c0.672-0.48,1.633-0.72,2.85-0.752l1.856-0.048v-0.336
		c0-1.152-0.624-1.729-1.873-1.729c-0.528,0-0.96,0.096-1.28,0.288c-0.385,0.225-0.625,0.561-0.721,1.024l-1.68-0.144
		c0.176-0.896,0.623-1.569,1.328-1.985c0.607-0.384,1.44-0.56,2.465-0.56C444.35,112.12,445.246,112.424,445.822,113.032z
		 M443.148,116.842c-1.553,0.032-2.32,0.576-2.32,1.601c0,0.32,0.128,0.576,0.4,0.784c0.256,0.208,0.607,0.32,1.04,0.32
		c0.72,0,1.329-0.225,1.841-0.656c0.512-0.433,0.784-0.977,0.784-1.617v-0.479L443.148,116.842z"/>
	<path fill="#2C97E8" d="M450.203,108.966v4.61c0.672-0.977,1.505-1.457,2.529-1.457c1.185,0,2.113,0.432,2.801,1.296
		c0.625,0.801,0.945,1.809,0.945,3.025c0,1.265-0.32,2.305-0.961,3.105c-0.704,0.864-1.648,1.296-2.865,1.296
		c-1.137,0-1.984-0.417-2.561-1.216v0.992h-1.585v-11.653H450.203z M450.812,114.249c-0.448,0.544-0.656,1.265-0.656,2.161v0.145
		c0,0.832,0.177,1.504,0.528,2.033c0.4,0.576,0.977,0.88,1.713,0.88c0.832,0,1.44-0.304,1.841-0.896
		c0.319-0.512,0.496-1.217,0.496-2.129s-0.177-1.617-0.528-2.097c-0.4-0.576-1.024-0.849-1.857-0.849
		C451.708,113.496,451.195,113.736,450.812,114.249z"/>
	<path fill="#2C97E8" d="M459.963,108.966v11.653h-1.696v-11.653H459.963z"/>
	<path fill="#2C97E8" d="M468.67,113.496c0.64,0.833,0.976,1.985,0.992,3.458h-6.275c0.064,0.8,0.272,1.424,0.656,1.857
		c0.385,0.416,0.912,0.64,1.585,0.64c0.593,0,1.073-0.144,1.44-0.417c0.289-0.224,0.528-0.592,0.752-1.072h1.697
		c-0.191,0.769-0.561,1.425-1.137,1.937c-0.72,0.625-1.633,0.944-2.736,0.944c-1.217,0-2.193-0.384-2.897-1.136
		c-0.769-0.801-1.153-1.873-1.153-3.233c0-1.232,0.354-2.257,1.09-3.089c0.703-0.848,1.68-1.265,2.896-1.265
		C466.925,112.12,467.965,112.568,468.67,113.496z M464.107,114.072c-0.352,0.368-0.592,0.896-0.688,1.601h4.465
		c-0.16-1.44-0.912-2.161-2.257-2.161C464.988,113.512,464.492,113.688,464.107,114.072z"/>
</g>
<g>
	<path fill="#1077F8" d="M425.213,162.943l5.842,8.499h0.064v-8.499h1.744v11.428h-1.696l-5.906-8.595h-0.063v8.595h-1.745v-11.428
		H425.213z"/>
	<path fill="#1077F8" d="M441.551,167.249c0.641,0.832,0.977,1.984,0.992,3.457h-6.274c0.063,0.8,0.272,1.425,0.656,1.856
		c0.384,0.416,0.913,0.641,1.585,0.641c0.592,0,1.072-0.145,1.44-0.416c0.288-0.225,0.528-0.592,0.752-1.072h1.696
		c-0.191,0.768-0.56,1.424-1.136,1.937c-0.72,0.624-1.633,0.944-2.737,0.944c-1.217,0-2.193-0.385-2.896-1.137
		c-0.77-0.8-1.153-1.873-1.153-3.233c0-1.232,0.353-2.257,1.089-3.089c0.704-0.849,1.681-1.265,2.896-1.265
		C439.807,165.872,440.846,166.32,441.551,167.249z M436.988,167.825c-0.352,0.368-0.592,0.896-0.688,1.601h4.465
		c-0.159-1.44-0.912-2.161-2.256-2.161C437.869,167.265,437.373,167.44,436.988,167.825z"/>
	<path fill="#1077F8" d="M444.973,166.096l1.744,6.259l1.697-6.259h1.568l1.697,6.259l1.744-6.259h1.873l-2.801,8.275h-1.569
		l-1.729-6.194l-1.729,6.194H445.9l-2.801-8.275H444.973z"/>
</g>
<path fill="#FFFFFF" stroke="#2C97E8" stroke-width="3" stroke-miterlimit="10" d="M39.247,211.361
	c-0.066,0-31.093-0.001-31.159-0.003c-3.304-0.106-5.974-2.841-5.974-6.169v-67.064c0-3.395,2.777-6.172,6.172-6.172h46.135"/>
<polyline fill="none" stroke="#92B4DD" stroke-width="1.0907" stroke-miterlimit="10" points="39.296,205.359 13.09,205.359 
	13.09,137.956 54.595,137.956 "/>
<path fill="#3F4E6F" d="M9.04,178.28L9.04,178.28c-0.53,0-0.964-0.434-0.964-0.964V166c0-0.53,0.434-0.964,0.964-0.964h0
	c0.53,0,0.964,0.434,0.964,0.964v11.315C10.004,177.846,9.57,178.28,9.04,178.28z"/>
<path fill="#3F4E6F" d="M4.989,170.693L4.989,170.693c-0.53,0-0.964,0.434-0.964,0.964l0,0c0,0.53,0.434,0.964,0.964,0.964h0
	c0.53,0,0.964-0.434,0.964-0.964l0,0C5.954,171.127,5.52,170.693,4.989,170.693z"/>
<path fill="#FFFFFF" stroke="#2C97E8" stroke-width="3" stroke-miterlimit="10" d="M57.279,200.284V75.603
	c0-3.395,2.777-6.172,6.172-6.172h170.175c3.395,0,6.172,2.777,6.172,6.172v32.186"/>
<polyline fill="none" stroke="#92B4DD" stroke-width="1.0907" stroke-miterlimit="10" points="65.396,193.355 65.396,77.746 
	231.682,77.746 231.682,107.566 "/>
<rect x="65.504" y="77.758" opacity="0.2" fill="#1077F8" width="166.287" height="115.609"/>
<rect x="13.09" y="137.956" opacity="0.2" fill="#1077F8" width="41.332" height="67.273"/>
<path fill="#FFFFFF" stroke="#2C97E8" stroke-width="3" stroke-miterlimit="10" d="M263.507,215.488h-43.928
	c-4.01,0-7.292-3.281-7.292-7.292v-88.012c0-4.01,3.281-7.292,7.292-7.292h43.928c4.01,0,7.292,3.281,7.292,7.292v88.012
	C270.799,212.206,267.518,215.488,263.507,215.488z"/>
<rect x="217.819" y="125.103" fill="#AFCDF9" stroke="#2C97E8" stroke-miterlimit="10" width="47.448" height="77.537"/>
<path fill="#455D82" d="M247.394,122.66h-11.701c-0.601,0-1.093-0.492-1.093-1.093v0c0-0.601,0.492-1.093,1.093-1.093h11.701
	c0.601,0,1.093,0.492,1.093,1.093v0C248.487,122.168,247.995,122.66,247.394,122.66z"/>
<path fill="#7F9ABA" d="M241.543,118.802L241.543,118.802c0.601,0,1.093-0.492,1.093-1.093l0,0c0-0.601-0.492-1.093-1.093-1.093h0
	c-0.601,0-1.093,0.492-1.093,1.093l0,0C240.45,118.311,240.942,118.802,241.543,118.802z"/>
<circle opacity="0.2" fill="#1077F8" cx="241.543" cy="208.685" r="3.456"/>
<g>
	<g>
		<line fill="none" stroke="#1077F8" stroke-miterlimit="10" x1="298.983" y1="115.475" x2="298.983" y2="112.597"/>
		<path fill="none" stroke="#1077F8" stroke-miterlimit="10" stroke-dasharray="5.7139,5.7139" d="M298.983,106.883V58.935
			c0-6.6,5.4-12,12-12h214.582c6.6,0,12,5.4,12,12v166.91c0,6.6-5.4,12-12,12H310.983c-6.6,0-12-5.4-12-12v-54.883"/>
		<line fill="none" stroke="#1077F8" stroke-miterlimit="10" x1="298.983" y1="168.106" x2="298.983" y2="165.229"/>
	</g>
</g>
<text transform="matrix(1 0 0 1 122.1248 146.688)" fill="#2C97E8" font-family="'FZLTTHK--GBK1-0'" font-size="22.1215px">&lt; / &gt;</text>
<path fill="#2C97E8" d="M274.675,144.355v-4.946c7.151,0,9.362-1.514,11.704-3.116c2.249-1.54,4.575-3.132,10.275-3.132v0.035
	c0.27-0.024,0.467-0.035,0.467-0.035l1.997-0.006l-1.552-3.928c-0.052-0.132-0.01-0.283,0.103-0.367
	c0.057-0.043,0.123-0.063,0.19-0.063c0.068,0,0.135,0.021,0.192,0.065l7.718,5.934c0.077,0.059,0.123,0.152,0.123,0.25
	c0,0.098-0.046,0.19-0.123,0.25l-7.718,5.934c-0.113,0.087-0.269,0.087-0.381,0.001c-0.113-0.085-0.155-0.235-0.103-0.367
	l1.552-3.929h-2.782c-4.286,0.052-5.859,1.12-7.829,2.468c-1.251,0.856-2.585,1.767-4.568,2.48c1.983,0.713,3.317,1.624,4.568,2.48
	c1.969,1.348,3.543,2.417,7.829,2.468h2.782l-1.552-3.929c-0.052-0.132-0.01-0.282,0.103-0.367c0.113-0.085,0.269-0.085,0.381,0.001
	l7.718,5.934c0.077,0.06,0.123,0.152,0.123,0.25c0,0.098-0.046,0.19-0.123,0.25l-7.718,5.934c-0.057,0.044-0.124,0.065-0.192,0.065
	c-0.067,0-0.133-0.021-0.19-0.063c-0.113-0.085-0.155-0.236-0.103-0.367l1.552-3.929l-1.997-0.006c0,0-0.197-0.011-0.467-0.035
	v0.035c-5.7,0-8.026-1.592-10.275-3.132C284.037,145.869,281.826,144.355,274.675,144.355L274.675,144.355z M274.675,144.355"/>
<line fill="#FFFFFF" stroke="#1077F8" stroke-width="1.6491" stroke-miterlimit="10" x1="381.557" y1="195.308" x2="381.557" y2="87.308"/>
<line fill="none" stroke="#1077F8" stroke-width="1.6491" stroke-miterlimit="10" x1="422.192" y1="87.308" x2="380.713" y2="87.308"/>
<line fill="none" stroke="#2C97E8" stroke-width="1.6491" stroke-miterlimit="10" x1="422.192" y1="140.308" x2="380.713" y2="140.308"/>
<line fill="none" stroke="#1077F8" stroke-width="1.6491" stroke-miterlimit="10" x1="423.192" y1="195.308" x2="381.713" y2="195.308"/>
<path fill="#AFCDF9" stroke="#2C97E8" stroke-width="1.6491" stroke-miterlimit="10" d="M405.219,154.749h-87.573c-2.2,0-4-1.8-4-4
	v-19.863c0-2.2,1.8-4,4-4h87.573c2.2,0,4,1.8,4,4v19.863C409.219,152.949,407.419,154.749,405.219,154.749z"/>
<path fill="#FFFFFF" stroke="#2C97E8" stroke-width="1.6491" stroke-miterlimit="10" d="M388.718,154.749h-71.613c-2.2,0-4-1.8-4-4
	v-19.863c0-2.2,1.8-4,4-4h71.613c2.2,0,4,1.8,4,4v19.863C392.718,152.949,390.918,154.749,388.718,154.749z"/>
<line fill="#FFFFFF" stroke="#2C97E8" stroke-width="1.626" stroke-miterlimit="10" x1="318.082" y1="141.231" x2="318.082" y2="136.916"/>
<line fill="#FFFFFF" stroke="#2C97E8" stroke-width="1.626" stroke-miterlimit="10" x1="323.722" y1="141.231" x2="323.722" y2="136.916"/>
<line fill="#FFFFFF" stroke="#2C97E8" stroke-width="1.626" stroke-miterlimit="10" x1="329.362" y1="141.231" x2="329.362" y2="136.916"/>
<path fill="#FFFFFF" stroke="#2C97E8" stroke-width="1.626" stroke-miterlimit="10" d="M392.718,135.562h-52.472
	c-3.071,0-5.562,2.49-5.562,5.562c0,3.072,2.49,5.562,5.562,5.562h52.472V135.562z"/>
<line fill="#FFFFFF" stroke="#2C97E8" stroke-width="1.626" stroke-miterlimit="10" x1="313.104" y1="141.231" x2="334.684" y2="141.231"/>
<g>
	<path fill="#63D18C" stroke="#2C97E8" stroke-width="0.516" stroke-miterlimit="10" d="M341.595,143.669L341.595,143.669
		c-1.406,0-2.545-1.14-2.545-2.545v0c0-1.406,1.14-2.545,2.545-2.545l0,0c1.406,0,2.545,1.14,2.545,2.545v0
		C344.14,142.53,343.001,143.669,341.595,143.669z"/>
	<path fill="#63D18C" stroke="#2C97E8" stroke-width="0.516" stroke-miterlimit="10" d="M350.437,143.669L350.437,143.669
		c-1.406,0-2.545-1.14-2.545-2.545v0c0-1.406,1.14-2.545,2.545-2.545h0c1.406,0,2.545,1.14,2.545,2.545v0
		C352.983,142.53,351.843,143.669,350.437,143.669z"/>
	<path fill="#63D18C" stroke="#2C97E8" stroke-width="0.516" stroke-miterlimit="10" d="M359.28,143.669L359.28,143.669
		c-1.406,0-2.545-1.14-2.545-2.545v0c0-1.406,1.14-2.545,2.545-2.545l0,0c1.406,0,2.545,1.14,2.545,2.545v0
		C361.825,142.53,360.685,143.669,359.28,143.669z"/>
	<path fill="#63D18C" stroke="#2C97E8" stroke-width="0.516" stroke-miterlimit="10" d="M368.122,143.669L368.122,143.669
		c-1.406,0-2.545-1.14-2.545-2.545v0c0-1.406,1.14-2.545,2.545-2.545l0,0c1.406,0,2.545,1.14,2.545,2.545v0
		C370.667,142.53,369.528,143.669,368.122,143.669z"/>
	<path fill="#63D18C" stroke="#2C97E8" stroke-width="0.516" stroke-miterlimit="10" d="M376.964,143.669L376.964,143.669
		c-1.406,0-2.545-1.14-2.545-2.545v0c0-1.406,1.14-2.545,2.545-2.545l0,0c1.406,0,2.545,1.14,2.545,2.545v0
		C379.51,142.53,378.37,143.669,376.964,143.669z"/>
	<path fill="#63D18C" stroke="#2C97E8" stroke-width="0.516" stroke-miterlimit="10" d="M385.807,143.669L385.807,143.669
		c-1.406,0-2.545-1.14-2.545-2.545v0c0-1.406,1.14-2.545,2.545-2.545l0,0c1.406,0,2.545,1.14,2.545,2.545v0
		C388.352,142.53,387.212,143.669,385.807,143.669z"/>
</g>
<circle fill="#FFFFFF" stroke="#1077F8" stroke-miterlimit="10" cx="381.557" cy="195.229" r="3"/>
<circle fill="#FFFFFF" stroke="#1077F8" stroke-miterlimit="10" cx="381.557" cy="87.229" r="3"/>
<polyline fill="#FFFFFF" stroke="#2C97E8" stroke-width="3" stroke-miterlimit="10" points="207.03,211.369 42.791,211.369 
	42.791,200.284 206.802,200.284 "/>
<circle fill="#FF6989" cx="78.426" cy="91.633" r="5.302"/>
<circle fill="#FFCC80" cx="93.092" cy="91.633" r="5.302"/>
<circle fill="#63D18C" cx="107.759" cy="91.633" r="5.302"/>
<path fill="#AFCDF9" stroke="#2C97E8" stroke-width="2" stroke-miterlimit="10" d="M126.08,200.934v1.987
	c0,1.306,1.058,2.364,2.364,2.364h40.407c1.305,0,2.364-1.058,2.364-2.364v-1.987H126.08z"/>
</svg>
