<?xml version="1.0" encoding="utf-8"?>
<!-- Generator: Adobe Illustrator 21.0.0, SVG Export Plug-In . SVG Version: 6.00 Build 0)  -->
<svg version="1.0" id="图层_1" xmlns="http://www.w3.org/2000/svg" xmlns:xlink="http://www.w3.org/1999/xlink" x="0px" y="0px"
	 viewBox="0 0 500 264" enable-background="new 0 0 500 264" xml:space="preserve">
<g>
	<g>
		<path fill="#D5E7FF" stroke="#4373F9" stroke-width="3.7828" stroke-miterlimit="10" d="M449.637,76.375"/>
		<path fill="#1077F8" d="M227.736,170.755h-44.082c-1.018,0-1.85-0.833-1.85-1.85l0,0c0-1.018,0.833-1.85,1.85-1.85h44.082
			c1.018,0,1.85,0.833,1.85,1.85l0,0C229.586,169.922,228.753,170.755,227.736,170.755z"/>
		<g opacity="0.4">
			<g>
				<path fill="#FFFFFF" stroke="#2C97E8" stroke-width="3.4819" stroke-miterlimit="10" d="M376.727,255.606h-54.388
					c-5.726,0-10.41-4.685-10.41-10.41V129.29c0-5.726,4.685-10.41,10.41-10.41h54.388c5.726,0,10.41,4.685,10.41,10.41v115.906
					C387.138,250.922,382.453,255.606,376.727,255.606z"/>
				<polyline fill="#FFFFFF" stroke="#A7CFFF" stroke-width="1.3928" stroke-miterlimit="10" points="319.241,141.86 
					319.241,136.986 379.826,136.986 379.826,239.586 319.241,239.586 319.241,167.8 				"/>
				<polyline fill="#FFFFFF" stroke="#A7CFFF" stroke-width="1.3928" stroke-miterlimit="10" points="319.241,164.681 
					319.241,156.832 319.241,144.921 				"/>
				<path fill="#455D82" d="M358.253,131.978h-17.44c-0.565,0-1.028-0.463-1.028-1.028v-0.385c0-0.565,0.463-1.028,1.028-1.028
					h17.44c0.565,0,1.028,0.463,1.028,1.028v0.385C359.281,131.516,358.818,131.978,358.253,131.978z"/>
				<path fill="#7F9ABA" d="M349.291,127.19h0.484c0.711,0,1.292-0.581,1.292-1.292v-0.484c0-0.711-0.582-1.292-1.292-1.292h-0.484
					c-0.711,0-1.292,0.581-1.292,1.292v0.484C347.999,126.609,348.58,127.19,349.291,127.19z"/>
				<path fill="#FFFFFF" stroke="#2C97E8" stroke-width="1.3928" stroke-miterlimit="10" d="M355.888,250.844h-12.709
					c-2.202,0-4.004-1.802-4.004-4.004v0c0-2.202,1.802-4.004,4.004-4.004h12.709c2.202,0,4.004,1.802,4.004,4.004v0
					C359.892,249.042,358.09,250.844,355.888,250.844z"/>
				<rect x="323.354" y="140.642" fill="#A7CFFF" width="55.711" height="98.016"/>
			</g>
			<path fill="#FFFFFF" d="M425.418,230.736h-40.667c-9.467,0-17.212-7.745-17.212-17.212v-28.524
				c0-9.466,7.745-17.212,17.212-17.212h40.667c9.467,0,17.212,7.745,17.212,17.212v28.524
				C442.63,222.991,434.885,230.736,425.418,230.736z"/>
			<g>
				<path fill="#FFFFFF" stroke="#7FB1F2" stroke-width="1.6592" stroke-miterlimit="10" d="M424.54,227.077h-37.648
					c-7.637,0-13.886-6.249-13.886-13.886v-27.44c0-7.637,6.249-13.886,13.886-13.886h37.648c7.637,0,13.886,6.249,13.886,13.886
					v27.44C438.426,220.828,432.177,227.077,424.54,227.077z"/>
				<path fill="#2C97E8" stroke="#FFFFFF" stroke-width="0.6964" stroke-miterlimit="10" d="M429.497,170.178h-48.901
					c-5.797,0-10.505,4.716-10.505,10.506v37.011c0,5.587,4.381,10.155,9.891,10.474c0.202,0.016,0.412,0.031,0.623,0.031h48.901
					c2.062,0,3.977-0.607,5.603-1.634c0.436-0.272,0.848-0.576,1.23-0.91c2.249-1.93,3.673-4.786,3.673-7.969v-36.995
					C440.011,174.894,435.295,170.178,429.497,170.178L429.497,170.178z M418.113,198.831l17.696-14.326v28.661L418.113,198.831z
					 M380.596,174.388h48.901c2.973,0,5.471,2.078,6.132,4.848l-20.855,16.887l-3.338,2.708l-3.004,2.436
					c-1.953,1.58-4.786,1.58-6.739,0l-3.004-2.436l-3.338-2.708l-20.879-16.894C375.133,176.45,377.631,174.388,380.596,174.388z
					 M374.293,184.489l17.704,14.342l-17.704,14.342V184.489z M434.167,221.927c-0.475,0.529-1.043,0.965-1.673,1.307
					c-0.895,0.49-1.914,0.77-2.996,0.77h-48.901c-0.856,0-1.673-0.179-2.42-0.49c-0.654-0.272-1.253-0.654-1.782-1.121
					c-1.097-0.98-1.844-2.335-2.047-3.86l20.988-16.996l3.696,2.996c1.743,1.409,3.883,2.117,6.015,2.117
					c2.14,0,4.272-0.708,6.015-2.117l3.696-2.996l20.972,16.988C435.575,219.819,435.007,220.994,434.167,221.927L434.167,221.927z"
					/>
			</g>
		</g>
		<g opacity="0.4">
			<g>
				<path fill="#FFFFFF" stroke="#2C97E8" stroke-width="3.4819" stroke-miterlimit="10" d="M122.899,255.606h54.388
					c5.726,0,10.41-4.685,10.41-10.41V129.29c0-5.726-4.685-10.41-10.41-10.41h-54.388c-5.726,0-10.41,4.685-10.41,10.41v115.906
					C112.488,250.922,117.173,255.606,122.899,255.606z"/>
				<polyline fill="#FFFFFF" stroke="#A7CFFF" stroke-width="1.3928" stroke-miterlimit="10" points="180.386,141.86 
					180.386,136.986 119.8,136.986 119.8,239.586 180.386,239.586 180.386,167.8 				"/>
				<polyline fill="#FFFFFF" stroke="#A7CFFF" stroke-width="1.3928" stroke-miterlimit="10" points="180.386,164.681 
					180.386,156.832 180.386,144.921 				"/>
				<path fill="#455D82" d="M141.373,131.978h17.44c0.565,0,1.028-0.463,1.028-1.028v-0.385c0-0.565-0.463-1.028-1.028-1.028h-17.44
					c-0.565,0-1.028,0.463-1.028,1.028v0.385C140.345,131.516,140.808,131.978,141.373,131.978z"/>
				<path fill="#7F9ABA" d="M150.335,127.19h-0.484c-0.711,0-1.292-0.581-1.292-1.292v-0.484c0-0.711,0.581-1.292,1.292-1.292h0.484
					c0.711,0,1.292,0.581,1.292,1.292v0.484C151.627,126.609,151.046,127.19,150.335,127.19z"/>
				<path fill="#FFFFFF" stroke="#2C97E8" stroke-width="1.3928" stroke-miterlimit="10" d="M143.738,250.844h12.709
					c2.202,0,4.004-1.802,4.004-4.004v0c0-2.202-1.802-4.004-4.004-4.004h-12.709c-2.202,0-4.004,1.802-4.004,4.004v0
					C139.734,249.042,141.536,250.844,143.738,250.844z"/>
				
					<rect x="120.561" y="140.642" transform="matrix(-1 -4.489488e-11 4.489488e-11 -1 296.8329 379.299)" fill="#A7CFFF" width="55.711" height="98.016"/>
			</g>
			<path fill="#FFFFFF" d="M74.208,230.736h40.667c9.466,0,17.212-7.745,17.212-17.212v-28.524c0-9.466-7.745-17.212-17.212-17.212
				H74.208c-9.466,0-17.212,7.745-17.212,17.212v28.524C56.996,222.991,64.741,230.736,74.208,230.736z"/>
			<g>
				<path fill="#FFFFFF" stroke="#7FB1F2" stroke-width="1.6592" stroke-miterlimit="10" d="M75.086,227.077h37.648
					c7.637,0,13.886-6.249,13.886-13.886v-27.44c0-7.637-6.249-13.886-13.886-13.886H75.086c-7.637,0-13.886,6.249-13.886,13.886
					v27.44C61.2,220.828,67.449,227.077,75.086,227.077z"/>
				<path fill="#2C97E8" stroke="#FFFFFF" stroke-width="0.6964" stroke-miterlimit="10" d="M70.129,170.178
					c-5.797,0-10.513,4.716-10.513,10.513v36.995c0,3.183,1.424,6.039,3.673,7.969c0.381,0.335,0.794,0.638,1.23,0.91
					c1.626,1.027,3.541,1.634,5.603,1.634h48.901c0.21,0,0.42-0.016,0.623-0.031c5.51-0.319,9.891-4.887,9.891-10.474v-37.011
					c0-5.79-4.708-10.506-10.506-10.506H70.129L70.129,170.178z M63.818,213.165v-28.661l17.696,14.326L63.818,213.165z
					 M125.154,179.228l-20.879,16.894l-3.338,2.708l-3.004,2.436c-1.953,1.58-4.786,1.58-6.739,0l-3.004-2.436l-3.338-2.708
					l-20.855-16.887c0.661-2.77,3.159-4.848,6.132-4.848h48.901C121.995,174.388,124.493,176.45,125.154,179.228z M125.333,213.173
					l-17.704-14.342l17.704-14.342V213.173z M65.46,221.927c-0.84-0.934-1.409-2.109-1.564-3.401l20.972-16.988l3.696,2.996
					c1.743,1.409,3.875,2.117,6.015,2.117c2.132,0,4.272-0.708,6.015-2.117l3.696-2.996l20.988,16.996
					c-0.202,1.525-0.949,2.879-2.047,3.86c-0.529,0.467-1.128,0.848-1.782,1.121c-0.747,0.311-1.564,0.49-2.42,0.49H70.129
					c-1.082,0-2.101-0.28-2.996-0.77C66.502,222.892,65.934,222.457,65.46,221.927L65.46,221.927z"/>
			</g>
		</g>
		<path opacity="0.8" fill="#FFFFFF" stroke="#2C97E8" stroke-width="3.7" stroke-miterlimit="10" d="M334.221,258.228h-67.487
			c-5.726,0-10.41-4.685-10.41-10.41V108.099c0-5.726,4.685-10.41,10.41-10.41h67.487c5.726,0,10.41,4.685,10.41,10.41v139.719
			C344.632,253.544,339.947,258.228,334.221,258.228z"/>
		<polyline fill="#FFFFFF" stroke="#A7CFFF" stroke-width="1.6353" stroke-miterlimit="10" points="264.909,124.671 
			264.909,118.948 336.046,118.948 336.046,239.418 264.909,239.418 264.909,155.129 		"/>
		<polyline fill="#FFFFFF" stroke="#A7CFFF" stroke-width="1.6353" stroke-miterlimit="10" points="264.909,151.467 
			264.909,142.251 264.909,128.265 		"/>
		<path fill="#455D82" d="M310.49,113.068h-20.025c-0.788,0-1.433-0.645-1.433-1.433l0,0c0-0.788,0.645-1.433,1.433-1.433h20.025
			c0.788,0,1.433,0.645,1.433,1.433l0,0C311.923,112.423,311.278,113.068,310.49,113.068z"/>
		<path fill="#7F9ABA" d="M300.478,107.447L300.478,107.447c0.991,0,1.802-0.811,1.802-1.802v0c0-0.991-0.811-1.802-1.802-1.802l0,0
			c-0.991,0-1.802,0.811-1.802,1.802v0C298.676,106.636,299.487,107.447,300.478,107.447z"/>
		<path fill="#FFFFFF" stroke="#2C97E8" stroke-width="1.6353" stroke-miterlimit="10" d="M307.939,252.637h-14.922
			c-2.586,0-4.702-2.116-4.702-4.702v0c0-2.586,2.116-4.702,4.702-4.702h14.922c2.586,0,4.702,2.116,4.702,4.702v0
			C312.641,250.521,310.525,252.637,307.939,252.637z"/>
		<rect x="269.74" y="123.503" fill="#D5E7FF" width="62.519" height="115.087"/>
		<path fill="#FFFFFF" d="M392.577,229.027h-53.745c-9.466,0-17.212-7.745-17.212-17.212v-39.487
			c0-9.467,7.745-17.212,17.212-17.212h53.745c9.467,0,17.212,7.745,17.212,17.212v39.487
			C409.789,221.282,402.044,229.027,392.577,229.027z"/>
		<g opacity="0.88">
			<path fill="#FFFFFF" stroke="#7FB1F2" stroke-width="1.9481" stroke-miterlimit="10" d="M390.967,224.73h-49.041
				c-7.637,0-13.886-6.249-13.886-13.886v-37.056c0-7.637,6.249-13.886,13.886-13.886h49.041c7.637,0,13.886,6.249,13.886,13.886
				v37.056C404.853,218.481,398.604,224.73,390.967,224.73z"/>
			<path fill="#2C97E8" stroke="#FFFFFF" stroke-width="0.8177" stroke-miterlimit="10" d="M394.369,157.921h-57.418
				c-6.807,0-12.335,5.537-12.335,12.335v43.457c0,6.561,5.144,11.924,11.613,12.299c0.238,0.018,0.484,0.037,0.731,0.037h57.418
				c2.421,0,4.669-0.713,6.579-1.919c0.512-0.32,0.996-0.676,1.444-1.069c2.641-2.266,4.313-5.619,4.313-9.357v-43.438
				C406.714,163.459,401.176,157.921,394.369,157.921L394.369,157.921z M381.001,191.565l20.778-16.822v33.652L381.001,191.565z
				 M336.951,162.865h57.418c3.49,0,6.423,2.44,7.2,5.692l-24.488,19.828l-3.92,3.18l-3.527,2.86c-2.293,1.855-5.619,1.855-7.913,0
				l-3.527-2.86l-3.92-3.18l-24.515-19.837C330.537,165.286,333.47,162.865,336.951,162.865z M329.55,174.725l20.787,16.84
				l-20.787,16.84V174.725z M399.851,218.684c-0.557,0.621-1.224,1.133-1.965,1.535c-1.051,0.576-2.248,0.905-3.518,0.905h-57.418
				c-1.005,0-1.965-0.21-2.842-0.576c-0.768-0.32-1.471-0.768-2.092-1.316c-1.288-1.151-2.166-2.741-2.403-4.532l24.643-19.956
				l4.34,3.518c2.047,1.654,4.559,2.485,7.063,2.485c2.513,0,5.016-0.831,7.063-2.485l4.34-3.518l24.625,19.947
				C401.505,216.208,400.838,217.587,399.851,218.684L399.851,218.684z"/>
		</g>
		<path opacity="0.8" fill="#FFFFFF" stroke="#2C97E8" stroke-width="3.7" stroke-miterlimit="10" d="M165.376,258.228h67.487
			c5.726,0,10.41-4.685,10.41-10.41V108.099c0-5.726-4.685-10.41-10.41-10.41h-67.487c-5.726,0-10.41,4.685-10.41,10.41v139.719
			C154.965,253.544,159.65,258.228,165.376,258.228z"/>
		<polyline fill="#FFFFFF" stroke="#A7CFFF" stroke-width="1.6353" stroke-miterlimit="10" points="234.688,124.671 
			234.688,118.948 163.551,118.948 163.551,239.418 234.688,239.418 234.688,155.129 		"/>
		<polyline fill="#FFFFFF" stroke="#A7CFFF" stroke-width="1.6353" stroke-miterlimit="10" points="234.688,151.467 
			234.688,142.251 234.688,128.265 		"/>
		<path fill="#455D82" d="M189.107,113.068h20.025c0.788,0,1.433-0.645,1.433-1.433l0,0c0-0.788-0.645-1.433-1.433-1.433h-20.025
			c-0.788,0-1.433,0.645-1.433,1.433l0,0C187.674,112.423,188.319,113.068,189.107,113.068z"/>
		<path fill="#7F9ABA" d="M199.119,107.447L199.119,107.447c-0.991,0-1.802-0.811-1.802-1.802v0c0-0.991,0.811-1.802,1.802-1.802
			l0,0c0.991,0,1.802,0.811,1.802,1.802v0C200.921,106.636,200.11,107.447,199.119,107.447z"/>
		<path fill="#FFFFFF" stroke="#2C97E8" stroke-width="1.6353" stroke-miterlimit="10" d="M191.658,252.637h14.922
			c2.586,0,4.702-2.116,4.702-4.702v0c0-2.586-2.116-4.702-4.702-4.702h-14.922c-2.586,0-4.702,2.116-4.702,4.702v0
			C186.957,250.521,189.072,252.637,191.658,252.637z"/>
		
			<rect x="167.448" y="123.503" transform="matrix(-1 -4.698387e-11 4.698387e-11 -1 397.3059 362.0927)" fill="#D5E7FF" width="62.409" height="115.087"/>
		<path fill="#FFFFFF" d="M107.02,229.027h53.745c9.467,0,17.212-7.745,17.212-17.212v-39.487c0-9.467-7.745-17.212-17.212-17.212
			H107.02c-9.466,0-17.212,7.745-17.212,17.212v39.487C89.808,221.282,97.553,229.027,107.02,229.027z"/>
		<g opacity="0.88">
			<path fill="#FFFFFF" stroke="#7FB1F2" stroke-width="1.9481" stroke-miterlimit="10" d="M108.631,224.73h49.041
				c7.637,0,13.886-6.249,13.886-13.886v-37.056c0-7.637-6.249-13.886-13.886-13.886h-49.041c-7.637,0-13.886,6.249-13.886,13.886
				v37.056C94.744,218.481,100.993,224.73,108.631,224.73z"/>
			<path fill="#2C97E8" stroke="#FFFFFF" stroke-width="0.8177" stroke-miterlimit="10" d="M105.228,157.921
				c-6.807,0-12.344,5.537-12.344,12.344v43.438c0,3.737,1.672,7.09,4.313,9.357c0.448,0.393,0.932,0.749,1.444,1.069
				c1.91,1.206,4.157,1.919,6.579,1.919h57.418c0.247,0,0.493-0.018,0.731-0.037c6.469-0.375,11.613-5.738,11.613-12.299v-43.457
				c0-6.798-5.528-12.335-12.335-12.335H105.228L105.228,157.921z M97.818,208.395v-33.652l20.778,16.822L97.818,208.395z
				 M169.837,168.548l-24.515,19.837l-3.92,3.18l-3.527,2.86c-2.293,1.855-5.619,1.855-7.913,0l-3.527-2.86l-3.92-3.18
				l-24.488-19.828c0.777-3.253,3.71-5.692,7.2-5.692h57.418C166.128,162.865,169.061,165.286,169.837,168.548z M170.047,208.404
				l-20.787-16.84l20.787-16.84V208.404z M99.746,218.684c-0.987-1.096-1.654-2.476-1.837-3.993l24.625-19.947l4.34,3.518
				c2.047,1.654,4.55,2.485,7.063,2.485c2.504,0,5.016-0.831,7.063-2.485l4.34-3.518l24.643,19.956
				c-0.238,1.791-1.115,3.381-2.403,4.532c-0.621,0.548-1.325,0.996-2.092,1.316c-0.877,0.365-1.837,0.576-2.842,0.576h-57.418
				c-1.27,0-2.467-0.329-3.518-0.905C100.97,219.817,100.303,219.305,99.746,218.684L99.746,218.684z"/>
		</g>
		<path fill="#FFFFFF" stroke="#2C97E8" stroke-width="3.7" stroke-miterlimit="10" d="M210.604,260.85h76.787c5.5,0,10-4.5,10-10
			V94.896c0-5.5-4.5-10-10-10h-76.787c-5.5,0-10,4.5-10,10V250.85C200.604,256.35,205.104,260.85,210.604,260.85z"/>
		<polyline fill="#FFFFFF" stroke="#A7CFFF" stroke-width="1.7924" stroke-miterlimit="10" points="287.981,114.47 287.981,108.197 
			210.014,108.197 210.014,240.234 287.981,240.234 287.981,147.852 		"/>
		<polyline fill="#FFFFFF" stroke="#A7CFFF" stroke-width="1.7924" stroke-miterlimit="10" points="287.981,143.838 
			287.981,133.737 287.981,118.409 		"/>
		<path fill="#455D82" d="M238.002,101.752h21.991c0.852,0,1.549-0.697,1.549-1.549v-0.043c0-0.852-0.697-1.549-1.549-1.549h-21.991
			c-0.852,0-1.549,0.697-1.549,1.549v0.043C236.453,101.055,237.15,101.752,238.002,101.752z"/>
		<path fill="#7F9ABA" d="M249.024,95.591h-0.054c-1.071,0-1.948-0.876-1.948-1.948V93.59c0-1.071,0.876-1.948,1.948-1.948h0.054
			c1.071,0,1.948,0.876,1.948,1.948v0.054C250.972,94.715,250.096,95.591,249.024,95.591z"/>
		<path fill="#FFFFFF" stroke="#2C97E8" stroke-width="1.7924" stroke-miterlimit="10" d="M240.75,254.722h16.496
			c2.796,0,5.083-2.287,5.083-5.083v-0.141c0-2.796-2.287-5.083-5.083-5.083H240.75c-2.796,0-5.083,2.287-5.083,5.083v0.141
			C235.667,252.435,237.954,254.722,240.75,254.722z"/>
		<rect x="213.615" y="111.066" fill="#A7CFFF" width="71.694" height="128.235"/>
		<g>
			<path fill="#FFFFFF" stroke="#7FB1F2" stroke-width="1.9481" stroke-miterlimit="10" d="M224.137,220.569h49.041
				c7.637,0,13.886-6.249,13.886-13.886v-37.056c0-7.637-6.249-13.886-13.886-13.886h-49.041c-7.637,0-13.886,6.249-13.886,13.886
				v37.056C210.251,214.32,216.5,220.569,224.137,220.569z"/>
			<path fill="#2C97E8" stroke="#FFFFFF" stroke-width="0.8177" stroke-miterlimit="10" d="M220.735,153.76
				c-6.807,0-12.344,5.537-12.344,12.344v43.438c0,3.737,1.672,7.09,4.313,9.357c0.448,0.393,0.932,0.749,1.444,1.069
				c1.91,1.206,4.157,1.919,6.579,1.919h57.418c0.247,0,0.493-0.018,0.731-0.037c6.469-0.375,11.613-5.738,11.613-12.299v-43.457
				c0-6.798-5.528-12.335-12.335-12.335H220.735L220.735,153.76z M213.325,204.234v-33.652l20.778,16.822L213.325,204.234z
				 M285.344,164.387l-24.515,19.837l-3.92,3.18l-3.527,2.86c-2.293,1.855-5.619,1.855-7.913,0l-3.527-2.86l-3.92-3.18
				l-24.488-19.828c0.777-3.253,3.71-5.692,7.2-5.692h57.418C281.634,158.703,284.567,161.125,285.344,164.387z M285.554,204.243
				l-20.787-16.84l20.787-16.84V204.243z M215.253,214.522c-0.987-1.096-1.654-2.476-1.837-3.993l24.625-19.947l4.34,3.518
				c2.047,1.654,4.55,2.485,7.063,2.485c2.504,0,5.016-0.831,7.063-2.485l4.34-3.518l24.643,19.956
				c-0.238,1.791-1.115,3.381-2.403,4.532c-0.621,0.548-1.325,0.996-2.092,1.316c-0.877,0.365-1.837,0.576-2.842,0.576h-57.418
				c-1.27,0-2.467-0.329-3.518-0.905C216.477,215.655,215.81,215.144,215.253,214.522L215.253,214.522z"/>
		</g>
		
			<line fill="none" stroke="#2C97E8" stroke-width="3.7" stroke-miterlimit="10" x1="249.425" y1="46.861" x2="249.425" y2="80.025"/>
		<path opacity="0.4" fill="none" stroke="#2C97E8" stroke-width="3.7" stroke-miterlimit="10" d="M136.574,114.649V49.476
			c0-12.631,10.334-22.965,22.965-22.965h179.771c12.631,0,22.965,10.334,22.965,22.965v65.158"/>
		<path fill="none" stroke="#2C97E8" stroke-width="2.9407" stroke-miterlimit="10" d="M178.141,93.067V47.552
			c0-11.573,9.469-21.042,21.042-21.042h100.485c11.573,0,21.042,9.469,21.042,21.042v45.406"/>
		<g>
			<path fill="#FFFFFF" stroke="#2C97E8" stroke-width="3.7" stroke-miterlimit="10" d="M289.653,49.915h-79.08
				c-5.726,0-10.41-4.685-10.41-10.41V13.459c0-5.726,4.685-10.41,10.41-10.41h79.08c5.726,0,10.41,4.685,10.41,10.41v26.046
				C300.063,45.23,295.379,49.915,289.653,49.915z"/>
			<path fill="#D5E7FF" d="M289.258,48.296H212.64c-5.01,0-9.109-4.099-9.109-9.109V15.239c0-5.01,4.099-9.109,9.109-9.109h76.618
				c5.01,0,9.109,4.099,9.109,9.109v23.948C298.368,44.197,294.268,48.296,289.258,48.296z"/>
			<g>
				<path fill="#2C97E8" d="M229.457,16.938l2.108,0.355l-1.154,4.107h3.286c0.422-1.643,0.755-3.375,1.021-5.195l2.153,0.266
					c-0.267,1.754-0.6,3.397-0.977,4.929h10.168v2.021h-10.701c-0.222,0.733-0.466,1.421-0.688,2.087h8.881v1.776
					c-0.577,1.82-1.665,3.463-3.308,4.929c1.687,0.932,3.729,1.798,6.105,2.598l-1.088,1.998c-2.687-0.977-4.951-2.065-6.771-3.219
					c-1.754,1.221-3.908,2.331-6.461,3.33l-1.11-1.998c2.22-0.799,4.129-1.688,5.706-2.642c-1.443-1.154-2.531-2.398-3.241-3.708
					c-1.599,3.286-3.619,5.906-6.039,7.859l-1.088-1.954c3.063-2.709,5.351-6.394,6.86-11.057h-5.417L229.457,16.938z
					 M238.382,31.058c1.398-1.132,2.42-2.353,3.041-3.641h-6.505C235.651,28.727,236.805,29.948,238.382,31.058z M244.465,19.735
					l-1.51,1.51c-0.888-1.154-2.131-2.354-3.774-3.619l1.421-1.399C242.133,17.382,243.422,18.558,244.465,19.735z"/>
				<path fill="#2C97E8" d="M261.625,36.364c-1.443-0.022-2.62-0.155-3.553-0.377c-0.888-0.266-1.665-0.799-2.331-1.554
					c-0.311-0.377-0.577-0.555-0.844-0.555c-0.466,0-1.265,0.999-2.397,2.997l-1.554-1.443c1.109-1.798,2.108-2.931,2.997-3.375
					v-6.283h-2.976V23.82h4.951v8.392c0.111,0.089,0.223,0.2,0.333,0.333c0.511,0.599,1.044,1.043,1.599,1.332
					c0.666,0.311,1.643,0.511,2.953,0.555c1.266,0.022,2.753,0.044,4.484,0.044c1.088,0,2.198-0.022,3.309-0.044
					c1.109-0.022,1.976-0.067,2.575-0.111l-0.511,2.087h-5.062C264.378,36.408,263.046,36.386,261.625,36.364z M256.63,19.979
					l-1.532,1.51c-0.866-1.11-2.109-2.287-3.708-3.574l1.466-1.399C254.342,17.67,255.608,18.825,256.63,19.979z M262.89,24.864
					c0.133-0.822,0.199-1.754,0.222-2.797h-4.685v-1.954h2.62c-0.577-1.065-1.199-2.02-1.865-2.864l1.888-0.91
					c0.666,0.955,1.31,1.998,1.909,3.152l-1.243,0.622h3.374c0.622-1.243,1.177-2.553,1.665-3.974l1.998,0.688
					c-0.466,1.221-0.977,2.309-1.531,3.286h2.53v1.954h-4.596c-0.021,1.043-0.088,1.976-0.177,2.797h5.527v1.998h-5.928
					c-0.666,2.575-2.598,4.751-5.794,6.483l-1.332-1.688c2.53-1.243,4.174-2.842,4.906-4.795h-4.707v-1.998H262.89z M270.527,31.812
					l-1.465,1.599c-1.465-1.576-2.997-2.953-4.596-4.107l1.243-1.398C267.486,29.104,269.085,30.414,270.527,31.812z"/>
			</g>
		</g>
		<circle opacity="0.5" fill="#2C97E8" cx="23.481" cy="199.101" r="3.7"/>
		<circle opacity="0.5" fill="#2C97E8" cx="36.853" cy="199.101" r="3.7"/>
		<circle opacity="0.5" fill="#2C97E8" cx="50.226" cy="199.101" r="3.7"/>
		<circle opacity="0.5" fill="#2C97E8" cx="449.331" cy="199.101" r="3.7"/>
		<circle opacity="0.5" fill="#2C97E8" cx="462.703" cy="199.101" r="3.7"/>
		<circle opacity="0.5" fill="#2C97E8" cx="476.076" cy="199.101" r="3.7"/>
		<path opacity="0.5" fill="#2C97E8" d="M101.964,247.582H4.165c-1.145,0-2.081-0.937-2.081-2.081v0
			c0-1.145,0.937-2.081,2.081-2.081h97.799c1.145,0,2.081,0.937,2.081,2.081v0C104.045,246.645,103.108,247.582,101.964,247.582z"/>
		<path opacity="0.5" fill="#2C97E8" d="M495.713,247.582h-97.799c-1.145,0-2.081-0.937-2.081-2.081v0
			c0-1.145,0.937-2.081,2.081-2.081h97.799c1.145,0,2.081,0.937,2.081,2.081v0C497.794,246.645,496.858,247.582,495.713,247.582z"/>
	</g>
	<path opacity="0.5" fill="#A4D5F3" d="M453.055,112.1h-4.965v-4.965c0-1.47-1.203-2.673-2.673-2.673s-2.673,1.203-2.673,2.673
		v4.965h-4.965c-1.47,0-2.673,1.203-2.673,2.673s1.203,2.673,2.673,2.673h4.965v4.965c0,1.47,1.203,2.673,2.673,2.673
		s2.673-1.203,2.673-2.673v-4.965h4.965c1.47,0,2.673-1.203,2.673-2.673S454.526,112.1,453.055,112.1z"/>
	<path opacity="0.5" fill="#A4D5F3" d="M99.5,65.03h-4.965v-4.965c0-1.47-1.203-2.673-2.673-2.673c-1.47,0-2.673,1.203-2.673,2.673
		v4.965h-4.965c-1.47,0-2.673,1.203-2.673,2.673s1.203,2.673,2.673,2.673h4.965v4.965c0,1.47,1.203,2.673,2.673,2.673
		c1.47,0,2.673-1.203,2.673-2.673v-4.965H99.5c1.47,0,2.673-1.203,2.673-2.673S100.97,65.03,99.5,65.03z"/>
	
		<circle opacity="0.5" fill="#FFFFFF" stroke="#A4D5F3" stroke-width="5.1498" stroke-miterlimit="10" cx="405.138" cy="71.897" r="6.834"/>
	
		<circle opacity="0.5" fill="#FFFFFF" stroke="#A4D5F3" stroke-width="3.6049" stroke-miterlimit="10" cx="387.324" cy="60.972" r="4.784"/>
</g>
</svg>
