<?xml version="1.0" encoding="utf-8"?>
<!-- Generator: Adobe Illustrator 21.0.0, SVG Export Plug-In . SVG Version: 6.00 Build 0)  -->
<svg version="1.0" id="图层_1" xmlns="http://www.w3.org/2000/svg" xmlns:xlink="http://www.w3.org/1999/xlink" x="0px" y="0px"
	 viewBox="0 0 500 264" enable-background="new 0 0 500 264" xml:space="preserve">
<g>
	<path fill="#E6F2FF" d="M201.53,118.984h-59.813c-3.317,0-6.031-2.714-6.031-6.031c0-3.317,2.714-6.031,6.031-6.031h25.246
		c3.317,0,6.031-2.714,6.031-6.031c0-3.317-2.714-6.03-6.031-6.03h-3.015c-3.317,0-6.031-2.714-6.031-6.031
		c0-3.317,2.714-6.031,6.031-6.031h10.347c3.317,0,6.031-2.714,6.031-6.031c0-3.317-2.714-6.031-6.031-6.031H124.63
		c-3.317,0-6.031,2.714-6.031,6.031c0,3.317,2.714,6.031,6.031,6.031h14.072c3.317,0,6.031,2.714,6.031,6.031
		c0,3.317-2.714,6.031-6.031,6.031H93.829c-3.317,0-6.031,2.714-6.031,6.03c0,3.317,2.714,6.031,6.031,6.031h22.642
		c3.317,0,6.031,2.714,6.031,6.031c0,3.317-2.714,6.031-6.031,6.031h-0.648c-3.317,0-6.031,2.714-6.031,6.03
		c0,3.317,2.714,6.031,6.031,6.031h85.707c3.317,0,6.03-2.714,6.03-6.031C207.561,121.698,204.847,118.984,201.53,118.984z"/>
	<path fill="#E6F2FF" d="M409.493,91.125h-52.533c-3.883,0-7.06-3.177-7.06-7.06c0-3.883,3.177-7.06,7.06-7.06h16.474
		c3.883,0,7.06-3.177,7.06-7.061c0-3.883-3.177-7.06-7.06-7.06h-58.143c-3.883,0-7.06,3.177-7.06,7.06
		c0,3.883,3.177,7.061,7.06,7.061h12.113c3.883,0,7.06,3.177,7.06,7.06c0,3.883-3.177,7.06-7.06,7.06h-3.53
		c-3.883,0-7.06,3.177-7.06,7.06c0,3.883,3.177,7.06,7.06,7.06h29.556c3.883,0,7.06,3.177,7.06,7.06s-3.177,7.06-7.06,7.06h-70.023
		c-3.883,0-7.06,3.177-7.06,7.06c0,3.883,3.177,7.06,7.06,7.06h100.338c3.883,0,7.06-3.177,7.06-7.06c0-3.883-3.177-7.06-7.06-7.06
		h-0.758c-3.883,0-7.06-3.177-7.06-7.06s3.177-7.06,7.06-7.06h26.507c3.883,0,7.06-3.177,7.06-7.06
		C416.553,94.302,413.376,91.125,409.493,91.125z"/>
	<g>
		<polygon fill="#A9D8FF" stroke="#2C97E8" stroke-width="1.2039" stroke-miterlimit="10" points="462.08,211.77 38.957,211.77 
			202.517,116.687 298.519,116.687 		"/>
		<polygon fill="#8DC3F7" points="197.213,119.362 36.539,212.888 36.641,197.853 197.213,115.501 		"/>
		
			<line fill="#A7CFFF" stroke="#2C97E8" stroke-width="1.2039" stroke-miterlimit="10" x1="197.526" y1="115.442" x2="32.374" y2="196.126"/>
		
			<line fill="#A7CFFF" stroke="#2C97E8" stroke-width="1.2039" stroke-miterlimit="10" x1="192.244" y1="114.934" x2="10.966" y2="195.618"/>
		
			<line fill="none" stroke="#2C97E8" stroke-width="1.2039" stroke-miterlimit="10" x1="191.882" y1="114.934" x2="197.543" y2="114.934"/>
		
			<line fill="none" stroke="#2C97E8" stroke-width="1.2039" stroke-miterlimit="10" x1="197.569" y1="114.301" x2="197.569" y2="119.502"/>
		
			<line fill="none" stroke="#2C97E8" stroke-width="1.2039" stroke-miterlimit="10" x1="186.583" y1="117.468" x2="193.166" y2="117.468"/>
		
			<line fill="none" stroke="#2C97E8" stroke-width="1.2039" stroke-miterlimit="10" x1="192.961" y1="117.065" x2="192.961" y2="122.266"/>
		
			<line fill="none" stroke="#2C97E8" stroke-width="1.2039" stroke-miterlimit="10" x1="181.054" y1="120.002" x2="188.098" y2="120.002"/>
		
			<line fill="none" stroke="#2C97E8" stroke-width="1.2039" stroke-miterlimit="10" x1="188.124" y1="119.6" x2="188.124" y2="125.031"/>
		
			<line fill="none" stroke="#2C97E8" stroke-width="1.2039" stroke-miterlimit="10" x1="174.604" y1="122.767" x2="182.569" y2="122.767"/>
		
			<line fill="none" stroke="#2C97E8" stroke-width="1.2039" stroke-miterlimit="10" x1="182.595" y1="122.364" x2="182.595" y2="128.256"/>
		
			<line fill="none" stroke="#2C97E8" stroke-width="1.2039" stroke-miterlimit="10" x1="167.232" y1="125.992" x2="176.58" y2="125.992"/>
		
			<line fill="none" stroke="#2C97E8" stroke-width="1.2039" stroke-miterlimit="10" x1="176.605" y1="125.359" x2="176.605" y2="131.711"/>
		
			<line fill="none" stroke="#2C97E8" stroke-width="1.2039" stroke-miterlimit="10" x1="159.63" y1="129.447" x2="169.669" y2="129.447"/>
		
			<line fill="none" stroke="#2C97E8" stroke-width="1.2039" stroke-miterlimit="10" x1="169.694" y1="128.814" x2="169.694" y2="135.858"/>
		
			<line fill="none" stroke="#2C97E8" stroke-width="1.2039" stroke-miterlimit="10" x1="152.259" y1="132.672" x2="162.527" y2="132.672"/>
		
			<line fill="none" stroke="#2C97E8" stroke-width="1.2039" stroke-miterlimit="10" x1="162.553" y1="132.039" x2="162.553" y2="140.005"/>
		
			<line fill="none" stroke="#2C97E8" stroke-width="1.2039" stroke-miterlimit="10" x1="144.196" y1="136.358" x2="154.925" y2="136.358"/>
		
			<line fill="none" stroke="#2C97E8" stroke-width="1.2039" stroke-miterlimit="10" x1="154.951" y1="135.725" x2="154.951" y2="144.382"/>
		
			<line fill="none" stroke="#2C97E8" stroke-width="1.2039" stroke-miterlimit="10" x1="134.751" y1="140.505" x2="147.093" y2="140.505"/>
		
			<line fill="none" stroke="#2C97E8" stroke-width="1.2039" stroke-miterlimit="10" x1="147.118" y1="139.872" x2="147.118" y2="148.989"/>
		
			<line fill="none" stroke="#2C97E8" stroke-width="1.2039" stroke-miterlimit="10" x1="125.536" y1="144.651" x2="138.109" y2="144.651"/>
		
			<line fill="none" stroke="#2C97E8" stroke-width="1.2039" stroke-miterlimit="10" x1="138.134" y1="144.018" x2="138.134" y2="154.287"/>
		
			<line fill="none" stroke="#2C97E8" stroke-width="1.2039" stroke-miterlimit="10" x1="114.478" y1="149.489" x2="128.433" y2="149.489"/>
		
			<line fill="none" stroke="#2C97E8" stroke-width="1.2039" stroke-miterlimit="10" x1="128.459" y1="148.856" x2="128.459" y2="159.816"/>
		
			<line fill="none" stroke="#2C97E8" stroke-width="1.2039" stroke-miterlimit="10" x1="102.73" y1="154.788" x2="117.376" y2="154.788"/>
		
			<line fill="none" stroke="#2C97E8" stroke-width="1.2039" stroke-miterlimit="10" x1="117.401" y1="154.154" x2="117.401" y2="166.266"/>
		
			<line fill="none" stroke="#2C97E8" stroke-width="1.2039" stroke-miterlimit="10" x1="89.829" y1="160.547" x2="105.627" y2="160.547"/>
		
			<line fill="none" stroke="#2C97E8" stroke-width="1.2039" stroke-miterlimit="10" x1="105.652" y1="159.914" x2="105.652" y2="173.177"/>
		
			<line fill="none" stroke="#2C97E8" stroke-width="1.2039" stroke-miterlimit="10" x1="77.389" y1="166.076" x2="93.878" y2="166.076"/>
		
			<line fill="none" stroke="#2C97E8" stroke-width="1.2039" stroke-miterlimit="10" x1="93.904" y1="165.442" x2="93.904" y2="180.088"/>
		
			<line fill="none" stroke="#2C97E8" stroke-width="1.2039" stroke-miterlimit="10" x1="61.724" y1="172.987" x2="80.978" y2="172.987"/>
		
			<line fill="none" stroke="#2C97E8" stroke-width="1.2039" stroke-miterlimit="10" x1="81.003" y1="172.353" x2="81.003" y2="187.46"/>
		
			<line fill="none" stroke="#2C97E8" stroke-width="1.2039" stroke-miterlimit="10" x1="46.29" y1="179.898" x2="66.465" y2="179.898"/>
		
			<line fill="none" stroke="#2C97E8" stroke-width="1.2039" stroke-miterlimit="10" x1="66.49" y1="179.264" x2="66.49" y2="195.984"/>
		
			<line fill="none" stroke="#2C97E8" stroke-width="1.2039" stroke-miterlimit="10" x1="28.782" y1="187.73" x2="50.339" y2="187.73"/>
		
			<line fill="none" stroke="#2C97E8" stroke-width="1.2039" stroke-miterlimit="10" x1="11.044" y1="195.562" x2="33.061" y2="195.793"/>
		
			<line fill="none" stroke="#2C97E8" stroke-width="1.2039" stroke-miterlimit="10" x1="50.364" y1="187.097" x2="50.364" y2="205.198"/>
		
			<line fill="none" stroke="#2C97E8" stroke-width="1.2039" stroke-miterlimit="10" x1="32.626" y1="195.62" x2="32.626" y2="213.261"/>
		
			<line fill="none" stroke="#2C97E8" stroke-width="1.2039" stroke-miterlimit="10" x1="11.432" y1="195.39" x2="11.432" y2="213.031"/>
		<polyline fill="#FFFFFF" points="257.55,116.28 271.372,209.468 229.665,209.468 243.487,116.28 		"/>
		<rect x="239.202" y="119.489" fill="#A7CFFF" width="22.349" height="2.438"/>
		<rect x="239.202" y="126.4" fill="#A7CFFF" width="22.349" height="2.438"/>
		<rect x="239.202" y="133.772" fill="#A7CFFF" width="22.349" height="2.438"/>
		<rect x="236.47" y="143.217" fill="#A7CFFF" width="26.366" height="2.438"/>
		<rect x="224.854" y="154.966" fill="#A7CFFF" width="47.504" height="2.438"/>
		<rect x="224.854" y="169.018" fill="#A7CFFF" width="47.504" height="2.438"/>
		<rect x="224.854" y="187.678" fill="#A7CFFF" width="47.504" height="2.438"/>
		<rect x="224.854" y="208.641" fill="#A7CFFF" width="47.504" height="2.438"/>
		<rect x="199.719" y="113.029" fill="#FFFFFF" width="104.971" height="4.605"/>
		<g>
			<polygon fill="#8DC3F7" points="304.418,119.713 465.092,213.239 464.99,198.205 304.418,115.853 			"/>
			
				<line fill="#A7CFFF" stroke="#2C97E8" stroke-width="1.2039" stroke-miterlimit="10" x1="304.104" y1="115.794" x2="469.257" y2="196.478"/>
			
				<line fill="#A7CFFF" stroke="#2C97E8" stroke-width="1.2039" stroke-miterlimit="10" x1="309.387" y1="115.286" x2="490.665" y2="195.97"/>
			
				<line fill="none" stroke="#2C97E8" stroke-width="1.2039" stroke-miterlimit="10" x1="309.719" y1="115.298" x2="304.087" y2="115.286"/>
			
				<line fill="none" stroke="#2C97E8" stroke-width="1.2039" stroke-miterlimit="10" x1="304.062" y1="114.653" x2="304.062" y2="119.854"/>
			
				<line fill="none" stroke="#2C97E8" stroke-width="1.2039" stroke-miterlimit="10" x1="315.047" y1="117.82" x2="308.695" y2="117.82"/>
			
				<line fill="none" stroke="#2C97E8" stroke-width="1.2039" stroke-miterlimit="10" x1="308.669" y1="117.187" x2="308.669" y2="122.618"/>
			
				<line fill="none" stroke="#2C97E8" stroke-width="1.2039" stroke-miterlimit="10" x1="320.576" y1="120.354" x2="313.532" y2="120.354"/>
			
				<line fill="none" stroke="#2C97E8" stroke-width="1.2039" stroke-miterlimit="10" x1="313.507" y1="119.951" x2="313.507" y2="125.382"/>
			
				<line fill="none" stroke="#2C97E8" stroke-width="1.2039" stroke-miterlimit="10" x1="327.026" y1="123.118" x2="319.061" y2="123.118"/>
			
				<line fill="none" stroke="#2C97E8" stroke-width="1.2039" stroke-miterlimit="10" x1="319.036" y1="122.485" x2="319.036" y2="128.607"/>
			
				<line fill="none" stroke="#2C97E8" stroke-width="1.2039" stroke-miterlimit="10" x1="334.398" y1="126.343" x2="325.051" y2="126.343"/>
			
				<line fill="none" stroke="#2C97E8" stroke-width="1.2039" stroke-miterlimit="10" x1="325.025" y1="125.71" x2="325.025" y2="132.063"/>
			
				<line fill="none" stroke="#2C97E8" stroke-width="1.2039" stroke-miterlimit="10" x1="341.95" y1="129.68" x2="331.911" y2="129.68"/>
			
				<line fill="none" stroke="#2C97E8" stroke-width="1.2039" stroke-miterlimit="10" x1="331.936" y1="129.166" x2="331.936" y2="136.21"/>
			
				<line fill="none" stroke="#2C97E8" stroke-width="1.2039" stroke-miterlimit="10" x1="349.372" y1="133.024" x2="339.103" y2="133.024"/>
			
				<line fill="none" stroke="#2C97E8" stroke-width="1.2039" stroke-miterlimit="10" x1="339.078" y1="132.391" x2="339.078" y2="140.356"/>
			
				<line fill="none" stroke="#2C97E8" stroke-width="1.2039" stroke-miterlimit="10" x1="357.435" y1="136.71" x2="346.705" y2="136.71"/>
			
				<line fill="none" stroke="#2C97E8" stroke-width="1.2039" stroke-miterlimit="10" x1="346.68" y1="136.077" x2="346.68" y2="144.733"/>
			
				<line fill="none" stroke="#2C97E8" stroke-width="1.2039" stroke-miterlimit="10" x1="366.88" y1="140.856" x2="354.538" y2="140.856"/>
			
				<line fill="none" stroke="#2C97E8" stroke-width="1.2039" stroke-miterlimit="10" x1="354.512" y1="140.223" x2="354.512" y2="149.34"/>
			
				<line fill="none" stroke="#2C97E8" stroke-width="1.2039" stroke-miterlimit="10" x1="376.095" y1="145.003" x2="363.522" y2="145.003"/>
			
				<line fill="none" stroke="#2C97E8" stroke-width="1.2039" stroke-miterlimit="10" x1="363.497" y1="144.37" x2="363.497" y2="154.639"/>
			
				<line fill="none" stroke="#2C97E8" stroke-width="1.2039" stroke-miterlimit="10" x1="387.152" y1="149.841" x2="373.197" y2="149.841"/>
			
				<line fill="none" stroke="#2C97E8" stroke-width="1.2039" stroke-miterlimit="10" x1="373.172" y1="149.208" x2="373.172" y2="160.168"/>
			
				<line fill="none" stroke="#2C97E8" stroke-width="1.2039" stroke-miterlimit="10" x1="398.901" y1="155.139" x2="384.255" y2="155.139"/>
			
				<line fill="none" stroke="#2C97E8" stroke-width="1.2039" stroke-miterlimit="10" x1="384.23" y1="154.506" x2="384.23" y2="166.618"/>
			
				<line fill="none" stroke="#2C97E8" stroke-width="1.2039" stroke-miterlimit="10" x1="411.801" y1="160.898" x2="396.004" y2="160.898"/>
			
				<line fill="none" stroke="#2C97E8" stroke-width="1.2039" stroke-miterlimit="10" x1="395.978" y1="160.265" x2="395.978" y2="173.529"/>
			
				<line fill="none" stroke="#2C97E8" stroke-width="1.2039" stroke-miterlimit="10" x1="424.241" y1="166.427" x2="407.752" y2="166.427"/>
			
				<line fill="none" stroke="#2C97E8" stroke-width="1.2039" stroke-miterlimit="10" x1="407.727" y1="165.794" x2="407.727" y2="180.21"/>
			
				<line fill="none" stroke="#2C97E8" stroke-width="1.2039" stroke-miterlimit="10" x1="439.906" y1="173.338" x2="420.653" y2="173.338"/>
			
				<line fill="none" stroke="#2C97E8" stroke-width="1.2039" stroke-miterlimit="10" x1="420.628" y1="172.705" x2="420.628" y2="187.812"/>
			
				<line fill="none" stroke="#2C97E8" stroke-width="1.2039" stroke-miterlimit="10" x1="455.341" y1="180.249" x2="435.166" y2="180.249"/>
			
				<line fill="none" stroke="#2C97E8" stroke-width="1.2039" stroke-miterlimit="10" x1="435.141" y1="179.616" x2="435.141" y2="196.105"/>
			
				<line fill="none" stroke="#2C97E8" stroke-width="1.2039" stroke-miterlimit="10" x1="472.849" y1="188.082" x2="451.292" y2="188.082"/>
			
				<line fill="none" stroke="#2C97E8" stroke-width="1.2039" stroke-miterlimit="10" x1="490.587" y1="195.914" x2="468.569" y2="196.144"/>
			
				<line fill="none" stroke="#2C97E8" stroke-width="1.2039" stroke-miterlimit="10" x1="451.266" y1="187.449" x2="451.266" y2="205.78"/>
			
				<line fill="none" stroke="#2C97E8" stroke-width="1.2039" stroke-miterlimit="10" x1="469.004" y1="195.972" x2="469.004" y2="212.922"/>
			
				<line fill="none" stroke="#2C97E8" stroke-width="1.2039" stroke-miterlimit="10" x1="490.198" y1="195.742" x2="490.198" y2="212.922"/>
		</g>
		<path fill="#2C97E8" d="M289.362,213.26H26.909c-0.894,0-1.625-0.731-1.625-1.625l0,0c0-0.894,0.731-1.625,1.625-1.625h262.453
			c0.894,0,1.625,0.731,1.625,1.625l0,0C290.987,212.528,290.255,213.26,289.362,213.26z"/>
		<path fill="#2C97E8" d="M21.737,213.26H2.625c-0.894,0-1.625-0.731-1.625-1.625l0,0c0-0.894,0.731-1.625,1.625-1.625h19.112
			c0.894,0,1.625,0.731,1.625,1.625l0,0C23.363,212.528,22.631,213.26,21.737,213.26z"/>
		<path fill="#2C97E8" d="M496.614,213.26h-19.112c-0.894,0-1.625-0.731-1.625-1.625l0,0c0-0.894,0.731-1.625,1.625-1.625h19.112
			c0.894,0,1.625,0.731,1.625,1.625l0,0C498.24,212.528,497.508,213.26,496.614,213.26z"/>
		<path fill="#2C97E8" d="M472.247,213.26H287.316c-0.894,0-1.625-0.731-1.625-1.625l0,0c0-0.894,0.731-1.625,1.625-1.625h184.931
			c0.894,0,1.625,0.731,1.625,1.625l0,0C473.872,212.528,473.141,213.26,472.247,213.26z"/>
		<path fill="#FFFFFF" d="M310.526,169.018l10.202,17.138h17.87l-15.782-17.138h11.966l-31.499-16.835l-4.632,16.835H310.526z
			 M320.729,169.018"/>
		<path fill="#FFFFFF" d="M205.199,169.018l-4.632-16.835l-31.499,16.835h11.966l-15.782,17.138h17.87l10.202-17.138H205.199z
			 M183.122,169.018"/>
	</g>
</g>
</svg>
