<?xml version="1.0" encoding="utf-8"?>
<!-- Generator: Adobe Illustrator 21.0.0, SVG Export Plug-In . SVG Version: 6.00 Build 0)  -->
<svg version="1.0" id="图层_1" xmlns="http://www.w3.org/2000/svg" xmlns:xlink="http://www.w3.org/1999/xlink" x="0px" y="0px"
	 viewBox="0 0 500 264" enable-background="new 0 0 500 264" xml:space="preserve">
<g>
	
		<rect x="349.333" y="143.309" transform="matrix(-1 -4.354929e-11 4.354929e-11 -1 702.7585 296.4156)" fill="#FFFFFF" width="4.093" height="9.797"/>
	
		<rect x="356.649" y="138.693" transform="matrix(-1 -4.768686e-11 4.768686e-11 -1 716.236 296.0036)" fill="#FFFFFF" width="2.937" height="18.618"/>
	
		<rect x="308.7" y="162.812" transform="matrix(-1 -4.429269e-11 4.429269e-11 -1 622.5737 402.8243)" fill="#FFFFFF" width="5.175" height="77.201"/>
	<g opacity="0.3">
		<path fill="#A7CFFF" d="M150.354,240.85H23.856c-2.91,0-5.271-2.403-5.271-5.368v-6.508c0-13.25,6.609-20.724,26.396-26.222
			c20.43-5.67,24.909-16.579,21.61-20.251c-3.32-3.673-11.016-5.337-12.608-18.47c-2.907-2.075-5.145-4.983-6.43-8.353
			c-2.488-6.185-2.319-13.401,1.043-18.792c-0.706-6.926-0.58-12.992,1.044-19.22c1.476-5.691,4.143-10.706,8.191-14.819
			c6.5-6.54,14.937-10.714,24.003-11.876v-0.054c1.831-0.241,3.676-0.374,5.524-0.397c1.707,0.043,3.372,0.172,5.017,0.397v0.054
			c9.065,1.162,17.503,5.337,24.003,11.876c4.048,4.113,6.705,9.128,8.191,14.819c1.624,6.228,1.749,12.294,1.054,19.22
			c3.363,5.391,3.521,12.607,1.033,18.792c-1.286,3.371-3.524,6.278-6.431,8.353c-1.592,13.133-9.287,14.797-12.597,18.47
			c-3.309,3.672,1.16,14.582,21.611,20.251c19.765,5.498,26.385,12.972,26.385,26.222v6.508
			C155.625,238.447,153.265,240.85,150.354,240.85L150.354,240.85z M150.354,240.85"/>
	</g>
	<g opacity="0.3">
		<path fill="#A7CFFF" d="M267.007,240.85H140.509c-2.91,0-5.271-2.403-5.271-5.368v-6.508c0-13.25,6.609-20.724,26.396-26.222
			c20.43-5.67,24.91-16.579,21.61-20.251c-3.32-3.673-11.016-5.337-12.608-18.47c-2.907-2.075-5.145-4.983-6.43-8.353
			c-2.488-6.185-2.319-13.401,1.043-18.792c-0.706-6.926-0.58-12.992,1.044-19.22c1.476-5.691,4.143-10.706,8.191-14.819
			c6.5-6.54,14.937-10.714,24.003-11.876v-0.054c1.831-0.241,3.676-0.374,5.524-0.397c1.707,0.043,3.372,0.172,5.017,0.397v0.054
			c9.065,1.162,17.503,5.337,24.003,11.876c4.048,4.113,6.705,9.128,8.191,14.819c1.624,6.228,1.749,12.294,1.054,19.22
			c3.363,5.391,3.521,12.607,1.033,18.792c-1.286,3.371-3.524,6.278-6.431,8.353c-1.592,13.133-9.287,14.797-12.597,18.47
			c-3.309,3.672,1.16,14.582,21.611,20.251c19.765,5.498,26.385,12.972,26.385,26.222v6.508
			C272.279,238.447,269.919,240.85,267.007,240.85L267.007,240.85z M267.007,240.85"/>
	</g>
	<g opacity="0.3">
		<path fill="#A7CFFF" d="M383.66,240.85H257.162c-2.91,0-5.271-2.403-5.271-5.368v-6.508c0-13.25,6.609-20.724,26.396-26.222
			c20.43-5.67,24.91-16.579,21.61-20.251c-3.32-3.673-11.016-5.337-12.608-18.47c-2.907-2.075-5.145-4.983-6.43-8.353
			c-2.488-6.185-2.319-13.401,1.043-18.792c-0.706-6.926-0.58-12.992,1.044-19.22c1.476-5.691,4.143-10.706,8.191-14.819
			c6.5-6.54,14.937-10.714,24.003-11.876v-0.054c1.831-0.241,3.676-0.374,5.524-0.397c1.707,0.043,3.372,0.172,5.017,0.397v0.054
			c9.065,1.162,17.503,5.337,24.003,11.876c4.048,4.113,6.705,9.128,8.191,14.819c1.624,6.228,1.749,12.294,1.054,19.22
			c3.363,5.391,3.521,12.607,1.033,18.792c-1.286,3.371-3.524,6.278-6.431,8.353c-1.592,13.133-9.287,14.797-12.597,18.47
			c-3.309,3.672,1.16,14.582,21.611,20.251c19.765,5.498,26.385,12.972,26.385,26.222v6.508
			C388.932,238.447,386.572,240.85,383.66,240.85L383.66,240.85z M383.66,240.85"/>
	</g>
	<path fill="#D5E7FF" d="M160.393,229.332v-8.421h10.433c4.529,0,8.235-3.8,8.235-8.444v-38.226c0-4.644-3.706-8.444-8.235-8.444
		h-48.497c-4.529,0-8.235,3.8-8.235,8.444v38.226c0,4.644,3.706,8.444,8.235,8.444h9.379v11.056
		c-11.237,3.215-37.111,7.714-37.111,7.714l-4.431,17.294h110.188l-4.733-19.415C195.621,237.56,170.64,232.264,160.393,229.332z"/>
	<path fill="none" stroke="#2C97E8" stroke-width="3.718" stroke-miterlimit="10" d="M130.927,257.773h70.192l-3.786-21.86
		c0,0-28.81-4.699-38.412-7.378v-8.907h10.172c4.913,0,8.932-4.019,8.932-8.932v-40.433c0-4.912-4.019-8.932-8.932-8.932h-52.598
		c-4.913,0-8.932,4.019-8.932,8.932v40.433c0,4.912,4.019,8.932,8.932,8.932h10.172v8.907c-8.99,2.509-37.053,7.286-37.053,7.286
		l-5.144,21.952h22.941"/>
	
		<line fill="none" stroke="#2C97E8" stroke-width="3.718" stroke-miterlimit="10" x1="112.895" y1="257.773" x2="124.962" y2="257.773"/>
	<g>
		<path fill="#2C97E8" d="M135.714,162.523L135.714,162.523c-0.868,0.868-2.289,0.868-3.158,0l-18.596-18.596
			c-0.868-0.868-0.868-2.289,0-3.158v0c0.868-0.868,2.289-0.868,3.158,0l18.596,18.596
			C136.583,160.234,136.583,161.655,135.714,162.523z"/>
		<path fill="#2C97E8" d="M150.928,162.523L150.928,162.523c-0.868-0.868-0.868-2.289,0-3.158l18.596-18.596
			c0.868-0.868,2.289-0.868,3.158,0v0c0.868,0.868,0.868,2.289,0,3.158l-18.596,18.596
			C153.217,163.392,151.796,163.392,150.928,162.523z"/>
	</g>
	<path fill="#2C97E8" d="M80.102,245.397H2.847c-1.278,0-2.324-1.046-2.324-2.324l0,0c0-1.278,1.046-2.324,2.324-2.324h77.255
		c1.278,0,2.324,1.046,2.324,2.324l0,0C82.426,244.351,81.38,245.397,80.102,245.397z"/>
	<path fill="#2C97E8" d="M496.922,245.397h-38.076c-1.278,0-2.324-1.046-2.324-2.324v0c0-1.278,1.046-2.324,2.324-2.324h38.076
		c1.278,0,2.324,1.046,2.324,2.324l0,0C499.246,244.351,498.2,245.397,496.922,245.397z"/>
	<path opacity="0.5" fill="#A7CFFF" d="M458.045,135.632h-4.989v-4.989c0-1.477-1.209-2.686-2.686-2.686
		c-1.477,0-2.686,1.209-2.686,2.686v4.989h-4.989c-1.477,0-2.686,1.209-2.686,2.686c0,1.477,1.209,2.686,2.686,2.686h4.989v4.989
		c0,1.478,1.209,2.686,2.686,2.686c1.477,0,2.686-1.209,2.686-2.686v-4.989h4.989c1.477,0,2.686-1.209,2.686-2.686
		C460.731,136.841,459.522,135.632,458.045,135.632z"/>
	
		<circle opacity="0.5" fill="#FFFFFF" stroke="#A7CFFF" stroke-width="5.1749" stroke-miterlimit="10" cx="364.929" cy="81.177" r="6.867"/>
	
		<circle opacity="0.5" fill="#FFFFFF" stroke="#A7CFFF" stroke-width="3.6224" stroke-miterlimit="10" cx="347.028" cy="70.198" r="4.807"/>
	<g>
		<path fill="#D5E7FF" d="M321.053,257.036H219.759c-2.331,0-4.22-1.924-4.22-4.299v-5.211c0-10.61,5.292-16.595,21.137-20.998
			c16.359-4.54,19.947-13.276,17.304-16.216c-2.658-2.941-8.821-4.273-10.096-14.79c-2.328-1.662-4.12-3.99-5.149-6.689
			c-1.992-4.953-1.857-10.731,0.835-15.048c-0.566-5.546-0.464-10.404,0.836-15.391c1.182-4.557,3.318-8.573,6.559-11.867
			c5.205-5.237,11.961-8.579,19.221-9.51v-0.043c1.466-0.193,2.944-0.3,4.423-0.318c1.367,0.034,2.701,0.138,4.017,0.318v0.043
			c7.259,0.931,14.016,4.273,19.221,9.51c3.242,3.293,5.369,7.309,6.559,11.867c1.3,4.987,1.401,9.845,0.844,15.391
			c2.693,4.317,2.82,10.095,0.827,15.048c-1.03,2.699-2.822,5.027-5.149,6.689c-1.275,10.516-7.437,11.848-10.087,14.79
			c-2.65,2.94,0.929,11.676,17.305,16.216c15.827,4.402,21.128,10.387,21.128,20.998v5.211
			C325.274,255.112,323.384,257.036,321.053,257.036L321.053,257.036z M321.053,257.036"/>
	</g>
	<g>
		<g>
			<path fill="none" stroke="#2C97E8" stroke-width="3.718" stroke-miterlimit="10" d="M229.081,258.417h-16.774
				c-2.506,0-4.539-2.031-4.539-4.538v-5.501c0-11.201,5.691-17.52,22.73-22.167c17.592-4.793,21.45-14.015,18.608-17.12
				c-2.859-3.105-9.486-4.511-10.857-15.614c-2.503-1.754-4.43-4.212-5.537-7.062c-2.142-5.228-1.997-11.329,0.898-15.886
				c-0.608-5.855-0.499-10.983,0.899-16.248c1.271-4.811,3.568-9.051,7.054-12.527c5.598-5.528,12.862-9.057,20.669-10.04v-0.045
				c1.577-0.204,3.166-0.316,4.757-0.335c1.47,0.036,2.904,0.145,4.32,0.335v0.045c7.806,0.983,15.072,4.511,20.669,10.04
				c3.486,3.477,5.774,7.716,7.054,12.527c1.398,5.265,1.506,10.393,0.907,16.248c2.896,4.558,3.032,10.658,0.89,15.886
				c-1.107,2.85-3.034,5.307-5.538,7.062c-1.371,11.102-7.997,12.508-10.848,15.614c-2.85,3.104,0.999,12.327,18.609,17.12
				c17.02,4.648,22.721,10.966,22.721,22.167v5.501c0,2.507-2.032,4.538-4.539,4.538l0,0H256.16 M250.692,258.417h-16.03
				 M321.235,258.417"/>
		</g>
	</g>
	<circle fill="#2C97E8" cx="228.926" cy="258.442" r="1.859"/>
	<circle fill="#2C97E8" cx="234.713" cy="258.452" r="1.859"/>
	<circle fill="#2C97E8" cx="250.69" cy="258.423" r="1.859"/>
	<circle fill="#2C97E8" cx="256.125" cy="258.452" r="1.859"/>
	<g>
		<path fill="#D5E7FF" d="M445.995,257.75H344.701c-2.331,0-4.22-1.924-4.22-4.299v-5.211c0-10.61,5.292-16.595,21.137-20.998
			c16.359-4.54,19.947-13.276,17.304-16.216c-2.658-2.941-8.821-4.273-10.096-14.79c-2.328-1.662-4.12-3.99-5.149-6.689
			c-1.992-4.953-1.857-10.731,0.835-15.048c-0.566-5.546-0.464-10.404,0.836-15.391c1.182-4.557,3.318-8.573,6.559-11.867
			c5.205-5.237,11.961-8.579,19.221-9.51v-0.043c1.466-0.193,2.944-0.3,4.423-0.318c1.367,0.034,2.701,0.138,4.017,0.318v0.043
			c7.259,0.931,14.016,4.273,19.221,9.51c3.242,3.293,5.369,7.309,6.559,11.867c1.3,4.987,1.401,9.845,0.844,15.391
			c2.693,4.317,2.82,10.095,0.827,15.048c-1.03,2.699-2.822,5.027-5.149,6.689c-1.275,10.516-7.437,11.848-10.087,14.79
			c-2.65,2.94,0.929,11.676,17.305,16.216c15.827,4.402,21.128,10.387,21.128,20.998v5.211
			C450.216,255.826,448.326,257.75,445.995,257.75L445.995,257.75z M445.995,257.75"/>
	</g>
	<g>
		<g>
			<path fill="none" stroke="#2C97E8" stroke-width="3.718" stroke-miterlimit="10" d="M354.023,259.13h-16.774
				c-2.506,0-4.539-2.031-4.539-4.538v-5.501c0-11.201,5.691-17.52,22.73-22.167c17.592-4.793,21.45-14.015,18.608-17.12
				c-2.859-3.105-9.486-4.511-10.857-15.614c-2.503-1.754-4.43-4.212-5.537-7.062c-2.142-5.228-1.997-11.329,0.898-15.886
				c-0.608-5.855-0.499-10.983,0.899-16.248c1.271-4.811,3.568-9.051,7.054-12.527c5.598-5.528,12.862-9.057,20.669-10.04v-0.045
				c1.577-0.204,3.166-0.316,4.757-0.335c1.47,0.036,2.904,0.145,4.32,0.335v0.045c7.806,0.983,15.072,4.511,20.669,10.04
				c3.486,3.477,5.774,7.716,7.054,12.527c1.398,5.265,1.506,10.393,0.907,16.248c2.896,4.558,3.032,10.658,0.89,15.886
				c-1.107,2.85-3.034,5.307-5.538,7.062c-1.371,11.102-7.997,12.508-10.848,15.614c-2.85,3.104,0.999,12.327,18.609,17.12
				c17.02,4.648,22.721,10.966,22.721,22.167v5.501c0,2.507-2.032,4.538-4.539,4.538l0,0h-65.076 M375.634,259.13h-16.03
				 M446.177,259.13"/>
		</g>
	</g>
	<circle fill="#2C97E8" cx="354.129" cy="259.126" r="1.859"/>
	<circle fill="#2C97E8" cx="359.597" cy="259.166" r="1.859"/>
	<circle fill="#2C97E8" cx="375.603" cy="259.137" r="1.859"/>
	<circle fill="#2C97E8" cx="381.067" cy="259.166" r="1.859"/>
	<circle fill="#2C97E8" cx="107.445" cy="257.785" r="1.859"/>
	<circle fill="#1077F8" cx="112.806" cy="257.785" r="1.859"/>
	<circle fill="#1077F8" cx="125.02" cy="257.774" r="1.859"/>
	<circle fill="#2C97E8" cx="130.796" cy="257.774" r="1.859"/>
	<g>
		
			<rect x="54.86" y="24.168" fill="#D5E7FF" stroke="#2C97E8" stroke-width="2.5606" stroke-miterlimit="10" width="177.323" height="10.669"/>
		
			<line fill="none" stroke="#2C97E8" stroke-width="3.4142" stroke-miterlimit="10" x1="54.753" y1="15.59" x2="261.272" y2="15.59"/>
		
			<line fill="none" stroke="#A7CFFF" stroke-width="3.4142" stroke-miterlimit="10" x1="240.19" y1="28.137" x2="296.677" y2="28.471"/>
		
			<line fill="none" stroke="#A7CFFF" stroke-width="3.4142" stroke-miterlimit="10" x1="266.802" y1="15.489" x2="423.412" y2="15.824"/>
		<path fill="#FFFFFF" stroke="#2C97E8" stroke-width="2.5606" stroke-miterlimit="10" d="M167.386,46.36h-47.729
			c-4.772,0-8.677-3.905-8.677-8.677V13.64c0-4.772,3.905-8.677,8.677-8.677h47.729c4.772,0,8.677,3.905,8.677,8.677v24.043
			C176.062,42.455,172.158,46.36,167.386,46.36z"/>
		<path fill="#D5E7FF" d="M167.396,45.092h-47.749c-4.022,0-7.312-3.291-7.312-7.312V17.112c0-4.022,3.291-7.312,7.312-7.312h47.749
			c4.022,0,7.312,3.291,7.312,7.312V37.78C174.708,41.802,171.417,45.092,167.396,45.092z"/>
		<path fill="#A7CFFF" stroke="#2C97E8" stroke-width="2.5606" stroke-miterlimit="10" d="M157.658,57.507V46.35h-28.273v11.157
			c-4.322,1.201-7.522,5.171-7.522,9.862v10.543h43.317V67.369C165.18,62.678,161.98,58.708,157.658,57.507z"/>
		<path fill="#A7CFFF" stroke="#2C97E8" stroke-width="2.5606" stroke-miterlimit="10" d="M159.238,118.154h-31.433
			c-14.3,0-26-11.7-26-26v-7.238c0-6.6,5.4-12,12-12h59.433c6.6,0,12,5.4,12,12v7.238
			C185.238,106.454,173.538,118.154,159.238,118.154z"/>
		<path fill="#6BAEFD" d="M161.9,116.892h-36.758c-12.168,0-22.124-9.956-22.124-22.124v0c0-5.29,4.328-9.618,9.618-9.618h61.77
			c5.29,0,9.618,4.328,9.618,9.618v0C184.024,106.937,174.069,116.892,161.9,116.892z"/>
		<g>
			<g>
				
					<rect x="93.397" y="88.464" transform="matrix(0.7071 0.7071 -0.7071 0.7071 108.407 -43.6058)" fill="#D5E7FF" stroke="#2C97E8" stroke-width="3.4142" stroke-miterlimit="10" width="26.886" height="41.183"/>
				
					<rect x="98.021" y="83.129" transform="matrix(0.7071 0.7071 -0.7071 0.7071 101.4019 -40.7263)" fill="#FFFFFF" width="3.681" height="37.822"/>
			</g>
			<g>
				<polygon fill="#A7CFFF" stroke="#2C97E8" stroke-width="3.4357" stroke-miterlimit="10" points="107.387,188.672 
					98.846,191.093 80.696,137.884 100.14,133.108 				"/>
				<polygon fill="#FFFFFF" points="102.75,188.341 99.99,189.069 82.951,139.098 85.613,138.444 				"/>
			</g>
			<g>
				<circle fill="#D5E7FF" stroke="#2C97E8" stroke-width="3.4142" stroke-miterlimit="10" cx="87.879" cy="129.606" r="19.631"/>
				<circle fill="#2C97E8" cx="87.879" cy="129.606" r="5.251"/>
			</g>
		</g>
		<g>
			<g>
				<polygon fill="#A7CFFF" stroke="#2C97E8" stroke-width="3.4357" stroke-miterlimit="10" points="178.137,187.107 
					186.678,189.528 204.828,136.319 185.384,131.543 				"/>
				<polygon fill="#FFFFFF" points="182.774,186.777 185.534,187.504 202.573,137.533 199.911,136.879 				"/>
			</g>
			<g>
				
					<rect x="168.36" y="90.029" transform="matrix(0.7071 -0.7071 0.7071 0.7071 -24.9719 160.9541)" fill="#D5E7FF" stroke="#2C97E8" stroke-width="3.4142" stroke-miterlimit="10" width="26.886" height="41.183"/>
				
					<rect x="172.946" y="98.688" transform="matrix(0.7071 -0.7071 0.7071 0.7071 -31.9614 158.0368)" fill="#FFFFFF" width="3.681" height="37.822"/>
			</g>
			<g>
				<circle fill="#D5E7FF" stroke="#2C97E8" stroke-width="3.4142" stroke-miterlimit="10" cx="198.619" cy="127.614" r="19.631"/>
				<circle fill="#2C97E8" cx="198.619" cy="127.614" r="5.251"/>
			</g>
		</g>
	</g>
	<g>
		<path fill="#FFFFFF" d="M165.043,183.636h-44.261c-1.15,0-2.091-0.941-2.091-2.091l0,0c0-1.15,0.941-2.091,2.091-2.091h44.261
			c1.15,0,2.091,0.941,2.091,2.091l0,0C167.135,182.695,166.193,183.636,165.043,183.636z"/>
		<path fill="#2C97E8" d="M167.441,185.178h-43.139c-1.15,0-2.091-0.941-2.091-2.091v0c0-1.15,0.941-2.091,2.091-2.091h43.139
			c1.15,0,2.091,0.941,2.091,2.091v0C169.533,184.237,168.592,185.178,167.441,185.178z"/>
	</g>
</g>
</svg>
