<?xml version="1.0" encoding="utf-8"?>
<!-- Generator: Adobe Illustrator 21.0.0, SVG Export Plug-In . SVG Version: 6.00 Build 0)  -->
<svg version="1.0" id="图层_1" xmlns="http://www.w3.org/2000/svg" xmlns:xlink="http://www.w3.org/1999/xlink" x="0px" y="0px"
	 viewBox="0 0 314.5 265" enable-background="new 0 0 314.5 265" xml:space="preserve">
<path fill="#455D82" d="M106.444,192.922"/>
<line fill="#FFFFFF" stroke="#455D82" stroke-width="2.7239" stroke-miterlimit="10" x1="217.256" y1="189.904" x2="99.244" y2="190.087"/>
<g>
	<path fill="#455D82" d="M9.796,248.613c-0.505-0.992-1.123-1.929-1.872-2.809l1.348-0.487c0.711,0.899,1.348,2.004,1.947,3.296
		h7.152v1.348h-2.921c-0.917,2.958-2.303,5.448-4.138,7.433c1.985,1.686,4.475,3.07,7.47,4.176l-0.73,1.123
		c-3.108-1.161-5.654-2.603-7.676-4.344c-2.134,1.966-4.793,3.407-7.976,4.325l-0.712-1.18c3.146-0.843,5.729-2.172,7.751-4.007
		c-2.172-2.135-3.67-4.644-4.512-7.526H2.045v-1.348H9.796z M10.377,256.552c1.667-1.816,2.883-4.007,3.669-6.591H6.258
		C7.063,252.488,8.43,254.679,10.377,256.552z"/>
	<path fill="#455D82" d="M28.241,248.894v-3.389h1.386v3.389h7.302v1.292h-6.104c1.254,2.977,3.501,5.636,6.721,7.976l-0.917,1.161
		c-3.295-2.696-5.579-5.748-6.853-9.137h-0.149v7.302h4.006v1.292h-4.006v3.838h-1.386v-3.838h-3.857v-1.292h3.857v-7.302H28.11
		c-1.386,3.801-3.745,6.928-7.077,9.38l-0.768-1.254c3.145-2.098,5.392-4.812,6.777-8.126h-6.122v-1.292H28.241z"/>
	<path fill="#455D82" d="M43.185,258.105c-1.236,0.468-2.621,0.843-4.175,1.142l-0.168-1.272c1.647-0.281,3.108-0.637,4.344-1.086
		V258.105z M39.346,247.546v-1.236h5.879l-0.898,7.714h1.161c0,4.269-0.187,6.722-0.543,7.377c-0.375,0.637-1.142,0.974-2.322,0.974
		c-0.431,0-0.88-0.019-1.329-0.057l-0.356-1.198c0.656,0.075,1.124,0.112,1.386,0.112c0.898,0,1.441-0.299,1.629-0.86
		c0.187-0.6,0.299-2.304,0.299-5.149h-4.774l0.88-6.422l1.236,0.075l-0.749,5.148h2.209l0.824-6.478H39.346z M46.143,252.956
		l-0.711-1.085c2.097-1.629,3.726-3.745,4.849-6.348h1.236c0.936,2.396,2.583,4.475,4.905,6.272l-0.73,1.123
		c-0.805-0.618-1.517-1.273-2.153-1.966v1.161h-5.261v-1.161C47.603,251.702,46.892,252.376,46.143,252.956z M52.059,260.67
		c0.711-1.984,1.348-4.456,1.91-7.396l1.292,0.318c-0.524,2.659-1.142,5.018-1.891,7.077h2.827v1.292H45.974v-1.292H52.059z
		 M49.307,259.191l-1.161,0.28c-0.412-1.835-0.955-3.576-1.61-5.261l1.161-0.394C48.296,255.372,48.82,257.169,49.307,259.191z
		 M50.898,246.834c-0.749,1.573-1.591,2.921-2.565,4.044h5.149C52.396,249.643,51.535,248.295,50.898,246.834z M51.947,258.386
		l-1.18,0.281c-0.337-1.741-0.786-3.427-1.348-5.036l1.161-0.356C51.085,254.754,51.535,256.458,51.947,258.386z"/>
	<path fill="#455D82" d="M61.854,251.178v8.088c0.599-0.523,1.235-1.123,1.928-1.797l0.356,1.441
		c-1.086,1.049-2.228,2.004-3.445,2.846l-0.524-1.217c0.262-0.225,0.393-0.486,0.393-0.786v-7.283h-2.715v-1.292H61.854z
		 M63.221,248.52l-0.917,0.936c-0.768-0.936-1.797-1.909-3.108-2.939l0.936-0.88C61.348,246.609,62.378,247.564,63.221,248.52z
		 M64.194,247.658v-1.329h10.503v1.329h-3.876v5.261h3.614v1.255h-3.614v6.478h4.25v1.329H63.614v-1.329h1.91v-9.904h1.311v9.904
		h2.621v-12.993H64.194z"/>
	<path fill="#455D82" d="M82.826,261.644H81.59v-1.067h-2.022V262h-1.254v-7.62c-0.375,0.674-0.786,1.329-1.236,1.966l-0.674-1.086
		c1.423-2.172,2.359-4.662,2.809-7.452h-2.284v-1.311h6.384v1.311h-2.827c-0.262,1.498-0.618,2.902-1.104,4.213h3.445V261.644z
		 M81.59,259.359v-6.104h-2.022v6.104H81.59z M90.614,257.263v1.273h-6.853v-1.273H90.614z M86.683,248.912l-0.824,4.719h3.969
		l0.937-6.123h-6.59v-1.272h8.05l-1.029,7.396h1.984c0,4.53-0.262,7.133-0.749,7.845c-0.524,0.674-1.591,1.029-3.239,1.029
		c-0.524,0-1.086-0.019-1.685-0.056l-0.375-1.311c0.824,0.074,1.404,0.112,1.741,0.112c1.441,0,2.303-0.318,2.583-0.918
		c0.3-0.637,0.45-2.452,0.45-5.448h-7.564l1.011-6.065L86.683,248.912z"/>
</g>
<path fill="#FFFFFF" stroke="#455D82" stroke-width="3.6319" stroke-miterlimit="10" d="M90.901,209.583v13.051
	c0,5.618-4.596,10.214-10.214,10.214H14.581c-5.618,0-10.214-4.596-10.214-10.214v-13.051"/>
<path fill="#FFFFFF" stroke="#455D82" stroke-width="3.6319" stroke-miterlimit="10" d="M4.367,171.281v-11.917
	c0-5.618,4.596-10.214,10.214-10.214h66.106c5.618,0,10.214,4.596,10.214,10.214v11.917"/>
<circle fill="#455D82" cx="4.366" cy="171.437" r="1.816"/>
<circle fill="#455D82" cx="90.902" cy="171.437" r="1.816"/>
<circle fill="#455D82" cx="90.936" cy="209.519" r="1.816"/>
<circle fill="#455D82" cx="4.384" cy="209.519" r="1.816"/>
<path opacity="0.18" fill="#2C97E8" d="M79.228,230.643h-59.13c-5.291,0-9.62-4.329-9.62-9.62v-56.608c0-5.291,4.329-9.62,9.62-9.62
	h59.13c5.291,0,9.62,4.329,9.62,9.62v56.608C88.848,226.314,84.519,230.643,79.228,230.643z"/>
<g>
	<path fill="#FFFFFF" d="M22.712,172.896v34.227h-5.609v-27.468c-2.061,1.869-4.65,3.26-7.813,4.171v-5.561
		c1.534-0.384,3.164-1.054,4.889-2.013c1.726-1.055,3.164-2.157,4.315-3.356H22.712z"/>
	<path fill="#FFFFFF" d="M50.13,175.101c2.109,1.918,3.164,4.363,3.164,7.431c0,2.972-1.15,5.656-3.356,8.101
		c-1.342,1.438-3.739,3.26-7.094,5.513c-3.499,2.301-5.609,4.314-6.376,6.04h16.874v4.937H29.469c0-3.499,1.103-6.52,3.404-9.108
		c1.246-1.438,3.883-3.548,7.862-6.28c2.205-1.534,3.74-2.829,4.698-3.835c1.486-1.678,2.253-3.499,2.253-5.417
		c0-1.869-0.528-3.26-1.486-4.171c-1.007-0.911-2.493-1.342-4.459-1.342c-2.109,0-3.691,0.719-4.745,2.157
		c-1.055,1.342-1.63,3.404-1.726,6.088h-5.609c0.048-3.835,1.15-6.903,3.356-9.252c2.253-2.493,5.225-3.739,8.916-3.739
		C45.24,172.225,47.973,173.184,50.13,175.101z"/>
	<path fill="#FFFFFF" d="M78.89,174.718c2.061,1.678,3.116,3.979,3.116,6.951c0,3.739-1.918,6.232-5.705,7.478
		c2.013,0.623,3.595,1.534,4.65,2.78c1.15,1.294,1.726,2.972,1.726,4.986c0,3.164-1.103,5.752-3.307,7.766
		c-2.302,2.061-5.321,3.116-9.06,3.116c-3.548,0-6.424-0.911-8.581-2.733c-2.396-2.013-3.739-4.986-4.026-8.82h5.705
		c0.096,2.205,0.767,3.931,2.109,5.129c1.199,1.103,2.78,1.678,4.746,1.678c2.157,0,3.883-0.623,5.129-1.822
		c1.102-1.103,1.677-2.445,1.677-4.075c0-1.965-0.623-3.403-1.774-4.314c-1.15-0.959-2.828-1.39-5.033-1.39h-2.397v-4.219h2.397
		c2.013,0,3.548-0.431,4.602-1.294c1.007-0.863,1.534-2.157,1.534-3.835c0-1.678-0.48-2.924-1.391-3.787
		c-1.007-0.863-2.493-1.294-4.458-1.294c-2.013,0-3.548,0.48-4.65,1.486c-1.15,1.007-1.822,2.541-2.013,4.602h-5.513
		c0.288-3.452,1.534-6.136,3.835-8.054c2.157-1.918,4.937-2.828,8.293-2.828C73.953,172.225,76.781,173.04,78.89,174.718z"/>
</g>
<g>
	<path fill="#455D82" d="M24.981,174.741v34.227h-5.609v-27.468c-2.061,1.869-4.65,3.26-7.813,4.171v-5.561
		c1.534-0.384,3.164-1.054,4.889-2.013c1.726-1.055,3.164-2.157,4.315-3.356H24.981z"/>
	<path fill="#455D82" d="M52.4,176.945c2.109,1.918,3.164,4.363,3.164,7.431c0,2.972-1.15,5.656-3.356,8.101
		c-1.342,1.438-3.739,3.26-7.094,5.513c-3.499,2.301-5.609,4.314-6.376,6.04h16.874v4.937H31.738c0-3.499,1.103-6.52,3.404-9.108
		c1.246-1.438,3.883-3.548,7.862-6.28c2.205-1.534,3.74-2.829,4.698-3.835c1.486-1.678,2.253-3.499,2.253-5.417
		c0-1.869-0.528-3.26-1.486-4.171c-1.007-0.911-2.493-1.342-4.459-1.342c-2.109,0-3.691,0.719-4.745,2.157
		c-1.055,1.342-1.63,3.404-1.726,6.088H31.93c0.048-3.835,1.15-6.903,3.356-9.252c2.253-2.493,5.225-3.739,8.916-3.739
		C47.51,174.069,50.243,175.028,52.4,176.945z"/>
	<path fill="#455D82" d="M81.16,176.562c2.061,1.678,3.116,3.979,3.116,6.951c0,3.739-1.918,6.232-5.705,7.478
		c2.013,0.623,3.595,1.534,4.65,2.78c1.15,1.294,1.726,2.972,1.726,4.986c0,3.164-1.103,5.752-3.307,7.766
		c-2.302,2.061-5.321,3.116-9.06,3.116c-3.548,0-6.424-0.911-8.581-2.733c-2.396-2.013-3.739-4.986-4.026-8.82h5.705
		c0.096,2.205,0.767,3.931,2.109,5.129c1.199,1.103,2.78,1.678,4.746,1.678c2.157,0,3.883-0.623,5.129-1.822
		c1.102-1.103,1.677-2.445,1.677-4.075c0-1.965-0.623-3.403-1.774-4.314c-1.15-0.959-2.828-1.39-5.033-1.39h-2.397v-4.219h2.397
		c2.013,0,3.548-0.431,4.602-1.294c1.007-0.863,1.534-2.157,1.534-3.835c0-1.678-0.48-2.924-1.391-3.787
		c-1.007-0.863-2.493-1.294-4.458-1.294c-2.013,0-3.548,0.48-4.65,1.486c-1.15,1.007-1.822,2.541-2.013,4.602h-5.513
		c0.288-3.452,1.534-6.136,3.835-8.054c2.157-1.918,4.937-2.828,8.293-2.828C76.223,174.069,79.05,174.884,81.16,176.562z"/>
</g>
<circle fill="#FFFFFF" stroke="#455D82" stroke-width="2.7239" stroke-miterlimit="10" cx="101.452" cy="190.202" r="5.866"/>
<g>
	
		<line fill="#FFFFFF" stroke="#455D82" stroke-width="2.7239" stroke-miterlimit="10" x1="80.328" y1="139.783" x2="112.705" y2="90.344"/>
	<circle fill="#FFFFFF" stroke="#455D82" stroke-width="2.7239" stroke-miterlimit="10" cx="83.107" cy="136.734" r="5.866"/>
	<circle fill="#FFFFFF" stroke="#455D82" stroke-width="2.7239" stroke-miterlimit="10" cx="111.352" cy="91.269" r="5.866"/>
</g>
<g>
	
		<line fill="#FFFFFF" stroke="#455D82" stroke-width="2.7239" stroke-miterlimit="10" x1="238.86" y1="139.783" x2="206.482" y2="90.344"/>
	<circle fill="#FFFFFF" stroke="#455D82" stroke-width="2.7239" stroke-miterlimit="10" cx="236.081" cy="136.734" r="5.866"/>
	<circle fill="#FFFFFF" stroke="#455D82" stroke-width="2.7239" stroke-miterlimit="10" cx="207.836" cy="91.269" r="5.866"/>
</g>
<circle fill="#FFFFFF" stroke="#455D82" stroke-width="2.7239" stroke-miterlimit="10" cx="216.35" cy="189.961" r="5.866"/>
<g>
	<path fill="#455D82" d="M225.64,251.605v8.294c0.6-0.523,1.236-1.142,1.929-1.835l0.355,1.424c-1.086,1.085-2.228,2.04-3.463,2.883
		l-0.524-1.198c0.262-0.243,0.411-0.506,0.411-0.805v-7.471h-2.752v-1.292H225.64z M226.97,248.872l-0.937,0.918
		c-0.749-0.861-1.76-1.761-3.052-2.734l0.937-0.917C225.116,247.037,226.146,247.955,226.97,248.872z M238.222,246.645v1.235h-5.224
		l-0.449,2.078h4.493v3.688h1.76v1.254h-11.309v-1.254h2.921l0.524-2.472h-2.509v-1.217h2.771l0.45-2.078h-3.67v-1.235H238.222z
		 M237.566,263.083h-1.329v-0.899h-5.991v0.899h-1.33v-6.479h8.65V263.083z M236.237,260.911v-3.071h-5.991v3.071H236.237z
		 M235.694,253.646v-2.472h-3.408l-0.523,2.472H235.694z"/>
	<path fill="#455D82" d="M248.316,247.711c-0.281-0.636-0.581-1.235-0.899-1.76l1.423-0.225c0.3,0.581,0.581,1.236,0.843,1.984
		h6.609v1.236h-2.977c-0.281,1.048-0.656,2.04-1.143,2.995h4.98v1.255H240.64v-1.255h4.83c-0.299-1.086-0.655-2.078-1.029-2.995
		h-2.921v-1.236H248.316z M254.738,263.045h-1.367v-0.861h-8.874v0.861h-1.367v-8.35h11.608V263.045z M253.371,257.878v-1.984
		h-8.874v1.984H253.371z M253.371,260.985v-1.947h-8.874v1.947H253.371z M246.818,251.942h4.044c0.506-0.955,0.88-1.947,1.104-2.995
		h-6.104C246.2,249.846,246.519,250.856,246.818,251.942z"/>
	<path fill="#455D82" d="M263.147,258.533c-1.235,0.468-2.621,0.843-4.175,1.142l-0.169-1.272c1.647-0.281,3.108-0.637,4.344-1.086
		V258.533z M259.31,247.974v-1.236h5.879l-0.899,7.714h1.161c0,4.269-0.188,6.722-0.543,7.377c-0.374,0.637-1.142,0.974-2.321,0.974
		c-0.431,0-0.88-0.019-1.329-0.057l-0.356-1.198c0.655,0.075,1.124,0.112,1.386,0.112c0.898,0,1.441-0.299,1.629-0.86
		c0.188-0.6,0.3-2.304,0.3-5.149h-4.774l0.88-6.422l1.235,0.075l-0.749,5.148h2.21l0.823-6.478H259.31z M266.105,253.384
		l-0.712-1.085c2.098-1.629,3.727-3.745,4.85-6.348h1.235c0.937,2.396,2.584,4.475,4.905,6.272l-0.729,1.123
		c-0.806-0.618-1.517-1.273-2.153-1.966v1.161h-5.261v-1.161C267.565,252.13,266.854,252.804,266.105,253.384z M272.021,261.098
		c0.712-1.984,1.349-4.456,1.91-7.396l1.292,0.318c-0.524,2.659-1.143,5.018-1.892,7.077h2.827v1.292h-10.223v-1.292H272.021z
		 M269.27,259.619l-1.161,0.28c-0.411-1.835-0.954-3.576-1.609-5.261l1.16-0.394C268.259,255.8,268.783,257.597,269.27,259.619z
		 M270.861,247.262c-0.749,1.573-1.592,2.921-2.565,4.044h5.148C272.358,250.07,271.498,248.723,270.861,247.262z M271.909,258.813
		l-1.18,0.281c-0.337-1.741-0.786-3.427-1.348-5.036l1.161-0.356C271.048,255.182,271.498,256.886,271.909,258.813z"/>
	<path fill="#455D82" d="M281.815,251.605v8.088c0.6-0.523,1.236-1.123,1.929-1.797l0.355,1.441
		c-1.086,1.049-2.228,2.004-3.444,2.846l-0.524-1.217c0.262-0.225,0.393-0.486,0.393-0.786v-7.283h-2.714v-1.292H281.815z
		 M283.183,248.947l-0.918,0.936c-0.768-0.936-1.797-1.909-3.107-2.939l0.937-0.88C281.311,247.037,282.34,247.992,283.183,248.947z
		 M284.156,248.086v-1.329h10.503v1.329h-3.875v5.261h3.613v1.255h-3.613v6.478h4.25v1.329h-11.459v-1.329h1.91v-9.904h1.311v9.904
		h2.621v-12.993H284.156z"/>
	<path fill="#455D82" d="M302.788,262.071h-1.235v-1.067h-2.022v1.424h-1.254v-7.62c-0.375,0.674-0.787,1.329-1.236,1.966
		l-0.674-1.086c1.423-2.172,2.359-4.662,2.809-7.452h-2.284v-1.311h6.384v1.311h-2.827c-0.262,1.498-0.617,2.902-1.104,4.213h3.445
		V262.071z M301.553,259.787v-6.104h-2.022v6.104H301.553z M310.576,257.69v1.273h-6.852v-1.273H310.576z M306.645,249.34
		l-0.823,4.719h3.969l0.937-6.123h-6.591v-1.272h8.051l-1.029,7.396h1.984c0,4.53-0.262,7.133-0.749,7.845
		c-0.524,0.674-1.591,1.029-3.239,1.029c-0.523,0-1.086-0.019-1.685-0.056l-0.374-1.311c0.823,0.074,1.403,0.112,1.74,0.112
		c1.442,0,2.304-0.318,2.584-0.918c0.3-0.637,0.449-2.452,0.449-5.448h-7.563l1.011-6.065L306.645,249.34z"/>
</g>
<path fill="#FFFFFF" stroke="#455D82" stroke-width="3.6319" stroke-miterlimit="10" d="M310.864,209.157v13.051
	c0,5.618-4.596,10.214-10.214,10.214h-66.106c-5.618,0-10.214-4.596-10.214-10.214v-13.051"/>
<path fill="#FFFFFF" stroke="#455D82" stroke-width="3.6319" stroke-miterlimit="10" d="M224.33,170.855v-11.917
	c0-5.618,4.596-10.214,10.214-10.214h66.106c5.618,0,10.214,4.596,10.214,10.214v11.917"/>
<circle fill="#455D82" cx="224.34" cy="170.909" r="1.816"/>
<circle fill="#455D82" cx="310.86" cy="170.909" r="1.816"/>
<circle fill="#455D82" cx="310.867" cy="209.139" r="1.816"/>
<circle fill="#455D82" cx="224.33" cy="209.139" r="1.816"/>
<path opacity="0.18" fill="#2C97E8" d="M299.496,231.246h-59.223c-5.291,0-9.62-4.329-9.62-9.62v-57.664
	c0-5.291,4.329-9.62,9.62-9.62h59.223c5.291,0,9.62,4.329,9.62,9.62v57.664C309.116,226.917,304.787,231.246,299.496,231.246z"/>
<g>
	<path fill="#FFFFFF" d="M270.647,165.389l-0.147,0.294c-1.029,1.177-0.882,2.941,0.147,4.118c5.294,5.295,8.53,12.648,8.53,20.736
		c0,7.941-3.235,15.147-8.236,20.442c-1.029,1.029-1.176,2.794-0.147,3.971c1.177,1.324,3.235,1.471,4.412,0.147
		c6.324-6.471,10.147-15.148,10.147-24.854c0-9.706-3.971-18.53-10.294-25.001C273.883,163.919,271.824,164.066,270.647,165.389
		L270.647,165.389z M265.353,175.684c-1.029-1.47-3.088-1.618-4.412-0.294c-1.029,1.03-1.176,2.647-0.294,3.824
		c2.353,3.235,3.677,7.059,3.677,11.324c0,3.971-1.177,7.5-3.235,10.588c-0.735,1.177-0.589,2.794,0.588,3.824
		c1.324,1.176,3.382,0.882,4.265-0.589c2.647-3.97,4.265-8.824,4.265-13.824C270.206,184.949,268.441,179.802,265.353,175.684
		L265.353,175.684z M256.382,186.567"/>
	<circle fill="#FFFFFF" cx="251.537" cy="189.753" r="5.192"/>
</g>
<g>
	<path fill="#455D82" d="M272.389,167.131l-0.147,0.294c-1.029,1.177-0.882,2.941,0.147,4.118c5.294,5.295,8.53,12.648,8.53,20.736
		c0,7.941-3.235,15.147-8.236,20.442c-1.029,1.029-1.176,2.794-0.147,3.971c1.177,1.324,3.235,1.471,4.412,0.147
		c6.324-6.471,10.147-15.148,10.147-24.854c0-9.706-3.971-18.53-10.294-25.001C275.624,165.661,273.566,165.808,272.389,167.131
		L272.389,167.131z M267.095,177.426c-1.029-1.47-3.088-1.618-4.412-0.294c-1.029,1.03-1.176,2.647-0.294,3.824
		c2.353,3.235,3.677,7.059,3.677,11.324c0,3.971-1.177,7.5-3.235,10.588c-0.735,1.177-0.589,2.794,0.588,3.824
		c1.324,1.176,3.382,0.882,4.265-0.589c2.647-3.97,4.265-8.824,4.265-13.824C271.948,186.691,270.183,181.544,267.095,177.426
		L267.095,177.426z M258.124,188.308"/>
	<circle fill="#455D82" cx="253.279" cy="191.495" r="5.192"/>
</g>
<g>
	<path fill="#455D82" d="M129.307,99.303v-1.254h1.348v1.254h4.98v-1.254h1.348v1.254h4.213v1.18h-4.213v1.104h-1.348v-1.104h-4.98
		v1.104h-1.348v-1.104h-4.212v-1.18H129.307z M140.672,105.875h-1.292v-2.359h-12.469v2.453h-1.292v-3.595h15.053V105.875z
		 M139.624,115.197h-1.292v-0.768h-10.167v0.768h-1.311v-5.279h12.769V115.197z M138.332,113.288v-2.247h-10.167v2.247H138.332z
		 M137.845,104.845v3.8h-9.324v-3.8H137.845z M136.59,105.893h-6.815v1.723h6.815V105.893z"/>
	<path fill="#455D82" d="M147.06,98.311c-0.169,0.636-0.337,1.235-0.524,1.816h3.426v1.273h-3.875
		c-0.506,1.292-1.086,2.472-1.76,3.52l-1.104-0.693c1.161-1.872,2.003-3.932,2.527-6.178L147.06,98.311z M149.643,103.908v1.217
		h-1.947v2.359h2.583v1.254h-2.583v4.399c0.842-0.299,1.704-0.711,2.565-1.217l0.225,1.198c-1.18,0.655-2.546,1.198-4.1,1.61
		l-0.562-1.161c0.375-0.131,0.562-0.318,0.562-0.562v-4.269h-2.583v-1.254h2.583v-2.359h-1.198v-1.217H149.643z M153.574,101.924
		l-1.086,0.543c-0.543-1.18-1.123-2.228-1.76-3.146l1.143-0.543C152.47,99.733,153.031,100.782,153.574,101.924z M156.102,98.067
		v5.186h3.521v9.997c0,1.198-0.543,1.816-1.629,1.816h-1.873l-0.355-1.292l1.798,0.057c0.468,0,0.711-0.3,0.711-0.88v-1.966h-5.71
		v4.138h-1.348v-11.87h3.557v-5.186H156.102z M158.273,104.526h-5.71v2.078h5.71V104.526z M152.563,109.824h5.71v-2.059h-5.71
		V109.824z M160.108,99.134c-0.468,1.142-1.067,2.247-1.797,3.333l-1.105-0.562c0.749-1.124,1.33-2.209,1.779-3.295L160.108,99.134z
		"/>
	<path fill="#455D82" d="M163.219,104.583l-0.974-0.899c0.937-1.498,1.629-3.351,2.06-5.598l1.292,0.337
		c-0.188,0.861-0.394,1.647-0.618,2.377h4.194v1.254h-1.947c-0.019,1.348-0.075,2.565-0.188,3.67h2.172v1.235h-2.34
		c-0.075,0.524-0.169,1.011-0.263,1.479v0.019c0.937,0.861,1.892,1.834,2.865,2.92l-0.787,1.18c-0.954-1.254-1.76-2.228-2.396-2.939
		c-0.636,1.966-1.722,3.613-3.276,4.943l-0.861-1.067c1.592-1.386,2.641-3.146,3.164-5.261c0.094-0.412,0.169-0.843,0.244-1.273
		h-3.314v-1.235h3.482c0.112-1.124,0.169-2.34,0.188-3.67h-1.367C164.155,103.028,163.706,103.871,163.219,104.583z
		 M177.748,108.944c-0.45,1.572-0.993,2.995-1.629,4.25h3.052v1.311h-10.466v-1.311h6.065c0.618-1.273,1.161-2.809,1.629-4.624
		L177.748,108.944z M178.853,99.022v1.273h-9.455v-1.273H178.853z M177.973,102.167v5.729h-7.771v-5.729H177.973z M173.029,112.333
		l-1.217,0.318c-0.318-1.235-0.711-2.434-1.198-3.576l1.18-0.393C172.243,109.749,172.655,110.967,173.029,112.333z
		 M176.681,103.421h-5.168v3.239h5.168V103.421z"/>
	<path fill="#455D82" d="M180.989,107.073l-0.43-1.442c1.834-2.266,3.164-4.868,4.006-7.789l1.255,0.581
		c-0.449,1.441-0.992,2.79-1.647,4.062v12.731h-1.33v-10.522C182.281,105.519,181.664,106.324,180.989,107.073z M191.512,100.482
		c-0.281-0.749-0.599-1.46-0.974-2.172l1.292-0.356c0.394,0.824,0.692,1.573,0.917,2.266l-0.711,0.262h5.897v1.273h-12.188v-1.273
		H191.512z M196.66,115.179h-1.311v-1.011h-6.927v1.011h-1.311v-6.496h9.548V115.179z M196.323,103.272v1.217h-8.855v-1.217H196.323
		z M196.323,105.912v1.236h-8.855v-1.236H196.323z M195.35,112.895v-2.958h-6.927v2.958H195.35z"/>
</g>
<path fill="#FFFFFF" stroke="#455D82" stroke-width="3.6319" stroke-miterlimit="10" d="M203.127,63.334v13.051
	c0,5.618-4.596,10.214-10.214,10.214h-66.106c-5.618,0-10.214-4.596-10.214-10.214V63.334"/>
<path fill="#FFFFFF" stroke="#455D82" stroke-width="3.6319" stroke-miterlimit="10" d="M116.593,25.033V13.116
	c0-5.618,4.596-10.214,10.214-10.214h66.106c5.618,0,10.214,4.596,10.214,10.214v11.917"/>
<circle fill="#455D82" cx="116.588" cy="25.022" r="1.816"/>
<circle fill="#455D82" cx="203.109" cy="25.048" r="1.816"/>
<circle fill="#455D82" cx="203.136" cy="63.217" r="1.816"/>
<circle fill="#455D82" cx="116.595" cy="63.278" r="1.816"/>
<path opacity="0.18" fill="#2C97E8" d="M191.878,84.962h-59.5c-5.291,0-9.62-4.329-9.62-9.62V18.474c0-5.291,4.329-9.62,9.62-9.62
	h59.5c5.291,0,9.62,4.329,9.62,9.62v56.868C201.498,80.633,197.169,84.962,191.878,84.962z"/>
<path fill="#FFFFFF" d="M205.289,45.822v-0.009h-4.225l-9.721-10.689l-5.796,5.903L172.955,24.29l-13.394,15.854l-15.984-28.839
	l-15.142,31.204l-4.237-6.866l-9.503,10.993c0,0-7.703,0.104-7.731,0.104c-1.159,0-2.099,0.94-2.099,2.099s0.94,2.099,2.099,2.099
	c0.045,0,9.902-0.131,9.902-0.131l6.693-8.365l5.182,9.051l15.083-31.083l15.015,27.09l13.926-16.482l12.36,16.43l6.101-6.215
	l7.981,8.776h5.996c0.026,0.001,0.05,0.008,0.076,0.008c1.16,0,2.099-0.94,2.099-2.099
	C207.379,46.764,206.444,45.827,205.289,45.822z"/>
<path fill="#455D82" d="M207.525,52.278c0-1.242-0.998-2.247-2.235-2.266v-0.007h-4.15l-9.793-10.767l-5.783,5.89l-12.601-16.751
	l-13.372,15.828l-16.024-28.909l-15.145,31.21l-4.238-7.404l-9.414,10.297l-7.726,0.093V49.5c-0.023-0.001-0.044-0.007-0.067-0.007
	c-1.254,0-2.27,1.016-2.27,2.27c0,1.254,1.016,2.27,2.27,2.27c0.042,0,0.081-0.01,0.122-0.012v0.01l9.694-0.117l6.543-7.157
	l5.418,9.464l15.081-31.078l14.976,27.02l13.947-16.508l12.351,16.418l6.113-6.227l7.911,8.698h6.088
	c0.012,0,0.022,0.003,0.034,0.003c0.012,0,0.023-0.003,0.034-0.003h0.001v0C206.527,54.525,207.525,53.52,207.525,52.278z"/>
</svg>
