<?xml version="1.0" encoding="utf-8"?>
<!-- Generator: Adobe Illustrator 21.0.0, SVG Export Plug-In . SVG Version: 6.00 Build 0)  -->
<svg version="1.0" id="图层_1" xmlns="http://www.w3.org/2000/svg" xmlns:xlink="http://www.w3.org/1999/xlink" x="0px" y="0px"
	 viewBox="0 0 500 264" enable-background="new 0 0 500 264" xml:space="preserve">
<g>
	<g opacity="0.5">
		<path fill="#FFFFFF" stroke="#0B78F7" stroke-width="3.0637" stroke-miterlimit="10" d="M407.807,261.384
			c12.452-23.446,19.517-50.19,19.517-78.589c0-92.673-75.126-167.8-167.8-167.8c-92.673,0-167.8,75.126-167.8,167.8
			c0,28.399,7.065,55.143,19.517,78.589H407.807z"/>
		<path fill="#D5E7FF" d="M406.506,260.115c12.064-22.716,18.909-48.628,18.909-76.142c0-89.788-72.787-162.575-162.575-162.575
			c-89.788,0-162.575,72.787-162.575,162.575c0,27.514,6.845,53.426,18.909,76.142H406.506z"/>
	</g>
	<path fill="#FFFFFF" stroke="#2C97E8" stroke-width="1.7796" stroke-miterlimit="10" d="M133.068,194.401H23.685
		c-7.837,0-14.25-6.412-14.25-14.25v0c0-7.837,6.412-14.25,14.25-14.25h109.383c7.837,0,14.25,6.412,14.25,14.25v0
		C147.317,187.989,140.905,194.401,133.068,194.401z"/>
	<path fill="#FFFFFF" stroke="#2C97E8" stroke-width="1.7796" stroke-miterlimit="10" d="M152.644,83.769h-43.616
		c-7.837,0-14.25-6.412-14.25-14.25v0c0-7.837,6.412-14.25,14.25-14.25h43.616c7.837,0,14.25,6.412,14.25,14.25v0
		C166.893,77.357,160.481,83.769,152.644,83.769z"/>
	<path fill="#FFFFFF" stroke="#2C97E8" stroke-width="1.7796" stroke-miterlimit="10" d="M452.182,178.126H346.675
		c-7.837,0-14.25-6.412-14.25-14.25v0c0-7.837,6.412-14.25,14.25-14.25h105.506c7.837,0,14.25,6.412,14.25,14.25v0
		C466.431,171.714,460.019,178.126,452.182,178.126z"/>
	<g>
		<g>
			<path fill="#2C97E8" d="M358.522,155.494v9.715c-0.053,3.187-1.672,4.831-4.857,4.936c-3.082,0.052-4.7-1.539-4.857-4.778h3.134
				c0,1.776,0.574,2.663,1.724,2.663c1.045,0,1.646-0.887,1.803-2.663c0-0.104,0-0.183,0-0.235v-9.637H358.522z"/>
			<path fill="#2C97E8" d="M361.03,162.78c0.051-1.148,0.521-1.984,1.41-2.507c0.678-0.417,1.671-0.627,2.977-0.627
				c2.82,0,4.23,1.254,4.23,3.761v5.484c0,0.105,0.026,0.209,0.079,0.313c0.051,0.209,0.078,0.47,0.078,0.783h-2.664
				c-0.105-0.47-0.156-0.913-0.156-1.332c-0.627,1.046-1.673,1.54-3.134,1.488c-2.143-0.104-3.239-1.069-3.291-2.898
				c0.104-1.514,0.835-2.585,2.194-3.212c0.939-0.365,2.245-0.549,3.917-0.549v-0.939c-0.105-0.784-0.575-1.201-1.41-1.254
				c-0.783,0.053-1.229,0.549-1.332,1.488H361.03z M363.459,166.854c0.051,0.889,0.548,1.358,1.488,1.41
				c1.201,0,1.774-0.991,1.724-2.978C364.528,165.131,363.459,165.653,363.459,166.854z"/>
			<path fill="#2C97E8" d="M371.136,159.882h3.212l2.271,6.895l2.351-6.895h2.82l-3.604,10.106h-3.291L371.136,159.882z"/>
			<path fill="#2C97E8" d="M383.28,162.78c0.051-1.148,0.521-1.984,1.41-2.507c0.678-0.417,1.671-0.627,2.977-0.627
				c2.82,0,4.23,1.254,4.23,3.761v5.484c0,0.105,0.026,0.209,0.079,0.313c0.051,0.209,0.078,0.47,0.078,0.783h-2.664
				c-0.105-0.47-0.156-0.913-0.156-1.332c-0.627,1.046-1.673,1.54-3.134,1.488c-2.143-0.104-3.239-1.069-3.291-2.898
				c0.104-1.514,0.835-2.585,2.194-3.212c0.939-0.365,2.245-0.549,3.917-0.549v-0.939c-0.105-0.784-0.575-1.201-1.41-1.254
				c-0.783,0.053-1.229,0.549-1.332,1.488H383.28z M385.709,166.854c0.051,0.889,0.548,1.358,1.488,1.41
				c1.201,0,1.774-0.991,1.724-2.978C386.778,165.131,385.709,165.653,385.709,166.854z"/>
			<path fill="#2C97E8" d="M402.239,159.646c-0.053-1.461-0.836-2.193-2.351-2.193c-1.515,0.105-2.299,0.732-2.35,1.88
				c-0.105,1.098,0.783,1.776,2.663,2.037c0.052,0,0.183,0.027,0.392,0.078c3.395,0.68,5.065,2.012,5.015,3.996
				c-0.053,3.029-2.115,4.596-6.189,4.7c-3.761,0-5.615-1.592-5.562-4.778h3.134c0,1.672,0.81,2.56,2.429,2.663
				c1.88-0.051,2.846-0.678,2.898-1.88c0-0.991-0.914-1.671-2.742-2.037c-0.262-0.052-0.444-0.104-0.548-0.156
				c-3.187-0.731-4.779-2.063-4.779-3.996c0.157-2.977,2.167-4.569,6.033-4.779c3.134,0.157,4.778,1.646,4.936,4.466H402.239z"/>
			<path fill="#2C97E8" d="M413.129,163.485c-0.105-1.253-0.627-1.88-1.566-1.88c-0.732,0-1.176,0.967-1.332,2.898
				c0,0.157,0,0.262,0,0.313c0,0.053,0,0.157,0,0.313c0.104,2.09,0.574,3.134,1.41,3.134c0.94,0,1.436-0.652,1.488-1.959h2.978
				c-0.157,2.561-1.646,3.839-4.466,3.839c-2.82-0.104-4.336-1.827-4.544-5.17c0.261-3.343,1.774-5.118,4.544-5.328
				c2.872,0.105,4.36,1.385,4.466,3.839H413.129z"/>
			<path fill="#2C97E8" d="M420.337,159.882v1.88h0.078c0.574-1.41,1.724-2.062,3.447-1.958v2.663h-1.332
				c-0.731,0.157-1.228,0.392-1.488,0.705c-0.156,0.366-0.288,0.862-0.392,1.489c0,0.156,0,0.262,0,0.313v5.014h-2.978v-8.069
				c0-0.104,0-0.339,0-0.705c-0.053-0.574-0.078-1.019-0.078-1.332H420.337z"/>
			<path fill="#2C97E8" d="M428.641,155.494v2.586h-3.213v-2.586H428.641z M428.562,159.882v10.106h-3.055v-10.106H428.562z"/>
			<path fill="#2C97E8" d="M433.811,161.057h0.079c0.678-0.887,1.566-1.357,2.663-1.41c2.925,0.157,4.492,1.934,4.701,5.328
				c-0.209,3.343-1.646,5.065-4.309,5.17c-1.463,0-2.481-0.521-3.056-1.566h-0.079v5.093h-2.977v-11.752c0-0.208,0-0.521,0-0.94
				c-0.053-0.47-0.078-0.835-0.078-1.097h2.977L433.811,161.057z M436.006,168.265c1.462,0,2.167-1.097,2.115-3.29
				c0.052-2.245-0.653-3.369-2.115-3.369c-1.359,0.053-2.09,1.175-2.194,3.369C433.916,167.116,434.646,168.213,436.006,168.265z"/>
			<path fill="#2C97E8" d="M444.075,159.882v-1.959l3.056-1.097v3.056h2.193v2.037h-2.193v4.7c-0.105,1.254,0.286,1.802,1.175,1.646
				c0.365,0,0.705-0.025,1.019-0.078v1.802c-0.836,0.052-1.646,0.104-2.429,0.156c-1.985,0.104-2.926-0.991-2.82-3.29v-4.936h-2.037
				v-2.037H444.075z"/>
		</g>
	</g>
	<g>
		<path fill="#2C97E8" d="M22.528,179.055c0.157-4.961,2.48-7.494,6.973-7.6c4.439,0.105,6.738,2.639,6.895,7.6
			c-0.157,4.807-2.456,7.26-6.895,7.364C24.956,186.314,22.632,183.861,22.528,179.055z M25.818,179.055
			c0,3.5,1.227,5.249,3.682,5.249c2.402,0,3.604-1.749,3.604-5.249c0-3.551-1.202-5.327-3.604-5.327
			C27.045,173.728,25.818,175.504,25.818,179.055z"/>
		<path fill="#2C97E8" d="M38.275,171.769h2.977v5.562h0.078c0.678-0.887,1.567-1.357,2.664-1.41
			c2.924,0.157,4.491,1.934,4.701,5.328c-0.209,3.343-1.646,5.065-4.309,5.17c-1.41,0-2.456-0.521-3.134-1.566
			c0,0.156,0,0.392,0,0.705c-0.053,0.313-0.078,0.549-0.078,0.705h-2.978c0-0.208,0-0.521,0-0.94
			c0.052-0.47,0.079-0.835,0.079-1.097V171.769z M43.446,184.539c1.461,0,2.167-1.097,2.115-3.29
			c0.051-2.245-0.654-3.369-2.115-3.369c-1.359,0.053-2.09,1.175-2.194,3.369C41.356,183.391,42.087,184.487,43.446,184.539z"/>
		<path fill="#2C97E8" d="M53.787,186.498c0.104,2.454-0.993,3.629-3.291,3.525c-0.366,0-0.705-0.027-1.019-0.078v-1.881
			c0.784-0.053,1.227-0.47,1.332-1.253v-10.655h2.977V186.498z M53.865,171.769v2.586h-3.212v-2.586H53.865z"/>
		<path fill="#2C97E8" d="M58.958,182.032c-0.053,1.724,0.521,2.56,1.723,2.507c0.992,0.053,1.619-0.365,1.88-1.254h2.742
			c-0.262,2.09-1.802,3.134-4.623,3.134c-3.239,0.052-4.832-1.671-4.779-5.17c0.157-3.395,1.75-5.171,4.779-5.328
			c2.088,0,3.526,0.784,4.309,2.351c0.313,0.575,0.496,1.175,0.548,1.802c0.052,0.627,0.079,1.28,0.079,1.959H58.958z
			 M62.484,179.995c0-1.41-0.601-2.115-1.802-2.115c-1.097,0-1.672,0.705-1.723,2.115H62.484z"/>
		<path fill="#2C97E8" d="M72.825,179.76c-0.105-1.253-0.626-1.88-1.567-1.88c-0.732,0-1.175,0.967-1.332,2.898
			c0,0.157,0,0.262,0,0.313c0,0.053,0,0.157,0,0.313c0.104,2.09,0.574,3.134,1.41,3.134c0.94,0,1.436-0.652,1.488-1.959h2.977
			c-0.156,2.561-1.645,3.839-4.465,3.839c-2.82-0.104-4.336-1.827-4.544-5.17c0.261-3.343,1.775-5.118,4.544-5.328
			c2.872,0.105,4.36,1.385,4.465,3.839H72.825z"/>
		<path fill="#2C97E8" d="M78.231,176.156v-1.959l3.055-1.097v3.056h2.194v2.037h-2.194v4.7c-0.105,1.254,0.287,1.802,1.175,1.646
			c0.365,0,0.705-0.025,1.019-0.078v1.802c-0.836,0.052-1.646,0.104-2.429,0.156c-1.985,0.104-2.926-0.991-2.82-3.29v-4.936h-2.037
			v-2.037H78.231z"/>
		<path fill="#2C97E8" d="M88.338,171.769v2.586h-3.212v-2.586H88.338z M88.259,176.156v10.106h-3.056v-10.106H88.259z"/>
		<path fill="#2C97E8" d="M89.748,176.156h3.212l2.272,6.895l2.35-6.895h2.821l-3.604,10.106h-3.291L89.748,176.156z"/>
		<path fill="#2C97E8" d="M104.555,182.032c-0.053,1.724,0.521,2.56,1.723,2.507c0.992,0.053,1.619-0.365,1.88-1.254h2.742
			c-0.262,2.09-1.802,3.134-4.623,3.134c-3.239,0.052-4.832-1.671-4.779-5.17c0.157-3.395,1.75-5.171,4.779-5.328
			c2.088,0,3.526,0.784,4.309,2.351c0.313,0.575,0.496,1.175,0.548,1.802c0.052,0.627,0.079,1.28,0.079,1.959H104.555z
			 M108.081,179.995c0-1.41-0.601-2.115-1.802-2.115c-1.097,0-1.672,0.705-1.723,2.115H108.081z"/>
		<path fill="#2C97E8" d="M112.781,180.23h9.715v2.35h-9.715V180.23z"/>
		<path fill="#2C97E8" d="M132.994,176.47c-0.105-1.775-1.045-2.689-2.82-2.742c-1.724,0.105-2.638,1.88-2.742,5.327
			c0.104,3.396,1.019,5.146,2.742,5.249c1.828-0.051,2.768-0.966,2.82-2.742h3.291c-0.157,3.187-2.194,4.806-6.111,4.857
			c-3.917-0.104-5.929-2.558-6.033-7.364c0.157-4.908,2.167-7.442,6.033-7.6c3.865,0.053,5.901,1.724,6.111,5.015H132.994z"/>
	</g>
	<g>
		<path fill="#2C97E8" d="M118.737,60.544v9.715c-0.053,3.186-1.672,4.83-4.857,4.936c-3.083,0.051-4.701-1.54-4.857-4.779h3.134
			c0,1.776,0.574,2.664,1.724,2.664c1.044,0,1.645-0.888,1.802-2.664c0-0.104,0-0.182,0-0.235v-9.636H118.737z"/>
		<path fill="#2C97E8" d="M121.244,67.831c0.052-1.148,0.521-1.984,1.41-2.507c0.678-0.417,1.671-0.627,2.977-0.627
			c2.821,0,4.231,1.254,4.231,3.761v5.484c0,0.105,0.025,0.209,0.078,0.313c0.052,0.209,0.079,0.47,0.079,0.784h-2.664
			c-0.105-0.47-0.157-0.913-0.157-1.332c-0.626,1.045-1.672,1.54-3.134,1.489c-2.142-0.105-3.239-1.07-3.29-2.899
			c0.104-1.514,0.834-2.585,2.193-3.212c0.94-0.365,2.245-0.548,3.917-0.548v-0.94c-0.105-0.783-0.576-1.201-1.41-1.253
			c-0.784,0.053-1.228,0.548-1.332,1.489H121.244z M123.673,71.904c0.051,0.889,0.548,1.359,1.489,1.41
			c1.201,0,1.775-0.992,1.724-2.977C124.743,70.181,123.673,70.704,123.673,71.904z"/>
		<path fill="#2C97E8" d="M131.351,64.932h3.212l2.272,6.895l2.35-6.895h2.821l-3.604,10.106h-3.291L131.351,64.932z"/>
		<path fill="#2C97E8" d="M143.494,67.831c0.052-1.148,0.521-1.984,1.41-2.507c0.678-0.417,1.671-0.627,2.977-0.627
			c2.821,0,4.231,1.254,4.231,3.761v5.484c0,0.105,0.025,0.209,0.078,0.313c0.052,0.209,0.079,0.47,0.079,0.784h-2.664
			c-0.105-0.47-0.157-0.913-0.157-1.332c-0.626,1.045-1.672,1.54-3.134,1.489c-2.142-0.105-3.239-1.07-3.29-2.899
			c0.104-1.514,0.834-2.585,2.193-3.212c0.94-0.365,2.245-0.548,3.917-0.548v-0.94c-0.105-0.783-0.576-1.201-1.41-1.253
			c-0.784,0.053-1.228,0.548-1.332,1.489H143.494z M145.923,71.904c0.051,0.889,0.548,1.359,1.489,1.41
			c1.201,0,1.775-0.992,1.724-2.977C146.993,70.181,145.923,70.704,145.923,71.904z"/>
	</g>
	<path fill="#2C97E8" d="M107.123,37.572h-1.671v-1.671c0-0.727-0.595-1.323-1.323-1.323s-1.323,0.596-1.323,1.323v1.671h-1.671
		c-0.728,0-1.323,0.596-1.323,1.324c0,0.727,0.595,1.323,1.323,1.323h1.671v1.671c0,0.728,0.595,1.323,1.323,1.323
		s1.323-0.595,1.323-1.323v-1.671h1.671c0.728,0,1.323-0.596,1.323-1.323C108.446,38.168,107.85,37.572,107.123,37.572z"/>
	<path fill="#2C97E8" d="M351.228,115.47h-1.671v-1.671c0-0.727-0.595-1.323-1.323-1.323s-1.323,0.596-1.323,1.323v1.671h-1.671
		c-0.728,0-1.323,0.596-1.323,1.324c0,0.727,0.595,1.323,1.323,1.323h1.671v1.671c0,0.728,0.595,1.323,1.323,1.323
		s1.323-0.595,1.323-1.323v-1.671h1.671c0.728,0,1.323-0.596,1.323-1.323C352.551,116.065,351.956,115.47,351.228,115.47z"/>
	<circle fill="none" stroke="#2C97E8" stroke-width="1.6714" stroke-miterlimit="10" cx="141.838" cy="102.379" r="3.465"/>
	<circle fill="none" stroke="#2C97E8" stroke-width="1.6714" stroke-miterlimit="10" cx="342.095" cy="134.725" r="3.465"/>
	<path fill="#3CABEF" d="M299.767,73.377c0.055-1.013,0.089-2.031,0.089-3.059c0-29.418-22.672-53.266-50.64-53.266
		s-50.64,23.848-50.64,53.266c0,1.027,0.034,2.046,0.089,3.059H299.767z"/>
	<path fill="#3CABEF" d="M302.194,92.763H201.492c-5.331,0-9.693-4.362-9.693-9.693v0c0-5.331,4.362-9.693,9.693-9.693h100.702
		c5.331,0,9.693,4.362,9.693,9.693v0C311.887,88.401,307.525,92.763,302.194,92.763z"/>
	<path fill="none" stroke="#2C97E8" stroke-width="1.9491" stroke-miterlimit="10" d="M181.292,83.07L181.292,83.07
		c0-5.331,4.362-9.693,9.693-9.693h111.209c5.331,0,9.693,4.362,9.693,9.693v0c0,5.331-4.362,9.693-9.693,9.693H190.985
		C185.654,92.763,181.292,88.401,181.292,83.07z"/>
	<path fill="none" stroke="#2C97E8" stroke-width="1.9491" stroke-miterlimit="10" d="M299.763,73.377
		c0.057-1.013,0.093-2.031,0.093-3.059c0-29.418-23.848-53.266-53.267-53.266S193.323,40.9,193.323,70.318
		c0,1.027,0.036,2.046,0.093,3.059H299.763z"/>
	<path fill="#FFFFFF" d="M249.831,61.159L249.831,61.159c5.331,0,9.693-4.362,9.693-9.693V19.733
		c-0.779-0.238-1.564-0.463-2.358-0.666h-17.028v32.398C240.138,56.797,244.5,61.159,249.831,61.159z"/>
	<path fill="#FFFFFF" stroke="#2C97E8" stroke-width="1.9491" stroke-miterlimit="10" d="M246.589,59.754L246.589,59.754
		c-5.331,0-9.693-4.362-9.693-9.693V11.026c0-5.331,4.362-9.693,9.693-9.693h0c5.331,0,9.693,4.362,9.693,9.693v39.035
		C256.283,55.392,251.921,59.754,246.589,59.754z"/>
	<path fill="#3CABEF" d="M250.906,3.478c-2.5,0.821-4.317,3.137-4.317,5.852v43.64c0,2.248,1.248,4.22,3.095,5.3
		c3.333-1.505,5.665-4.803,5.665-8.616V11.437C255.35,8.11,253.573,5.173,250.906,3.478z"/>
	
		<line fill="#FFFFFF" stroke="#2C97E8" stroke-width="2.0958" stroke-miterlimit="10" x1="248.474" y1="67.352" x2="248.474" y2="73.377"/>
	<line fill="#FFFFFF" stroke="#2C97E8" stroke-width="2.0958" stroke-miterlimit="10" x1="260" y1="67.352" x2="260" y2="73.377"/>
	
		<line fill="#FFFFFF" stroke="#2C97E8" stroke-width="2.0958" stroke-miterlimit="10" x1="271.527" y1="67.352" x2="271.527" y2="73.377"/>
	
		<line fill="#FFFFFF" stroke="#2C97E8" stroke-width="2.0958" stroke-miterlimit="10" x1="283.054" y1="67.352" x2="283.054" y2="73.377"/>
	
		<line fill="#FFFFFF" stroke="#2C97E8" stroke-width="2.0958" stroke-miterlimit="10" x1="236.947" y1="67.352" x2="236.947" y2="73.377"/>
	
		<line fill="#FFFFFF" stroke="#2C97E8" stroke-width="2.0958" stroke-miterlimit="10" x1="225.42" y1="67.352" x2="225.42" y2="73.377"/>
	
		<line fill="#FFFFFF" stroke="#2C97E8" stroke-width="2.0958" stroke-miterlimit="10" x1="213.893" y1="67.352" x2="213.893" y2="73.377"/>
	<path fill="none" stroke="#2C97E8" stroke-width="1.9491" stroke-miterlimit="10" d="M193.277,95.647
		c-1.739-1.348-3.916-2.159-6.287-2.159c-5.679,0-10.283,4.604-10.283,10.283s4.604,10.283,10.283,10.283
		c2.371,0,4.548-0.81,6.287-2.159V95.647z"/>
	<path fill="#3CABEF" d="M192.483,98.006c-1.502-1.164-3.382-1.864-5.43-1.864c-4.904,0-8.88,3.976-8.88,8.88
		c0,4.904,3.976,8.88,8.88,8.88c2.048,0,3.928-0.7,5.43-1.864V98.006z"/>
	<path fill="#3CABEF" d="M300.88,98.006c1.502-1.164,3.382-1.864,5.43-1.864c4.904,0,8.88,3.976,8.88,8.88
		c0,4.904-3.976,8.88-8.88,8.88c-2.048,0-3.928-0.7-5.43-1.864V98.006z"/>
	<path fill="none" stroke="#2C97E8" stroke-width="1.9491" stroke-miterlimit="10" d="M299.902,111.895
		c1.739,1.348,3.917,2.159,6.287,2.159c5.679,0,10.283-4.604,10.283-10.283s-4.604-10.283-10.283-10.283
		c-2.371,0-4.548,0.81-6.287,2.159V111.895z"/>
	<path fill="#D6EBFF" d="M249.316,166.653c27.611-1.919,49.612-25.092,49.612-53.169V93.967h-99.223v19.517
		C199.705,141.561,221.705,164.734,249.316,166.653z"/>
	<path fill="none" stroke="#2C97E8" stroke-width="0.8357" stroke-miterlimit="10" d="M215.286,106.386v1.658
		c0,3.799,3.437,6.908,7.639,6.908s7.639-3.109,7.639-6.908v-1.658"/>
	<path fill="none" stroke="#2C97E8" stroke-width="0.8357" stroke-miterlimit="10" d="M260.671,106.386v1.658
		c0,3.799,3.437,6.908,7.639,6.908s7.639-3.109,7.639-6.908v-1.658"/>
	<path fill="#2C97E8" d="M245.109,150.176c7.961,0,14.415-3.616,14.415-8.078h-28.831
		C230.693,146.56,237.147,150.176,245.109,150.176z"/>
	<path fill="none" stroke="#2C97E8" stroke-width="1.9491" stroke-miterlimit="10" d="M193.277,92.763v19.517
		c0,29.322,23.991,53.312,53.312,53.312h0c29.322,0,53.312-23.99,53.312-53.312V92.763H193.277z"/>
	<circle fill="none" stroke="#2C97E8" stroke-width="2.2474" stroke-miterlimit="10" cx="222.924" cy="106.779" r="3.973"/>
	<circle fill="none" stroke="#2C97E8" stroke-width="2.2474" stroke-miterlimit="10" cx="268.31" cy="106.352" r="3.973"/>
	<path fill="none" stroke="#2C97E8" stroke-width="2.4914" stroke-miterlimit="10" d="M248.816,107.459v20.453
		c0,3.53-2.888,6.418-6.418,6.418h0c-3.53,0-6.418-2.888-6.418-6.418"/>
	<path fill="#FFFFFF" stroke="#2C97E8" stroke-width="2.6694" stroke-miterlimit="10" d="M421.854,20.115H344.89
		c-3.442,0-6.259,2.816-6.259,6.259v66.453c0,3.443,2.817,6.259,6.259,6.259h11.922l4.404,4.404c0.975,0.974,2.555,0.974,3.53,0
		l4.404-4.404h52.706c3.442,0,6.259-2.816,6.259-6.259V26.374C428.113,22.931,425.297,20.115,421.854,20.115z"/>
	<path fill="none" stroke="#2C97E8" stroke-width="2.6694" stroke-miterlimit="10" d="M437.047,84.048v-4.862V17.595
		c0-3.443-2.817-6.259-6.259-6.259h-72.152"/>
	<path fill="#D6EBFF" d="M422.123,21.624c-2.144-0.066-73.755,0.046-73.755,0.046c-3.423,0-6.224,2.723-6.224,6.053v64.262
		c0,2.503,1.454,5.577,3.821,5.58c2.367,0.003,13.676,0.017,13.676,0.017l4.512,4.452l4.31-4.355l52.218-0.114
		c3.869,0.032,6.224-2.146,6.224-6.053V27.249C426.906,24.613,425.093,21.716,422.123,21.624z"/>
	<path fill="#D6EBFF" stroke="#2C97E8" stroke-width="2.3389" stroke-miterlimit="10" d="M321.174,261.573v-77.092
		c0-11.031-9.808-20.056-21.796-20.056H193.801c-11.988,0-21.796,9.025-21.796,20.056v77.092H321.174z"/>
	<path fill="#EEF7FF" stroke="#2C97E8" stroke-width="2.2474" stroke-miterlimit="10" d="M290.889,261.573H200.51
		c-4.494,0-8.171-3.677-8.171-8.171v-68.48c0-4.494,3.677-8.171,8.171-8.171h90.379c4.494,0,8.171,3.677,8.171,8.171v68.48
		C299.06,257.896,295.383,261.573,290.889,261.573z"/>
	<path opacity="0.88" fill="#3CABEF" d="M291.795,257.39h-89.054c-3.396,0-6.175-2.779-6.175-6.175v-67.123
		c0-3.396,2.779-6.175,6.175-6.175h90.218c2.756,0,5.011,2.255,5.011,5.011v68.288C297.97,254.611,295.192,257.39,291.795,257.39z"
		/>
	<circle fill="#FFFFFF" stroke="#2C97E8" stroke-width="2.1899" stroke-miterlimit="10" cx="245.7" cy="217.543" r="10.498"/>
	<circle opacity="0.78" fill="#2C97E8" cx="243.1" cy="219.162" r="10.498"/>
	<rect x="173.193" y="196.844" fill="#87B9FE" width="18.039" height="5.641"/>
	<rect x="303.287" y="196.844" fill="#87B9FE" width="16.725" height="5.641"/>
	<rect x="173.193" y="205.201" fill="#2C97E8" width="18.907" height="5.641"/>
	<rect x="303.287" y="205.201" fill="#2C97E8" width="16.725" height="5.641"/>
	<g>
		<g>
			<path fill="#2C97E8" d="M360.59,53.624c0.462-0.579,1.68-1.68,3.653-3.306c7.655-6.494,11.424-10.961,11.31-13.396
				c-0.234-2.55-1.509-3.885-3.828-4.001c-2.321,0.233-3.597,1.799-3.827,4.697h-6.786c0.114-5.916,3.654-8.987,10.613-9.221
				c6.843,0.348,10.379,3.249,10.613,8.699c0.23,3.713-3.132,8.294-10.091,13.745c-2.437,2.088-4.062,3.597-4.872,4.524h15.137
				v4.523H360.59V53.624z"/>
			<path fill="#2C97E8" d="M397.475,53.276h-12.526V47.36l12.526-18.268h6.438V48.23h4.35v5.045h-4.35v6.611h-6.438V53.276z
				 M397.475,37.27l-7.481,10.961h7.481V37.27z"/>
			<path fill="#2C97E8" d="M355.502,86.611V70.518h3.306v6.263h0.087c0.638-1.101,1.769-1.653,3.394-1.653
				c2.029,0.232,3.247,1.044,3.653,2.436c0.174,0.696,0.261,1.276,0.261,1.74v7.307h-3.393v-6.698c0-1.74-0.667-2.61-2.001-2.61
				c-1.16,0.117-1.826,0.987-2.001,2.61v6.698H355.502z"/>
			<path fill="#2C97E8" d="M374.379,86.785c-3.712-0.117-5.654-2.029-5.828-5.741c0.174-3.77,2.116-5.742,5.828-5.916
				c3.711,0.174,5.654,2.146,5.829,5.916C380.033,84.756,378.09,86.668,374.379,86.785z M374.379,84.697
				c1.623,0,2.436-1.218,2.436-3.653c0.058-2.493-0.754-3.741-2.436-3.741c-1.565,0-2.349,1.248-2.349,3.741
				C372.03,83.479,372.813,84.697,374.379,84.697z"/>
			<path fill="#2C97E8" d="M389.863,85.219c-0.755,1.044-1.886,1.566-3.393,1.566c-2.031-0.174-3.277-0.957-3.741-2.349
				c-0.116-0.463-0.174-1.044-0.174-1.74v-7.308h3.306v6.786c0.058,1.683,0.725,2.522,2.001,2.522
				c1.275-0.115,1.942-0.957,2.001-2.522v-6.786h3.393v9.221c0,0.232,0.028,0.552,0.087,0.957c0,0.465,0,0.813,0,1.044h-3.306
				L389.863,85.219z"/>
			<path fill="#2C97E8" d="M398.997,75.389v2.088h0.087c0.638-1.566,1.914-2.29,3.827-2.175v2.958h-1.479
				c-0.812,0.174-1.363,0.435-1.652,0.783c-0.175,0.406-0.319,0.957-0.436,1.653c0,0.174,0,0.291,0,0.348v5.567h-3.306v-8.96
				c0-0.116,0-0.377,0-0.783c-0.059-0.637-0.087-1.131-0.087-1.479H398.997z"/>
			<path fill="#2C97E8" d="M410.392,78.434c-0.058-0.696-0.552-1.072-1.479-1.131c-0.87,0-1.305,0.348-1.305,1.044
				c0,0.465,0.725,0.87,2.175,1.218c2.318,0.174,3.711,1.422,4.176,3.741c-0.174,2.088-1.857,3.249-5.046,3.479
				c-3.19-0.058-4.843-1.188-4.958-3.393h3.131c0.116,0.813,0.725,1.248,1.827,1.305c1.044,0,1.566-0.405,1.566-1.218
				c-0.059-0.637-0.813-1.101-2.263-1.392c-2.842-0.522-4.205-1.74-4.088-3.654c0.115-1.971,1.71-3.073,4.784-3.306
				c2.841,0,4.35,1.103,4.523,3.306H410.392z"/>
		</g>
	</g>
	<path fill="#2C97E8" d="M488.806,263H33.15c-0.734,0-1.335-0.601-1.335-1.335l0,0c0-0.734,0.601-1.335,1.335-1.335h455.656
		c0.734,0,1.335,0.601,1.335,1.335l0,0C490.141,262.399,489.541,263,488.806,263z"/>
	<path fill="#2C97E8" d="M171.71,223.813h-48.742c-0.816,0-1.483-0.667-1.483-1.483l0,0c0-0.816,0.667-1.483,1.483-1.483h48.742
		c0.816,0,1.483,0.667,1.483,1.483l0,0C173.193,223.146,172.526,223.813,171.71,223.813z"/>
	<path fill="#2C97E8" d="M383.575,249.084h-61.949c-0.816,0-1.483-0.667-1.483-1.483l0,0c0-0.816,0.667-1.483,1.483-1.483h61.949
		c0.816,0,1.483,0.667,1.483,1.483l0,0C385.058,248.417,384.39,249.084,383.575,249.084z"/>
	<path fill="#2C97E8" d="M396.749,249.085h-8.221c-0.816,0-1.483-0.667-1.483-1.483l0,0c0-0.816,0.667-1.483,1.483-1.483h8.221
		c0.816,0,1.483,0.667,1.483,1.483l0,0C398.232,248.417,397.564,249.085,396.749,249.085z"/>
	<path fill="#2C97E8" d="M117.358,223.813h-6.536c-0.816,0-1.483-0.667-1.483-1.483l0,0c0-0.816,0.667-1.483,1.483-1.483h6.536
		c0.816,0,1.483,0.667,1.483,1.483l0,0C118.841,223.146,118.174,223.813,117.358,223.813z"/>
	<path fill="#A6CBFF" d="M359.634,261.573h-24.472c-0.854,0-1.553-0.699-1.553-1.553v-19.388c0-0.854,0.699-1.553,1.553-1.553
		h24.472c0.854,0,1.553,0.699,1.553,1.553v19.388C361.187,260.875,360.488,261.573,359.634,261.573z"/>
	<path fill="none" stroke="#2C97E8" stroke-width="2.9236" stroke-miterlimit="10" d="M359.708,261.573h-24.62
		c-0.813,0-1.479-0.665-1.479-1.479v-32.907c0-0.813,0.665-1.479,1.479-1.479h24.62c0.813,0,1.479,0.665,1.479,1.479v32.907
		C361.187,260.908,360.521,261.573,359.708,261.573z"/>
	<circle fill="none" stroke="#2C97E8" stroke-width="2.9236" stroke-miterlimit="10" cx="366.81" cy="238.418" r="5.623"/>
	<circle fill="#2C97E8" cx="248.814" cy="107.448" r="1.246"/>
	<circle fill="#2C97E8" cx="235.979" cy="127.84" r="1.246"/>
	<circle fill="#2C97E8" cx="358.605" cy="11.335" r="1.335"/>
	<circle fill="#2C97E8" cx="437.047" cy="84.048" r="1.335"/>
</g>
</svg>
