<?xml version="1.0" encoding="utf-8"?>
<!-- Generator: Adobe Illustrator 21.0.0, SVG Export Plug-In . SVG Version: 6.00 Build 0)  -->
<svg version="1.0" id="图层_1" xmlns="http://www.w3.org/2000/svg" xmlns:xlink="http://www.w3.org/1999/xlink" x="0px" y="0px"
	 viewBox="0 0 500 264" enable-background="new 0 0 500 264" xml:space="preserve">
<g>
	<g>
		<path fill="#FFFFFF" stroke="#2C97E8" stroke-width="3.4694" stroke-miterlimit="10" d="M252.188,250.563
			c-7.633,0-13.878-6.245-13.878-13.878v-32.96h-61.293v32.96c0,7.633-6.245,13.878-13.878,13.878h-17.781v6.505h121.535v-6.505
			H252.188z"/>
		<path fill="#B8D5FF" stroke="#2C97E8" stroke-width="3.4694" stroke-miterlimit="10" d="M349.13,216.35H64.735
			c-6.6,0-12-5.4-12-12V16.714c0-6.6,5.4-12,12-12H349.13c6.6,0,12,5.4,12,12V204.35C361.13,210.95,355.73,216.35,349.13,216.35z"/>
		<path fill="#FFFFFF" stroke="#2C97E8" stroke-width="2.8274" stroke-miterlimit="10" d="M343.237,20.519H73.133
			c-1.951,0-3.533,1.582-3.533,3.533v148.674c0,1.951,1.582,3.533,3.533,3.533h270.104c1.951,0,3.533-1.582,3.533-3.533V24.052
			C346.77,22.101,345.188,20.519,343.237,20.519z"/>
		<path fill="#FFFFFF" stroke="#2C97E8" stroke-width="3.4694" stroke-miterlimit="10" d="M52.735,185.896v16.576
			c0,7.633,6.245,13.878,13.878,13.878h280.639c7.633,0,13.878-6.245,13.878-13.878v-16.576H52.735z"/>
		<circle fill="#B8D5FF" stroke="#2C97E8" stroke-width="3.4694" stroke-miterlimit="10" cx="208.378" cy="200.93" r="8.095"/>
		<path fill="#FFFFFF" stroke="#2C97E8" stroke-width="3.4694" stroke-miterlimit="10" d="M272.307,258.802H139.943
			c-2.347,0-4.267-1.92-4.267-4.267V253.2c0-2.347,1.92-4.267,4.267-4.267h132.364c2.347,0,4.267,1.92,4.267,4.267v1.335
			C276.574,256.882,274.654,258.802,272.307,258.802z"/>
	</g>
	<path fill="#2C97E8" d="M497,260.476H2.291c-0.905,0-1.646-0.741-1.646-1.646l0,0c0-0.905,0.741-1.646,1.646-1.646H497
		c0.905,0,1.646,0.741,1.646,1.646l0,0C498.646,259.736,497.905,260.476,497,260.476z"/>
	<g opacity="0.6">
		<path fill="#FFFFFF" d="M198.674,130.678h-45.418c-3.222,0-5.858-2.636-5.858-5.858V98.258c0-3.222,2.636-5.858,5.858-5.858
			h45.418c3.222,0,5.858,2.636,5.858,5.858v26.563C204.532,128.042,201.896,130.678,198.674,130.678z"/>
		<path fill="#5CB2FF" d="M199.317,90.991h-46.095c-3.457,0-6.256,2.799-6.256,6.091v28.151c0,3.293,2.799,6.091,6.091,6.091h46.26
			c3.293,0,6.091-2.799,6.091-6.091V97.082C205.573,93.789,202.774,90.991,199.317,90.991L199.317,90.991z M203.104,97.082v28.151
			c0,0.494-0.165,0.988-0.329,1.482l-15.969-15.969l15.64-15.639C202.774,95.765,203.104,96.423,203.104,97.082L203.104,97.082z
			 M199.317,93.46c0.494,0,0.823,0.165,1.317,0.165h-0.165l-21.566,21.731c-1.317,1.317-3.786,1.317-5.268,0l-21.566-21.566h-0.165
			c0.329-0.164,0.823-0.164,1.317-0.164L199.317,93.46z M149.764,126.715c-0.165-0.494-0.329-0.823-0.329-1.317V97.082
			c0-0.658,0.165-1.482,0.658-1.975l15.64,15.639L149.764,126.715z M153.222,129.019c-0.659,0-1.152-0.164-1.811-0.494
			l15.969-15.969l4.61,4.609c1.152,1.152,2.634,1.811,4.281,1.811c1.646,0,3.128-0.658,4.28-1.811l4.445-4.445l15.969,15.969
			c-0.494,0.329-1.152,0.494-1.811,0.494h-45.931V129.019z M153.222,129.019"/>
	</g>
	<g opacity="0.38">
		<path fill="#FFFFFF" d="M222.182,85.679h-28.31c-3.222,0-5.858-2.636-5.858-5.858V64.72c0-3.222,2.636-5.858,5.858-5.858h28.31
			c3.222,0,5.858,2.636,5.858,5.858v15.101C228.04,83.043,225.404,85.679,222.182,85.679z"/>
		<path fill="#5CB2FF" d="M224.387,57.875h-32.293c-2.422,0-4.383,1.961-4.383,4.267v19.722c0,2.307,1.961,4.267,4.267,4.267h32.408
			c2.307,0,4.267-1.961,4.267-4.267V62.142C228.77,59.835,226.809,57.875,224.387,57.875L224.387,57.875z M227.04,62.142v19.722
			c0,0.346-0.115,0.692-0.231,1.038l-11.187-11.187l10.957-10.956C226.809,61.22,227.04,61.681,227.04,62.142L227.04,62.142z
			 M224.387,59.605c0.346,0,0.577,0.115,0.923,0.115h-0.115l-15.109,15.224c-0.923,0.923-2.653,0.923-3.691,0l-15.109-15.109h-0.115
			c0.231-0.115,0.577-0.115,0.923-0.115L224.387,59.605z M189.672,82.902c-0.115-0.346-0.231-0.577-0.231-0.923V62.142
			c0-0.461,0.115-1.038,0.461-1.384l10.957,10.956L189.672,82.902z M192.094,84.517c-0.462,0-0.807-0.115-1.269-0.346l11.187-11.187
			l3.229,3.229c0.807,0.807,1.845,1.269,2.999,1.269c1.153,0,2.191-0.461,2.999-1.269l3.114-3.114l11.187,11.187
			c-0.346,0.231-0.807,0.346-1.269,0.346h-32.178V84.517z M192.094,84.517"/>
	</g>
	<g opacity="0.6">
		<path fill="#FFFFFF" d="M265.776,130.678h-45.418c-3.222,0-5.858-2.636-5.858-5.858V98.258c0-3.222,2.636-5.858,5.858-5.858
			h45.418c3.222,0,5.858,2.636,5.858,5.858v26.563C271.634,128.042,268.998,130.678,265.776,130.678z"/>
		<path fill="#5CB2FF" d="M266.419,90.991h-46.095c-3.457,0-6.256,2.799-6.256,6.091v28.151c0,3.293,2.799,6.091,6.091,6.091h46.26
			c3.293,0,6.091-2.799,6.091-6.091V97.082C272.675,93.789,269.876,90.991,266.419,90.991L266.419,90.991z M270.205,97.082v28.151
			c0,0.494-0.165,0.988-0.329,1.482l-15.969-15.969l15.64-15.639C269.876,95.765,270.205,96.423,270.205,97.082L270.205,97.082z
			 M266.419,93.46c0.494,0,0.823,0.165,1.317,0.165h-0.165l-21.566,21.731c-1.317,1.317-3.786,1.317-5.268,0l-21.566-21.566h-0.165
			c0.329-0.164,0.823-0.164,1.317-0.164L266.419,93.46z M216.866,126.715c-0.165-0.494-0.329-0.823-0.329-1.317V97.082
			c0-0.658,0.165-1.482,0.658-1.975l15.64,15.639L216.866,126.715z M220.323,129.019c-0.659,0-1.152-0.164-1.811-0.494
			l15.969-15.969l4.61,4.609c1.152,1.152,2.634,1.811,4.281,1.811c1.646,0,3.128-0.658,4.28-1.811l4.445-4.445l15.969,15.969
			c-0.494,0.329-1.152,0.494-1.811,0.494h-45.931V129.019z M220.323,129.019"/>
	</g>
	<g>
		<path fill="#FFFFFF" d="M161.637,162.144h-54.368c-3.222,0-5.858-2.636-5.858-5.858v-32.559c0-3.222,2.636-5.858,5.858-5.858
			h54.368c3.222,0,5.858,2.636,5.858,5.858v32.559C167.495,159.508,164.859,162.144,161.637,162.144z"/>
		<path fill="#5CB2FF" d="M161.463,116.24h-53.316c-3.999,0-7.236,3.237-7.236,7.045v32.561c0,3.808,3.237,7.045,7.045,7.045h53.507
			c3.808,0,7.045-3.237,7.045-7.045v-32.561C168.699,119.477,165.462,116.24,161.463,116.24L161.463,116.24z M165.843,123.285
			v32.561c0,0.571-0.191,1.142-0.381,1.714l-18.47-18.47L165.081,121C165.462,121.762,165.843,122.524,165.843,123.285
			L165.843,123.285z M161.463,119.096c0.571,0,0.952,0.191,1.524,0.191h-0.191l-24.944,25.135c-1.523,1.524-4.379,1.524-6.093,0
			l-24.944-24.944h-0.191c0.381-0.19,0.952-0.19,1.524-0.19L161.463,119.096z M104.148,157.56c-0.19-0.571-0.381-0.952-0.381-1.524
			v-32.751c0-0.762,0.191-1.714,0.762-2.285l18.09,18.089L104.148,157.56z M108.147,160.226c-0.762,0-1.333-0.19-2.095-0.571
			l18.47-18.47l5.332,5.331c1.333,1.333,3.047,2.095,4.951,2.095c1.904,0,3.618-0.762,4.951-2.095l5.141-5.141l18.47,18.47
			c-0.571,0.381-1.333,0.571-2.095,0.571h-53.126V160.226z M108.147,160.226"/>
	</g>
	<g>
		<path fill="#FFFFFF" d="M312.673,159.782h-54.368c-3.222,0-5.858-2.636-5.858-5.858v-32.559c0-3.222,2.636-5.858,5.858-5.858
			h54.368c3.222,0,5.858,2.636,5.858,5.858v32.559C318.531,157.145,315.895,159.782,312.673,159.782z"/>
		<path fill="#5CB2FF" d="M312.499,113.877h-53.316c-3.999,0-7.236,3.237-7.236,7.045v32.561c0,3.808,3.237,7.045,7.045,7.045
			h53.507c3.808,0,7.045-3.237,7.045-7.045v-32.561C319.735,117.114,316.498,113.877,312.499,113.877L312.499,113.877z
			 M316.879,120.922v32.561c0,0.571-0.191,1.142-0.381,1.714l-18.47-18.47l18.09-18.089
			C316.498,119.399,316.879,120.161,316.879,120.922L316.879,120.922z M312.499,116.733c0.571,0,0.952,0.191,1.524,0.191h-0.191
			l-24.944,25.135c-1.523,1.524-4.379,1.524-6.093,0l-24.944-24.944h-0.191c0.381-0.19,0.952-0.19,1.524-0.19L312.499,116.733z
			 M255.184,155.197c-0.19-0.571-0.381-0.952-0.381-1.524v-32.751c0-0.762,0.191-1.714,0.762-2.285l18.09,18.089L255.184,155.197z
			 M259.183,157.863c-0.762,0-1.333-0.19-2.095-0.571l18.47-18.47l5.332,5.331c1.333,1.333,3.047,2.095,4.951,2.095
			c1.904,0,3.618-0.762,4.951-2.095l5.141-5.141l18.47,18.47c-0.571,0.381-1.333,0.571-2.095,0.571h-53.126V157.863z
			 M259.183,157.863"/>
	</g>
	<g>
		<path fill="#FFFFFF" stroke="#2C97E8" stroke-width="3.008" stroke-miterlimit="10" d="M103.955,201.54H42.361
			c-6.6,0-12-5.4-12-12v-40.337c0-6.6,5.4-12,12-12h61.594c6.6,0,12,5.4,12,12v40.337C115.955,196.14,110.555,201.54,103.955,201.54
			z"/>
		<path fill="none" stroke="#2C97E8" stroke-width="3.008" stroke-miterlimit="10" d="M113.891,141.798
			c0.532,3.065-0.38,6.338-2.734,8.692l-31.016,31.016c-3.841,3.841-10.126,3.841-13.967,0L35.159,150.49
			c-2.332-2.332-3.248-5.564-2.749-8.603"/>
		
			<line fill="#FFFFFF" stroke="#2C97E8" stroke-width="3.008" stroke-miterlimit="10" x1="58.228" y1="173.927" x2="33.207" y2="198.947"/>
		
			<line fill="#FFFFFF" stroke="#2C97E8" stroke-width="3.008" stroke-miterlimit="10" x1="88.401" y1="173.927" x2="113.421" y2="198.947"/>
		<path opacity="0.24" fill="#2C97E8" d="M38.012,138.566l65.859-1.363l7.688,1.672l2.479,4.912l-1.182,5.144L96.017,165.63
			l-17.559,17.222c0,0-4.559,1.037-7.851-1.8c-3.292-2.836-32.763-32.503-34.018-34.385
			C35.646,145.253,32.552,139.155,38.012,138.566z"/>
	</g>
	<rect x="332.285" y="56.432" fill="#FFFFFF" width="119.338" height="30.029"/>
	<rect x="296.184" y="166.02" fill="#FFFFFF" width="28.452" height="78.663"/>
	<rect x="296.184" y="92.658" fill="#FFFFFF" width="28.452" height="58.255"/>
	<g>
		
			<rect x="290.086" y="152.415" fill="none" stroke="#2C97E8" stroke-width="3.008" stroke-miterlimit="10" width="40.608" height="12.032"/>
		<polygon fill="none" stroke="#2C97E8" stroke-width="3.008" stroke-miterlimit="10" points="483.423,87.636 281.168,87.636 
			281.168,55.406 453.167,55.406 		"/>
		
			<rect x="290.086" y="51.834" fill="#FFFFFF" stroke="#2C97E8" stroke-width="3.008" stroke-miterlimit="10" width="40.608" height="39.315"/>
		<polygon fill="#FFFFFF" stroke="#2C97E8" stroke-width="3.008" stroke-miterlimit="10" points="326.074,51.834 294.707,51.834 
			294.707,43.692 318.554,43.692 		"/>
		
			<rect x="290.086" y="246.43" fill="none" stroke="#2C97E8" stroke-width="3.008" stroke-miterlimit="10" width="40.608" height="12.032"/>
		
			<rect x="294.707" y="91.149" fill="none" stroke="#2C97E8" stroke-width="3.008" stroke-miterlimit="10" width="31.367" height="61.265"/>
		
			<line fill="none" stroke="#027BFF" stroke-width="3.008" stroke-miterlimit="10" x1="294.707" y1="216.358" x2="294.707" y2="208.649"/>
		<polyline fill="none" stroke="#2C97E8" stroke-width="3.008" stroke-miterlimit="10" points="294.707,205.306 294.707,164.447 
			326.074,164.447 326.074,246.165 294.707,246.165 294.707,226.635 		"/>
		
			<line fill="none" stroke="#2C97E8" stroke-width="3.008" stroke-miterlimit="10" x1="295.422" y1="92.089" x2="325.36" y2="122.027"/>
		
			<line fill="none" stroke="#2C97E8" stroke-width="3.008" stroke-miterlimit="10" x1="330.988" y1="56.523" x2="360.926" y2="86.46"/>
		
			<line fill="none" stroke="#2C97E8" stroke-width="3.008" stroke-miterlimit="10" x1="295.422" y1="122.169" x2="325.36" y2="152.107"/>
		
			<line fill="none" stroke="#2C97E8" stroke-width="3.008" stroke-miterlimit="10" x1="294.707" y1="121.981" x2="326.074" y2="121.981"/>
		
			<line fill="none" stroke="#2C97E8" stroke-width="3.008" stroke-miterlimit="10" x1="361.422" y1="55.406" x2="361.422" y2="86.46"/>
		
			<line fill="none" stroke="#2C97E8" stroke-width="3.008" stroke-miterlimit="10" x1="361.068" y1="56.523" x2="391.006" y2="86.46"/>
		
			<line fill="none" stroke="#2C97E8" stroke-width="3.008" stroke-miterlimit="10" x1="391.503" y1="55.406" x2="391.503" y2="86.46"/>
		
			<line fill="none" stroke="#2C97E8" stroke-width="3.008" stroke-miterlimit="10" x1="391.149" y1="56.523" x2="421.087" y2="86.46"/>
		
			<line fill="none" stroke="#2C97E8" stroke-width="3.008" stroke-miterlimit="10" x1="422.733" y1="56.523" x2="452.671" y2="86.46"/>
		<g>
			
				<line fill="none" stroke="#2C97E8" stroke-width="3.008" stroke-miterlimit="10" x1="420.841" y1="117.485" x2="450.268" y2="146.912"/>
			
				<line fill="none" stroke="#2C97E8" stroke-width="3.008" stroke-miterlimit="10" x1="420.841" y1="117.485" x2="391.303" y2="147.022"/>
		</g>
		
			<line fill="none" stroke="#2C97E8" stroke-width="3.008" stroke-miterlimit="10" x1="421.583" y1="55.406" x2="421.583" y2="102.921"/>
		
			<line fill="none" stroke="#2C97E8" stroke-width="3.008" stroke-miterlimit="10" x1="453.167" y1="55.406" x2="453.167" y2="86.46"/>
		<rect x="294.707" y="56.432" fill="#A9CFFE" width="34.401" height="33.088"/>
		<rect x="295.341" y="153.97" fill="#A9CFFE" width="33.848" height="8.922"/>
		<rect x="295.529" y="247.985" fill="#A9CFFE" width="33.848" height="8.922"/>
		<rect x="299.54" y="168.884" fill="#A9CFFE" width="25.096" height="75.799"/>
		<circle fill="#FFFFFF" stroke="#2C97E8" stroke-width="3.008" stroke-miterlimit="10" cx="310.391" cy="71.492" r="10.528"/>
		<path fill="none" stroke="#2C97E8" stroke-width="3.008" stroke-miterlimit="10" d="M420.099,102.259
			c4.204,0,7.613,3.408,7.613,7.613c0,4.204-3.408,7.613-7.613,7.613s-7.613-3.408-7.613-7.613"/>
		<g>
			<path fill="none" stroke="#2C97E8" stroke-width="3.008" stroke-miterlimit="10" d="M451.638,211.222h-61.594
				c-6.6,0-12-5.4-12-12v-40.337c0-6.6,5.4-12,12-12h61.594c6.6,0,12,5.4,12,12v40.337
				C463.638,205.822,458.238,211.222,451.638,211.222z"/>
			<path fill="none" stroke="#2C97E8" stroke-width="3.008" stroke-miterlimit="10" d="M461.512,151.157
				c0.656,3.156-0.235,6.578-2.672,9.015l-31.016,31.016c-3.841,3.841-10.126,3.841-13.967,0l-31.016-31.016
				c-2.394-2.394-3.296-5.737-2.706-8.846"/>
			
				<line fill="none" stroke="#2C97E8" stroke-width="3.008" stroke-miterlimit="10" x1="405.91" y1="183.609" x2="380.89" y2="208.629"/>
			
				<line fill="none" stroke="#2C97E8" stroke-width="3.008" stroke-miterlimit="10" x1="436.084" y1="183.609" x2="461.104" y2="208.629"/>
		</g>
		<path opacity="0.24" fill="#027BFF" d="M385.695,148.248l65.859-1.363l7.688,1.672l2.479,4.912l-1.182,5.144l-16.839,16.699
			l-17.559,17.222c0,0-4.559,1.037-7.851-1.8c-3.292-2.836-32.763-32.503-34.018-34.385
			C383.329,154.935,380.235,148.837,385.695,148.248z"/>
	</g>
	<rect x="291.614" y="153.97" fill="#FFFFFF" width="3.728" height="8.922"/>
	<rect x="290.516" y="111.539" fill="#FFFFFF" width="2.675" height="36.375"/>
	<rect x="286.003" y="149.766" fill="#FFFFFF" width="2.675" height="16.955"/>
	<rect x="288.501" y="172.838" fill="#FFFFFF" width="4.712" height="64.508"/>
	<rect x="327.633" y="171.73" fill="#FFFFFF" width="4.712" height="70.306"/>
	<rect x="337.131" y="49.218" fill="#FFFFFF" width="33.379" height="4.712"/>
	<rect x="44.348" y="130.995" fill="#FFFFFF" width="33.379" height="4.712"/>
	<rect x="39.932" y="203.059" fill="#FFFFFF" width="33.379" height="4.712"/>
	<rect x="337.131" y="89.149" fill="#FFFFFF" width="33.379" height="4.712"/>
</g>
</svg>
