<?xml version="1.0" encoding="utf-8"?>
<!-- Generator: Adobe Illustrator 21.0.0, SVG Export Plug-In . SVG Version: 6.00 Build 0)  -->
<svg version="1.0" id="图层_1" xmlns="http://www.w3.org/2000/svg" xmlns:xlink="http://www.w3.org/1999/xlink" x="0px" y="0px"
	 viewBox="0 0 500 264" enable-background="new 0 0 500 264" xml:space="preserve">
<path fill="#2C97E8" d="M366.805,72.702c-0.653,0.809-1.561,0.446-2.35,0.451c-5.189,0.034-10.379,0.07-15.566-0.016
	c-1.439-0.024-1.799,0.428-1.779,1.814c0.076,5.188-0.015,10.378,0.06,15.566c0.02,1.406-0.367,2.407-1.384,3.408
	c-4.345,4.28-8.6,8.652-12.888,12.991c-1.025,0.776-2.224,0.837-3.438,0.84c-2.898,0.006-5.795-0.003-8.693,0.005
	c-0.686,0.002-1.375-0.022-2.051,0.121c-0.53,0.112-1.114,0.257-1.141,0.915c-0.027,0.649,0.531,0.891,1.051,1.029
	c1.422,0.378,2.881,0.191,4.326,0.225c1.448,0.035,2.905-0.102,4.34,0.099c0.558,0.078,1.475-0.08,1.359,1.009
	c-1.324,1.258-2.649,2.516-3.973,3.774c-1.176,0.675-2.471,0.559-3.748,0.572c-1.276,0.013-2.575-0.1-3.729,0.624
	c-0.631,0.212-0.796,1.199-1.666,1.019c-3.252-3.172-6.52-6.329-9.753-9.522c-3.115-3.075-4.308-3.167-7.675-0.479
	c-1.185,0.664-2.483,0.646-3.785,0.645c-8.465-0.004-16.93-0.004-25.395-0.001c-0.838,0-1.682-0.042-2.511,0.105
	c-0.587,0.104-1.342,0.137-1.307,0.967c0.031,0.748,0.721,0.898,1.326,1.02c0.904,0.182,1.823,0.135,2.737,0.136
	c7.397,0.007,14.795-0.028,22.192,0.033c1.099,0.009,2.504-0.443,3.075,1.142c-1.402,1.02-2.573,2.275-3.663,3.612
	c-1.238,0.691-2.588,0.766-3.965,0.765c-6.161-0.006-12.322-0.036-18.483,0.024c-1.132,0.011-3.033-0.386-3.044,1.09
	c-0.012,1.515,1.891,1.092,3.014,1.107c5.171,0.07,10.344-0.011,15.516,0.06c1.028,0.014,2.342-0.361,2.837,1.13
	c-1.402,1.02-2.573,2.275-3.663,3.612c-1.167,0.652-2.441,0.748-3.743,0.745c-3.351-0.008-6.703-0.004-10.054-0.002
	c-0.609,0-1.223-0.041-1.827,0.033c-0.869,0.106-2.172-0.064-2.184,1.1c-0.012,1.178,1.291,1.086,2.16,1.117
	c2.969,0.104,5.942-0.034,8.91,0.08c0.942,0.036,2.233-0.404,2.613,1.104c-1.4,1.025-2.582,2.271-3.66,3.621
	c-1.761,0.973-3.686,0.638-5.561,0.694c-1.061,0.032-2.131-0.064-3.18,0.15c-0.672,0.137-1.481,0.302-1.493,1.138
	c-0.013,0.914,0.858,0.926,1.513,1.017c0.903,0.125,1.829-0.018,2.728,0.108c0.751,0.105,1.768-0.146,1.93,1.069
	c-1.051,0.99-2.111,1.97-3.15,2.973c-0.557,0.537-1.098,1.034-1.955,1.035c-1.477,0.001-2.367,0.637-2.03,2.248
	c0.145,0.694-0.254,1.032-0.676,1.296c-0.653,0.408-0.882-0.342-1.276-0.619c-0.185-0.129-0.327-0.319-0.49-0.48
	c-4.019-3.973-4.613-4.018-9.341-0.347c0-6.984,0-13.639,0-20.294c-0.173-0.239-0.311-0.496-0.417-0.771
	c-0.338-1.276-0.209-2.58-0.21-3.873c-0.009-23.357-0.006-46.713-0.007-70.07c0-0.992,0.027-1.985-0.033-2.976
	c-0.268-4.403-3.155-7.333-7.558-7.715c-1.111-0.096-2.328,0.168-3.222-0.814c0.322-1.05,1.251-0.984,2.057-1.081
	c0.909-0.109,1.829-0.056,2.745-0.056c24.951-0.001,49.904-0.156,74.852,0.119c5.525,0.061,11.092,0.181,16.628,0.551
	c6.403,0.999,10.055,5.219,10.084,11.664c0.019,4.169,0.025,8.338,0.038,12.507c0.741,1.561,2.1,1.769,3.635,1.764
	c6.624-0.019,13.248-0.043,19.871,0.02c1.113,0.011,2.508-0.388,3.084,1.175c-1.028,0.907-2.297,0.684-3.492,0.689
	c-6.476,0.029-12.953-0.006-19.429,0.022c-2.77,0.012-2.939,0.22-2.98,3.022c-0.028,1.904,0.051,3.809-0.036,5.711
	c0.08,1.814,1.445,1.71,2.658,1.721c4.427,0.039,8.855-0.005,13.283,0.028C364.818,72.026,365.931,71.865,366.805,72.702z"/>
<path fill="#B7D4FE" d="M373.305,76.931c2.857-2.79,5.713-5.58,8.57-8.371c1.151,1.112,0.813,2.565,0.815,3.896
	c0.026,18.63,0.017,37.26,0.017,55.89c0,22.982,0.003,45.964-0.002,68.947c-0.001,4.678-0.225,4.902-4.911,4.902
	c-77.651,0.004-155.302,0.003-232.953,0.002c-0.229,0-0.458,0-0.687-0.002c-3.94-0.038-4.372-0.432-4.373-4.311
	c-0.011-42.147,0.051-84.294-0.073-126.44c-0.017-5.951,4.645-11.583,11.477-11.488c19.619,0.273,39.244,0.092,58.867,0.105
	c1.283,0.001,2.613-0.186,3.793,0.567c1.155,3.29,1.045,6.593,0.087,9.904c-1.227,0.86-2.641,0.626-3.994,0.627
	c-17.786,0.017-35.572,0.011-53.357,0.011c-0.763,0-1.529,0.041-2.289,0c-1.699-0.092-2.594,0.579-2.479,2.379
	c0.044,0.683-0.002,1.373-0.002,2.06c0,38.625-0.001,77.25,0,115.875c0,4.169,0.002,4.174,4.116,4.174
	c70.914,0.001,141.828,0.001,212.743,0c4.289,0,4.294-0.004,4.295-4.257c0.002-36.564,0.002-73.128-0.004-109.692
	C372.958,80.107,372.972,78.509,373.305,76.931z"/>
<path fill="#DBEBFE" d="M325.73,12.644c-0.734,2.692-0.247,5.436-0.351,8.151c0.165,0.985-0.477,1.518-1.161,2.01
	c-1.349,0.971-0.458,1.354,0.444,1.741c0.011,2.284,0.1,4.572,0.005,6.852c-0.064,1.522,0.506,1.99,1.981,1.941
	c2.738-0.092,5.482-0.041,8.223-0.016c0.738,0.007,1.537-0.225,2.183,0.371c-4.727,0.012-9.455,0.035-14.182,0.035
	c-26.164,0.001-52.328-0.008-78.492,0.01c-1.19,0.001-2.452-0.287-3.553,0.478c-0.399,0.618-1.06,0.845-1.683,1.125
	c-3.762,1.691-5.401,4.585-5.39,8.717c0.057,20.517,0.032,41.035,0.019,61.552c-0.001,2.132,0.145,4.271-0.153,6.397
	c-0.205,0.899-0.555,1.753-0.859,2.621c-1.107,2.672-2.953,4.517-5.409,5.039c-0.716,0.26-0.298,0.551-0.468,0.297
	c-0.064-0.095-0.026-0.156,0.106-0.203c1.908-0.683,3.896-0.412,5.86-0.498c0.274-0.014,0.542-0.031,0.814-0.06
	c5.143-0.056,10.283-0.029,15.421-0.019c1.121,0.002,2.295-0.119,3.207,0.78c0.001,0.143-0.023,0.281-0.072,0.415
	c-8.687-0.004-17.376,0.094-26.06-0.054c-4.346-0.074-8.246-1.512-10.659-5.476c-1.203-1.976-1.676-4.211-1.676-6.539
	c-0.001-11.735-0.012-23.47-0.019-35.205c-0.737-0.902-0.65-1.798,0.022-2.688c-0.023-3.241-0.046-6.483-0.07-9.724
	c-0.88-1.811-2.475-1.918-4.228-1.916c-19.113,0.026-38.226,0.026-57.339,0c-1.327-0.002-2.775,0.34-3.892-0.794
	c0.871-0.715,1.906-0.399,2.864-0.4c20.047-0.02,40.095-0.043,60.142,0.029c1.984,0.007,2.593-0.464,2.573-2.523
	c-0.105-11.052,0.06-22.159,0.04-33.212c-0.001-0.798,2.189-1.71,1.417-2.375c-0.6-0.801,0.065-1.509,0.25-2.292
	c0.689-2.908,1.127-4.614,0.25-7.542c-0.209-0.698,0.788-0.898,1.292-1.625c1.464-0.001-0.743-1.774,0.721-1.775
	c0.561,0.926-0.04,1.78-0.213,2.636c-0.599,2.965-0.713,5.908,0.175,8.831c0.884,2.908,2.631,4.383,5.153,4.396
	c2.547,0.013,4.413-1.375,5.307-4.23c0.898-2.866,1.29-5.792,0.492-8.794c-0.239-0.899-0.831-1.86-0.154-2.841
	c4.048,0.001,8.096,0.001,12.145,0.002c0.561,0.926-0.04,1.78-0.213,2.636c-0.599,2.965-0.713,5.908,0.175,8.831
	c0.884,2.908,2.631,4.383,5.153,4.396c2.547,0.013,4.413-1.375,5.307-4.23c0.898-2.866,1.29-5.792,0.492-8.794
	c-0.239-0.899-0.831-1.86-0.154-2.841c1.452,0.001,2.904,0.001,4.356,0.002c0.561,0.926-0.04,1.78-0.213,2.636
	c-0.599,2.965-0.713,5.908,0.175,8.831c0.884,2.908,2.631,4.383,5.153,4.396c2.547,0.013,4.413-1.375,5.307-4.23
	c0.898-2.866,1.29-5.792,0.492-8.794c-0.239-0.899-0.831-1.86-0.154-2.841c1.605,0.001,3.21,0.001,4.815,0.002
	c0.561,0.926-0.04,1.78-0.213,2.636c-0.599,2.965-0.713,5.908,0.176,8.831c0.884,2.908,2.631,4.383,5.153,4.396
	c2.547,0.013,4.413-1.375,5.307-4.23c0.898-2.866,1.29-5.792,0.492-8.794c-0.239-0.899-0.831-1.86-0.154-2.841
	c1.789,0.006,3.579,0.012,5.368,0.018c0.064,1.097,0.202,1.976,1.724,1.356c1.203-0.49,1.719-2.506,3.261-1.845
	c1.201,0.515,2.121,1.682,3.369,2.728c-2.703,1.506-5.599,1.965-8.424,2.664c-0.545,0.135-1.759-0.354-1.522,0.963
	c0.204,1.133,1.052,1.028,1.96,0.836c2.987-0.631,5.936-1.393,8.691-2.722c1.058-0.511,1.916-0.546,2.994-0.048
	c2.707,1.252,5.599,1.946,8.53,2.466c0.943,0.167,2.007,0.259,2.123-0.997c0.118-1.276-1.078-0.707-1.689-0.847
	c-2.732-0.63-5.521-1.051-8.355-2.458c1.245-0.924,2.321-1.723,3.396-2.522c1.547,0.897,3.229,0.332,4.841,0.392
	c2.78,0.105,5.567,0.025,8.352,0.023c0.782,0.875,0.191,1.747-0.085,2.555c-1.15,3.38-2.042,6.841-3.216,10.213
	c-0.236,0.677-0.709,1.351-0.344,2.27c0.811-0.546,0.92-1.393,1.119-2.145c1.009-3.822,2.523-7.484,3.57-11.295
	c0.182-0.663,0.235-1.581,1.299-1.588c1.835,0.303,3.799-0.663,5.539,0.565c0.032,1.861-2.17,2.093-2.729,3.757
	c1.056,0.089,1.695-1.138,2.685-0.703c0.639,0.805,1.539,0.49,2.332,0.496"/>
<path fill="#2C97E8" d="M252.318,176.257c-0.004-7.595,0.03-15.191-0.041-22.785c-0.016-1.682,0.03-3.047,1.907-3.81
	c1.191-0.484,1.691-2.582,3.063-2.258c1.074,0.254,1.872,1.676,2.792,2.581c2.176,2.142,3.798,2.067,6.469-0.3
	c1.146-0.785,2.454-0.724,3.752-0.725c9.303-0.002,18.605,0,27.908-0.001c0.686,0,1.38,0.056,2.056-0.044
	c0.692-0.102,1.834,0.137,1.78-0.883c-0.05-0.946-1.184-0.788-1.888-0.797c-6.405-0.083-12.81-0.023-19.215-0.043
	c-2.897-0.009-5.798,0.102-8.69-0.07c-0.895-0.053-2.326,0.198-2.035-1.566c1.336-1.264,2.305-2.941,4.121-3.664
	c1.077-0.731,2.302-0.712,3.528-0.712c6.561,0,13.123,0.062,19.683-0.045c1.529-0.025,4.175,0.894,4.312-0.919
	c0.103-1.366-2.703-0.757-4.2-0.783c-5.415-0.092-10.833-0.032-16.25-0.04c-0.762-0.001-1.537,0.049-2.277-0.154
	c-0.714-0.196-1.609-0.327-1.129-1.471c1.336-1.283,2.34-2.934,4.13-3.71c1.028-0.618,2.166-0.648,3.32-0.648
	c4.727,0.002,9.454,0.034,14.18-0.024c0.913-0.011,2.421,0.323,2.465-0.921c0.047-1.344-1.487-1.268-2.502-1.295
	c-3.734-0.1-7.472,0.028-11.205-0.08c-0.936-0.027-2.236,0.414-2.602-1.109c1.332-1.299,2.364-2.929,4.138-3.738
	c2.256-1.077,4.66-0.447,6.995-0.594c1.292-0.081,2.595,0.068,3.884-0.108c0.613-0.084,1.313-0.237,1.358-0.982
	c0.056-0.917-0.738-1.066-1.42-1.144c-1.671-0.191-3.357,0.007-5.028-0.128c-0.822-0.066-1.904,0.192-2.141-1.094
	c1.331-1.299,2.366-2.926,4.138-3.738c1.499-0.96,3.448-0.085,4.902-1.211c0.545-0.309,0.661-1.252,1.546-1.059
	c3.842,3.813,7.68,7.63,11.527,11.438c2.585,2.559,4.33,2.635,6.804,0.093c1.044-1.072,2.106-1.583,3.603-1.478
	c1.594,0.112,3.202,0.04,4.803,0.012c1.111-0.019,1.996-0.478,2.051-1.69c0.063-1.385-0.915-1.805-2.105-1.846
	c-0.888-0.031-1.777-0.006-2.664-0.006c6.404-6.327,12.701-12.549,18.985-18.758c0,23.899,0,48.104,0,72.308
	c-0.862,0.841-1.971,0.731-3.023,0.732c-29.588,0.019-59.176,0.019-88.763,0C254.29,176.988,253.181,177.097,252.318,176.257z"/>
<path fill="#2C97E8" d="M148.299,57.981c20.98-0.004,41.961,0.023,62.941-0.06c2.209-0.009,3.139,0.513,2.518,2.77
	c-20.609,0.002-41.221,0.193-61.826-0.093c-7.745-0.108-11.531,5.243-11.504,11.578c0.183,42.21,0.11,84.42,0.049,126.631
	c-0.003,2.076,0.505,2.646,2.622,2.644c78.772-0.057,157.545-0.055,236.317-0.007c2.023,0.001,2.703-0.421,2.699-2.601
	c-0.069-42.363-0.05-84.726-0.059-127.089c0-1.064-0.118-2.129-0.181-3.193c0.486-0.885,1.25-1.503,2.118-2.219
	c0.669,0.746,0.717,1.637,0.76,2.51c0.056,1.142,0.088,2.287,0.089,3.431c0.004,41.281-0.007,82.561,0.015,123.842
	c0.003,6.097,0.203,12.194,0.225,18.291c0.032,8.669-5.281,13.988-13.909,13.99c-27.012,0.006-54.023,0.027-81.035-0.047
	c-2.085-0.006-2.703,0.511-2.606,2.61c0.178,3.883,0.058,7.781,0.05,11.672c-0.004,2.206,0.618,4.205,1.917,5.99
	c1.331,1.83,2.942,2.828,5.394,2.753c5.489-0.168,10.986-0.062,16.48-0.05c5.214,0.011,7.327,2.76,6.032,7.819
	c-0.18,1.978-1.764,2.27-3.238,2.694c-0.303,0.025-0.606,0.072-0.91,0.072c-34.985,0.003-69.97,0.003-104.955,0
	c-0.303,0-0.606-0.047-0.91-0.072c-2.311-0.181-3.437-1.663-4.071-3.695c-0.997-3.185,0.627-5.213,3.044-6.896
	c2.547-0.978,5.198-0.328,7.796-0.498c0.97-0.063,1.949-0.009,2.923-0.032c3.853-0.026,7.706,0.052,11.559,0.017
	c0.905-0.008,1.82,0.059,2.652-0.406c2.897-1.59,4.083-4.25,4.239-7.339c0.195-3.864,0.014-7.743,0.069-11.614
	c0.024-1.709-0.776-2.242-2.362-2.237c-4.479,0.016-8.959,0.05-13.439-0.011c-0.963,0.054-1.925,0.032-2.888,0.004
	c-2.687,0.07-5.373,0.072-8.06,0.004c-1.014,0.066-2.027,0.037-3.041,0.005c-14.649,0.113-29.297,0.117-43.945,0.007
	c-1.008-0.046-2.018,0.105-3.026,0.002c-3.05-0.022-6.104,0.137-9.151-0.084c-0.997-0.148-1.976-0.399-2.962-0.607
	c-1.692-0.511-3.167-1.436-4.608-2.429c-2.445-2.06-4.124-4.591-4.762-7.763c-0.099-0.357-0.153-0.72-0.183-1.09
	c-0.068-0.905-0.048-1.81-0.051-2.717c-0.077-2.069-0.062-4.137-0.019-6.206c-0.078-2.012-0.06-4.023-0.008-6.035
	c-0.099-10.417-0.119-20.833,0.004-31.248c-0.16-1.302,0.094-2.605-0.019-3.907c-0.02-2.855-0.065-5.711,0.027-8.566
	c-0.014-1.01-0.091-2.033,0.582-2.905c0.027-4.802,0.076-9.603,0.077-14.405c0.008-23.33-0.001-46.66,0.006-69.99
	C137.779,64.187,141.412,59.641,148.299,57.981z"/>
<path fill="#2C97E8" d="M213.827,70.416c-0.007,0.896-0.015,1.792-0.022,2.688c-19.164,0.004-38.328,0.044-57.491-0.038
	c-2.038-0.009-2.502,0.512-2.498,2.519c0.065,38.557,0.065,77.114-0.001,115.671c-0.003,2.023,0.492,2.508,2.508,2.507
	c70.7-0.057,141.401-0.059,212.101,0.006c2.145,0.002,2.442-0.695,2.439-2.591c-0.054-36.114-0.016-72.227-0.091-108.341
	c-0.005-2.484,0.453-4.464,2.533-5.906c0.566,0.755,0.286,1.625,0.287,2.436c0.016,38.096-0.012,76.193,0.074,114.289
	c0.005,2.391-0.668,2.851-2.923,2.849c-72.223-0.061-144.445-0.05-216.668-0.05c-2.969,0-2.971-0.001-2.971-2.904
	c0-40.158,0.019-80.315-0.053-120.473c-0.004-2.227,0.571-2.764,2.77-2.753C173.823,70.427,193.825,70.403,213.827,70.416z"/>
<path fill="#2C97E8" d="M400.769,40.777c-2.112,0-4.223,0.004-6.335-0.001c-1.306-0.003-2.319-0.504-2.33-1.932
	c-0.012-1.412,0.965-1.986,2.281-1.991c3.97-0.013,7.94-0.018,11.91,0c1.464,0.007,2.278,0.761,2.289,2.258
	c0.032,4.198,0.061,8.395,0.063,12.593c0.001,1.227-0.604,2.123-1.877,2.156c-1.412,0.037-2.017-0.917-2.029-2.238
	c-0.022-2.657-0.007-5.313-0.007-8.223c-1.211,0.355-1.74,1.214-2.387,1.861c-26.783,26.767-53.555,53.544-80.329,80.32
	c-2.839,2.839-2.981,2.839-5.807,0.015c-4.211-4.21-8.462-8.382-12.606-12.658c-1.127-1.163-1.724-1.365-3.002-0.074
	c-11.708,11.828-23.504,23.57-35.269,35.342c-2.007,2.008-2.482,2.023-4.458,0.063c-1.192-1.182-2.227-2.994-3.635-3.362
	c-1.636-0.427-2.49,1.828-3.695,2.879c-1.553,1.354-2.681,1.177-4.043-0.231c-3.183-3.293-6.492-6.464-9.677-9.756
	c-0.889-0.919-1.408-0.978-2.339-0.032c-5.945,6.038-11.998,11.971-17.906,18.046c-1.428,1.468-2.497,1.446-3.828,0.11
	c-3.286-3.3-6.633-6.541-9.849-9.908c-1.062-1.112-1.657-1.051-2.699,0.007c-5.837,5.931-11.74,11.796-17.633,17.672
	c-1.96,1.954-2.573,1.953-4.518,0.038c-1.741-1.714-3.464-3.446-5.178-5.187c-0.894-0.908-1.352-1.966-0.3-3.003
	c1.019-1.005,2.081-0.663,3.012,0.26c1.138,1.129,2.351,2.196,3.382,3.417c0.989,1.17,1.644,1.059,2.686-0.001
	c5.781-5.878,11.634-11.686,17.469-17.512c2.217-2.213,2.671-2.217,4.833-0.064c3.083,3.071,6.213,6.099,9.201,9.26
	c1.139,1.205,1.765,1.062,2.855-0.049c5.667-5.776,11.416-11.473,17.143-17.19c2.199-2.195,2.78-2.183,5.03,0.062
	c3.08,3.074,6.194,6.115,9.21,9.251c0.926,0.963,1.448,1.142,2.46,0.059c4.299-4.6,4.126-4.161,8.199,0.186
	c1.579,1.686,2.394,1.634,3.957-0.019c11.163-11.804,22.729-23.213,34.222-34.694c2.065-2.063,2.993-2.058,5.103,0.048
	c4.322,4.315,8.666,8.609,12.936,12.975c1.028,1.051,1.658,1.368,2.885,0.144c7.284-7.264,14.71-14.387,21.996-21.65
	c19.031-18.973,38.012-37.997,57.027-56.987c0.587-0.586,1.334-1.012,2.006-1.512C401.051,41.277,400.91,41.027,400.769,40.777z"/>
<path fill="#2C97E8" d="M252.318,176.257c31.603,0,63.206,0,94.809,0c2.362,0.045,4.723,0.086,7.085,0.137
	c1.15,0.025,2.262,0.278,2.272,1.677c0.01,1.4-1.09,1.673-2.246,1.701c-0.687,0.017-1.374,0.006-2.061,0.006
	c-60.153,0-120.307,0.012-180.46-0.048c-2.212-0.002-3.255,0.386-2.88,2.815c0.196,1.267,0.055,2.591,0.01,3.887
	c-0.03,0.876-0.509,1.486-1.424,1.438c-0.809-0.042-1.162-0.666-1.174-1.432c-0.024-1.603-0.117-3.214,0.011-4.807
	c0.125-1.561-0.497-2.031-1.952-1.869c-0.829,0.092-1.678,0.031-2.517,0.009c-1.162-0.03-2.25-0.332-2.21-1.735
	c0.04-1.398,1.164-1.614,2.308-1.644c0.076-0.002,0.153,0.001,0.229-0.002c4.114-0.162,4.114-0.162,4.114-4.238
	c0-29.313,0-58.627,0-87.94c0-0.611-0.006-1.221,0.003-1.832c0.013-0.958,0.073-1.971,1.37-1.924
	c1.294,0.047,1.263,1.101,1.264,2.03c0.006,8.626,0.004,17.252,0.004,25.878c0,21.909,0.007,43.817-0.016,65.726
	c-0.001,1.41-0.067,2.355,1.948,2.349c26.794-0.075,53.588-0.05,80.382-0.057C251.565,176.382,251.942,176.3,252.318,176.257z"/>
<path fill="#2C97E8" d="M79.071,259.031c-2.167-3.893-1.527-6.562,2.3-9.595c0.841-1.031,2.023-1.293,3.257-1.444
	c4.851-0.12,9.701-0.102,14.552-0.024c1.021-0.061,2.04-0.043,3.061-0.004c14.81-0.105,29.62-0.13,44.429,0.008
	c1.016-0.046,2.033-0.073,3.049,0.001c2.844-0.018,5.688-0.038,8.532,0.004c0.972-0.044,1.944-0.06,2.914-0.001
	c5.72-0.037,11.442,0.009,17.163-0.041c0.671-0.006,1.484,0.444,2.004-0.352c-6.407-0.307-12.785-0.092-19.16-0.113
	c-3.797-0.013-7.595-0.073-11.394-0.01c-1.604,0.017-3.234,0.271-4.748-0.525c-0.854-2.386-0.601-2.901,1.715-3.503
	c1.006-0.093,2.015-0.082,3.024-0.04c2.822-0.065,5.644-0.077,8.466,0.001c0.973-0.027,1.946-0.054,2.919,0.002
	c7.017-0.056,14.034-0.041,21.051-0.01c2.689,0.012,2.95,0.211,3.43,2.852c0.225,1.236,0.848,1.679,1.993,1.707
	c0.992,0.024,1.975,0.135,2.935,0.426c4.729,1.433,6.622,5.438,4.75,10.051c-1.044,1.941-2.511,3.293-4.84,3.426
	c-35.897,0-71.794,0-107.691,0C81.182,261.386,79.217,261.408,79.071,259.031z"/>
<path fill="#B5D6FC" d="M84.171,248.64c-0.933,0.265-1.866,0.53-2.799,0.796c0.01-2.385,0.019-4.769,0.029-7.154
	c-0.504-0.623-0.675-1.358-0.688-2.134c-0.053-3.198-0.053-6.397,0-9.595c0.013-0.777,0.183-1.511,0.688-2.134
	c0-7.097-0.03-14.194,0.01-21.291c0.034-6.146,5.354-11.534,11.513-11.627c5.035-0.076,10.075-0.102,15.108,0.021
	c1.853,0.045,2.303-0.561,2.291-2.336c-0.074-10.912-0.04-21.825-0.035-32.737c0.002-3.649,1.15-4.818,4.741-4.825
	c7.555-0.013,15.109-0.015,22.664-0.022c0.007,0.936,0.013,1.872,0.02,2.808c-1.103,0.949-2.45,0.674-3.717,0.694
	c-6.129,0.101-5.549-0.739-5.563,5.695c-0.024,11.262-0.005,22.525-0.009,33.787c0,0.912,0.043,1.827-0.07,2.738
	c-0.016,0.447-0.015,0.899-0.16,1.326c-0.353,1.036-1.048,1.677-2.175,1.463c-1.485-0.283-1.689-1.482-1.731-2.734
	c-0.166-12.66-0.027-25.323-0.075-37.985c-0.003-0.915,0.029-1.831-0.076-2.743c-0.101-0.872-0.502-1.401-1.457-1.411
	c-0.938-0.01-1.396,0.458-1.504,1.352c-0.11,0.912-0.076,1.828-0.08,2.743c-0.05,12.662,0.097,25.325-0.074,37.988
	c-0.016,0.447-0.014,0.898-0.16,1.325c-0.352,1.035-1.045,1.678-2.172,1.465c-1.484-0.28-1.692-1.477-1.734-2.729
	c-0.164-12.719-0.026-25.44-0.074-38.161c-0.003-0.913,0.036-1.828-0.107-2.737c-0.125-0.79-0.534-1.225-1.373-1.211
	c-0.785,0.013-1.303,0.335-1.474,1.137c-0.193,0.903-0.163,1.819-0.163,2.732c-0.004,11.503,0.005,23.006-0.011,34.509
	c-0.002,1.28,0.189,2.605-0.543,3.79c-0.933,0.762-1.918,0.733-2.936,0.193c-0.673-2.447-2.404-2.839-4.694-2.736
	c-3.805,0.17-7.623-0.011-11.434,0.064c-5.74,0.113-9.245,3.64-9.261,9.35c-0.034,12.199-0.002,24.397-0.021,36.596
	C84.865,246.185,85.1,247.528,84.171,248.64z"/>
<path fill="#6DADFE" d="M353.465,259.071c-7.875-4.857-8.094-14.465-1.84-19.71c2.175-1.824,4.689-2.741,7.574-2.734
	c12.137,0.031,24.275-0.014,36.413,0.024c5.312,0.016,9.511,2.957,11.304,7.743c1.786,4.767,0.477,9.716-3.51,13.258
	c-0.562,0.499-1.136,0.986-1.704,1.478c-1.344,1.082-2.813,0.769-4.286,0.391c-0.999-0.884,0.04-1.157,0.516-1.443
	c0.98-0.588,2.03-1.067,2.886-1.843c2.829-2.566,4.09-5.66,3.04-9.459c-1.013-3.666-3.495-6.056-7.158-6.586
	c-7.114-1.029-14.31-0.977-21.431-0.092c-4.641,0.577-7.351,3.666-7.874,7.965c-0.505,4.147,1.663,7.893,5.663,9.788
	c1.526,0.723,1.526,0.723,1.022,1.761c-3.99,0.624-8.002,0.171-12.001,0.287c-1.965,0.057-3.934,0.045-5.9-0.01
	C355.213,259.864,354.179,259.97,353.465,259.071z"/>
<path fill="#B7D4FE" d="M347.155,70.336c-0.005-2.428,0.09-4.863-0.049-7.284c-0.101-1.754,0.397-2.341,2.25-2.321
	c8.118,0.09,16.238,0.017,24.357,0.004c1.647-0.663,2.95,0.011,4.154,1.07c-2.902,2.918-5.641,6.003-8.825,8.632
	c-0.989,0.686-2.119,0.726-3.265,0.726c-5.143,0-10.286,0.013-15.429-0.01C349.227,71.149,348.05,71.266,347.155,70.336z"/>
<path fill="#B5D6FE" d="M81.4,228.418c0,4.621,0,9.242,0,13.863c-2.81-0.024-5.619-0.043-8.429-0.075
	c-4.189-0.048-7.099-2.748-7.147-6.622c-0.051-4.152,2.599-6.914,6.92-7.074C75.627,228.403,78.515,228.444,81.4,228.418z"/>
<path fill="#FCFEFE" d="M294.439,111.194c-0.517-1.053-1.484-0.545-2.221-0.549c-8.307-0.043-16.614-0.021-24.921-0.037
	c-0.752-0.001-1.529-0.051-2.25-0.244c-0.827-0.221-1.23-0.921-1.142-1.757c0.077-0.732,0.568-1.246,1.293-1.437
	c0.361-0.095,0.755-0.093,1.133-0.092c10.592,0.02,21.184,0.045,31.775,0.07C296.885,108.497,295.662,109.845,294.439,111.194z"/>
<path fill="#FCFEFE" d="M270.176,145.556c0.273,1.303,1.324,0.771,2.037,0.773c9.29,0.035,18.581,0.021,27.871,0.028
	c0.683,0,1.377-0.001,2.047,0.108c0.78,0.127,1.163,0.735,1.208,1.466c0.051,0.839-0.352,1.485-1.203,1.701
	c-0.434,0.11-0.907,0.093-1.362,0.093c-11.422-0.01-22.844-0.026-34.266-0.041C267.755,148.33,268.69,146.698,270.176,145.556z"/>
<path fill="#FCFEFE" d="M286.651,118.982c-0.579-0.957-1.514-0.473-2.264-0.479c-5.856-0.047-11.713-0.029-17.57-0.024
	c-1.347,0.001-2.868-0.034-2.865-1.788c0.003-1.752,1.526-1.777,2.872-1.782c7.984-0.03,15.968-0.068,23.953-0.103
	C289.401,116.198,288.026,117.59,286.651,118.982z"/>
<path fill="#FCFEFE" d="M277.963,137.768c0.273,1.302,1.322,0.768,2.035,0.773c6.466,0.04,12.932,0.024,19.399,0.024
	c0.533,0,1.065,0.01,1.597,0c1.154-0.023,2.271,0.177,2.327,1.572c0.06,1.51-1.039,1.813-2.324,1.809
	c-8.9-0.028-17.8-0.038-26.7-0.054C275.546,140.541,276.478,138.909,277.963,137.768z"/>
<path fill="#2C97E8" d="M377.867,61.805c-1.385-0.357-2.77-0.713-4.154-1.07c-0.717-0.638-1.593-0.388-2.403-0.39
	c-7.22-0.019-14.441-0.078-21.659,0.033c-1.967,0.03-2.91-0.426-2.476-2.512c8.194,0.015,16.387,0.047,24.581,0.038
	c2.713-0.003,5.28,0.401,7.495,2.124C379.078,60.867,378.322,61.219,377.867,61.805z"/>
<path fill="#FCFEFE" d="M285.749,129.981c0.583,0.906,1.505,0.556,2.289,0.563c3.799,0.034,7.599,0.015,11.398,0.016
	c0.532,0,1.065-0.016,1.595,0.013c1.248,0.069,2.378,0.463,2.302,1.934c-0.069,1.338-1.137,1.612-2.321,1.604
	c-3.495-0.022-6.991-0.001-10.486-0.009c-2.811-0.006-5.622-0.029-8.433-0.044C283.312,132.699,284.531,131.34,285.749,129.981z"/>
<path fill="#FCFEFE" d="M278.863,126.77c-0.492-0.914-1.354-0.472-2.033-0.482c-3.416-0.051-6.834-0.028-10.251-0.021
	c-1.304,0.003-2.642-0.192-2.636-1.791c0.006-1.597,1.348-1.773,2.649-1.779c5.465-0.026,10.93-0.067,16.396-0.102
	C281.613,123.986,280.238,125.378,278.863,126.77z"/>
<path fill="#FCFEFE" d="M328.65,111.159c-0.476-0.935-1.345-0.504-2.032-0.52c-2.436-0.055-4.874,0.002-7.31-0.031
	c-1.288-0.017-2.846,0.092-2.888-1.758c-0.043-1.902,1.502-1.76,2.806-1.776c4.557-0.055,9.114-0.106,13.671-0.158
	C331.482,108.331,330.066,109.745,328.65,111.159z"/>
<path fill="#2C97E8" d="M347.155,70.336c7.296,0.034,14.592,0.068,21.887,0.102c-0.594,0.905-1.375,1.625-2.237,2.265
	c-5.767,0.005-11.536-0.064-17.3,0.056C347.603,72.798,346.81,72.242,347.155,70.336z"/>
<path fill="#FCFEFE" d="M293.537,122.192c1.604,1.062,3.39,0.291,5.081,0.491c0.827,0.098,1.674,0.002,2.512,0.026
	c1.179,0.034,2.167,0.394,2.15,1.796c-0.017,1.404-1.026,1.747-2.195,1.75c-3.732,0.01-7.465-0.006-11.197-0.012
	C291.104,124.893,292.321,123.542,293.537,122.192z"/>
<path fill="#2C97E8" d="M190.473,261.845c1.639-0.656,3.136-1.494,4.01-3.129c3.091-0.492,6.233,0.064,9.322-0.459
	c0.699,1.693,1.875,2.91,3.589,3.588C201.753,261.845,196.113,261.845,190.473,261.845z"/>
<path fill="#FCFEFE" d="M271.139,134.567c-1.443-0.966-3.051-0.334-4.578-0.436c-1.292-0.086-2.639-0.146-2.636-1.763
	c0.003-1.604,1.39-1.77,2.654-1.802c2.874-0.072,5.749-0.118,8.623-0.175C273.756,131.693,272.265,132.952,271.139,134.567z"/>
<path fill="#FCFEFE" d="M316.457,115.781c1.556-1.458,3.481-0.708,5.25-0.854c0.983-0.081,1.98-0.002,2.97,0.006
	c-1.047,1.537-2.355,2.829-3.774,4.016c-0.684-0.053-1.333,0.23-2.024,0.175C316.908,118.969,316.129,117.911,316.457,115.781z"/>
<path fill="#FCFEFE" d="M303.152,117.608c-1.631,1.539-3.64,0.634-5.476,0.846c1.292-1.423,2.472-2.959,4.087-4.058
	C302.902,115.174,303.95,115.992,303.152,117.608z"/>
<path fill="#539BFE" d="M316.457,115.781c-0.291,1.861,0.525,2.686,2.386,2.693c0.691,0.002,1.545-0.396,2.061,0.476
	c-0.658,0.587-1.315,1.174-1.967,1.756c-1.141-1.193-2.271-2.375-3.401-3.557C315.842,116.693,316.149,116.237,316.457,115.781z"/>
<path fill="#7AB2FE" d="M303.152,117.608c0.569-1.517-0.896-2.154-1.39-3.211c1.253-0.019,1.723,0.996,2.362,1.788
	C303.8,116.659,303.476,117.134,303.152,117.608z"/>
<path fill="#1A81FE" d="M232.995,112.451c-0.026-21.968-0.054-43.936-0.072-65.904c-0.001-1.372,0.03-2.747,0.129-4.115
	c0.318-4.405,3.324-7.561,7.775-8.215c2.569,0.057,5.172-0.283,7.518,1.303c2.611,1.765,3.961,4.148,3.961,7.269
	c0.004,25.725-0.008,51.45-0.015,77.175c-6.404-0.04-12.809-0.079-19.213-0.119C231.714,117.395,232.738,114.919,232.995,112.451z"
	/>
<path fill="#FAFDFE" d="M296.976,53.933c-9.995,0-19.989,0.002-29.984-0.004c-0.684,0-1.385,0.021-2.047-0.117
	c-0.719-0.149-1.201-0.65-1.248-1.442c-0.052-0.86,0.277-1.55,1.144-1.739c0.808-0.177,1.655-0.237,2.485-0.238
	c19.608-0.012,39.216-0.018,58.824,0.007c1.511,0.002,3.712-0.494,3.699,1.865c-0.012,2.282-2.17,1.642-3.575,1.647
	C316.508,53.951,306.742,53.933,296.976,53.933z"/>
<path fill="#FAFDFE" d="M283.449,79.13c-5.567,0-11.134-0.006-16.701,0.004c-1.352,0.002-2.856,0.004-2.817-1.802
	c0.034-1.581,1.419-1.753,2.716-1.753c11.286,0.002,22.573-0.002,33.859,0.006c1.35,0.001,2.859,0.115,2.81,1.887
	c-0.051,1.836-1.634,1.659-2.938,1.659C294.736,79.13,289.093,79.13,283.449,79.13z"/>
<path fill="#FAFDFE" d="M298.704,59.933c5.564,0,11.128-0.002,16.691,0.002c1.324,0.001,2.865-0.05,2.834,1.787
	c-0.031,1.776-1.525,1.786-2.875,1.785c-11.204-0.005-22.408-0.002-33.612-0.004c-1.333,0-2.846,0.028-2.827-1.805
	c0.019-1.831,1.547-1.764,2.868-1.765C287.424,59.931,293.064,59.933,298.704,59.933z"/>
<path fill="#FCFEFE" d="M283.448,102.612c-5.635,0-11.271-0.006-16.906,0.005c-1.302,0.003-2.661-0.12-2.617-1.769
	c0.039-1.469,1.302-1.621,2.539-1.619c11.423,0.014,22.846,0.013,34.269,0.003c1.298-0.001,2.631,0.062,2.592,1.762
	c-0.035,1.542-1.301,1.625-2.513,1.623C295.023,102.606,289.236,102.611,283.448,102.612z"/>
<path fill="#FCFEFE" d="M283.415,86.964c-5.497,0.001-10.994-0.001-16.491,0.002c-1.309,0.001-2.951,0.165-2.984-1.619
	c-0.037-1.979,1.712-1.755,3.075-1.756c11.147-0.006,22.294-0.008,33.441,0.006c0.959,0.001,2.038-0.239,2.664,0.848
	c0.74,1.284-0.2,2.493-2.069,2.504C295.173,86.985,289.294,86.964,283.415,86.964z"/>
<path fill="#FCFEFE" d="M283.688,91.448c5.65,0,11.3,0.008,16.95-0.006c1.28-0.003,2.688-0.007,2.689,1.68
	c0.001,1.674-1.398,1.706-2.683,1.705c-11.376-0.008-22.753-0.007-34.129,0c-1.31,0.001-2.662-0.14-2.585-1.804
	c0.069-1.48,1.354-1.587,2.579-1.584C272.236,91.458,277.962,91.448,283.688,91.448z"/>
<path fill="#F9FCFE" d="M324.48,79.127c-1.984,0.001-3.968,0.006-5.952-0.001c-1.086-0.003-2.026-0.298-2.136-1.563
	c-0.122-1.407,0.856-1.929,2.017-1.944c4.196-0.054,8.393-0.054,12.589,0.007c1.05,0.015,2.005,0.508,1.925,1.797
	c-0.074,1.202-0.898,1.694-2.034,1.699C328.753,79.133,326.617,79.125,324.48,79.127z"/>
<path fill="#FCFEFE" d="M324.587,86.963c-1.978,0.001-3.957-0.006-5.935,0.004c-1.161,0.006-2.211-0.189-2.26-1.628
	c-0.049-1.436,0.944-1.746,2.135-1.746c4.109,0.002,8.218-0.002,12.327,0.005c1.081,0.002,2.071,0.273,2.058,1.579
	c-0.014,1.333-0.935,1.791-2.162,1.787C328.696,86.956,326.642,86.962,324.587,86.963z"/>
<path fill="#FCFEFE" d="M324.667,99.24c2.055,0.001,4.111,0.002,6.166,0c1.112-0.001,2.024,0.365,2.079,1.606
	c0.063,1.414-0.932,1.761-2.129,1.761c-4.111,0-8.221,0.002-12.332-0.003c-1.088-0.001-2.022-0.28-2.058-1.591
	c-0.039-1.421,0.894-1.78,2.108-1.775C320.557,99.245,322.612,99.24,324.667,99.24z"/>
<path fill="#FCFEFE" d="M324.54,94.815c-2.053,0.001-4.107,0.006-6.16-0.001c-1.115-0.004-1.99-0.369-1.993-1.658
	c-0.003-1.26,0.805-1.703,1.951-1.703c4.183,0,8.366-0.001,12.548,0.001c1.123,0.001,2.02,0.42,2.024,1.652
	c0.004,1.203-0.833,1.705-1.982,1.706C328.799,94.815,326.67,94.814,324.54,94.815z"/>
<path fill="#1C83FE" d="M232.595,119.846c-1.955,0-3.909,0-6.426,0c2.919-1.252,4.99-2.815,6.092-5.373
	C233.375,116.202,232.782,118.036,232.595,119.846z"/>
<path fill="#3D94FE" d="M232.595,119.846c-0.159-1.788,0.418-3.622-0.334-5.373c0.245-0.674,0.49-1.347,0.734-2.022
	c0.028,2.464,0.056,4.928,0.084,7.393C232.917,119.845,232.756,119.845,232.595,119.846z"/>
<path fill="#FAFDFE" d="M283.793,162.047c5.642,0,11.284,0.006,16.927-0.005c1.298-0.003,2.631,0.074,2.597,1.772
	c-0.029,1.479-1.262,1.771-2.477,1.772c-11.513,0.014-23.026,0.011-34.54,0.004c-1.261-0.001-2.424-0.415-2.385-1.86
	c0.04-1.468,1.238-1.693,2.494-1.69C272.203,162.057,277.998,162.047,283.793,162.047z"/>
<path fill="#FCFEFE" d="M283.679,157.586c-5.711,0.001-11.423-0.003-17.134,0.005c-1.105,0.002-2.335-0.001-2.571-1.326
	c-0.293-1.643,0.864-2.056,2.259-2.054c3.655,0.006,7.311,0.001,10.966,0c7.844,0,15.687-0.002,23.531,0.004
	c0.901,0.001,1.863-0.133,2.409,0.878c0.699,1.296-0.224,2.467-2.097,2.479C295.254,157.608,289.466,157.585,283.679,157.586z"/>
<path fill="#F9FCFE" d="M324.795,162.05c1.983-0.001,3.966-0.005,5.949,0c1.198,0.003,2.178,0.385,2.171,1.766
	c-0.006,1.241-0.955,1.731-2.016,1.743c-4.194,0.047-8.389,0.049-12.582-0.011c-1.058-0.015-1.967-0.51-1.932-1.797
	c0.035-1.271,0.895-1.681,2.004-1.693C320.524,162.036,322.66,162.052,324.795,162.05z"/>
<path fill="#F9FCFE" d="M324.598,134.1c-2.06,0.001-4.121,0.015-6.181-0.004c-1.104-0.01-1.98-0.396-2.033-1.667
	c-0.053-1.286,0.845-1.805,1.907-1.819c4.271-0.056,8.544-0.051,12.815,0.01c0.961,0.014,1.828,0.501,1.817,1.662
	c-0.011,1.209-0.771,1.789-1.918,1.807C328.872,134.123,326.735,134.099,324.598,134.1z"/>
<path fill="#FCFEFE" d="M324.9,146.365c2.055,0.002,4.111-0.012,6.166,0.008c1.021,0.01,1.848,0.393,1.853,1.554
	c0.004,1.204-0.749,1.784-1.91,1.788c-4.263,0.014-8.526,0.011-12.789,0.003c-1.05-0.002-1.786-0.456-1.83-1.591
	c-0.049-1.273,0.74-1.75,1.888-1.758C320.485,146.352,322.692,146.363,324.9,146.365z"/>
<path fill="#FCFEFE" d="M324.69,157.585c-2.055-0.001-4.111-0.002-6.166-0.001c-1.194,0.001-2.175-0.314-2.134-1.75
	c0.036-1.278,0.921-1.62,2.039-1.619c4.111,0.003,8.221,0.002,12.332-0.001c1.207-0.001,2.188,0.38,2.152,1.761
	c-0.038,1.427-1.135,1.614-2.285,1.612C328.648,157.583,326.669,157.586,324.69,157.585z"/>
<path fill="#FCFEFE" d="M324.641,141.936c-2.055,0.001-4.109-0.004-6.164,0.002c-1.224,0.004-2.136-0.382-2.082-1.798
	c0.051-1.315,0.999-1.567,2.079-1.569c4.109-0.005,8.219-0.006,12.328,0c1.065,0.001,2.083,0.216,2.108,1.529
	c0.025,1.335-0.869,1.835-2.105,1.835C328.75,141.936,326.695,141.936,324.641,141.936z"/>
<path fill="#FEFEFE" d="M261.471,204.142c39.391,0,78.783,0.014,118.174-0.041c1.998-0.003,2.86,0.357,2.678,2.578
	c-0.28,3.416,0.197,6.867-0.252,10.288c-0.636,4.842-4.159,8.097-9.053,8.395c-0.761,0.046-1.526,0.047-2.289,0.047
	c-72.905,0.002-145.809-0.001-218.714,0.013c-2.635,0.001-5.188-0.164-7.396-1.824c-2.62-1.97-3.93-4.643-4.015-7.869
	c-0.088-3.357,0.024-6.718-0.051-10.076c-0.028-1.244,0.448-1.637,1.599-1.52c0.529,0.054,1.068,0.009,1.602,0.009
	C182.993,204.142,222.232,204.142,261.471,204.142z"/>
<path fill="#FEFEFE" d="M84.171,248.64c-0.006-13.79-0.035-27.581-0.006-41.371c0.01-4.645,3.908-8.827,8.581-8.984
	c5.327-0.18,10.665-0.067,15.999-0.048c2.659,0.009,1.113,2.093,1.531,3.208c-0.715,0.747-1.663,0.64-2.563,0.685
	c-0.835,0.042-1.685-0.014-2.479,0.295c-1.064,0.413-1.819,1.112-1.869,2.337c-0.051,1.244,0.673,1.968,1.733,2.415
	c1.152,0.486,2.381,0.447,3.597,0.448c8.516,0.008,17.032-0.007,25.548,0.014c1.194,0.003,2.46-0.222,3.479,0.704
	c-0.009,2.119-0.018,4.238-0.027,6.357c-0.788,0.789-1.808,0.708-2.789,0.72c-2.512,0.03-5.025-0.022-7.536,0.021
	c-2.769,0.048-3.898,0.897-3.912,3.614c-0.027,5.036-1.187,4.604-5.206,4.619c-3.502,0.013-7.004-0.025-10.505,0.011
	c-5.207,0.054-7.725,2.563-7.751,7.717c-0.024,4.72,0.007,9.44-0.014,14.159c-0.005,1.055,0.109,2.155-0.709,3.027
	C94.237,248.606,89.204,248.623,84.171,248.64z"/>
<path fill="#FEFEFE" d="M288.076,251.268c-17.588,0-34.712,0-52.265,0c4.751-5.48,2.931-11.871,3.17-17.906
	c0.195-4.947,0.04-4.953,4.998-4.953c12.885,0,25.77,0.038,38.654-0.044c1.816-0.012,2.319,0.484,2.242,2.269
	c-0.145,3.348,0.058,6.711-0.068,10.061C284.666,244.47,285.296,247.967,288.076,251.268z"/>
<path fill="#FEFEFE" d="M203.805,258.257c-0.13,0.251-0.263,0.722-0.391,0.721c-2.978-0.029-5.977,0.527-8.931-0.262
	c2.479-5.113-0.388-9.848-6.071-10.021c-0.457-0.014-0.922-0.054-1.372,0.006c-1.443,0.191-2.233-0.298-1.931-1.856
	c0.48-2.47-0.727-2.832-2.899-2.8c-7.015,0.104-14.033-0.008-21.05-0.036c-1.712-3.457-0.677-5.238,3.15-5.253
	c11.053-0.041,22.107-0.004,33.161-0.029c1.025-0.002,2.124,0.246,3.281-0.642c-0.988-0.795-2.05-0.615-3.027-0.616
	c-10.825-0.016-21.65-0.004-32.475-0.013c-4.593-0.004-4.902-0.323-4.836-4.963c0.02-1.436-0.133-2.942,1.191-3.998
	c14.802,0.014,29.604,0.027,44.406,0.041c0.778,0.783,0.75,1.796,0.755,2.779c0.028,5.927,0.02,11.854,0.007,17.782
	c-0.002,0.996-0.052,1.982-0.678,2.829C204.088,253.586,202.921,255.551,203.805,258.257z"/>
<path fill="#B5D6FD" d="M99.27,248.589c0.003-6.029-0.007-12.058,0.013-18.086c0.014-4.436,3.005-7.459,7.46-7.498
	c4.578-0.04,9.159-0.074,13.736,0.024c1.656,0.035,2.45-0.381,2.226-2.157c-0.104-0.826-0.076-1.683,0.008-2.514
	c0.261-2.579,1.422-3.623,3.992-3.635c3.663-0.017,7.326-0.016,10.989-0.022c0.016,0.933,0.031,1.866,0.047,2.798
	c-0.925,2.177-0.138,4.467-0.483,6.681c0.404-1.935-0.562-3.994,0.581-5.86c0.854,2.869,2.357,5.336,4.562,7.369
	c0.326,2.799,0.134,5.607,0.121,8.411c-0.005,1.106,0.077,1.959,1.508,1.966c1.314,0.006,2.249-0.282,2.236-1.848
	c-0.011-1.366,0.035-2.731-0.104-4.094c-0.076-0.74-0.298-1.518,0.347-2.148c0.941,0.02,1.885,0.017,2.734,0.521
	c0.834,0.453,1.085,1.235,1.109,2.097c0.105,3.928,0.108,7.857-0.002,11.786c-0.017,0.615-0.213,1.189-0.651,1.653
	c-0.927-0.008-1.854-0.016-2.781-0.024c-0.141-0.178-0.308-0.342-0.381-0.563c-1.07-3.245-1.07-3.248-4.614-3.248
	c-11.939-0.001-23.879-0.007-35.818,0.004c-3.227,0.003-3.265,0.113-3.36,3.326c-0.05,1.709,0.461,3.52-0.692,5.087
	C101.124,248.605,100.197,248.597,99.27,248.589z"/>
<path fill="#FEFEFE" d="M260.547,254.078c16.71,0,33.421,0,50.132,0.001c0.686,0,1.38-0.038,2.058,0.041
	c1.38,0.161,2.276,0.936,2.337,2.353c0.067,1.526-0.823,2.405-2.284,2.66c-0.594,0.104-1.218,0.038-1.828,0.038
	c-33.497,0.001-66.995,0.001-100.492-0.001c-0.686,0-1.393,0.063-2.053-0.078c-1.342-0.286-2.203-1.155-2.12-2.566
	c0.08-1.352,0.841-2.279,2.288-2.411c0.682-0.062,1.372-0.036,2.059-0.036C227.279,254.078,243.913,254.078,260.547,254.078z"/>
<path fill="#FEFEFE" d="M219.797,228.516c5.015-0.036,10.031-0.049,15.045-0.126c1.062-0.016,1.466,0.282,1.451,1.403
	c-0.062,4.561,0.079,9.128-0.093,13.683c-0.121,3.205-1.601,5.809-4.458,7.49c-3.649,0.403-7.31,0.091-10.964,0.175
	c-1.727,0.04-1.665-1.315-1.699-2.421c-0.112-3.586-0.036-7.176-0.045-10.764c-0.006-2.214-0.022-4.428,0.012-6.642
	C219.06,230.324,219.032,229.31,219.797,228.516z"/>
<path fill="#B6D6FE" d="M137.721,208.343c-10.154-0.018-20.307-0.029-30.461-0.057c-3.066-0.008-4.641-1.053-4.78-3.103
	c-0.138-2.042,1.231-3.564,3.445-3.7c1.446-0.089,2.9-0.031,4.351-0.039c0.924,0,1.848,0,2.771,0
	c1.52-0.962,3.042-0.955,4.566-0.008c0.021,1.07-0.132,2.334,1.492,2.247c1.452-0.077,1.226-1.278,1.266-2.247
	c1.524-0.95,3.048-0.95,4.573,0c0.021,1.07-0.132,2.334,1.492,2.247c1.452-0.077,1.226-1.278,1.266-2.247
	c0.479-0.423,1.062-0.556,1.677-0.652c2.616-0.406,2.639-0.415,2.645-3.161c0.016-7.787,0.01-15.573,0.004-23.36
	c-0.004-6.406,0.052-5.017,5.685-7.189c-0.006,1.242-0.011,2.484-0.017,3.726c-1.315,1.545-1.56,3.348-1.541,5.327
	c0.072,7.471,0.045,14.944,0.014,22.415c-0.006,1.52,0.143,2.897,1.555,3.8C137.721,204.343,137.721,206.343,137.721,208.343z"/>
<path fill="#FEFEFE" d="M137.711,167.075c-0.769,0.841-1.529,1.864-2.759,1.804c-1.957-0.096-2.22,0.916-2.211,2.54
	c0.05,8.82,0.041,17.641,0.016,26.462c-0.012,4.064,0.544,3.532-3.688,3.58c-0.456,0.005-0.912-0.015-1.368-0.024
	c-0.001-13.585,0.025-27.169-0.038-40.754c-0.008-1.74,0.376-2.478,2.271-2.352c2.584,0.171,5.186,0.066,7.781,0.08
	C137.712,161.298,137.711,164.186,137.711,167.075z"/>
<path fill="#FEFEFE" d="M208.789,228.488c2.745,0,5.491,0.001,8.236,0.001c0.68,0.73,0.728,1.649,0.732,2.564
	c0.026,5.848,0.036,11.697-0.006,17.546c-0.006,0.834-0.039,1.682-0.637,2.366c-2.411,0.397-4.84,0.064-7.258,0.189
	c-1.376,0.071-1.642-0.842-1.742-1.886c-0.153-1.589-0.072-3.186-0.075-4.78c-0.007-4.251-0.017-8.503,0.007-12.754
	C208.052,230.605,207.943,229.432,208.789,228.488z"/>
<path fill="#B6D6FC" d="M161.605,228.495c-0.792,2.304-0.39,4.685-0.424,7.033c-0.024,1.647,1.318,1.163,2.193,1.165
	c11.9,0.026,23.801,0.018,35.702,0.018c0.534,0,1.069,0.023,1.602,0.003c1.034-0.038,1.282,0.549,1.265,1.451
	c-0.015,0.827-0.305,1.306-1.198,1.286c-0.61-0.013-1.22,0.007-1.831,0.007c-11.519,0.001-23.038,0-34.557,0.001
	c-3.206,0-3.206,0.001-3.202,3.175c0.001,0.458,0.004,0.915,0.007,1.373c-0.927,0.008-1.854,0.016-2.781,0.024
	c-0.494-0.539-0.639-1.21-0.642-1.902c-0.006-1.132-0.443-1.866-1.617-2.126c-1.045-0.231-1.483-0.975-1.459-2.019
	c0.023-0.962,0.49-1.616,1.43-1.798c1.655-0.32,1.526-1.562,1.643-2.799c0.157-1.655-0.682-3.56,1.082-4.861
	C159.746,228.516,160.675,228.506,161.605,228.495z"/>
<path fill="#FEFEFE" d="M158.817,228.527c-0.813,1.914-0.362,3.924-0.374,5.884c-0.009,1.519-0.152,2.579-2.058,2.321
	c-0.85-0.115-1.266,0.37-1.222,1.231c0.03,0.598-0.064,1.493,0.75,1.405c3.069-0.334,2.48,1.777,2.488,3.52
	c0.002,0.381-0.015,0.763-0.023,1.145c-2.894,0-5.788,0-8.683,0c-0.008-4.298-0.019-8.597-0.023-12.895
	c-0.001-0.906,0.055-1.816-0.432-2.64C152.433,228.506,155.625,228.516,158.817,228.527z"/>
<path fill="#FCFDFE" d="M137.722,202.343c-1.681,0.335-2.265-0.281-2.248-2.051c0.08-8.703,0.101-17.409-0.015-26.111
	c-0.025-1.847,0.534-2.883,2.235-3.38C137.703,181.315,137.712,191.829,137.722,202.343z"/>
<path fill="#B6D7FC" d="M217.001,250.856c0.008-7.456,0.016-14.911,0.024-22.367c0.924,0.009,1.848,0.018,2.772,0.026
	c-0.001,6.763,0.054,13.527-0.042,20.289c-0.024,1.718,0.484,2.243,2.187,2.181c3.263-0.118,6.533-0.025,9.8-0.02
	c-0.924,0.819-2.043,0.417-3.064,0.421c-3.882,0.013-7.764-0.065-11.647-0.109c-0.159-0.083-0.216-0.173-0.172-0.27
	C216.904,250.907,216.951,250.856,217.001,250.856z"/>
<path fill="#B6D7FC" d="M217.001,250.856c0.016,0.14,0.026,0.281,0.03,0.422c-2.473,0.043-4.948,0.145-7.42,0.104
	c-1.224-0.02-2.385,0.098-3.517,0.542c-0.028-7.796-0.056-15.593-0.084-23.389c0.926-0.016,1.853-0.032,2.779-0.047
	c0.003,6.795,0.047,13.59-0.021,20.384c-0.016,1.566,0.411,2.216,2.055,2.104C212.876,250.835,214.941,250.888,217.001,250.856z"/>
<path fill="#FDFDFE" d="M146.507,227.975c0.479,2.239,0.371,4.513,0.444,6.78c0.047,1.455-0.385,2.151-1.919,1.968
	c-0.599-0.072-1.217-0.053-1.821-0.003c-1.262,0.105-1.616-0.176-1.437-1.642c0.292-2.396,0.082-4.852,0.117-7.281
	c0.01-0.728-0.24-1.546,0.508-2.107C143.769,226.451,145.138,227.213,146.507,227.975z"/>
<path fill="#FEFEFE" d="M137.838,218.32c0,2.84,0,5.68,0,8.52c-0.331,0.01-0.663,0.021-0.994,0.032c0-2.393-0.05-4.788,0.029-7.179
	c0.025-0.774-0.591-1.937,0.868-2.194C137.773,217.773,137.805,218.046,137.838,218.32z"/>
<path fill="#FEFEFE" d="M115.344,259.173c-10.079,0-20.158,0.011-30.236-0.008c-2.667-0.005-4.52-1.619-4.522-3.824
	c-0.001-2.226,1.817-3.81,4.488-3.899c0.534-0.018,1.069-0.003,1.603-0.003c14.278,0,28.557,0,42.835,0
	c5.498,0,10.996,0.061,16.492-0.037c1.642-0.029,2.027,0.516,2.026,2.076c-0.003,5.695,0.052,5.695-5.656,5.695
	C133.363,259.173,124.354,259.173,115.344,259.173z"/>
<path fill="#FEFEFE" d="M102.051,248.613c-0.008-2.434,0.037-4.87-0.046-7.302c-0.046-1.345,0.358-1.881,1.795-1.877
	c13.77,0.042,27.54,0.041,41.309,0.001c1.391-0.004,1.952,0.441,1.827,1.835c-0.081,0.906-0.019,1.825-0.021,2.737
	c-2.231-0.162-1.867,1.364-1.767,2.718c0.425,0.778,2.881-0.365,1.767,1.868C131.961,248.6,117.006,248.607,102.051,248.613z"/>
<path fill="#FEFEFE" d="M168.081,259.173c-5.181,0-10.363-0.042-15.544,0.029c-1.363,0.019-1.813-0.332-1.835-1.767
	c-0.092-5.997-0.144-6.004,5.855-5.994c8.991,0.014,17.981,0.077,26.972,0.028c1.558-0.008,2.074,0.37,2.072,2.004
	c-0.008,5.7,0.058,5.7-5.634,5.7C176.006,259.173,172.044,259.173,168.081,259.173z"/>
<path fill="#F7FAFE" d="M182.267,247.222c0.278,1.089-0.129,1.501-1.261,1.49c-6.617-0.063-13.234-0.08-19.851-0.112
	c-0.607-1.113-0.145-1.57,0.988-1.553C168.851,247.143,175.563,246.813,182.267,247.222z"/>
<path fill="#F7FAFE" d="M188.297,255.234c0-0.532-0.048-1.07,0.012-1.596c0.081-0.712-0.396-1.682,0.466-2.064
	c0.805-0.357,1.627,0.153,2.317,0.632c1.686,1.167,2.164,3.342,1.089,5.038c-0.729,1.15-1.824,2.137-3.167,1.829
	c-1.396-0.319-0.472-1.777-0.703-2.701C188.222,256.013,188.297,255.614,188.297,255.234z"/>
<path fill="#B0D3FC" d="M182.267,247.222c-6.378,0.001-12.756,0-19.134,0.007c-0.964,0.001-2.121-0.242-1.977,1.372
	c-0.924,0.008-1.847,0.016-2.771,0.024c-0.654-0.854-1.605-0.635-2.486-0.703c-2.004-0.154-4.052,0.345-6.018-0.395
	c-0.252-0.164-0.316-0.384-0.195-0.659c10.543-0.03,21.086-0.06,31.629-0.087C181.697,246.779,182.076,246.802,182.267,247.222z"/>
<path fill="#F6F9FE" d="M149.679,247.24c2.338-0.005,4.677,0.006,7.015-0.022c0.998-0.012,1.871,0.042,1.69,1.406
	c-2.898,0-5.795,0-8.693,0C149.321,248.166,149.284,247.705,149.679,247.24z"/>
<path fill="#B0D3FC" d="M149.679,247.24c0.004,0.461,0.008,0.923,0.012,1.384c-0.925-0.01-1.85-0.02-2.775-0.03
	c0.397-1.556-1.342-1.091-1.767-1.868c1.512,0.047,3.024,0.094,4.537,0.141C149.685,246.991,149.683,247.116,149.679,247.24z"/>
<path fill="#FEFEFE" d="M124.942,201.436c-1.524,0-3.049,0-4.573,0c-0.001-13.568,0.035-27.135-0.047-40.702
	c-0.012-1.933,0.581-2.403,2.447-2.436c1.972-0.035,2.211,0.787,2.205,2.436C124.924,174.301,124.944,187.869,124.942,201.436z"/>
<path fill="#FEFEFE" d="M117.612,201.436c-1.522,0.003-3.044,0.005-4.566,0.008c-0.004-13.501-0.011-27.002-0.008-40.503
	c0.001-2.279,1.934-3.48,3.962-2.473c1.012,0.503,0.595,1.475,0.596,2.236C117.622,174.282,117.614,187.859,117.612,201.436z"/>
<path fill="#FEFEFE" d="M397.006,259.081c-7.443,0.01-14.885,0.02-22.327,0.029c-6.647-2.461-9.527-7.606-7.413-13.375
	c1.575-4.298,4.948-6.414,9.296-6.527c6.46-0.169,12.947-0.51,19.394,0.202c4.881,0.539,8.296,4.042,8.853,8.71
	c0.519,4.352-2.202,8.678-6.56,10.436C397.831,258.723,397.42,258.905,397.006,259.081z"/>
<path fill="#FDFEFE" d="M75.975,235.308c-0.167,1.679-0.978,2.707-2.714,2.788c-1.675,0.078-2.92-1.16-2.827-2.833
	c0.096-1.711,1.062-2.656,2.774-2.651C74.948,232.618,75.773,233.667,75.975,235.308z"/>
<path fill="#FEFEFE" d="M188.505,13.104c0.021-2.042,0.07-3.799,0.778-5.445c0.663-1.54,1.755-2.433,3.539-2.326
	c1.723,0.104,2.612,1.144,3.008,2.658c0.822,3.143,0.912,6.323,0.119,9.484c-0.441,1.758-1.441,3.038-3.447,3.083
	c-2.037,0.046-2.932-1.254-3.494-2.992C188.507,16.01,188.584,14.409,188.505,13.104z"/>
<path fill="#FEFEFE" d="M173.532,13.409c0.052,1.279-0.034,2.885-0.568,4.409c-0.568,1.621-1.582,2.762-3.491,2.748
	c-1.826-0.014-2.826-1.122-3.257-2.685c-0.908-3.289-0.947-6.63,0.056-9.908c0.508-1.659,1.624-2.718,3.539-2.641
	c1.957,0.078,2.751,1.317,3.215,2.998C173.458,9.891,173.526,11.479,173.532,13.409z"/>
<path fill="#2C97E8" d="M270.212,214.548c0.035,4.32-3.486,7.905-7.755,7.896c-4.148-0.009-7.715-3.542-7.779-7.704
	c-0.065-4.258,3.506-7.834,7.818-7.83C266.769,206.913,270.177,210.287,270.212,214.548z"/>
<path fill="#FEFEFE" d="M112.525,236.709c-2.97-0.001-5.942-0.036-8.911,0.017c-1.183,0.021-1.649-0.417-1.601-1.601
	c0.062-1.521-0.001-3.046,0.017-4.569c0.035-2.982,1.635-4.739,4.61-4.789c4.797-0.081,9.597,0.012,14.395-0.043
	c1.341-0.015,1.651,0.549,1.678,1.775c0.062,2.729-0.298,5.467,0.251,8.192c0.258,1.283-0.849,0.999-1.528,1.006
	C118.466,236.728,115.495,236.71,112.525,236.709z"/>
<path fill="#FEFEFE" d="M128.639,226.637c0,2.354-0.073,4.712,0.026,7.062c0.066,1.576-0.79,1.654-1.992,1.677
	c-1.247,0.024-1.763-0.356-1.748-1.68c0.057-4.86,0.056-9.721,0.001-14.581c-0.015-1.321,0.503-1.706,1.751-1.687
	c1.215,0.018,2.045,0.133,1.987,1.692C128.571,221.622,128.639,224.131,128.639,226.637z"/>
<path fill="#FEFEFE" d="M130.877,229.555c-0.001,1.592,0.009,3.184-0.008,4.776c-0.005,0.47-0.115,0.95-0.747,0.869
	c-0.471-0.06-0.546-0.479-0.547-0.862c-0.01-3.26-0.01-6.52-0.005-9.779c0.001-0.468,0.074-1.003,0.652-1.008
	c0.587-0.005,0.65,0.536,0.652,1.001C130.884,226.219,130.879,227.887,130.877,229.555z"/>
<path fill="#FEFEFE" d="M132.044,235.076c0-3.788,0-7.576,0-11.364c0.155,0,0.31,0.001,0.465,0.001c0,3.788,0,7.576,0,11.364
	C132.355,235.077,132.199,235.076,132.044,235.076z"/>
<path fill="#B7D4FE" d="M262.568,209.665c2.846,0.047,4.977,2.318,4.882,5.204c-0.088,2.689-2.442,4.931-5.075,4.834
	c-2.733-0.101-5.076-2.594-4.959-5.275C257.534,211.749,259.836,209.62,262.568,209.665z"/>
<path fill="#2C97E8" d="M496.25,261.688H3.521c-0.779,0-1.417-0.638-1.417-1.417l0,0c0-0.779,0.637-1.417,1.417-1.417H496.25
	c0.779,0,1.417,0.638,1.417,1.417l0,0C497.667,261.05,497.029,261.688,496.25,261.688z"/>
<path fill="#DBEBFE" d="M322.917,5H217.872c-2.2,0-4,1.8-4,4v24.473h113.045V9C326.917,6.8,325.117,5,322.917,5z"/>
<g>
	<path fill="#2C97E8" d="M147.273,8.171v17.105h-2.611V11.31c-1.03,0.982-2.348,1.701-3.929,2.156v-2.587
		c0.767-0.191,1.557-0.527,2.419-1.006c0.862-0.527,1.581-1.078,2.156-1.701H147.273z"/>
	<path fill="#2C97E8" d="M161.021,9.25c1.03,0.958,1.557,2.18,1.557,3.689c0,1.485-0.575,2.827-1.677,4.048
		c-0.671,0.695-1.845,1.605-3.546,2.755c-1.844,1.222-2.946,2.3-3.306,3.234h8.552v2.3h-11.787c0-1.701,0.551-3.186,1.701-4.48
		c0.623-0.743,1.917-1.772,3.857-3.114c1.15-0.814,1.964-1.461,2.443-1.964c0.767-0.862,1.174-1.797,1.174-2.803
		c0-0.958-0.263-1.677-0.791-2.156c-0.527-0.479-1.317-0.719-2.324-0.719c-1.078,0-1.893,0.359-2.443,1.102
		c-0.575,0.719-0.862,1.749-0.911,3.138h-2.611c0.024-1.917,0.575-3.45,1.653-4.6c1.102-1.246,2.587-1.845,4.408-1.845
		C158.601,7.836,159.966,8.292,161.021,9.25z"/>
	<path fill="#2C97E8" d="M175.749,10.375c1.006,1.581,1.509,3.689,1.509,6.349c0,2.635-0.503,4.767-1.509,6.348
		c-1.102,1.677-2.659,2.54-4.671,2.54s-3.57-0.862-4.671-2.54c-1.006-1.581-1.509-3.689-1.509-6.348
		c0-2.683,0.503-4.792,1.509-6.349c1.102-1.701,2.659-2.54,4.671-2.54S174.647,8.675,175.749,10.375z M168.107,12.364
		c-0.431,1.054-0.623,2.516-0.623,4.36c0,1.82,0.192,3.282,0.623,4.36c0.575,1.533,1.557,2.324,2.971,2.324
		c1.389,0,2.396-0.791,2.97-2.324c0.408-1.078,0.623-2.54,0.623-4.36c0-1.845-0.215-3.306-0.623-4.36
		c-0.575-1.557-1.581-2.324-2.97-2.324C169.664,10.04,168.682,10.807,168.107,12.364z"/>
	<path fill="#2C97E8" d="M183.099,22.593c0.383,0.527,0.575,1.174,0.575,1.988c0,1.222-0.359,2.276-1.054,3.186
		c-0.718,0.911-1.677,1.533-2.875,1.869v-1.485c0.623-0.24,1.174-0.599,1.605-1.126c0.407-0.551,0.623-1.102,0.623-1.677
		c-0.144,0.048-0.335,0.072-0.599,0.072c-0.479,0-0.91-0.167-1.246-0.503s-0.503-0.767-0.503-1.27c0-0.551,0.167-0.982,0.551-1.318
		c0.335-0.335,0.791-0.479,1.366-0.479C182.165,21.851,182.668,22.09,183.099,22.593z"/>
	<path fill="#2C97E8" d="M196.632,10.375c1.006,1.581,1.509,3.689,1.509,6.349c0,2.635-0.503,4.767-1.509,6.348
		c-1.102,1.677-2.659,2.54-4.671,2.54c-2.013,0-3.57-0.862-4.671-2.54c-1.006-1.581-1.509-3.689-1.509-6.348
		c0-2.683,0.503-4.792,1.509-6.349c1.102-1.701,2.659-2.54,4.671-2.54C193.973,7.836,195.53,8.675,196.632,10.375z M188.99,12.364
		c-0.431,1.054-0.623,2.516-0.623,4.36c0,1.82,0.192,3.282,0.623,4.36c0.575,1.533,1.557,2.324,2.971,2.324
		c1.389,0,2.396-0.791,2.971-2.324c0.407-1.078,0.623-2.54,0.623-4.36c0-1.845-0.215-3.306-0.623-4.36
		c-0.575-1.557-1.582-2.324-2.971-2.324C190.547,10.04,189.565,10.807,188.99,12.364z"/>
	<path fill="#2C97E8" d="M211.001,10.375c1.006,1.581,1.509,3.689,1.509,6.349c0,2.635-0.503,4.767-1.509,6.348
		c-1.102,1.677-2.659,2.54-4.671,2.54c-2.013,0-3.57-0.862-4.671-2.54c-1.006-1.581-1.509-3.689-1.509-6.348
		c0-2.683,0.503-4.792,1.509-6.349c1.102-1.701,2.659-2.54,4.671-2.54C208.342,7.836,209.899,8.675,211.001,10.375z M203.359,12.364
		c-0.431,1.054-0.623,2.516-0.623,4.36c0,1.82,0.192,3.282,0.623,4.36c0.575,1.533,1.557,2.324,2.971,2.324
		c1.389,0,2.396-0.791,2.971-2.324c0.407-1.078,0.623-2.54,0.623-4.36c0-1.845-0.215-3.306-0.623-4.36
		c-0.575-1.557-1.582-2.324-2.971-2.324C204.917,10.04,203.935,10.807,203.359,12.364z"/>
	<path fill="#2C97E8" d="M225.371,10.375c1.006,1.581,1.509,3.689,1.509,6.349c0,2.635-0.503,4.767-1.509,6.348
		c-1.102,1.677-2.659,2.54-4.671,2.54c-2.013,0-3.57-0.862-4.671-2.54c-1.006-1.581-1.509-3.689-1.509-6.348
		c0-2.683,0.503-4.792,1.509-6.349c1.102-1.701,2.659-2.54,4.671-2.54C222.711,7.836,224.269,8.675,225.371,10.375z M217.729,12.364
		c-0.431,1.054-0.623,2.516-0.623,4.36c0,1.82,0.192,3.282,0.623,4.36c0.575,1.533,1.557,2.324,2.971,2.324
		c1.389,0,2.396-0.791,2.971-2.324c0.407-1.078,0.623-2.54,0.623-4.36c0-1.845-0.215-3.306-0.623-4.36
		c-0.575-1.557-1.582-2.324-2.971-2.324C219.286,10.04,218.304,10.807,217.729,12.364z"/>
	<path fill="#2C97E8" d="M232.721,22.593c0.383,0.527,0.575,1.174,0.575,1.988c0,1.222-0.359,2.276-1.055,3.186
		c-0.719,0.911-1.677,1.533-2.875,1.869v-1.485c0.623-0.24,1.174-0.599,1.605-1.126c0.407-0.551,0.623-1.102,0.623-1.677
		c-0.144,0.048-0.335,0.072-0.599,0.072c-0.479,0-0.91-0.167-1.246-0.503s-0.503-0.767-0.503-1.27c0-0.551,0.167-0.982,0.551-1.318
		c0.335-0.335,0.791-0.479,1.366-0.479C231.786,21.851,232.289,22.09,232.721,22.593z"/>
	<path fill="#2C97E8" d="M246.254,10.375c1.006,1.581,1.509,3.689,1.509,6.349c0,2.635-0.503,4.767-1.509,6.348
		c-1.102,1.677-2.659,2.54-4.672,2.54c-2.012,0-3.569-0.862-4.671-2.54c-1.007-1.581-1.51-3.689-1.51-6.348
		c0-2.683,0.503-4.792,1.51-6.349c1.102-1.701,2.659-2.54,4.671-2.54C243.595,7.836,245.152,8.675,246.254,10.375z M238.611,12.364
		c-0.431,1.054-0.622,2.516-0.622,4.36c0,1.82,0.191,3.282,0.622,4.36c0.575,1.533,1.558,2.324,2.971,2.324
		c1.39,0,2.396-0.791,2.971-2.324c0.407-1.078,0.623-2.54,0.623-4.36c0-1.845-0.216-3.306-0.623-4.36
		c-0.574-1.557-1.581-2.324-2.971-2.324C240.169,10.04,239.187,10.807,238.611,12.364z"/>
	<path fill="#2C97E8" d="M260.623,10.375c1.006,1.581,1.509,3.689,1.509,6.349c0,2.635-0.503,4.767-1.509,6.348
		c-1.102,1.677-2.659,2.54-4.672,2.54c-2.012,0-3.569-0.862-4.671-2.54c-1.007-1.581-1.51-3.689-1.51-6.348
		c0-2.683,0.503-4.792,1.51-6.349c1.102-1.701,2.659-2.54,4.671-2.54C257.964,7.836,259.521,8.675,260.623,10.375z M252.98,12.364
		c-0.431,1.054-0.622,2.516-0.622,4.36c0,1.82,0.191,3.282,0.622,4.36c0.575,1.533,1.558,2.324,2.971,2.324
		c1.39,0,2.396-0.791,2.971-2.324c0.407-1.078,0.623-2.54,0.623-4.36c0-1.845-0.216-3.306-0.623-4.36
		c-0.574-1.557-1.581-2.324-2.971-2.324C254.538,10.04,253.556,10.807,252.98,12.364z"/>
	<path fill="#2C97E8" d="M274.992,10.375c1.006,1.581,1.509,3.689,1.509,6.349c0,2.635-0.503,4.767-1.509,6.348
		c-1.102,1.677-2.659,2.54-4.672,2.54c-2.012,0-3.569-0.862-4.671-2.54c-1.007-1.581-1.51-3.689-1.51-6.348
		c0-2.683,0.503-4.792,1.51-6.349c1.102-1.701,2.659-2.54,4.671-2.54C272.333,7.836,273.891,8.675,274.992,10.375z M267.35,12.364
		c-0.431,1.054-0.622,2.516-0.622,4.36c0,1.82,0.191,3.282,0.622,4.36c0.575,1.533,1.558,2.324,2.971,2.324
		c1.39,0,2.396-0.791,2.971-2.324c0.407-1.078,0.623-2.54,0.623-4.36c0-1.845-0.216-3.306-0.623-4.36
		c-0.574-1.557-1.581-2.324-2.971-2.324C268.907,10.04,267.925,10.807,267.35,12.364z"/>
	<path fill="#2C97E8" d="M296.235,5.896c-0.312,0.479-0.623,0.935-0.935,1.39h9.056v1.749c-1.294,1.557-2.827,2.922-4.6,4.072
		c2.491,0.958,5.39,1.629,8.72,2.037l-1.054,2.084c-3.857-0.551-7.163-1.485-9.918-2.827c-2.827,1.437-6.181,2.467-10.038,3.09
		l-1.006-2.037c3.33-0.455,6.252-1.222,8.792-2.276c-1.15-0.718-2.156-1.485-3.066-2.348c-0.91,0.814-1.869,1.557-2.875,2.228
		l-1.461-1.749c2.396-1.438,4.455-3.402,6.181-5.894L296.235,5.896z M293.791,22.809c-1.485,1.701-3.281,3.186-5.414,4.456
		l-1.485-1.94c2.108-1.102,3.881-2.419,5.318-3.905L293.791,22.809z M296.379,18.161v-1.988h2.3v1.988h7.762v2.156h-7.762v4.887
		c0,1.629-0.839,2.467-2.516,2.467h-2.636l-0.526-2.18c0.838,0.096,1.629,0.144,2.371,0.144c0.671,0,1.007-0.335,1.007-1.006v-4.312
		h-7.978v-2.156H296.379z M297.48,12.101c1.485-0.814,2.827-1.749,3.977-2.803h-7.762l-0.119,0.12
		C294.678,10.447,295.972,11.334,297.48,12.101z M300.738,22.689l1.462-1.413c1.533,0.934,3.33,2.348,5.438,4.24l-1.652,1.653
		C304.404,25.564,302.655,24.079,300.738,22.689z"/>
	<path fill="#2C97E8" d="M328.686,5.632l-8.36,22.04h-2.229l8.385-22.04H328.686z"/>
	<path fill="#2C97E8" d="M347.701,7.285c-1.103,1.964-2.229,3.593-3.354,4.839c-1.149,1.293-2.73,2.659-4.791,4.096l-1.246-1.988
		c1.533-0.862,2.971-2.036,4.312-3.545c1.102-1.27,2.132-2.803,3.114-4.6L347.701,7.285z M341.951,17.155v-2.18h14.493
		c-0.096,3.066-0.239,5.534-0.479,7.451c-0.24,1.868-0.623,3.186-1.174,3.929c-0.551,0.719-1.438,1.126-2.659,1.198h-4.528
		l-0.622-2.252c1.413,0.048,2.755,0.096,4,0.096c1.198,0,2.013-0.503,2.396-1.509c0.384-1.054,0.647-3.306,0.767-6.731h-5.414
		c-0.574,2.491-1.341,4.479-2.3,5.965c-1.245,1.725-3.09,3.306-5.533,4.696l-1.462-1.893c2.156-1.15,3.81-2.444,4.911-3.857
		c0.887-1.27,1.581-2.899,2.084-4.911H341.951z M360.302,14.328l-1.533,1.797c-3.689-2.396-6.276-5.462-7.738-9.223l1.988-1.126
		C354.337,9.369,356.756,12.22,360.302,14.328z"/>
	<path fill="#2C97E8" d="M367.458,6.135c-0.192,0.719-0.407,1.39-0.6,2.06h4.073v2.084h-4.815c-0.407,0.958-0.839,1.845-1.294,2.707
		h5.821v2.06h-2.396v2.444h2.851v2.108h-2.851v4.935c1.054-0.383,2.132-0.862,3.234-1.461l0.359,1.988
		c-1.677,0.863-3.594,1.558-5.773,2.132l-0.91-1.917c0.574-0.191,0.862-0.479,0.862-0.886v-4.792h-3.114v-2.108h3.114v-2.444h-1.271
		V13.13c-0.287,0.527-0.599,1.03-0.91,1.509l-1.797-1.15c1.533-2.419,2.611-5.031,3.259-7.81L367.458,6.135z M378.885,5.728v4.049
		h4.72V20.94h-2.133v-1.174h-2.587v8.025h-2.228v-8.025h-2.492v1.174h-2.084V9.777h4.576V5.728H378.885z M376.657,17.706v-5.821
		h-2.492v5.821H376.657z M381.472,17.706v-5.821h-2.587v5.821H381.472z"/>
</g>
</svg>
