<?xml version="1.0" encoding="utf-8"?>
<!-- Generator: Adobe Illustrator 21.0.0, SVG Export Plug-In . SVG Version: 6.00 Build 0)  -->
<svg version="1.0" id="图层_1" xmlns="http://www.w3.org/2000/svg" xmlns:xlink="http://www.w3.org/1999/xlink" x="0px" y="0px"
	 viewBox="0 0 275.75 261" enable-background="new 0 0 275.75 261" xml:space="preserve">
<g>
	<g>
		<g>
			<path fill="#FFFFFF" stroke="#455D82" stroke-width="3" stroke-miterlimit="10" d="M52.768,173.93
				c-1.713-4.551-3.072-9.275-4.045-14.138"/>
			<path fill="#FFFFFF" stroke="#455D82" stroke-width="3" stroke-miterlimit="10" d="M150.038,232.22
				c-3.898,0.509-7.874,0.771-11.911,0.771c-3.376,0-6.709-0.183-9.989-0.541"/>
			<path fill="#FFFFFF" stroke="#455D82" stroke-width="3" stroke-miterlimit="10" d="M227.45,160.19
				c-0.876,4.28-2.051,8.45-3.504,12.489"/>
			<path fill="#FFFFFF" stroke="#455D82" stroke-width="3" stroke-miterlimit="10" d="M183.863,62.924
				c4.882,2.836,9.477,6.113,13.73,9.776"/>
			<path fill="#FFFFFF" stroke="#455D82" stroke-width="3" stroke-miterlimit="10" d="M78.011,73.265
				c3.97-3.484,8.245-6.629,12.78-9.389"/>
		</g>
	</g>
	<circle fill="#FFFFFF" stroke="#455D82" stroke-width="3" stroke-miterlimit="10" cx="47.415" cy="110.808" r="44.275"/>
	<path opacity="0.18" fill="#2C97E8" d="M71.047,136.634H29.548c-2.27,0-4.127-1.857-4.127-4.127v-29.549
		c0-2.27,1.857-4.127,4.127-4.127h41.498c2.27,0,4.127,1.857,4.127,4.127v29.549C75.173,134.777,73.316,136.634,71.047,136.634z"/>
	<path fill="#455D82" d="M21.064,98.526v32.511c0.003,2.304,1.88,4.181,4.184,4.184h44.335c2.305-0.003,4.182-1.879,4.184-4.184
		V98.525c-0.002-2.305-1.879-4.182-4.184-4.184H53.836l3.545-7.089c0.146-0.293,0.171-0.626,0.066-0.938
		c-0.104-0.311-0.322-0.563-0.615-0.71c-0.293-0.146-0.625-0.17-0.938-0.066c-0.311,0.104-0.562,0.322-0.709,0.616l-4.095,8.187
		h-7.349l-4.094-8.188c-0.146-0.293-0.399-0.512-0.71-0.616c-0.312-0.104-0.645-0.081-0.938,0.067
		c-0.294,0.147-0.513,0.399-0.616,0.711c-0.104,0.311-0.08,0.644,0.067,0.936l3.544,7.09H25.248
		C22.944,94.345,21.067,96.221,21.064,98.526z M69.583,96.797c0.952,0,1.728,0.775,1.729,1.728v32.512
		c-0.001,0.952-0.776,1.727-1.729,1.728H25.248c-0.952,0-1.728-0.776-1.728-1.728V98.525c0-0.952,0.775-1.728,1.728-1.728H69.583z"
		/>
	<path fill="#FFFFFF" d="M54.817,113.517l-11.822-7.389c-0.456-0.285-1.03-0.301-1.5-0.04c-0.47,0.261-0.762,0.756-0.761,1.293
		v14.778c0,0.537,0.291,1.033,0.761,1.293c0.47,0.261,1.045,0.245,1.5-0.04l11.822-7.389c0.432-0.27,0.694-0.743,0.694-1.253
		C55.511,114.26,55.249,113.787,54.817,113.517L54.817,113.517z M43.688,119.491v-9.445l7.555,4.722L43.688,119.491z
		 M43.688,119.491"/>
	<circle fill="#FFFFFF" stroke="#455D82" stroke-width="3" stroke-miterlimit="10" cx="138.174" cy="47.254" r="44.275"/>
	<circle fill="#FFFFFF" stroke="#455D82" stroke-width="3" stroke-miterlimit="10" cx="228.849" cy="110.808" r="44.275"/>
	<path opacity="0.18" fill="#2C97E8" d="M248.684,130.328c0.087-0.727,0.137-1.466,0.137-2.217c0-10.229-8.292-18.521-18.521-18.521
		c-10.229,0-18.521,8.292-18.521,18.521c0,0.751,0.05,1.49,0.137,2.217H248.684z"/>
	<path opacity="0.18" fill="#2C97E8" d="M240.466,97.434c0,5.614-3.415,10.165-9.028,10.165c-5.614,0-10.165-4.551-10.165-10.165
		c0-5.614,4.551-10.165,10.165-10.165C237.052,87.269,240.466,91.82,240.466,97.434z"/>
	<path fill="#455D82" d="M228.936,82.329L228.936,82.329c-0.029,0-0.058-0.002-0.087-0.002
		C228.878,82.326,228.907,82.328,228.936,82.329L228.936,82.329z M242.467,111.187c-0.028-0.022-0.057-0.044-0.085-0.066
		c-0.595-0.465-1.214-0.898-1.853-1.299c-0.084-0.053-0.166-0.106-0.251-0.157c-1.361-0.829-2.809-1.508-4.318-2.023
		c-1.971-0.673-4.029-1.062-6.11-1.153l0.016-0.002c-0.339,0.029-0.678,0.045-1.019,0.046c-0.333,0-0.661-0.017-0.987-0.043
		c-11.689,0.523-21.006,10.161-21.006,21.979c0,0.023,0.002,0.046,0.002,0.069h-0.002v2.751h43.805
		c0.121-0.938,0.181-1.884,0.181-2.83C250.842,121.452,247.568,115.216,242.467,111.187L242.467,111.187z M248.112,128.536h-38.504
		c0-0.023-0.002-0.046-0.002-0.069c0-10.633,8.62-19.254,19.254-19.254c10.633,0,19.254,8.621,19.254,19.254
		C248.114,128.49,248.112,128.512,248.112,128.536L248.112,128.536z M248.112,128.536"/>
	<path fill="#455D82" d="M228.774,109.172c0.343,0,0.682-0.018,1.019-0.046c0.719-0.059,1.432-0.183,2.129-0.37
		c0.052-0.014,0.104-0.03,0.156-0.044c0.235-0.066,0.468-0.14,0.699-0.22c0.139-0.049,0.276-0.1,0.413-0.154
		c0.078-0.031,0.157-0.06,0.234-0.092c0.132-0.055,0.263-0.115,0.393-0.174c0.162-0.075,0.323-0.153,0.481-0.234
		c0.088-0.045,0.177-0.089,0.264-0.136c0.123-0.067,0.243-0.138,0.364-0.209c0.059-0.035,0.118-0.069,0.176-0.105
		c0.054-0.033,0.106-0.068,0.159-0.102l-0.008-0.002c3.373-2.148,5.613-5.918,5.613-10.213c0-6.007-4.377-10.989-10.114-11.937
		c-0.063-0.01-0.126-0.022-0.19-0.031c-0.133-0.02-0.269-0.036-0.403-0.051c-0.114-0.013-0.229-0.025-0.344-0.034
		c-0.317-0.029-0.635-0.044-0.953-0.046c-0.029,0-0.058-0.002-0.087-0.002c-0.195,0-0.389,0.005-0.583,0.015
		c-0.081,0.004-0.161,0.011-0.241,0.017c-6.294,0.429-11.267,5.667-11.267,12.07c0,6.35,4.892,11.554,11.112,12.058l-0.008,0.001
		C228.115,109.156,228.444,109.171,228.774,109.172L228.774,109.172z M219.433,97.069c0-5.165,4.187-9.352,9.352-9.352
		c5.165,0,9.352,4.187,9.352,9.352c0,5.165-4.187,9.352-9.352,9.352C223.62,106.421,219.433,102.234,219.433,97.069L219.433,97.069z
		 M219.433,97.069"/>
	<g opacity="0.7">
		<g>
			<path opacity="0.7" fill="#AFCDF9" d="M243.181,90.524c-0.613,0-1.209,0.067-1.785,0.19c1.759,1.862,2.839,4.372,2.839,7.135
				c0,3.674-1.908,6.901-4.785,8.75c1.126,0.553,2.392,0.865,3.731,0.865c4.678,0,8.471-3.792,8.471-8.471
				S247.859,90.524,243.181,90.524z"/>
			<path opacity="0.7" fill="#AFCDF9" d="M244.639,107.901c-1.397,0-2.75,0.189-4.037,0.538c6.752,2.624,11.58,9.091,11.802,16.718
				h7.532c0.072-0.605,0.114-1.22,0.114-1.845C260.05,114.801,253.15,107.901,244.639,107.901z"/>
		</g>
		<g>
			<path fill="#455D82" d="M241.702,106.054c-0.662,0.062-1.321,0.161-1.972,0.297c1.197,0.652,2.339,1.4,3.412,2.24
				c0.059-0.001,0.117-0.003,0.176-0.003c8.256,0,14.952,6.675,14.989,14.922h-6.064c0.171,0.909,0.29,1.828,0.359,2.751h8.321
				v-2.751h-0.002c-0.035-9.158-7.064-16.664-16.023-17.461c-0.523,0.085-1.059,0.132-1.606,0.132"/>
			<path fill="#455D82" d="M243.284,105.845c-1.129,0.001-2.242-0.267-3.246-0.782c-0.264,0.371-0.544,0.73-0.839,1.076
				c1.357,0.696,2.647,1.516,3.853,2.45c0.08,0.002,0.158,0.006,0.238,0.006c0.548,0,1.084-0.046,1.607-0.132l-0.002,0
				c4.702-0.77,8.291-4.849,8.291-9.77c0-5.469-4.433-9.902-9.902-9.902c-0.202,0-0.403,0.007-0.602,0.02
				c-0.036,0.002-0.072,0.006-0.108,0.008c-0.176,0.013-0.35,0.03-0.523,0.052l-0.059,0.007c-0.401,0.054-0.799,0.131-1.191,0.233
				c0.467,0.814,0.856,1.671,1.161,2.559c0.436-0.083,0.878-0.126,1.322-0.127c3.95,0,7.151,3.202,7.151,7.151
				C250.436,102.642,247.234,105.845,243.284,105.845L243.284,105.845z M243.284,105.845"/>
		</g>
	</g>
	<g opacity="0.7">
		<g opacity="0.7">
			<g>
				<path fill="#AFCDF9" d="M214.46,90.149c0.613,0,1.209,0.067,1.785,0.19c-1.759,1.862-2.839,4.372-2.839,7.135
					c0,3.674,1.908,6.901,4.785,8.75c-1.126,0.553-2.392,0.865-3.731,0.865c-4.678,0-8.471-3.792-8.471-8.471
					S209.782,90.149,214.46,90.149z"/>
				<path fill="#AFCDF9" d="M213.002,107.526c1.397,0,2.75,0.189,4.037,0.538c-6.752,2.625-11.58,9.091-11.802,16.718h-7.532
					c-0.072-0.605-0.114-1.22-0.114-1.845C197.591,114.426,204.491,107.526,213.002,107.526z"/>
			</g>
		</g>
		<g>
			<path fill="#455D82" d="M215.995,106.054c0.662,0.062,1.321,0.161,1.972,0.297c-1.197,0.652-2.339,1.4-3.412,2.24
				c-0.059-0.001-0.117-0.003-0.176-0.003c-8.256,0-14.952,6.675-14.989,14.922h6.064c-0.171,0.909-0.29,1.828-0.359,2.751h-8.32
				v-2.751h0.002c0.035-9.158,7.064-16.664,16.023-17.461c0.523,0.085,1.059,0.132,1.606,0.132"/>
			<path fill="#455D82" d="M214.413,105.845c-3.95,0-7.151-3.202-7.151-7.152c0-3.95,3.202-7.151,7.151-7.151
				c0.444,0.001,0.886,0.044,1.322,0.127c0.305-0.888,0.694-1.745,1.161-2.559c-0.392-0.101-0.789-0.179-1.191-0.233l-0.059-0.007
				c-0.173-0.022-0.348-0.039-0.523-0.052c-0.036-0.003-0.072-0.006-0.108-0.008c-0.199-0.012-0.399-0.02-0.602-0.02
				c-5.469,0-9.902,4.433-9.902,9.902c0,4.92,3.589,9,8.291,9.77l-0.002,0c0.523,0.086,1.059,0.132,1.607,0.132
				c0.08,0,0.159-0.004,0.238-0.006c1.206-0.933,2.496-1.753,3.853-2.45c-0.296-0.346-0.576-0.705-0.839-1.076
				C216.654,105.578,215.542,105.846,214.413,105.845L214.413,105.845z M214.413,105.845"/>
		</g>
	</g>
	<circle fill="#FFFFFF" stroke="#455D82" stroke-width="3" stroke-miterlimit="10" cx="194.312" cy="213.212" r="44.275"/>
	<g>
		<circle opacity="0.18" fill="#2C97E8" cx="196.414" cy="217.425" r="18.436"/>
		<g>
			<path fill="#455D82" d="M194.592,233.284c0.299,0,0.603-0.018,0.91-0.054c2.938-0.353,5.432-2.406,6.353-5.236
				c0.07-0.212-0.031-0.438-0.234-0.532c-0.2-0.093-0.443-0.012-0.556,0.177c-0.011,0.018-1.178,1.903-5.722,2.517
				c-0.68,0.091-1.342,0.139-1.969,0.139c-3.184-0.002-4.602-1.202-4.616-1.213c-0.16-0.142-0.404-0.146-0.569-0.007
				c-0.166,0.139-0.204,0.38-0.091,0.564C189.484,231.887,191.971,233.284,194.592,233.284L194.592,233.284z M219.025,205.123
				c-0.04,0-0.077,0.007-0.115,0.007c-2.662-11.527-12.836-20.126-25.033-20.126c-12.533,0-22.94,9.074-25.246,21.077
				c-2.243,0.404-3.95,2.375-3.95,4.759v9.541c0,2.674,2.145,4.843,4.792,4.843c1.494,0,2.812-0.705,3.689-1.788
				c2.119,5.605,6.433,10.124,11.893,12.508c0.013-0.028,0.116-0.229,0.24-0.39c0.086-0.111,0.183-0.202,0.265-0.202
				c0.086,0,0.164,0.031,0.231,0.078c-1.264-0.941-5.827-5.776-6.816-12.524c-0.434-2.97,1.791-5.886,4.382-6.368
				c4.159-0.775,8.297-1.657,12.457-2.417c2.644-0.482,4.451-1.932,5.556-4.348c0.259-0.564,0.632-1.706,0.804-3.352
				c0.045-0.245,0.246-0.433,0.504-0.433c0.172,0,0.318,0.088,0.414,0.214l0.115-0.071c1.639,2.38,4.891,7.65,5.358,13.208
				c0.536,6.354,0.237,10.705-4.626,15.157c-0.006,0.006-0.013,0.013-0.02,0.019c-0.068,0.072-0.108,0.168-0.108,0.272
				c0,0.137,0.073,0.254,0.179,0.325c0.04,0.017,0.08,0.039,0.121,0.055c0.033,0.007,0.064,0.018,0.096,0.018
				c0.033,0,0.062-0.011,0.092-0.018c0.069-0.037,0.135-0.079,0.202-0.115c4.918-2.709,8.691-7.234,10.434-12.676
				c0.706,1.048,1.81,1.803,3.094,2.066c-2.059,9.364-10.41,15.224-20.757,16.114c-0.62-1.538-2.146-2.631-3.939-2.631
				c-2.341,0-4.24,1.855-4.24,4.14c0,2.285,1.898,4.137,4.24,4.137c1.888,0,3.468-1.213,4.017-2.879
				c11.977-0.974,21.578-8.093,23.582-19.154c1.77-0.74,3.014-2.477,3.014-4.505v-9.654
				C223.945,207.311,221.742,205.123,219.025,205.123L219.025,205.123z M214.606,207.896c-3.124-8.461-11.218-14.506-20.74-14.506
				c-9.483,0-17.548,5.993-20.701,14.4c-0.157-0.192-0.341-0.356-0.521-0.522c1.785-10.245,10.602-18.034,21.233-18.034
				c10.58,0,19.369,7.713,21.213,17.886C214.907,207.364,214.74,207.62,214.606,207.896L214.606,207.896z M185.055,235.943
				L185.055,235.943C185.052,235.948,185.052,235.949,185.055,235.943L185.055,235.943z M185.055,235.943"/>
		</g>
	</g>
	<circle fill="none" stroke="#455D82" stroke-width="3" stroke-miterlimit="10" cx="83.863" cy="213.212" r="44.275"/>
	<g>
		<path opacity="0.18" fill="#2C97E8" d="M96.875,239.53H74.467c-8.332,0-15.15-6.817-15.15-15.15v0
			c0-8.332,6.817-15.15,15.15-15.15h22.409c8.332,0,15.15,6.817,15.15,15.15v0C112.025,232.713,105.208,239.53,96.875,239.53z"/>
		<path fill="none" stroke="#455D82" stroke-width="3" stroke-miterlimit="10" d="M96.072,238.762H71.653
			c-9.295,0-16.901-7.605-16.901-16.901v0c0-9.295,7.605-16.901,16.901-16.901h24.419c9.295,0,16.901,7.605,16.901,16.901v0
			C112.973,231.156,105.367,238.762,96.072,238.762z"/>
		<path fill="#FBFBFB" d="M76.691,219.664h-3.553v-3.553c0-1.208-0.988-2.197-2.197-2.197c-1.208,0-2.197,0.988-2.197,2.197v3.553
			h-3.553c-1.208,0-2.197,0.988-2.197,2.197c0,1.208,0.988,2.197,2.197,2.197h3.553v3.553c0,1.208,0.988,2.197,2.197,2.197
			c1.208,0,2.197-0.989,2.197-2.197v-3.553h3.553c1.208,0,2.197-0.989,2.197-2.197C78.888,220.653,77.899,219.664,76.691,219.664z"
			/>
		<path fill="#455D82" d="M77.366,220.082h-3.553v-3.553c0-1.208-0.988-2.197-2.197-2.197s-2.197,0.988-2.197,2.197v3.553h-3.553
			c-1.208,0-2.197,0.988-2.197,2.197c0,1.208,0.988,2.197,2.197,2.197h3.553v3.553c0,1.208,0.988,2.197,2.197,2.197
			s2.197-0.989,2.197-2.197v-3.553h3.553c1.208,0,2.197-0.989,2.197-2.197C79.563,221.071,78.574,220.082,77.366,220.082z"/>
		<g>
			<circle fill="#FBFBFB" cx="97.449" cy="216.208" r="2.423"/>
			<circle fill="#FBFBFB" cx="91.699" cy="221.958" r="2.423"/>
			<circle fill="#FBFBFB" cx="97.449" cy="227.514" r="2.423"/>
			<circle fill="#FBFBFB" cx="103.178" cy="221.958" r="2.423"/>
		</g>
		<g>
			<circle fill="#455D82" cx="98.124" cy="216.305" r="2.423"/>
			<circle fill="#455D82" cx="92.374" cy="222.055" r="2.423"/>
			<circle fill="#455D82" cx="98.124" cy="227.611" r="2.423"/>
			<circle fill="#455D82" cx="103.853" cy="222.055" r="2.423"/>
		</g>
		<g>
			<path fill="#FFFFFF" stroke="#455D82" stroke-width="3" stroke-miterlimit="10" d="M98.075,184.06v3.446
				c0,2.724-2.229,4.953-4.953,4.953h-4.996"/>
			<path fill="#FFFFFF" stroke="#455D82" stroke-width="3" stroke-miterlimit="10" d="M82.799,200.857v-3.446
				c0-2.724,2.229-4.953,4.953-4.953h4.996"/>
		</g>
	</g>
	<polygon fill="#63D18C" points="43.515,109.839 43.515,119.699 51.359,114.761 	"/>
	<path fill="#455D82" d="M42.776,122.157c-0.001,0.356,0.192,0.684,0.503,0.856c0.311,0.173,0.692,0.163,0.993-0.027l11.823-7.389
		c0.286-0.18,0.458-0.49,0.458-0.829s-0.172-0.649-0.459-0.829l-11.821-7.389c-0.159-0.099-0.34-0.149-0.521-0.149
		c-0.163,0-0.326,0.041-0.474,0.122c-0.311,0.172-0.504,0.5-0.503,0.854V122.157z M44.731,109.144l8.998,5.625l-8.998,5.625V109.144
		z"/>
	<polygon opacity="0.18" fill="#2C97E8" points="167.204,39.59 147.786,39.657 147.786,50.357 135.485,50.357 135.453,61.524 
		154.64,61.524 160.452,64.586 163.453,65.586 164.203,61.69 167.488,60.815 	"/>
	<path fill="#455D82" d="M167.288,38.554h-19.46v1.784h19.398v20.398h-3.543c-0.238,0-0.463,0.093-0.632,0.262
		c-0.165,0.166-0.261,0.396-0.261,0.63v2.987l-7.582-3.786c-0.122-0.061-0.26-0.093-0.397-0.093h-21.289V50.399h-1.784v10.399
		c0.001,0.95,0.774,1.723,1.724,1.724l21.218,0.04l8.605,4.296c0.336,0.168,0.764,0.098,1.028-0.167
		c0.167-0.166,0.262-0.396,0.262-0.631v-3.538h2.713c0.949-0.001,1.723-0.774,1.724-1.724V40.278
		C169.01,39.328,168.237,38.555,167.288,38.554z"/>
	<path fill="#455D82" d="M122.789,51.133h24.101c0.485,0,0.96-0.197,1.303-0.54c0.349-0.348,0.54-0.811,0.54-1.303V25.84
		c0-0.492-0.191-0.955-0.54-1.303c-0.343-0.343-0.817-0.54-1.303-0.54h-38.658c-1.016,0-1.843,0.827-1.843,1.842V49.29
		c0,0.492,0.192,0.955,0.541,1.303c0.342,0.343,0.816,0.54,1.302,0.54h3.227v4.169c0,0.63,0.725,1.079,1.293,0.799L122.789,51.133z
		 M108.173,49.348V25.782h38.773v23.567H122.49c-0.138,0-0.276,0.033-0.398,0.094l-8.85,4.418v-3.62
		c0-0.235-0.096-0.465-0.262-0.631c-0.166-0.167-0.396-0.262-0.63-0.262H108.173z"/>
	<path fill="#FBFBFB" d="M119.957,38.822h-5.073c-0.7,0-1.267-0.567-1.267-1.267c0-0.7,0.567-1.267,1.267-1.267h5.073
		c0.7,0,1.267,0.567,1.267,1.267C121.224,38.255,120.657,38.822,119.957,38.822L119.957,38.822z M130.096,38.822h-5.074
		c-0.7,0-1.267-0.567-1.267-1.267c0-0.7,0.567-1.267,1.267-1.267h5.069c0.7,0,1.267,0.567,1.267,1.267
		c0,0.7-0.567,1.267-1.267,1.267H130.096z M140.236,38.822h-5.073c-0.7,0-1.267-0.567-1.267-1.267c0-0.7,0.567-1.267,1.267-1.267
		h5.073c0.7,0,1.267,0.567,1.267,1.267C141.504,38.255,140.936,38.822,140.236,38.822L140.236,38.822z M140.236,38.822"/>
	<path fill="#455D82" d="M120.921,39.698h-5.073c-0.7,0-1.267-0.567-1.267-1.267c0-0.7,0.567-1.267,1.267-1.267h5.073
		c0.7,0,1.267,0.567,1.267,1.267C122.188,39.131,121.621,39.698,120.921,39.698L120.921,39.698z M131.061,39.698h-5.074
		c-0.7,0-1.267-0.567-1.267-1.267c0-0.7,0.567-1.267,1.267-1.267h5.069c0.7,0,1.267,0.567,1.267,1.267
		c0,0.7-0.567,1.267-1.267,1.267H131.061z M141.2,39.698h-5.073c-0.7,0-1.267-0.567-1.267-1.267c0-0.7,0.567-1.267,1.267-1.267
		h5.073c0.7,0,1.267,0.567,1.267,1.267C142.468,39.131,141.9,39.698,141.2,39.698L141.2,39.698z M141.2,39.698"/>
</g>
</svg>
